<svg width="20" height="20" viewBox="0 0 20 20" fill="none" xmlns="http://www.w3.org/2000/svg">
<path d="M9.99935 1.66699C8.905 1.66699 7.82137 1.88254 6.81032 2.30133C5.79927 2.72012 4.88061 3.33395 4.10679 4.10777C2.54399 5.67057 1.66602 7.79019 1.66602 10.0003C1.66602 12.2105 2.54399 14.3301 4.10679 15.8929C4.88061 16.6667 5.79927 17.2805 6.81032 17.6993C7.82137 18.1181 8.905 18.3337 9.99935 18.3337C12.2095 18.3337 14.3291 17.4557 15.8919 15.8929C17.4547 14.3301 18.3327 12.2105 18.3327 10.0003C18.3327 8.90598 18.1171 7.82234 17.6983 6.8113C17.2796 5.80025 16.6657 4.88159 15.8919 4.10777C15.1181 3.33395 14.1994 2.72012 13.1884 2.30133C12.1773 1.88254 11.0937 1.66699 9.99935 1.66699ZM5.89102 15.2337C6.24935 14.4837 8.43268 13.7503 9.99935 13.7503C11.566 13.7503 13.7493 14.4837 14.1077 15.2337C12.9403 16.1633 11.4917 16.6687 9.99935 16.667C8.44935 16.667 7.02435 16.1337 5.89102 15.2337ZM15.2993 14.0253C14.1077 12.5753 11.216 12.0837 9.99935 12.0837C8.78268 12.0837 5.89102 12.5753 4.69935 14.0253C3.81295 12.8708 3.33253 11.4559 3.33268 10.0003C3.33268 6.32533 6.32435 3.33366 9.99935 3.33366C13.6743 3.33366 16.666 6.32533 16.666 10.0003C16.666 11.517 16.1494 12.917 15.2993 14.0253ZM9.99935 5.00033C8.38268 5.00033 7.08268 6.30033 7.08268 7.91699C7.08268 9.53366 8.38268 10.8337 9.99935 10.8337C11.616 10.8337 12.916 9.53366 12.916 7.91699C12.916 6.30033 11.616 5.00033 9.99935 5.00033ZM9.99935 9.16699C9.66783 9.16699 9.34989 9.0353 9.11547 8.80088C8.88105 8.56646 8.74935 8.24851 8.74935 7.91699C8.74935 7.58547 8.88105 7.26753 9.11547 7.03311C9.34989 6.79869 9.66783 6.66699 9.99935 6.66699C10.3309 6.66699 10.6488 6.79869 10.8832 7.03311C11.1177 7.26753 11.2493 7.58547 11.2493 7.91699C11.2493 8.24851 11.1177 8.56646 10.8832 8.80088C10.6488 9.0353 10.3309 9.16699 9.99935 9.16699Z" fill="black"/>
</svg>
