<svg width="15" height="15" viewBox="0 0 15 15" fill="none" xmlns="http://www.w3.org/2000/svg">
    <path d="M4.95078 5.3998C4.95078 5.28046 4.99819 5.166 5.08258 5.08161C5.16697 4.99722 5.28143 4.9498 5.40078 4.9498H9.00078C9.12013 4.9498 9.23459 4.99722 9.31898 5.08161C9.40337 5.166 9.45078 5.28046 9.45078 5.3998C9.45078 5.51915 9.40337 5.63361 9.31898 5.718C9.23459 5.80239 9.12013 5.8498 9.00078 5.8498H5.40078C5.28143 5.8498 5.16697 5.80239 5.08258 5.718C4.99819 5.63361 4.95078 5.51915 4.95078 5.3998ZM5.40078 7.6498H9.00078C9.12013 7.6498 9.23459 7.60239 9.31898 7.518C9.40337 7.43361 9.45078 7.31915 9.45078 7.1998C9.45078 7.08046 9.40337 6.966 9.31898 6.88161C9.23459 6.79721 9.12013 6.7498 9.00078 6.7498H5.40078C5.28143 6.7498 5.16697 6.79721 5.08258 6.88161C4.99819 6.966 4.95078 7.08046 4.95078 7.1998C4.95078 7.31915 4.99819 7.43361 5.08258 7.518C5.16697 7.60239 5.28143 7.6498 5.40078 7.6498ZM7.20078 8.5498H5.40078C5.28143 8.5498 5.16697 8.59721 5.08258 8.68161C4.99819 8.766 4.95078 8.88046 4.95078 8.9998C4.95078 9.11915 4.99819 9.23361 5.08258 9.318C5.16697 9.40239 5.28143 9.4498 5.40078 9.4498H7.20078C7.32013 9.4498 7.43459 9.40239 7.51898 9.318C7.60337 9.23361 7.65078 9.11915 7.65078 8.9998C7.65078 8.88046 7.60337 8.766 7.51898 8.68161C7.43459 8.59721 7.32013 8.5498 7.20078 8.5498ZM12.6008 2.6998V8.81362C12.6012 8.93185 12.578 9.04898 12.5327 9.15819C12.4875 9.26741 12.4209 9.36653 12.337 9.4498L9.45078 12.336C9.36751 12.4199 9.26839 12.4865 9.15917 12.5318C9.04996 12.5771 8.93283 12.6002 8.81459 12.5998H2.70078C2.46209 12.5998 2.23317 12.505 2.06439 12.3362C1.8956 12.1674 1.80078 11.9385 1.80078 11.6998V2.6998C1.80078 2.46111 1.8956 2.23219 2.06439 2.06341C2.23317 1.89463 2.46209 1.7998 2.70078 1.7998H11.7008C11.9395 1.7998 12.1684 1.89463 12.3372 2.06341C12.506 2.23219 12.6008 2.46111 12.6008 2.6998ZM2.70078 11.6998H8.55078V8.9998C8.55078 8.88046 8.59819 8.766 8.68258 8.68161C8.76697 8.59721 8.88143 8.5498 9.00078 8.5498H11.7008V2.6998H2.70078V11.6998ZM9.45078 9.4498V11.0642L11.0646 9.4498H9.45078Z" fill="#035C4D"/>
</svg>
