<svg width="16" height="16" viewBox="0 0 16 16" fill="none" xmlns="http://www.w3.org/2000/svg">
<path d="M14.2198 12.6899C14.136 13.0652 13.9285 13.4015 13.6304 13.6445C13.3049 13.9748 12.9169 14.237 12.4891 14.416C12.0613 14.595 11.6022 14.6872 11.1384 14.6872H10.9218C9.94846 14.6344 8.99544 14.388 8.11844 13.9625H8.11178C7.90844 13.8679 7.69844 13.7732 7.49511 13.6579C6.47138 13.0839 5.5324 12.3704 4.70511 11.5379C3.63148 10.5294 2.75045 9.33395 2.10511 8.00988C1.76214 7.28424 1.53323 6.51002 1.42644 5.71455C1.26942 4.88188 1.36388 4.02132 1.69778 3.24255C1.90857 2.8912 2.16603 2.57005 2.46311 2.28788C2.59679 2.13671 2.76022 2.01476 2.94318 1.92964C3.12615 1.84452 3.32471 1.79808 3.52644 1.79321C3.74585 1.81746 3.95824 1.88505 4.15131 1.99205C4.34438 2.09906 4.51427 2.24335 4.65111 2.41655C4.95578 2.74788 5.32778 3.09321 5.63311 3.41188L6.05311 3.82521C6.29978 4.04388 6.45244 4.34921 6.47978 4.67855C6.47978 4.98055 6.36844 5.27188 6.16778 5.49788C6.03782 5.65594 5.89986 5.80725 5.75444 5.95121L5.61911 6.09321C5.54044 6.16655 5.48044 6.25721 5.44311 6.35788C5.40978 6.45699 5.39644 6.55855 5.40311 6.66255C5.51044 6.94988 5.67911 7.21121 5.89644 7.42788C6.23578 7.88788 6.57444 8.28788 6.91978 8.72121C7.54441 9.44636 8.28571 10.0622 9.11311 10.5432C9.19778 10.6052 9.29511 10.6465 9.39844 10.6645C9.48778 10.6712 9.57844 10.6579 9.66244 10.6245C9.89911 10.4852 10.1091 10.3065 10.2851 10.0959C10.5218 9.80604 10.8616 9.61918 11.2331 9.57455C11.5906 9.57946 11.9317 9.72566 12.1818 9.98121C12.3171 10.0959 12.4658 10.2519 12.6084 10.4012L12.8111 10.6105L13.0211 10.8139L13.3804 11.1792C13.5947 11.3694 13.7956 11.5728 13.9831 11.7892C14.1711 12.0492 14.2558 12.3712 14.2198 12.6899ZM11.7891 8.05055C11.6548 8.04916 11.5264 7.99519 11.4314 7.90022C11.3365 7.80525 11.2825 7.67685 11.2811 7.54255C11.2818 7.15906 11.2068 6.77922 11.0604 6.42479C10.9139 6.07036 10.699 5.74833 10.4278 5.47717C10.1567 5.20601 9.83463 4.99105 9.4802 4.84462C9.12577 4.69819 8.74593 4.62318 8.36244 4.62388C8.22771 4.62388 8.0985 4.57036 8.00323 4.47509C7.90796 4.37982 7.85444 4.25061 7.85444 4.11588C7.85444 3.98115 7.90796 3.85194 8.00323 3.75667C8.0985 3.6614 8.22771 3.60788 8.36244 3.60788C8.87937 3.60709 9.39138 3.70832 9.86911 3.90578C10.3468 4.10323 10.7809 4.39303 11.1464 4.75855C11.512 5.12408 11.8018 5.55815 11.9992 6.03588C12.1967 6.51361 12.2979 7.02562 12.2971 7.54255C12.2973 7.60931 12.2843 7.67544 12.2588 7.73716C12.2333 7.79887 12.1959 7.85494 12.1487 7.90215C12.1015 7.94936 12.0454 7.98677 11.9837 8.01224C11.922 8.0377 11.8559 8.05072 11.7891 8.05055Z" fill="#7860E5"/>
<path d="M14.1389 7.81326C14.0047 7.81187 13.8764 7.758 13.7814 7.66317C13.6865 7.56834 13.6324 7.44011 13.6309 7.30592C13.6319 6.65252 13.5041 6.00533 13.2548 5.40137C13.0054 4.79742 12.6395 4.24856 12.1778 3.78619C11.7161 3.32383 11.1678 2.95704 10.5642 2.70681C9.96059 2.45659 9.31359 2.32783 8.66019 2.32792C8.59197 2.3304 8.52396 2.31909 8.46021 2.2947C8.39646 2.2703 8.33828 2.2333 8.28914 2.18591C8.24001 2.13853 8.20093 2.08173 8.17424 2.0189C8.14755 1.95608 8.13379 1.88852 8.13379 1.82026C8.13379 1.752 8.14755 1.68444 8.17424 1.62161C8.20093 1.55878 8.24001 1.50198 8.28914 1.4546C8.33828 1.40721 8.39646 1.37022 8.46021 1.34582C8.52396 1.32142 8.59197 1.31012 8.66019 1.31259C9.44693 1.31259 10.226 1.46766 10.9527 1.76893C11.6795 2.07021 12.3398 2.51178 12.8958 3.0684C13.4518 3.62502 13.8926 4.28577 14.1931 5.01288C14.4935 5.73998 14.6477 6.51918 14.6469 7.30592C14.647 7.37268 14.634 7.43882 14.6085 7.50053C14.5831 7.56225 14.5457 7.61832 14.4985 7.66552C14.4513 7.71273 14.3952 7.75014 14.3335 7.77561C14.2718 7.80108 14.2056 7.81343 14.1389 7.81326Z" fill="#7860E5"/>
</svg>
