<svg width="15" height="15" viewBox="0 0 15 15" fill="none" xmlns="http://www.w3.org/2000/svg">
    <path d="M10.6515 6.7187C10.6513 5.91371 10.3315 5.14174 9.76228 4.57253C9.19306 4.00331 8.42109 3.68346 7.6161 3.6833M12.7323 6.5063C12.7323 5.8685 12.6067 5.23694 12.3626 4.6477C12.1185 4.05846 11.7607 3.52306 11.3097 3.0721C10.8587 2.62113 10.3232 2.26342 9.73395 2.0194C9.14467 1.77538 8.5131 1.64982 7.8753 1.6499M7.5195 12.1301C7.3395 12.0479 7.1601 11.9657 6.9807 11.8679C6.10069 11.3707 5.2923 10.7563 4.5777 10.0415C3.65171 9.16945 2.89089 8.13727 2.3319 6.9947C2.03287 6.38098 1.83086 5.72457 1.7331 5.0489C1.60121 4.36619 1.67686 3.65962 1.9503 3.0203C2.11899 2.74549 2.3227 2.49378 2.5563 2.2715C2.65109 2.16544 2.76634 2.07963 2.89511 2.01921C3.02389 1.95879 3.16355 1.92501 3.3057 1.9199C3.6015 1.9643 3.8697 2.1191 4.0545 2.3537C4.4589 2.8031 4.8927 3.2075 5.3193 3.6341C5.4873 3.7781 5.5923 3.9821 5.6115 4.2029C5.6043 4.3889 5.5329 4.5659 5.4093 4.7045C5.2671 4.8845 5.0949 5.0489 4.9305 5.2205C4.83109 5.31625 4.75504 5.43359 4.70822 5.56343C4.6614 5.69327 4.64507 5.83214 4.6605 5.9693C4.7637 6.2903 4.9407 6.5831 5.1771 6.8231C5.46072 7.21006 5.75791 7.5869 6.0681 7.9529C6.64664 8.62028 7.33195 9.18698 8.0961 9.6299C8.20191 9.70981 8.32701 9.76023 8.45865 9.77604C8.5903 9.79185 8.72378 9.77248 8.8455 9.7199C9.0993 9.5777 9.3255 9.3899 9.5115 9.1661C9.67266 8.97008 9.90331 8.84389 10.1553 8.8139C10.3797 8.8259 10.5909 8.9219 10.7469 9.0839C10.9485 9.2555 11.1207 9.4577 11.3079 9.6449C11.4951 9.8321 11.6451 9.9671 11.8023 10.1387C11.9907 10.3051 12.1677 10.4823 12.3333 10.6703C12.4617 10.8365 12.5235 11.0453 12.5055 11.2541C12.4386 11.5041 12.2946 11.7267 12.0939 11.8901C11.8113 12.184 11.4679 12.4126 11.0878 12.5601C10.7077 12.7075 10.3 12.7703 9.8931 12.7439C9.0693 12.6982 8.26214 12.4896 7.5195 12.1301Z" stroke="#035C4D" stroke-miterlimit="10" stroke-linecap="round"/>
</svg>
