<svg id="SvgjsSvg1001" width="288" height="288" xmlns="http://www.w3.org/2000/svg" version="1.1"
    xmlns:xlink="http://www.w3.org/1999/xlink" xmlns:svgjs="http://svgjs.com/svgjs">
    <defs id="SvgjsDefs1002"></defs>
    <g id="SvgjsG1008">
        <svg xmlns="http://www.w3.org/2000/svg" display="block" preserveAspectRatio="none"
            viewBox="0 0 2048 2048" width="288" height="288">
            <defs>
                <linearGradient id="b" x1="1044.98" x2="998.92" y1="1551.11" y2="1558.51"
                    gradientUnits="userSpaceOnUse">
                    <stop offset="0" stop-color="#0F103A" class="svgShape stopColor0f103a-2"></stop>
                    <stop offset="1" stop-color="#3C3A73" class="svgShape stopColor3c3a73-3"></stop>
                </linearGradient>
                <linearGradient id="a" x1="814.933" x2="844.212" y1="1551.36" y2="1560.49"
                    gradientUnits="userSpaceOnUse">
                    <stop offset="0" stop-color="#74D3D8" class="svgShape stopColor74d3d8-5"></stop>
                    <stop offset="1" stop-color="#A4F4F7" class="svgShape stopColora4f4f7-6"></stop>
                </linearGradient>
            </defs>
            <path fill="#FFF" d="M 0 0 L 2048 0 L 2048 2048 L 0 2048 L 0 0 z"
                class="svgShape colorffffff-7 selectable"></path>
            <path fill="#77DADF"
                d="M 1020.54 1055.04 L 1022.19 1054.5 C 1025.68 1059.53 1029.75 1067.26 1033.87 1071.54 C 1046.52 1084.72 1065.67 1090.3 1083.36 1091.1 C 1082.29 1095.32 1081.04 1099.85 1080.26 1104.1 L 1099.74 1112.42 C 1100.88 1112.99 1106.32 1115.64 1107.07 1116.17 C 1109.09 1117.19 1113.82 1119.41 1115.55 1120.48 C 1141.48 1129.12 1160.68 1146.43 1183.93 1160.35 C 1188.13 1162.87 1203.73 1172.45 1206.15 1176 C 1200.27 1188.28 1194.13 1199.17 1188.15 1211.09 C 1186.13 1214.76 1176.68 1231.27 1175.62 1234.11 L 1170.13 1241.29 C 1165.49 1239.62 1160.59 1237.54 1155.99 1235.69 C 1141.44 1230.21 1127.03 1224.37 1112.77 1218.19 C 1102.82 1241.6 1072.86 1395.1 1067 1400.15 L 1062.74 1400.92 C 1021.92 1401.51 979.179 1394.93 939.413 1386.03 C 929.77 1383.87 899.15 1373.43 892.082 1373.06 L 890.933 1371.22 C 885.662 1369.9 873.356 1364.64 868.007 1362.3 L 858.268 1357.82 C 863.082 1341.01 869.392 1324.61 874.401 1307.8 C 879.928 1291.66 885.336 1275.49 890.626 1259.27 C 894.233 1244.56 902.888 1221.63 907.857 1206.12 C 897.889 1207.27 886.42 1220.1 878.654 1218.88 L 875.712 1216.5 C 867.414 1205.92 861.125 1197.85 853.443 1186.86 C 847.897 1177.8 843.887 1169.6 839.176 1160.13 C 838.825 1159.13 837.084 1155.35 837.903 1154.76 C 863.213 1136.64 899.839 1104.46 929.916 1097.49 C 952.901 1088.68 986.04 1087.86 1010.62 1089.1 C 1012.36 1085.76 1017 1069.75 1018.38 1065.29 L 1020.54 1055.04 z"
                class="svgShape color77dadf-8 selectable"></path>
            <path fill="#5DBDC4"
                d="M 1107.07 1116.17 C 1109.09 1117.19 1113.82 1119.41 1115.55 1120.48 C 1141.48 1129.12 1160.68 1146.43 1183.93 1160.35 C 1188.13 1162.87 1203.73 1172.45 1206.15 1176 C 1200.27 1188.28 1194.13 1199.17 1188.15 1211.09 C 1186.13 1214.76 1176.68 1231.27 1175.62 1234.11 L 1170.13 1241.29 C 1165.49 1239.62 1160.59 1237.54 1155.99 1235.69 C 1141.44 1230.21 1127.03 1224.37 1112.77 1218.19 C 1102.82 1241.6 1072.86 1395.1 1067 1400.15 L 1062.74 1400.92 C 1021.92 1401.51 979.179 1394.93 939.413 1386.03 C 929.77 1383.87 899.15 1373.43 892.082 1373.06 L 890.933 1371.22 C 885.662 1369.9 873.356 1364.64 868.007 1362.3 L 858.268 1357.82 C 863.082 1341.01 869.392 1324.61 874.401 1307.8 C 887.235 1308.4 899.486 1308.96 912.279 1307.27 C 1013.44 1293.87 1082.35 1209.29 1107.07 1116.17 z"
                class="svgShape color5dbdc4-9 selectable"></path>
            <path fill="#035c4d"
                d="M 1115.55 1120.48 C 1141.48 1129.12 1160.68 1146.43 1183.93 1160.35 C 1188.13 1162.87 1203.73 1172.45 1206.15 1176 C 1200.27 1188.28 1194.13 1199.17 1188.15 1211.09 C 1186.13 1214.76 1176.68 1231.27 1175.62 1234.11 L 1170.13 1241.29 C 1165.49 1239.62 1160.59 1237.54 1155.99 1235.69 C 1141.44 1230.21 1127.03 1224.37 1112.77 1218.19 C 1112.52 1215.21 1116.39 1196.45 1117.2 1192.13 C 1121.18 1170.85 1122.25 1156.08 1119.41 1134.8 C 1118.21 1129.22 1117.26 1125.91 1115.55 1120.48 z"
                class="svgShape color37366c-10 selectable"></path>
            <path fill="#035c4d"
                d="M 1119.41 1134.8 L 1121.38 1132.9 C 1130.28 1137.34 1159.5 1225.17 1155.99 1235.69 C 1141.44 1230.21 1127.03 1224.37 1112.77 1218.19 C 1112.52 1215.21 1116.39 1196.45 1117.2 1192.13 C 1121.18 1170.85 1122.25 1156.08 1119.41 1134.8 z"
                class="svgShape color272756-11 selectable"></path>
            <path fill="#035c4d"
                d="M 929.916 1097.49 C 973.234 1105.94 956.21 1164.75 943.773 1191.9 C 941.913 1190.32 940.764 1188.6 938.115 1189.47 C 933.038 1191.13 910.664 1202.98 907.857 1206.12 C 897.889 1207.27 886.42 1220.1 878.654 1218.88 L 875.712 1216.5 C 867.414 1205.92 861.125 1197.85 853.443 1186.86 C 847.897 1177.8 843.887 1169.6 839.176 1160.13 C 838.825 1159.13 837.084 1155.35 837.903 1154.76 C 863.213 1136.64 899.839 1104.46 929.916 1097.49 z"
                class="svgShape color37366c-12 selectable"></path>
            <path fill="#FEAA88"
                d="M 1020.54 1055.04 L 1022.19 1054.5 C 1025.68 1059.53 1029.75 1067.26 1033.87 1071.54 C 1046.52 1084.72 1065.67 1090.3 1083.36 1091.1 C 1082.29 1095.32 1081.04 1099.85 1080.26 1104.1 L 1078.32 1111.47 C 1076.38 1124.61 1072.38 1132.41 1059.3 1137.32 L 1058.16 1137.02 C 1033.56 1138.24 1005.03 1115.04 1010.62 1089.1 C 1012.36 1085.76 1017 1069.75 1018.38 1065.29 L 1020.54 1055.04 z"
                class="svgShape colorfeaa88-13 selectable"></path>
            <path fill="#F47965"
                d="M 1020.54 1055.04 L 1022.19 1054.5 C 1025.68 1059.53 1029.75 1067.26 1033.87 1071.54 C 1046.52 1084.72 1065.67 1090.3 1083.36 1091.1 C 1082.29 1095.32 1081.04 1099.85 1080.26 1104.1 L 1078.32 1111.47 C 1063.61 1113.95 1040.26 1097.92 1030.26 1088.02 C 1025.61 1079.95 1022.36 1073.71 1018.38 1065.29 L 1020.54 1055.04 z"
                class="svgShape colorf47965-14 selectable"></path>
            <path fill="#FC997F"
                d="M 1030.26 1088.02 C 1040.26 1097.92 1063.61 1113.95 1078.32 1111.47 C 1076.38 1124.61 1072.38 1132.41 1059.3 1137.32 L 1058.16 1137.02 C 1044.92 1123.71 1033.32 1106.98 1030.26 1088.02 z"
                class="svgShape colorfc997f-15 selectable"></path>
            <path fill="#035c4d"
                d="M 907.857 1206.12 C 910.664 1202.98 933.038 1191.13 938.115 1189.47 C 940.764 1188.6 941.913 1190.32 943.773 1191.9 C 932.947 1214.98 914.466 1247.63 890.626 1259.27 C 894.233 1244.56 902.888 1221.63 907.857 1206.12 z"
                class="svgShape color272756-16 selectable"></path>
            <path fill="#5DBDC4"
                d="M 1080.26 1104.1 L 1099.74 1112.42 C 1094 1129.23 1078.13 1145.06 1059.3 1137.32 C 1072.38 1132.41 1076.38 1124.61 1078.32 1111.47 L 1080.26 1104.1 z"
                class="svgShape color5dbdc4-17 selectable"></path>
            <path fill="#37366C"
                d="M 868.007 1362.3 C 873.356 1364.64 885.662 1369.9 890.933 1371.22 L 892.082 1373.06 C 899.15 1373.43 929.77 1383.87 939.413 1386.03 C 979.179 1394.93 1021.92 1401.51 1062.74 1400.92 C 1065.6 1408.57 1068.32 1416.28 1070.9 1424.03 C 1081.02 1454.66 1090.7 1485.43 1099.93 1516.33 C 1105.21 1533.86 1112.55 1557.62 1115.64 1575.28 C 1117.18 1584.04 1117.82 1621.53 1116.45 1630.8 L 1114.4 1697.41 C 1114.02 1708.84 1112.95 1725.38 1113.34 1736.37 C 1115.58 1740.83 1115.66 1757.99 1113.4 1762.49 C 1110.75 1762.87 1108.48 1763.15 1105.81 1763.4 L 1051.06 1765.16 C 1049.24 1765.2 1047.26 1765.14 1045.43 1765.12 C 1040.8 1760.14 1042.15 1747.39 1042.05 1739.95 C 1041.89 1721 1039.55 1695.25 1038.56 1675.74 C 1037.16 1669.98 1037.05 1649.47 1036.26 1642.46 C 1034.87 1630.28 1035.25 1600.72 1031.59 1590.33 C 1027.39 1578.42 1015.61 1556.26 1009.5 1544.06 L 988.55 1503.89 C 981.102 1488.94 973.697 1473.71 965.612 1459.12 L 926.563 1545.45 C 918.282 1563.96 906.934 1591.85 897.563 1608.55 C 881.296 1637.54 861.269 1668.53 843.45 1696.79 C 835.989 1709.28 828.418 1721.7 820.74 1734.06 C 816.677 1740.58 809.42 1751.53 806.444 1757.93 C 798.815 1755.82 769.382 1741.31 760.514 1737.08 C 759.359 1737.02 757.611 1736.41 756.405 1736.07 C 753.033 1733.12 746.887 1731.86 742.329 1728.23 C 753.826 1704.29 765.641 1680.51 777.771 1656.9 C 786.433 1639.93 795.198 1623.01 804.067 1606.15 C 807.217 1600.11 817.074 1581.96 818.746 1576.48 C 825.375 1554.72 829.867 1529.22 834.906 1506.79 C 845.339 1458.49 856.373 1410.32 868.007 1362.3 z"
                class="svgShape color37366c-18 selectable"></path>
            <path fill="#37366C"
                d="M 868.007 1362.3 C 873.356 1364.64 885.662 1369.9 890.933 1371.22 L 892.082 1373.06 L 892.626 1376.95 C 880.167 1422.61 868.339 1468.44 857.144 1514.42 C 853.113 1530.46 843.41 1573.71 837.657 1587.69 C 827.142 1613.23 807.359 1648.42 794.308 1674 C 812.049 1689.12 824.026 1689.09 843.45 1696.79 C 835.989 1709.28 828.418 1721.7 820.74 1734.06 C 816.677 1740.58 809.42 1751.53 806.444 1757.93 C 798.815 1755.82 769.382 1741.31 760.514 1737.08 C 759.359 1737.02 757.611 1736.41 756.405 1736.07 C 753.033 1733.12 746.887 1731.86 742.329 1728.23 C 753.826 1704.29 765.641 1680.51 777.771 1656.9 C 786.433 1639.93 795.198 1623.01 804.067 1606.15 C 807.217 1600.11 817.074 1581.96 818.746 1576.48 C 825.375 1554.72 829.867 1529.22 834.906 1506.79 C 845.339 1458.49 856.373 1410.32 868.007 1362.3 z"
                class="svgShape color37366c-19 selectable"></path>
            <path fill="#272756"
                d="M 794.308 1674 C 812.049 1689.12 824.026 1689.09 843.45 1696.79 C 835.989 1709.28 828.418 1721.7 820.74 1734.06 C 816.677 1740.58 809.42 1751.53 806.444 1757.93 C 798.815 1755.82 769.382 1741.31 760.514 1737.08 C 769.797 1722.64 785.774 1690.11 794.308 1674 z"
                class="svgShape color272756-20 selectable"></path>
            <path fill="url(#a)"
                d="M 890.933 1371.22 L 892.082 1373.06 L 892.626 1376.95 C 880.167 1422.61 868.339 1468.44 857.144 1514.42 C 853.113 1530.46 843.41 1573.71 837.657 1587.69 C 827.142 1613.23 807.359 1648.42 794.308 1674 C 785.774 1690.11 769.797 1722.64 760.514 1737.08 C 759.359 1737.02 757.611 1736.41 756.405 1736.07 C 753.033 1733.12 746.887 1731.86 742.329 1728.23 C 753.826 1704.29 765.641 1680.51 777.771 1656.9 C 782.919 1659.23 788.034 1666.31 790.66 1671.23 C 805.161 1641.4 825.579 1607.51 836.422 1577.01 C 840.562 1565.37 845.935 1539.61 849.307 1526.69 C 858.328 1492.13 866.362 1456.34 875.597 1421.83 C 878.642 1410.45 886.113 1379.93 890.933 1371.22 z"
                class="svgShape colorgradient-21 selectable"></path>
            <path fill="#272756"
                d="M777.771 1656.9C782.919 1659.23 788.034 1666.31 790.66 1671.23 780.453 1690.33 765.244 1716.87 756.405 1736.07 753.033 1733.12 746.887 1731.86 742.329 1728.23 753.826 1704.29 765.641 1680.51 777.771 1656.9zM1055.21 1625.65C1057.01 1638.96 1057.16 1655.73 1058.24 1669.6 1071.23 1663.76 1078.27 1660.07 1089.85 1651.86 1097.26 1646.62 1109.63 1633.43 1116.45 1630.8L1114.4 1697.41C1114.02 1708.84 1112.95 1725.38 1113.34 1736.37 1115.58 1740.83 1115.66 1757.99 1113.4 1762.49 1110.75 1762.87 1108.48 1763.15 1105.81 1763.4L1051.06 1765.16C1049.24 1765.2 1047.26 1765.14 1045.43 1765.12 1040.8 1760.14 1042.15 1747.39 1042.05 1739.95 1041.89 1721 1039.55 1695.25 1038.56 1675.74L1039.49 1673.56C1044.73 1672.4 1050.05 1672.09 1055.41 1671.61 1054.62 1658.37 1053.94 1645.13 1053.39 1631.88L1053.88 1632.19 1054.85 1631.67 1055.21 1625.65z"
                class="svgShape color272756-22 selectable"></path>
            <path fill="#5DBDC4"
                d="M 1113.34 1736.37 C 1115.58 1740.83 1115.66 1757.99 1113.4 1762.49 C 1110.75 1762.87 1108.48 1763.15 1105.81 1763.4 L 1051.06 1765.16 C 1049.24 1765.2 1047.26 1765.14 1045.43 1765.12 C 1040.8 1760.14 1042.15 1747.39 1042.05 1739.95 L 1057.79 1739.06 L 1060.29 1739.12 C 1070.77 1738.86 1105.35 1738.59 1113.34 1736.37 z"
                class="svgShape color5dbdc4-23 selectable"></path>
            <path fill="#37366C"
                d="M1057.79 1739.06C1056.85 1722.78 1054.48 1689.14 1055.12 1673.94 1057.62 1684.98 1060.25 1726.74 1060.29 1739.12L1057.79 1739.06zM1009.5 1544.06C1019.35 1536.83 1013.89 1527.27 1016.92 1520.53 1022.85 1523.51 1044.19 1579.22 1048.66 1589.31 1052.52 1598.01 1053.05 1621.29 1053.39 1631.88 1053.94 1645.13 1054.62 1658.37 1055.41 1671.61 1050.05 1672.09 1044.73 1672.4 1039.49 1673.56L1038.56 1675.74C1037.16 1669.98 1037.05 1649.47 1036.26 1642.46 1034.87 1630.28 1035.25 1600.72 1031.59 1590.33 1027.39 1578.42 1015.61 1556.26 1009.5 1544.06z"
                class="svgShape color37366c-24 selectable"></path>
            <path fill="#272756"
                d="M 892.082 1373.06 C 899.15 1373.43 929.77 1383.87 939.413 1386.03 C 979.179 1394.93 1021.92 1401.51 1062.74 1400.92 C 1065.6 1408.57 1068.32 1416.28 1070.9 1424.03 C 1024.2 1421.2 964.367 1404.1 920.493 1388.38 C 914.064 1386.08 898.099 1380.15 892.626 1376.95 L 892.082 1373.06 z"
                class="svgShape color272756-25 selectable"></path>
            <path fill="url(#b)"
                d="M 988.55 1503.89 C 995.503 1491.54 995.154 1487.38 999.691 1476 L 1001.74 1475.57 C 1019.04 1507.7 1031.26 1547.27 1047.73 1580.31 C 1054.09 1593.06 1054.84 1611.57 1055.21 1625.65 L 1054.85 1631.67 L 1053.88 1632.19 L 1053.39 1631.88 C 1053.05 1621.29 1052.52 1598.01 1048.66 1589.31 C 1044.19 1579.22 1022.85 1523.51 1016.92 1520.53 C 1013.89 1527.27 1019.35 1536.83 1009.5 1544.06 L 988.55 1503.89 z"
                class="svgShape colorgradient-26 selectable"></path>
            <path fill="#272756"
                d="M 965.612 1459.12 C 965.907 1457.47 965.902 1455.2 967.015 1454.78 C 975.361 1451.62 994.367 1450.68 1003.02 1449.65 C 1002.76 1455.32 1000.19 1472.73 1001.74 1475.57 L 999.691 1476 C 995.154 1487.38 995.503 1491.54 988.55 1503.89 C 981.102 1488.94 973.697 1473.71 965.612 1459.12 z"
                class="svgShape color272756-27 selectable"></path>
            <path fill="#FC8F32"
                d="M 1105.86 472.757 C 1180.91 465.739 1247.46 520.838 1254.57 595.879 C 1261.68 670.92 1206.67 737.541 1131.64 744.749 C 1056.47 751.971 989.703 696.836 982.577 621.66 C 975.452 546.483 1030.67 479.786 1105.86 472.757 z"
                class="svgShape colorfc8f32-28 selectable"></path>
            <path fill="#FFF"
                d="M 1108.96 536.269 C 1196.42 525.182 1211.28 663.434 1129.78 680.79 C 1043.18 693.141 1023.87 552.356 1108.96 536.269 z"
                class="svgShape colorffffff-29 selectable"></path>
            <path fill="#FC8F32"
                d="M 813.151 472.952 C 888.397 466.696 954.393 522.799 960.333 598.07 C 966.273 673.342 909.894 739.101 834.598 744.726 C 759.748 750.317 694.462 694.344 688.557 619.517 C 682.652 544.691 738.35 479.171 813.151 472.952 z"
                class="svgShape colorfc8f32-30 selectable"></path>
            <path fill="#FFF"
                d="M 814.991 536.303 C 903.325 527.648 913.833 661.292 835.926 680.796 C 748.449 694.592 730.359 550.727 814.991 536.303 z"
                class="svgShape colorffffff-31 selectable"></path>
            <path fill="#FC8F32"
                d="M 1454.73 621.156 C 1454.15 576.018 1454.75 530.224 1455.1 485.085 C 1455.21 471.862 1517.92 476.318 1522.21 481.63 C 1523.38 486.618 1523.77 491.594 1523.94 496.699 C 1524.68 518.485 1525.27 730.482 1523.47 734.153 C 1521.61 737.933 1518.4 738.803 1514.67 739.921 C 1505.21 739.974 1465.14 742.22 1459.84 735.649 C 1423.57 690.674 1392.83 640.967 1357.91 594.832 L 1358.28 684.973 C 1358.35 700.188 1358.72 715.472 1358.04 730.668 C 1358.39 740.57 1344.65 740.337 1337.31 739.901 C 1328.35 739.368 1297.95 742.49 1292.32 736.334 C 1288.84 724.787 1290.2 635.153 1290.18 616.689 L 1290.21 523.25 C 1290.21 512.582 1290.17 502.105 1289.75 491.439 C 1289.43 483.379 1292.07 479.49 1299.59 477.362 C 1314.06 477.153 1336.43 476.399 1350.36 478.358 C 1360.03 485.871 1382.72 521.013 1392.14 533.875 C 1413.17 562.562 1433.4 592.588 1454.73 621.156 z"
                class="svgShape colorfc8f32-32 selectable"></path>
            <path fill="#37366C"
                d="M 1397.05 854.296 C 1434.3 766.719 1495.64 856.25 1511.19 904.502 C 1527.81 956.105 1540.56 1014.37 1519.91 1067.15 C 1506.88 1099.87 1473.19 1100.86 1451.63 1075.8 C 1411.18 1053.63 1367.33 1037.28 1320.35 1040.4 C 1307.16 1040.14 1301.53 1026.51 1297.1 1015.86 L 1296.42 1014.59 C 1290.15 998.202 1287.17 985.157 1286.76 967.741 L 1286.94 967.238 L 1287.11 953.181 L 1287.8 952.355 L 1289.85 942.211 C 1339.63 922.999 1364.62 894.378 1397.05 854.296 z"
                class="svgShape color37366c-33 selectable"></path>
            <path fill="#FC8F32"
                d="M 1289.85 942.211 C 1339.63 922.999 1364.62 894.378 1397.05 854.296 C 1394.08 866.939 1392.19 879.812 1391.4 892.775 C 1391.45 899.094 1391.62 905.411 1391.92 911.723 C 1394.04 949.238 1401.46 979.046 1414.86 1014.01 C 1425.54 1038.64 1434.55 1055.14 1451.63 1075.8 C 1411.18 1053.63 1367.33 1037.28 1320.35 1040.4 C 1307.16 1040.14 1301.53 1026.51 1297.1 1015.86 L 1296.42 1014.59 C 1290.15 998.202 1287.17 985.157 1286.76 967.741 L 1286.94 967.238 L 1287.11 953.181 L 1287.8 952.355 L 1289.85 942.211 z"
                class="svgShape colorfc8f32-34 selectable"></path>
            <path fill="#F4742F"
                d="M 1297.1 1015.86 C 1308.9 1012 1327.22 1011.12 1339.75 1009.46 C 1364.78 1006.14 1390.1 1011.04 1414.86 1014.01 C 1425.54 1038.64 1434.55 1055.14 1451.63 1075.8 C 1411.18 1053.63 1367.33 1037.28 1320.35 1040.4 C 1307.16 1040.14 1301.53 1026.51 1297.1 1015.86 z"
                class="svgShape colorf4742f-35 selectable"></path>
            <path fill="#FEE1B7"
                d="M 1289.85 942.211 C 1339.63 922.999 1364.62 894.378 1397.05 854.296 C 1394.08 866.939 1392.19 879.812 1391.4 892.775 C 1391.45 899.094 1391.62 905.411 1391.92 911.723 C 1354.03 941.755 1336.28 954.945 1286.94 967.238 L 1287.11 953.181 L 1287.8 952.355 L 1289.85 942.211 z"
                class="svgShape colorfee1b7-36 selectable"></path>
            <path fill="#FC8F32"
                d="M 1289.85 942.211 C 1339.63 922.999 1364.62 894.378 1397.05 854.296 C 1394.08 866.939 1392.19 879.812 1391.4 892.775 L 1391.12 889.509 L 1390.07 888.858 C 1365.7 913.254 1342.84 930.23 1310.83 943.903 C 1304.72 946.513 1294.2 951.099 1287.8 952.355 L 1289.85 942.211 z"
                class="svgShape colorfc8f32-37 selectable"></path>
            <path fill="#BEBCEB"
                d="M 1407.92 924.161 C 1405.74 899.503 1405.02 802.16 1458.45 844.263 C 1479.96 861.218 1499.3 907.644 1506.27 934.077 C 1514.93 964.966 1529.55 1062.66 1489.12 1077.71 C 1464.45 1083.09 1436.47 1027.4 1429.71 1008.62 C 1421.78 1002.84 1409.47 938.094 1407.7 925.332 C 1414.54 925.426 1419.45 925.449 1426.25 924.878 C 1419.46 924.203 1414.76 924.161 1407.92 924.161 z"
                class="svgShape colorbebceb-38 selectable"></path>
            <path fill="#272756"
                d="M 1426.25 924.878 C 1436.9 924.853 1447.53 925.643 1458.06 927.243 C 1476.35 931.612 1481.38 961.721 1477.8 977.359 C 1477.06 980.622 1474.07 985.078 1472.03 987.743 C 1460.58 995.382 1442.92 1003.63 1429.71 1008.62 C 1421.78 1002.84 1409.47 938.094 1407.7 925.332 C 1414.54 925.426 1419.45 925.449 1426.25 924.878 z"
                class="svgShape color272756-39 selectable"></path>
            <path fill="#FC8F32"
                d="M 1458.06 927.243 C 1476.35 931.612 1481.38 961.721 1477.8 977.359 C 1477.06 980.622 1474.07 985.078 1472.03 987.743 C 1456.19 984.533 1450.81 960.042 1450.67 946.014 C 1450.58 937.404 1452.1 933.209 1458.06 927.243 z"
                class="svgShape colorfc8f32-40 selectable"></path>
            <path fill="#FFF"
                d="M 1477.86 991.63 C 1490.02 978.032 1496.52 966.704 1501.58 948.978 C 1503 943.971 1503.5 937.918 1506.27 934.077 C 1514.93 964.966 1529.55 1062.66 1489.12 1077.71 C 1496.47 1045.45 1491.03 1021.96 1477.86 991.63 z"
                class="svgShape colorffffff-41 selectable"></path>
            <path fill="#035c4d"
                d="M 717.493 231 C 774.263 222.391 827.26 261.44 835.859 318.211 C 844.458 374.982 805.401 427.973 748.629 436.563 C 691.869 445.151 638.893 406.105 630.296 349.347 C 621.699 292.588 660.736 239.606 717.493 231 z"
                class="svgShape color37366c-42 selectable"></path>
            <path fill="#FFF"
                d="M 731.593 277.407 C 794.567 278.844 804.041 379.235 735.044 389.913 C 667.843 388.971 664.932 283.782 731.593 277.407 z"
                class="svgShape colorffffff-43 selectable"></path>
            <path fill="#FC8F32"
                d="M 553.186 475.374 C 555.62 475.126 558.061 474.964 560.506 474.888 C 593.253 473.906 628.737 480.966 655.361 501.32 C 664.02 507.94 655.772 519.543 652.272 526.001 C 630.234 566.664 626.33 546.73 593.637 534.81 C 582.101 530.604 559.967 526.723 550.408 536.864 C 530.048 559.51 560.984 570.23 578.194 575.619 C 622.241 589.721 667.452 604.024 667.644 658.414 C 667.851 716.954 620.558 742.533 567.532 743.255 C 536.743 743.038 512.513 737.396 486.516 721.177 C 464.996 707.751 455.639 703.001 474.256 680.971 C 479.428 674.85 482.87 667.078 489.255 660.979 C 495.466 653.993 501.814 658.607 509.022 663.701 C 530.345 678.771 570.199 695.784 592.761 674.397 C 602.335 665.321 596.739 650.519 584.867 644.128 C 557.962 629.642 526.063 625.992 501.61 606.709 C 470.442 583.195 466.392 536.262 490.759 506.382 C 506.409 487.192 528.731 478.188 553.186 475.374 z"
                class="svgShape colorfc8f32-44 selectable"></path>
            <path fill="#035c4d"
                d="M971.715 342.97L1003.18 277.22C1007.26 268.594 1020.81 233.506 1030.03 234.176 1040.24 234.918 1070.08 231.346 1077.44 236.844 1080.37 244.797 1079.51 426.652 1077.89 430.284 1076.27 431.988 1074.67 433.124 1072.13 433.102 1029.53 432.737 1027.43 444.278 1028.46 397.494 1028.46 373.456 1028.27 349.418 1027.9 325.383L1003.99 375.478C999.304 385.276 992.63 400.1 986.78 408.859 977.878 409.803 965.945 409.143 956.855 408.735 950.844 400.547 946.095 388.363 941.588 379.004 933.06 361.293 925.178 343.106 915.923 325.752 915.421 359.387 916.597 393.313 915.799 426.961 915.762 428.501 914.872 429.826 914.036 431.038 908.422 434.991 872.182 435.154 867.195 430.04 865.924 417.019 866.431 402.583 866.454 389.339L866.44 326.386 866.291 270.13C866.27 260.512 866.05 250.311 866.51 240.704 866.696 236.813 868.407 236.166 871.085 234.165 880.732 234.036 909.362 231.803 917.262 235.473 925.036 239.085 965.011 328.515 971.715 342.97zM1337.29 346.047C1336.97 321.039 1336.86 296.029 1336.94 271.019 1336.93 261.387 1336.51 250.7 1336.9 241.137 1337.04 237.762 1339.05 236.242 1341.35 234.565 1347.91 233.541 1378.75 232.281 1385.09 236.224 1386.95 238.418 1387.26 248.823 1387.25 251.336 1387.19 309.646 1387.56 367.983 1387 426.277 1386.97 429.23 1385.56 430.923 1383.66 432.961 1373.44 434.135 1353.31 433.235 1342.69 432.858 1332.77 424.672 1322.45 407.042 1314.32 396.059 1297.17 372.864 1280.25 345.402 1262.28 323.177 1261.87 337.507 1264.56 423.642 1261.29 429.114 1259.81 431.593 1256.24 433.02 1253.51 433.385 1246.93 434.263 1217.43 434.568 1213.12 430.659 1211.49 429.182 1211.58 424.941 1211.44 422.77 1210.53 409.314 1211.13 395.511 1211.12 382.009L1211.1 306.509 1211.11 262.2C1211.12 252.785 1209.08 241.24 1215.28 234.177 1223.03 233.991 1254.87 231.764 1259.24 237.216 1268.4 248.636 1277.64 262.71 1286.14 274.833 1303.03 298.685 1320.08 322.423 1337.29 346.047zM1506.34 230.348C1515 229.426 1523.72 229.374 1532.39 230.192 1555.75 232.547 1579.09 241.676 1594.16 260.292 1591.09 266.577 1575.83 290.922 1569.57 293.513 1561.83 292.804 1547.53 282.901 1540.38 280.442 1466.99 255.195 1440.51 363.955 1505.78 387.383 1521.31 392.959 1537.21 387.92 1551.22 380.259L1551.1 358.937C1543.98 358.789 1518.02 362.22 1516.44 354.558 1506.59 306.884 1526.67 317.95 1560.5 317.871 1570.5 317.888 1589.45 315.763 1596.94 321.285 1601.03 330.127 1599.84 399.57 1599.41 413.245 1563.64 440.859 1491.49 446.409 1455.92 416.859 1384.51 357.542 1410.98 243.381 1506.34 230.348zM534.687 230.387C559.577 228.613 582.445 234.193 602.84 248.855 609.427 254.017 616.991 259.326 612.029 268.163 608.514 274.423 594.477 296.258 586.774 294.149 576.248 291.266 565.11 278.733 552.233 277.651 464.905 270.311 484.415 423.92 569.079 381.79 575.619 378.535 581.265 373.518 588.497 371.239 594.198 371.528 600.731 380.22 604.79 384.634 609.678 390.003 622.641 401.52 615.248 409.118 600.176 424.61 579.011 432.161 558.292 435.367 461.094 450.407 407.743 343.045 462.97 268.06 479.29 245.996 506.694 233.608 534.687 230.387z"
                class="svgShape color37366c-45 selectable"></path>
            <path fill="#FEAA88"
                d="M 1002.82 1012.58 C 998.627 995.016 991.341 978.876 1006.04 964.882 C 1019.82 951.771 1036.83 952.26 1052.45 945.831 C 1067.2 939.758 1079.99 921.07 1099.16 922.983 C 1121.22 924.868 1112.43 936.969 1116.37 948.432 C 1117.54 951.845 1129.3 947.043 1135.87 954.11 C 1138.85 964.473 1129.29 975.903 1120.37 980.342 C 1120.98 984.615 1121.54 988.881 1122.32 993.128 C 1124.64 996.78 1125.68 997.033 1124.47 1001.63 C 1123.54 1007.39 1125.74 1021.93 1126.4 1028.93 C 1126.86 1034.33 1127.11 1038.2 1127.1 1043.71 C 1127.21 1057.5 1127.61 1068.12 1117.16 1079.28 C 1109.75 1087.19 1094.12 1091.07 1083.36 1091.1 C 1065.67 1090.3 1046.52 1084.72 1033.87 1071.54 C 1029.75 1067.26 1025.68 1059.53 1022.19 1054.5 L 1020.54 1055.04 L 1019.78 1053.79 C 996.309 1047.64 986.61 1033.3 1002.82 1012.58 z"
                class="svgShape colorfeaa88-46 selectable"></path>
            <path fill="#37366C"
                d="M 1002.82 1012.58 C 998.627 995.016 991.341 978.876 1006.04 964.882 C 1019.82 951.771 1036.83 952.26 1052.45 945.831 C 1067.2 939.758 1079.99 921.07 1099.16 922.983 C 1121.22 924.868 1112.43 936.969 1116.37 948.432 C 1117.54 951.845 1129.3 947.043 1135.87 954.11 C 1138.85 964.473 1129.29 975.903 1120.37 980.342 C 1096.76 975.329 1062.27 978.454 1038.8 983.587 C 1039.63 998.955 1039.09 1004.63 1028.58 1017.01 C 1019.69 1010.86 1013.48 1006.72 1002.82 1012.58 z"
                class="svgShape color37366c-47 selectable"></path>
            <path fill="#FC997F"
                d="M 1127.1 1043.71 C 1117.11 1047.26 1103.58 1043.97 1112.47 1030.99 C 1114.71 1027.7 1122.37 1028.67 1126.4 1028.93 C 1126.86 1034.33 1127.11 1038.2 1127.1 1043.71 z"
                class="svgShape colorfc997f-48 selectable"></path>
            <path fill="#37366C"
                d="M 1124.47 1001.63 C 1118.35 1000.67 1100.93 998.184 1103.4 989.164 C 1109.52 984.971 1116.79 989.95 1122.32 993.128 C 1124.64 996.78 1125.68 997.033 1124.47 1001.63 z"
                class="svgShape color37366c-49 selectable"></path>
            <path fill="#FFF"
                d="M 1075.67 1043.09 C 1085.11 1044.33 1101.27 1043.64 1107.45 1046.87 C 1111.47 1052.58 1106.77 1057.51 1102.82 1062.01 C 1087.25 1070.92 1069.53 1055.83 1075.67 1043.09 z"
                class="svgShape colorffffff-50 selectable"></path>
            <path fill="#F47965"
                d="M 1050.97 1027.25 L 1061.95 1028.46 C 1068.82 1037.4 1068.35 1042.21 1056.83 1045.98 C 1048.89 1045.42 1044.81 1044.55 1041.19 1037.08 C 1041.32 1030.11 1044.8 1028.77 1050.97 1027.25 z"
                class="svgShape colorf47965-51 selectable"></path>
            <path fill="#37366C"
                d="M 1068.81 987.114 C 1073.4 986.764 1073.53 986.305 1076.8 988.244 C 1078.46 991.81 1078.34 990.059 1077.44 993.654 C 1073.21 997.836 1066.13 999.476 1060.24 1001.51 C 1057.03 1002.99 1055.73 1003.57 1052.76 1001.87 C 1051.89 993.926 1063.04 989.515 1068.81 987.114 z"
                class="svgShape color37366c-52 selectable"></path>
            <path fill="#F47965"
                d="M 1009.93 1020.02 C 1016.39 1020.9 1024.22 1023.85 1025.82 1030.88 C 1024.72 1034.3 1024.65 1033.36 1020.33 1035.72 C 1018.2 1037.66 1017.37 1039.2 1015.15 1039.33 C 1013.82 1035.87 1008.7 1023.93 1008.3 1021.6 L 1009.93 1020.02 z"
                class="svgShape colorf47965-53 selectable"></path>
            <path fill="#272756"
                d="M1065.29 1008.23C1076.15 1011.9 1073.74 1022.11 1068.96 1029.64 1058.05 1026.75 1060.12 1015.48 1065.29 1008.23zM1109.74 1007.29C1120.78 1009.31 1120.19 1021.12 1114.54 1028.36 1104.79 1025.82 1106.8 1014.39 1109.74 1007.29z"
                class="svgShape color272756-54 selectable"></path>
            <path fill="#EB4A48"
                d="M 1094.23 1005.78 C 1097.58 1009.73 1096.25 1014.77 1097.97 1018.45 C 1104.37 1032.15 1113.43 1037.08 1091.97 1039.61 C 1091.15 1039.03 1091.6 1039.45 1090.88 1038.12 C 1095.96 1035.5 1100.84 1037.35 1102.15 1030.88 C 1100.64 1027.24 1098.84 1026.47 1095.6 1024.17 C 1094.54 1017.21 1093.58 1012.8 1094.23 1005.78 z"
                class="svgShape coloreb4a48-55 selectable"></path>
            <path fill="#FEAA88"
                d="M 810.436 1374.91 C 809.073 1377.42 805.515 1384.89 805.039 1387.6 C 804.135 1392.74 808.014 1406.57 805.991 1410.98 C 804.947 1411.69 802.809 1413.07 801.68 1412.81 C 791.392 1410.5 773.869 1409.95 765.989 1403.35 C 761.687 1395.38 759.986 1379.07 762.067 1370.01 C 771.089 1327.89 777.659 1284.11 785.076 1241.68 C 793.877 1191.32 799.384 1190.43 839.176 1160.13 C 843.887 1169.6 847.897 1177.8 853.443 1186.86 C 861.125 1197.85 867.414 1205.92 875.712 1216.5 C 866.817 1222.17 858.086 1226.45 848.715 1231.21 C 841.91 1256.92 834.869 1282.56 827.593 1308.13 C 825.979 1317.98 819.538 1338.6 816.674 1348.51 C 822.227 1356.12 830.443 1375.19 832.977 1384.9 C 833.529 1387.02 832.26 1389.75 830.744 1391.55 C 821.77 1393.44 814.126 1381.7 810.436 1374.91 z"
                class="svgShape colorfeaa88-56 selectable"></path>
            <path fill="#F47965"
                d="M853.443 1186.86C861.125 1197.85 867.414 1205.92 875.712 1216.5 866.817 1222.17 858.086 1226.45 848.715 1231.21 841.91 1256.92 834.869 1282.56 827.593 1308.13 825.928 1307.86 826.667 1308.22 825.41 1306.98 834.972 1263.07 836.703 1230.75 853.443 1186.86zM771.937 1384.57C774.33 1386.89 777.016 1402.52 778.217 1407.44 772.132 1403.59 771.899 1391.17 771.937 1384.57zM785.911 1386.59C788.077 1388.81 790.613 1404.23 792.842 1410.55 786.275 1406.1 785.965 1393.85 785.911 1386.59z"
                class="svgShape colorf47965-57 selectable"></path>
            <path fill="#272756"
                d="M 1237.05 959.138 C 1248.16 957.073 1277.15 946.105 1289.85 942.211 L 1287.8 952.355 L 1287.11 953.181 L 1286.94 967.238 L 1286.76 967.741 C 1287.17 985.157 1290.15 998.202 1296.42 1014.59 L 1297.1 1015.86 C 1301.53 1026.51 1307.16 1040.14 1320.35 1040.4 L 1321.39 1045.09 C 1329.5 1046.96 1335.83 1041.33 1334.64 1057.74 C 1338.11 1059.12 1338.71 1059.14 1341.05 1062.15 C 1342.07 1071.16 1337.91 1068.15 1346.51 1077.95 C 1347.3 1081.68 1347.11 1082.48 1346.82 1086.18 L 1347.31 1087.32 C 1349.77 1089.97 1350.17 1090 1351.05 1093.58 C 1350.45 1098.75 1348.34 1099.85 1344.3 1102.52 C 1348.03 1109.07 1352.03 1114.89 1349.33 1122.56 C 1344.47 1136.32 1327.68 1138.96 1315.72 1134.54 L 1310.54 1127.34 L 1300.38 1103.28 C 1297.72 1096.57 1294.86 1090.1 1291.95 1083.49 C 1298.93 1081.41 1305.1 1077.95 1304.19 1069.87 C 1298.41 1061.07 1288.76 1064.8 1280.85 1067.68 C 1278.7 1062.3 1276.11 1053.21 1274.28 1047.45 C 1249.24 1054.24 1238.78 1054.5 1225.8 1030.79 C 1213.66 1033.35 1209.31 1026.88 1205.9 1015.98 C 1202.36 1004.68 1202.12 990.899 1215.28 987.204 C 1216.9 968.983 1219.84 964.621 1237.05 959.138 z"
                class="svgShape color272756-58 selectable"></path>
            <path fill="#37366C"
                d="M 1237.05 959.138 C 1248.16 957.073 1277.15 946.105 1289.85 942.211 L 1287.8 952.355 L 1287.11 953.181 L 1286.94 967.238 L 1286.76 967.741 C 1287.17 985.157 1290.15 998.202 1296.42 1014.59 C 1280.03 1017.94 1262.74 1021.22 1246.56 1025.16 C 1251.14 1035.66 1254.49 1038.1 1257.76 1044.56 L 1256.61 1045.69 C 1251.29 1043.59 1246.56 1031.31 1243.12 1025.53 C 1237.35 1027.47 1230.24 1027.99 1225.87 1030.19 L 1225.8 1030.79 C 1213.66 1033.35 1209.31 1026.88 1205.9 1015.98 C 1202.36 1004.68 1202.12 990.899 1215.28 987.204 C 1216.9 968.983 1219.84 964.621 1237.05 959.138 z"
                class="svgShape color37366c-59 selectable"></path>
            <path fill="#37366C"
                d="M 1237.05 959.138 L 1238.63 960.646 C 1238.61 964.857 1238.2 966.307 1237.32 970.497 L 1236.98 980.302 C 1237.01 992.946 1241.18 1013.64 1246.56 1025.16 C 1251.14 1035.66 1254.49 1038.1 1257.76 1044.56 L 1256.61 1045.69 C 1251.29 1043.59 1246.56 1031.31 1243.12 1025.53 C 1237.35 1027.47 1230.24 1027.99 1225.87 1030.19 L 1225.8 1030.79 C 1213.66 1033.35 1209.31 1026.88 1205.9 1015.98 C 1202.36 1004.68 1202.12 990.899 1215.28 987.204 C 1216.9 968.983 1219.84 964.621 1237.05 959.138 z"
                class="svgShape color37366c-60 selectable"></path>
            <path fill="#77DADF"
                d="M 1215.28 987.204 C 1216.44 999.497 1219.1 1019.39 1225.87 1030.19 L 1225.8 1030.79 C 1213.66 1033.35 1209.31 1026.88 1205.9 1015.98 C 1202.36 1004.68 1202.12 990.899 1215.28 987.204 z"
                class="svgShape color77dadf-61 selectable"></path>
            <path fill="#191847"
                d="M 1237.05 959.138 L 1238.63 960.646 C 1238.61 964.857 1238.2 966.307 1237.32 970.497 L 1236.98 980.302 C 1237.01 992.946 1241.18 1013.64 1246.56 1025.16 C 1251.14 1035.66 1254.49 1038.1 1257.76 1044.56 L 1256.61 1045.69 C 1251.29 1043.59 1246.56 1031.31 1243.12 1025.53 C 1236.56 1006.29 1236.8 999.487 1232.85 980.709 L 1232.95 972.811 C 1234.33 970.839 1236.1 962.35 1237.05 959.138 z"
                class="svgShape color191847-62 selectable"></path>
            <path fill="#BEBCEB"
                d="M1232.85 980.709C1228.58 982.487 1226.33 983.444 1222.28 982.613L1221.14 980.7C1222.28 974.48 1227.62 973.547 1232.95 972.811L1232.85 980.709zM1237.05 959.138C1248.16 957.073 1277.15 946.105 1289.85 942.211L1287.8 952.355 1287.11 953.181 1286.94 967.238 1286.76 967.741C1274.33 969.685 1250.62 977.076 1236.98 980.302L1237.32 970.497C1238.2 966.307 1238.61 964.857 1238.63 960.646L1237.05 959.138z"
                class="svgShape colorbebceb-63 selectable"></path>
            <path fill="#37366C"
                d="M 1237.05 959.138 C 1248.16 957.073 1277.15 946.105 1289.85 942.211 L 1287.8 952.355 L 1287.11 953.181 C 1270.13 959.667 1253.95 964.426 1237.32 970.497 C 1238.2 966.307 1238.61 964.857 1238.63 960.646 L 1237.05 959.138 z"
                class="svgShape color37366c-64 selectable"></path>
            <path fill="#FC997F"
                d="M 1321.39 1045.09 C 1329.5 1046.96 1335.83 1041.33 1334.64 1057.74 C 1338.11 1059.12 1338.71 1059.14 1341.05 1062.15 C 1342.07 1071.16 1337.91 1068.15 1346.51 1077.95 C 1347.3 1081.68 1347.11 1082.48 1346.82 1086.18 C 1339.65 1087.05 1334.74 1089.46 1328.41 1092.9 C 1324.93 1093.41 1320.81 1093.09 1318.22 1090.5 C 1316.98 1087.38 1317.98 1085.27 1318.82 1081.93 L 1319.21 1080.44 C 1314.36 1077.96 1312.88 1077.53 1311.01 1072.66 C 1311.2 1069.13 1311.67 1069.04 1313.82 1066.26 C 1309.14 1063.8 1306.03 1061.66 1306.03 1056.22 C 1309.81 1049.48 1314.37 1049.46 1320.08 1045.91 L 1321.39 1045.09 z"
                class="svgShape colorfc997f-65 selectable"></path>
            <path fill="#F47965"
                d="M 1337.93 1071.04 L 1338.5 1071.96 C 1334.87 1074.8 1328.84 1077.07 1324.46 1078.98 L 1323.61 1078.44 C 1324.68 1076.72 1335.27 1072.28 1337.93 1071.04 z"
                class="svgShape colorf47965-66 selectable"></path>
            <path fill="#FC997F"
                d="M 1346.82 1086.18 L 1347.31 1087.32 C 1349.77 1089.97 1350.17 1090 1351.05 1093.58 C 1350.45 1098.75 1348.34 1099.85 1344.3 1102.52 C 1338.52 1105.2 1330.01 1107.9 1326.6 1100.63 C 1326.78 1096.88 1326.67 1097.13 1328.64 1093.94 L 1328.41 1092.9 C 1334.74 1089.46 1339.65 1087.05 1346.82 1086.18 z"
                class="svgShape colorfc997f-67 selectable"></path>
            <path fill="#F47965"
                d="M 1346.82 1086.18 L 1347.31 1087.32 C 1340 1089.08 1335.63 1091.03 1328.64 1093.94 L 1328.41 1092.9 C 1334.74 1089.46 1339.65 1087.05 1346.82 1086.18 z"
                class="svgShape colorf47965-68 selectable"></path>
            <path fill="#FEAA88"
                d="M 1280.85 1067.68 C 1288.76 1064.8 1298.41 1061.07 1304.19 1069.87 C 1305.1 1077.95 1298.93 1081.41 1291.95 1083.49 C 1294.86 1090.1 1297.72 1096.57 1300.38 1103.28 L 1310.54 1127.34 L 1315.72 1134.54 C 1304.37 1162.36 1273.21 1244.22 1244.96 1255.4 C 1228.6 1261.87 1206.55 1249.33 1191.78 1242.45 C 1186.39 1239.93 1180.57 1237.42 1175.62 1234.11 C 1176.68 1231.27 1186.13 1214.76 1188.15 1211.09 C 1194.13 1199.17 1200.27 1188.28 1206.15 1176 C 1209.6 1179.66 1217.4 1184.43 1221.93 1187.43 C 1241.22 1160.99 1260.45 1130.98 1278.47 1103.54 C 1277.85 1094.95 1275.74 1083.41 1274.39 1074.68 C 1276.09 1072.3 1278.76 1069.8 1280.85 1067.68 z"
                class="svgShape colorfeaa88-69 selectable"></path>
            <path fill="#F47965"
                d="M1310.54 1127.34L1315.72 1134.54C1304.37 1162.36 1273.21 1244.22 1244.96 1255.4 1228.6 1261.87 1206.55 1249.33 1191.78 1242.45 1186.39 1239.93 1180.57 1237.42 1175.62 1234.11 1176.68 1231.27 1186.13 1214.76 1188.15 1211.09 1193.65 1216.45 1228.83 1236.07 1235.49 1232.43 1267 1215.18 1295.04 1157.4 1310.54 1127.34zM1283.87 1084.65C1287.6 1083.66 1288.03 1083.69 1291.95 1083.49 1294.86 1090.1 1297.72 1096.57 1300.38 1103.28 1295.21 1104.97 1293.24 1105.91 1288.51 1103.56 1285.11 1098.95 1284.79 1090.78 1283.87 1084.65z"
                class="svgShape colorf47965-70 selectable"></path>
            <path fill="#37366C"
                d="M 1122.21 234.074 C 1131.48 233.752 1162.57 232.282 1169.49 236.439 C 1173.33 247.025 1170.53 401.833 1171.28 424.986 C 1171.43 429.658 1169.84 430.347 1166.98 432.96 C 1158.15 433.456 1126.45 434.416 1120.47 431.452 C 1116.66 429.562 1118.04 366.052 1118.06 359.063 C 1118.32 324.063 1118.24 289.061 1117.8 254.062 C 1117.76 246.224 1116.89 239.47 1122.21 234.074 z"
                class="svgShape color37366c-71 selectable"></path>
            <path fill="#272756"
                d="M 742.329 1728.23 C 746.887 1731.86 753.033 1733.12 756.405 1736.07 C 757.611 1736.41 759.359 1737.02 760.514 1737.08 C 769.382 1741.31 798.815 1755.82 806.444 1757.93 C 805.069 1762.79 798.094 1776 793.622 1779 C 792.387 1779.83 791.674 1779.21 789.825 1778.78 C 787.948 1782.08 785.34 1786.35 783.787 1789.7 C 792.482 1791.88 800.796 1794.77 808.715 1799.06 C 815.417 1802.69 827.717 1813.88 822.232 1822.42 C 816.496 1823.56 794.924 1823.06 787.64 1823.05 L 715.159 1822.88 C 716.674 1808.77 720.16 1791.42 729.264 1780.03 C 731.794 1777.87 739.35 1760.06 741.081 1756.17 C 739.081 1755.02 732.425 1752.34 729.983 1751.28 C 734.033 1743.5 737.971 1735.86 742.329 1728.23 z"
                class="svgShape color272756-72 selectable"></path>
            <path fill="#5DBDC4"
                d="M 742.329 1728.23 C 746.887 1731.86 753.033 1733.12 756.405 1736.07 C 757.611 1736.41 759.359 1737.02 760.514 1737.08 C 769.382 1741.31 798.815 1755.82 806.444 1757.93 C 805.069 1762.79 798.094 1776 793.622 1779 C 792.387 1779.83 791.674 1779.21 789.825 1778.78 C 778.165 1771.81 754.675 1762.66 741.081 1756.17 C 739.081 1755.02 732.425 1752.34 729.983 1751.28 C 734.033 1743.5 737.971 1735.86 742.329 1728.23 z"
                class="svgShape color5dbdc4-73 selectable"></path>
            <path fill="#F47965"
                d="M 741.081 1756.17 C 754.675 1762.66 778.165 1771.81 789.825 1778.78 C 787.948 1782.08 785.34 1786.35 783.787 1789.7 C 778.076 1786.74 773.282 1784.32 767.39 1781.74 C 748.095 1786.8 747.073 1788.25 729.264 1780.03 C 731.794 1777.87 739.35 1760.06 741.081 1756.17 z"
                class="svgShape colorf47965-74 selectable"></path>
            <path fill="#272756"
                d="M 1051.06 1765.16 L 1105.81 1763.4 C 1105.23 1765.6 1104.64 1768.04 1103.96 1770.19 C 1109.77 1773.21 1112.37 1776.37 1116.54 1781.42 C 1113.46 1785.15 1110.34 1788.05 1109.27 1792.62 L 1109.99 1794.53 C 1115.69 1794.27 1118.34 1787.32 1120.96 1782.74 L 1132.36 1787.33 C 1129.32 1791.34 1126.78 1793.83 1125.87 1798.71 L 1126.42 1800.51 C 1131.58 1800.07 1134.91 1793.52 1137.59 1789.51 C 1145.36 1793.05 1164.29 1803.06 1161.03 1813.62 C 1160.3 1814.16 1159.56 1814.7 1158.83 1815.24 C 1127.3 1815.8 1077.53 1815.64 1047.36 1815.84 C 1047.9 1805.21 1048.17 1794.68 1050.76 1784.31 C 1051.29 1779.72 1051.06 1770.1 1051.06 1765.16 z"
                class="svgShape color272756-75 selectable"></path>
            <path fill="#F47965"
                d="M 1051.06 1765.16 L 1105.81 1763.4 C 1105.23 1765.6 1104.64 1768.04 1103.96 1770.19 C 1095.85 1774.15 1095.23 1776.8 1090.71 1784.64 C 1077 1786.58 1064.3 1787.91 1050.76 1784.31 C 1051.29 1779.72 1051.06 1770.1 1051.06 1765.16 z"
                class="svgShape colorf47965-76 selectable"></path>
            <path fill="#37366C"
                d="M 1262.38 808.039 C 1276.96 807.68 1299.83 804.978 1311.1 815.156 C 1327.12 829.614 1327.27 852.093 1313.01 867.845 C 1298.74 879.92 1280.34 877.108 1262.11 876.783 C 1261.68 855.598 1261.65 829.109 1262.38 808.039 z"
                class="svgShape color37366c-77 selectable"></path>
            <path fill="#FFF"
                d="M 1279 821.951 C 1286.68 821.62 1292.16 821.161 1298.71 825.718 C 1310.39 833.85 1309.01 846.49 1301.72 857.085 C 1294.11 863.475 1288.45 863.02 1279.01 862.999 C 1278.87 849.317 1278.86 835.633 1279 821.951 z"
                class="svgShape colorffffff-78 selectable"></path>
            <path fill="#FC8F32"
                d="M 1571.05 474.258 C 1588.95 472.12 1604.1 480.507 1606 499.191 C 1607.42 513.111 1592.41 546.598 1584.01 557.247 C 1562.24 567.771 1563.1 543.608 1559.13 529.78 C 1552.17 505.543 1540.34 486.905 1571.05 474.258 z"
                class="svgShape colorfc8f32-79 selectable"></path>
            <path fill="#37366C"
                d="M1125.76 808.15C1129.22 807.887 1133.22 807.361 1136.66 807.869 1144.16 808.974 1164.78 841.617 1169.95 848.797L1170.06 808.066C1175.38 807.72 1180.67 807.992 1186.01 808.14 1186.01 828.754 1186.03 849.539 1186.03 870.16 1186.03 874.236 1186.01 874.867 1183.82 876.927L1170.74 876.982C1161.79 862.932 1151.68 849.045 1141.83 835.613 1141.87 849.092 1142.15 863.341 1141.45 876.721 1136.83 877.103 1130.36 876.917 1125.6 876.922 1124.98 867.944 1125.44 853.381 1125.34 843.996 1125.23 834.184 1124.79 817.449 1125.76 808.15zM857.76 808.023C863.412 807.578 868.253 807.857 873.889 808.057 881.778 824.85 895.442 859.077 901.507 876.602 896.089 877.124 889.528 877.025 884.005 877.101 881.91 872.236 881.327 865.417 876.25 864.023L851.076 864.016C846.598 879.507 844.567 877.696 829.805 876.615 834.714 860.65 850.74 824.869 857.76 808.023z"
                class="svgShape color37366c-80 selectable"></path>
            <path fill="#FFF"
                d="M 865.518 827.57 C 868.885 830.344 874.602 846.052 872.428 850.629 L 868.003 851.025 C 864.732 851.139 861.573 851.762 859.026 850.057 C 856.816 845.056 862.925 834.769 865.518 827.57 z"
                class="svgShape colorffffff-81 selectable"></path>
            <path fill="#37366C"
                d="M1058.59 807.359C1059.76 807.377 1066.41 807.577 1066.72 808.439 1072.15 823.545 1062.38 845.535 1071.53 859.593 1076.13 864.712 1086.63 863.783 1090.95 859.237 1100.17 849.551 1088.41 815.982 1096.2 808.424 1100.69 807.154 1105.62 807.855 1110.38 808.133L1110.16 828.75C1110.25 837.699 1110.38 845.756 1109.68 854.71 1107.9 882.033 1067.78 885.103 1055.15 865.53 1050.72 858.664 1050.16 816.942 1052.08 810.033 1054.75 807.129 1053.7 808.037 1058.59 807.359zM1201.9 807.99C1208.61 807.323 1241.15 806.915 1247.11 808.787 1249.15 811.998 1249.17 816.115 1247.36 819.432 1241.56 823.799 1226 821.88 1217.93 821.729L1217.96 835.888 1245.94 836.06C1246.02 840.305 1245.84 844.835 1245.74 849.106L1218.04 849.056 1218.07 862.923 1248.93 862.957C1249.23 867.515 1249 872.34 1248.89 876.929 1233.18 877.012 1217.46 876.951 1201.74 876.748 1201.27 854.684 1201.61 830.116 1201.9 807.99zM741.312 806.235C749.596 805.883 765.112 805.993 768.869 814.566 768.192 818.717 768.231 818.942 765.92 822.339 758.547 826.657 754.342 820.89 746.581 819.856 741.276 819.149 737.997 823.406 738.592 828.331 743.591 836.25 756.63 834.856 762.543 839.867 781.387 855.837 769.672 875.473 748.174 878.15 739.322 877.946 722.826 876.71 721.728 865.914 723.096 861.749 725.248 860.083 728.327 856.857 735.754 861.512 747.081 866.827 755.606 861.69 759.095 852.467 741.357 848.229 735.063 845.884 712.24 837.382 720.679 812.249 741.312 806.235zM897.426 807.43C901.794 807.303 906.657 807.528 911.064 807.633L926.391 835.749C931.333 826.565 936.15 817.165 940.99 807.914 946.971 807.876 953.219 808.041 959.225 808.108 954.866 816.7 947.282 828.9 942.235 837.522L934.565 849.842C934.732 858.884 935.03 867.566 934.359 876.604 929.051 877.013 923.113 876.793 917.743 876.741 917.129 869.878 917.615 857.455 917.681 850.185 913.801 843.753 894.659 814.157 895.505 808.664L897.426 807.43zM780.496 807.318C790.216 807.554 824.1 807.022 831.217 808.501 834.13 811.532 834.455 817.985 831.895 821.037 826.551 822.698 819.745 822.081 813.971 821.981L814.188 862.555C814.277 867.246 814.188 872.147 814.175 876.858 808.77 877.03 802.906 876.983 797.462 877.036 796.576 861.76 797.482 838.122 797.313 821.755 790.847 821.621 784.022 823.553 778.967 820.08 776.126 815.711 776.322 810.691 780.496 807.318zM988.473 807.43C1005.95 807.396 1023.42 807.529 1040.89 807.829 1041.07 812.188 1040.91 816.948 1040.86 821.345 1035.01 821.846 1027.88 821.861 1021.9 822.017 1021.74 836.094 1021.72 850.173 1021.86 864.25L1021.81 876.637C1016.89 877.017 1010.67 876.88 1005.64 876.908 1004.52 861.048 1005.12 838.188 1005.05 821.816L986.191 821.936C985.672 816.794 983.663 810.183 988.473 807.43z"
                class="svgShape color37366c-82 selectable"></path>
            <path fill="#77DADF"
                d="M1599.57 916.272C1604.31 915.824 1605.09 916.476 1607.65 919.984 1608.53 927.843 1599.22 929.416 1592.96 930.693 1582.68 932.79 1572.53 935.01 1562.3 937.345 1556.41 938.139 1556.45 938.437 1553.37 933.385 1553.25 925.607 1561.41 923.941 1567.9 922.493 1578.34 920.162 1589.05 918.265 1599.57 916.272zM1561.83 985.929C1569.52 986.143 1605.79 994.817 1610.12 999.733 1611.02 1003.07 1609.77 1004.96 1608.45 1008.24 1600.89 1009.81 1563.9 1001.13 1559.66 994.6 1559.53 990.46 1560.09 989.86 1561.83 985.929zM1565.37 839.736C1568.47 840.266 1568.39 840.428 1571.15 842.055 1572.17 843.655 1573.78 845.553 1572.7 847.581 1567.74 856.874 1545.81 873.152 1537.6 879.194 1535 879.161 1534.72 878.647 1532.37 877.313 1531.56 875.921 1530.54 874.873 1530.85 873.553 1532.9 864.664 1558.51 845.016 1565.37 839.736z"
                class="svgShape color77dadf-83 selectable"></path>
        </svg>
    </g>
</svg>
