<svg width="14" height="14" viewBox="0 0 14 14" fill="none" xmlns="http://www.w3.org/2000/svg">
    <path d="M9.3335 11.6667V11.0833C9.3335 10.4645 9.08766 9.871 8.65008 9.43342C8.21249 8.99583 7.619 8.75 7.00016 8.75H2.91683C2.29799 8.75 1.7045 8.99583 1.26691 9.43342C0.829329 9.871 0.583496 10.4645 0.583496 11.0833V11.6667M10.0142 6.56075C10.1413 6.33968 10.2081 6.08917 10.2081 5.83421C10.2081 5.57924 10.1413 5.32874 10.0142 5.10767M11.7841 7.57867C12.0891 7.04823 12.2497 6.44711 12.2499 5.83524C12.2501 5.22337 12.0899 4.62214 11.7852 4.0915M7.29183 4.08333C7.29183 4.70217 7.046 5.29566 6.60841 5.73325C6.17083 6.17083 5.57733 6.41667 4.9585 6.41667C4.33966 6.41667 3.74616 6.17083 3.30858 5.73325C2.871 5.29566 2.62516 4.70217 2.62516 4.08333C2.62516 3.46449 2.871 2.871 3.30858 2.43342C3.74616 1.99583 4.33966 1.75 4.9585 1.75C5.57733 1.75 6.17083 1.99583 6.60841 2.43342C7.046 2.871 7.29183 3.46449 7.29183 4.08333Z" stroke="#035C4D" stroke-linecap="square"/>
</svg>
