<svg width="24" height="24" viewBox="0 0 24 24" fill="none" xmlns="http://www.w3.org/2000/svg">
<path d="M20 5H4C2.89543 5 2 5.89543 2 7V17C2 18.1046 2.89543 19 4 19H20C21.1046 19 22 18.1046 22 17V7C22 5.89543 21.1046 5 20 5Z" stroke="white" stroke-linecap="round" stroke-linejoin="round"/>
<path d="M2 10H22" stroke="white" stroke-linecap="round" stroke-linejoin="round"/>
<path d="M14.3333 5.23529H19.6667H14.3333ZM14.3333 7.82353H18.3333H14.3333ZM21 2C21.5304 2 22.0391 2.20452 22.4142 2.56856C22.7893 2.9326 23 3.42634 23 3.94118V9.11765C23 9.63248 22.7893 10.1262 22.4142 10.4903C22.0391 10.8543 21.5304 11.0588 21 11.0588H17.6667L14.3333 13V11.0588H13C12.4696 11.0588 11.9609 10.8543 11.5858 10.4903C11.2107 10.1262 11 9.63248 11 9.11765V3.94118C11 3.42634 11.2107 2.9326 11.5858 2.56856C11.9609 2.20452 12.4696 2 13 2H21Z" fill="#F6D4E8"/>
<path d="M14.3333 5.23529H19.6667M14.3333 7.82353H18.3333M21 2C21.5304 2 22.0391 2.20452 22.4142 2.56856C22.7893 2.9326 23 3.42634 23 3.94118V9.11765C23 9.63248 22.7893 10.1262 22.4142 10.4903C22.0391 10.8543 21.5304 11.0588 21 11.0588H17.6667L14.3333 13V11.0588H13C12.4696 11.0588 11.9609 10.8543 11.5858 10.4903C11.2107 10.1262 11 9.63248 11 9.11765V3.94118C11 3.42634 11.2107 2.9326 11.5858 2.56856C11.9609 2.20452 12.4696 2 13 2H21Z" stroke="black" stroke-width="0.5" stroke-linecap="round" stroke-linejoin="round"/>
</svg>
