<svg width="20" height="20" viewBox="0 0 20 20" fill="none" xmlns="http://www.w3.org/2000/svg">
    <path d="M9.99984 13.3333C11.3832 13.3333 12.4998 12.2167 12.4998 10.8333C12.4998 9.9 11.9915 9.08333 11.2498 8.65833L3.15817 3.975L7.7665 11.9583C8.18317 12.775 9.02484 13.3333 9.99984 13.3333ZM9.99984 2.5C8.4915 2.5 7.08317 2.91667 5.85817 3.6L7.60817 4.60833C8.33317 4.325 9.1665 4.16667 9.99984 4.16667C13.6832 4.16667 16.6665 7.15 16.6665 10.8333C16.6665 12.675 15.9248 14.3417 14.7165 15.5417H14.7082C14.6309 15.6188 14.5696 15.7103 14.5278 15.8111C14.486 15.912 14.4645 16.02 14.4645 16.1292C14.4645 16.2383 14.486 16.3464 14.5278 16.4472C14.5696 16.548 14.6309 16.6396 14.7082 16.7167C15.0332 17.0417 15.5665 17.0417 15.8915 16.725C16.6665 15.9522 17.2811 15.0339 17.7002 14.0228C18.1192 13.0117 18.3343 11.9278 18.3332 10.8333C18.3332 6.25 14.5832 2.5 9.99984 2.5ZM1.6665 10.8333C1.6665 13.1333 2.59984 15.2167 4.10817 16.725C4.43317 17.0417 4.95817 17.0417 5.28317 16.7167C5.36042 16.6396 5.42171 16.548 5.46353 16.4472C5.50535 16.3464 5.52687 16.2383 5.52687 16.1292C5.52687 16.02 5.50535 15.912 5.46353 15.8111C5.42171 15.7103 5.36042 15.6188 5.28317 15.5417C4.66342 14.9244 4.17202 14.1906 3.83734 13.3825C3.50265 12.5744 3.3313 11.708 3.33317 10.8333C3.33317 10 3.4915 9.16667 3.78317 8.41667L2.77484 6.66667C2.08317 7.91667 1.6665 9.31667 1.6665 10.8333Z" fill="black"/>
</svg>
