<svg width="24" height="24" viewBox="0 0 24 24" fill="none" xmlns="http://www.w3.org/2000/svg">
<g clip-path="url(#clip0_1510_449)">
<path fill-rule="evenodd" clip-rule="evenodd" d="M13.29 4.65404C13.22 4.43404 13.12 4.23404 13.05 4.01404C12.9673 3.74333 12.9104 3.46543 12.88 3.18404C12.8841 3.14566 12.8803 3.10683 12.8687 3.07C12.8572 3.03317 12.8381 2.99913 12.8127 2.97001C12.7874 2.9409 12.7563 2.91735 12.7214 2.90083C12.6865 2.88431 12.6486 2.87519 12.61 2.87404C12.5347 2.87126 12.4613 2.89789 12.4053 2.94829C12.3493 2.99868 12.3151 3.06888 12.31 3.14404C12.1564 3.80187 12.1564 4.48621 12.31 5.14404C12.4013 5.51404 12.5313 5.87037 12.7 6.21304C12.82 6.47304 12.92 6.47304 13.06 6.64304C13.2 6.81304 13.75 6.83304 13.78 6.49304C13.65 5.94304 13.68 5.88304 13.51 5.33304C13.45 5.07304 13.37 4.86404 13.29 4.65404ZM17.098 3.01504C17.0335 2.97549 16.9564 2.96176 16.8823 2.97659C16.8081 2.99142 16.7423 3.03373 16.698 3.09504C16.2747 3.5737 15.9365 4.12127 15.698 4.71404C15.5713 5.03937 15.468 5.3727 15.388 5.71404C15.276 6.0044 15.2151 6.31193 15.208 6.62304C15.208 7.04304 15.598 7.06304 15.978 6.80304C16.178 6.51704 16.336 6.20304 16.448 5.87304C16.572 5.54637 16.6753 5.21304 16.758 4.87304C16.854 4.37075 16.998 3.87883 17.188 3.40404C17.2236 3.33935 17.2341 3.26379 17.2175 3.19183C17.2009 3.11987 17.1583 3.05657 17.098 3.01404" fill="black"/>
<path fill-rule="evenodd" clip-rule="evenodd" d="M11.4102 6.06302C10.7077 5.66147 10.0625 5.16701 9.49217 4.59302C9.22982 4.30906 9.02732 3.9752 8.89675 3.61132C8.76618 3.24743 8.71021 2.86099 8.73217 2.47502C8.73217 2.18102 8.7655 1.89102 8.83217 1.60502C8.88217 1.40502 8.93217 1.19502 9.09217 1.10502C9.17543 1.06122 9.26809 1.03834 9.36217 1.03834C9.45624 1.03834 9.54891 1.06122 9.63217 1.10502C10.0188 1.28968 10.3785 1.51635 10.7112 1.78502C11.0255 2.03844 11.3957 2.21328 11.7912 2.29502C12.0571 2.33246 12.3278 2.27965 12.5602 2.14502C12.8722 1.95002 13.1552 1.71102 13.4002 1.43502C13.5402 1.29502 13.6702 1.12502 13.8502 1.10502C14.1132 1.07702 14.3792 1.10802 14.6292 1.19502C15.3722 1.60402 16.1692 1.90402 16.9982 2.08502C17.2282 2.09635 17.4548 2.07302 17.6782 2.01502C18.3182 1.84502 18.8572 1.32502 19.5472 1.25502C19.6868 1.24028 19.8276 1.24028 19.9672 1.25502C20.0912 1.26168 20.2112 1.28835 20.3272 1.33502C20.7272 1.48502 20.9562 1.61502 21.0162 1.81502C21.0258 1.8972 21.0184 1.98049 20.9943 2.05965C20.9702 2.13882 20.93 2.21214 20.8762 2.27502C20.3562 3.08502 19.0562 3.94502 18.6272 4.55402C18.2392 5.15402 17.8858 5.77368 17.5672 6.41302C17.3172 6.86302 18.0072 6.85302 18.2372 6.41302C18.6772 5.85302 18.8072 5.51302 19.2372 4.94302C19.755 4.425 20.3059 3.94099 20.8862 3.49402C21.3462 3.12102 21.6932 2.62602 21.8862 2.06502C22.0162 1.48502 21.7862 0.865018 20.6862 0.385018C20.4853 0.298698 20.2732 0.241455 20.0562 0.215018C19.8531 0.199491 19.6492 0.199491 19.4462 0.215018C18.8071 0.361583 18.1917 0.59722 17.6182 0.915018C17.4435 0.984425 17.2559 1.01513 17.0682 1.00502C16.2282 0.945018 15.6882 0.405017 14.9982 0.165018C14.5886 0.0206203 14.1519 -0.0299575 13.7202 0.0170175C13.4584 0.0535743 13.2104 0.156888 13.0002 0.317018C12.7502 0.507017 12.5112 0.777017 12.2612 1.00702C12.0112 1.23702 12.0312 1.26702 11.8712 1.24702C11.6524 1.18485 11.4484 1.07944 11.2712 0.937018C10.878 0.636934 10.4523 0.382 10.0022 0.177018C9.77698 0.0822407 9.53237 0.0427699 9.2888 0.0619074C9.04523 0.081045 8.80979 0.158234 8.60217 0.287018C8.3427 0.462132 8.14941 0.719151 8.05317 1.01702C7.90317 1.49502 7.83617 1.99502 7.85317 2.49602C7.85222 2.97915 7.9472 3.45766 8.13259 3.9038C8.31798 4.34994 8.5901 4.75484 8.93317 5.09502C9.63322 5.70871 10.4304 6.20177 11.2922 6.55402C11.6422 6.69402 11.8322 6.35402 11.4122 6.06402" fill="black"/>
<path fill-rule="evenodd" clip-rule="evenodd" d="M11.9201 7.68204C12.4451 7.85474 12.9792 7.9983 13.5201 8.11204C13.8508 8.16938 14.1838 8.20604 14.5191 8.22204C14.8524 8.24671 15.1858 8.24671 15.5191 8.22204C15.9691 8.22204 18.5671 7.73204 18.3771 7.22204C18.3743 7.17746 18.3615 7.13407 18.3398 7.09504C18.3181 7.05601 18.2879 7.02233 18.2515 6.99646C18.215 6.97058 18.1733 6.95317 18.1293 6.94548C18.0853 6.9378 18.0401 6.94004 17.9971 6.95204C16.2691 7.28204 14.4961 7.30204 12.7601 7.01204C12.2701 6.91871 11.7768 6.85204 11.2801 6.81204C10.2689 6.51564 9.19105 6.53659 8.19209 6.87204C7.52725 7.11355 6.90104 7.45041 6.33309 7.87204C5.51309 8.46204 4.78309 9.19204 4.01409 9.87204H4.00409C3.73409 9.89871 3.46743 9.94538 3.20409 10.012C2.90609 10.102 2.61609 10.215 2.33409 10.351C1.76409 10.631 1.26409 11.034 0.866093 11.531C0.571178 11.904 0.393673 12.3561 0.356093 12.83C0.343719 12.9536 0.356758 13.0784 0.394408 13.1967C0.432058 13.315 0.493523 13.4244 0.575019 13.518C0.656516 13.6117 0.75632 13.6877 0.868289 13.7414C0.980258 13.795 1.10202 13.8252 1.22609 13.83C1.89833 13.8612 2.56605 13.7055 3.15509 13.38C3.33443 13.2634 3.50109 13.13 3.65509 12.98C3.81976 12.8447 3.96976 12.6947 4.10509 12.53C4.35443 12.2467 4.56409 11.9367 4.73409 11.6C4.88652 11.2831 4.99421 10.9466 5.05409 10.6C5.06424 10.5594 5.06603 10.517 5.05935 10.4756C5.05266 10.4342 5.03765 10.3946 5.01521 10.3592C4.99277 10.3237 4.96338 10.2932 4.92881 10.2695C4.89424 10.2457 4.85522 10.2293 4.81409 10.221C4.76808 10.21 4.72011 10.21 4.67409 10.221C5.41409 9.73104 6.15409 9.22104 6.90309 8.76104C7.43582 8.42814 7.99387 8.13758 8.57209 7.89204C9.18952 7.6249 9.84937 7.46916 10.5211 7.43204C10.9991 7.42004 11.4741 7.50504 11.9201 7.68204ZM4.42509 10.451C4.34709 10.741 4.22509 11.017 4.06509 11.271C3.90806 11.5263 3.7124 11.7557 3.48509 11.951C3.35576 12.069 3.21909 12.1787 3.07509 12.28C2.93509 12.388 2.78509 12.4814 2.62509 12.56C2.39405 12.6545 2.15274 12.7216 1.90609 12.76C1.75754 12.7919 1.6073 12.8153 1.45609 12.83C1.48521 12.4987 1.62221 12.186 1.84609 11.94C2.09022 11.6098 2.38762 11.3226 2.72609 11.09C2.95148 10.9376 3.18894 10.8038 3.43609 10.69C3.66943 10.582 3.91276 10.502 4.16609 10.45C4.25696 10.4649 4.35001 10.4433 4.42509 10.39L4.49509 10.341C4.49509 10.341 4.43509 10.401 4.42509 10.451Z" fill="black"/>
<path fill-rule="evenodd" clip-rule="evenodd" d="M23.2049 15.938C22.5249 14.538 21.2049 13.329 20.3259 12.04C19.945 11.4656 19.6328 10.8483 19.3959 10.201C19.0459 9.31103 18.7969 8.74103 18.5069 7.84203C18.4069 7.61203 17.8269 7.93203 18.0069 8.20203C18.2769 9.09203 18.3969 9.57203 18.7169 10.461C18.9819 11.159 19.3169 11.829 19.7169 12.46C20.4069 13.56 21.4559 14.599 22.1449 15.748C22.6078 16.4247 22.82 17.2417 22.7449 18.058C22.4149 20.656 20.3259 22.055 17.7469 22.635C15.5059 23.092 13.1849 22.975 11.0009 22.295C9.56055 21.9019 8.23904 21.1605 7.15291 20.136C6.39586 19.3563 5.95416 18.324 5.91291 17.238C5.91528 15.4937 6.34808 13.777 7.17291 12.24C7.58791 11.434 8.10591 10.685 8.71191 10.011C9.28232 9.33728 9.91109 8.71519 10.5909 8.15203C10.9709 7.61203 10.5909 7.52203 10.0509 7.79203C9.39024 8.34269 8.77391 8.93936 8.20191 9.58203C7.54329 10.2975 6.97257 11.0891 6.50191 11.94C5.56704 13.5674 5.05222 15.4019 5.00391 17.278C5.01974 18.6056 5.53327 19.8789 6.44291 20.846C7.6256 22.0238 9.08688 22.8834 10.6909 23.345C13.0469 24.078 15.5509 24.198 17.9669 23.695C20.9659 23.015 23.3049 21.215 23.6349 18.167C23.6973 17.3987 23.5487 16.628 23.2049 15.938Z" fill="black"/>
<path fill-rule="evenodd" clip-rule="evenodd" d="M9.88105 10.57C9.79335 10.947 9.74972 11.333 9.75105 11.72C9.72003 12.5478 9.85256 13.3736 10.141 14.15C9.8699 14.526 9.70418 14.9675 9.66105 15.429C9.61605 15.939 9.70205 16.451 9.91105 16.918C10.131 17.388 10.428 17.817 10.791 18.188C11.014 18.4 11.296 18.539 11.601 18.587C11.8582 18.6088 12.1151 18.5411 12.3281 18.3953C12.5411 18.2495 12.6972 18.0347 12.77 17.787L12.92 17.167C12.93 17.025 12.93 16.8817 12.92 16.737C12.9058 16.5464 12.8824 16.3565 12.85 16.168C12.8166 15.9586 12.7698 15.7515 12.71 15.548C12.6386 15.3402 12.5482 15.1394 12.44 14.948C12.2954 14.7192 12.1205 14.511 11.92 14.329C11.66 14.089 11.37 13.879 11.08 13.649C11.03 13.6146 10.9708 13.5962 10.91 13.5962C10.8493 13.5962 10.7901 13.6146 10.74 13.649C10.6723 12.9286 10.7025 12.2023 10.83 11.49C10.92 10.95 11.03 10.42 11.17 9.89104C11.2967 9.24837 11.48 8.62204 11.72 8.01204C11.72 7.63204 11.32 7.71204 11.07 8.01204C10.72 8.45104 10.425 8.93104 10.191 9.44204C10.0512 9.80737 9.94733 10.1855 9.88105 10.571M10.601 14.57C10.6526 14.5513 10.6984 14.5192 10.7335 14.4771C10.7686 14.4349 10.7919 14.3842 10.801 14.33C10.9877 14.4967 11.1644 14.6734 11.331 14.86C11.4581 15.0091 11.5657 15.1737 11.651 15.35C11.709 15.4914 11.7524 15.638 11.781 15.79C11.7997 15.95 11.7997 16.11 11.781 16.27V17.009L11.701 17.299C11.581 17.529 11.701 17.519 11.411 17.299C11.123 17.0469 10.8737 16.7538 10.671 16.429C10.4782 16.1283 10.3615 15.785 10.331 15.429C10.348 15.125 10.441 14.83 10.601 14.57Z" fill="black"/>
<path d="M11 17.5714H24H11ZM13.8889 21.1429H14.6111H13.8889ZM17.5 21.1429H18.2222H17.5ZM13.1667 24H21.8333C22.408 24 22.9591 23.7742 23.3654 23.3724C23.7717 22.9705 24 22.4255 24 21.8571V16.1429C24 15.5745 23.7717 15.0295 23.3654 14.6276C22.9591 14.2258 22.408 14 21.8333 14H13.1667C12.592 14 12.0409 14.2258 11.6346 14.6276C11.2283 15.0295 11 15.5745 11 16.1429V21.8571C11 22.4255 11.2283 22.9705 11.6346 23.3724C12.0409 23.7742 12.592 24 13.1667 24Z" fill="#C0EAFF"/>
<path d="M11 17.5714H24M13.8889 21.1429H14.6111M17.5 21.1429H18.2222M13.1667 24H21.8333C22.408 24 22.9591 23.7742 23.3654 23.3724C23.7717 22.9705 24 22.4255 24 21.8571V16.1429C24 15.5745 23.7717 15.0295 23.3654 14.6276C22.9591 14.2258 22.408 14 21.8333 14H13.1667C12.592 14 12.0409 14.2258 11.6346 14.6276C11.2283 15.0295 11 15.5745 11 16.1429V21.8571C11 22.4255 11.2283 22.9705 11.6346 23.3724C12.0409 23.7742 12.592 24 13.1667 24Z" stroke="black" stroke-linecap="round" stroke-linejoin="round"/>
</g>
<defs>
<clipPath id="clip0_1510_449">
<rect width="24" height="24" fill="white"/>
</clipPath>
</defs>
</svg>
