<svg width="24" height="24" viewBox="0 0 24 24" fill="none" xmlns="http://www.w3.org/2000/svg">
<path d="M1.71777 7.49993C1.71777 6.64745 2.05642 5.82988 2.65922 5.22709C3.26201 4.62429 4.07958 4.28564 4.93206 4.28564H19.0715C19.924 4.28564 20.7415 4.62429 21.3443 5.22709C21.9471 5.82988 22.2858 6.64745 22.2858 7.49993V13.2016C21.9056 12.7909 21.4733 12.4316 21.0001 12.1328V9.4285H3.00434V16.4999C3.00434 17.0114 3.20753 17.502 3.56921 17.8636C3.93089 18.2253 4.42143 18.4285 4.93292 18.4285H11.2003C11.2609 18.8742 11.3638 19.3028 11.5089 19.7142H4.93292C4.08043 19.7142 3.26287 19.3756 2.66007 18.7728C2.05728 18.17 1.71863 17.3524 1.71863 16.4999L1.71777 7.49993ZM4.93206 5.57136C4.42057 5.57136 3.93003 5.77455 3.56835 6.13622C3.20668 6.4979 3.00349 6.98844 3.00349 7.49993V8.14279H21.0001V7.49993C21.0001 6.98844 20.7969 6.4979 20.4352 6.13622C20.0735 5.77455 19.583 5.57136 19.0715 5.57136H4.93206ZM23.1429 17.5714C23.1429 19.049 22.5559 20.4661 21.5111 21.511C20.4662 22.5558 19.0491 23.1428 17.5715 23.1428C16.0939 23.1428 14.6767 22.5558 13.6319 21.511C12.587 20.4661 12.0001 19.049 12.0001 17.5714C12.0001 16.0937 12.587 14.6766 13.6319 13.6318C14.6767 12.5869 16.0939 11.9999 17.5715 11.9999C19.0491 11.9999 20.4662 12.5869 21.5111 13.6318C22.5559 14.6766 23.1429 16.0937 23.1429 17.5714ZM17.5715 14.1428C17.4578 14.1428 17.3488 14.1879 17.2684 14.2683C17.1881 14.3487 17.1429 14.4577 17.1429 14.5714V17.5714C17.1429 17.685 17.1881 17.794 17.2684 17.8744C17.3488 17.9548 17.4578 17.9999 17.5715 17.9999H20.1429C20.2566 17.9999 20.3656 17.9548 20.446 17.8744C20.5263 17.794 20.5715 17.685 20.5715 17.5714C20.5715 17.4577 20.5263 17.3487 20.446 17.2683C20.3656 17.1879 20.2566 17.1428 20.1429 17.1428H18.0001V14.5714C18.0001 14.4577 17.9549 14.3487 17.8745 14.2683C17.7942 14.1879 17.6852 14.1428 17.5715 14.1428Z" fill="white"/>
<circle cx="17.5" cy="17.5" r="6.25" fill="white" stroke="black" stroke-width="0.5"/>
<path d="M17.5 12C18.637 12 19.7462 12.3524 20.6747 13.0087C21.6032 13.665 22.3054 14.593 22.6848 15.6649C23.0642 16.7368 23.102 17.8999 22.7931 18.9942C22.4842 20.0885 21.8438 21.0601 20.9599 21.7754C20.076 22.4907 18.9922 22.9145 17.8575 22.9884C16.7229 23.0623 15.5932 22.7827 14.624 22.1881C13.6548 21.5936 12.8937 20.7132 12.4454 19.6683C11.9972 18.6233 11.8838 17.4651 12.1209 16.353L17.5 17.5V12Z" fill="#70DEB6"/>
</svg>
