<svg width="20" height="19" viewBox="0 0 20 19" fill="none" xmlns="http://www.w3.org/2000/svg">
<path d="M12.8564 2.64612L11.714 3.26442L12.8564 3.88271L13.4812 5.01321L14.106 3.88271L15.2484 3.26442L14.106 2.64612L13.482 1.51562L12.8564 2.64612ZM1.78125 9.49879C1.78125 5.12642 5.36285 1.58212 9.78125 1.58212H11.1684L10.474 2.76962C10.0108 3.56129 9.78125 4.50258 9.78125 5.54046C9.78113 6.35874 9.96413 7.16689 10.3171 7.90687C10.6701 8.64685 11.1843 9.30029 11.8228 9.82026C12.4613 10.3402 13.2082 10.7138 14.0099 10.9142C14.8116 11.1146 15.6482 11.1368 16.4596 10.9792L17.8053 10.7203L17.3708 12.0076C16.839 13.5828 15.82 14.9526 14.4581 15.9231C13.0962 16.8936 11.4603 17.4157 9.78205 17.4155C5.36365 17.4155 1.78125 13.8712 1.78125 9.49879ZM16.582 5.07812L17.3132 6.40021L18.6484 7.12379L17.3124 7.84737L16.5812 9.16946L15.8508 7.84737L14.5148 7.12379L15.8508 6.40021L16.582 5.07812Z" fill="#808080"/>
</svg>
