<svg width="14" height="14" viewBox="0 0 14 14" fill="none" xmlns="http://www.w3.org/2000/svg">
    <path fill-rule="evenodd" clip-rule="evenodd" d="M5.5415 5.83334C5.85092 5.83334 6.14767 5.71043 6.36646 5.49163C6.58525 5.27284 6.70817 4.9761 6.70817 4.66668C6.70817 4.35726 6.58525 4.06051 6.36646 3.84172C6.14767 3.62293 5.85092 3.50001 5.5415 3.50001C5.23208 3.50001 4.93534 3.62293 4.71655 3.84172C4.49775 4.06051 4.37484 4.35726 4.37484 4.66668C4.37484 4.9761 4.49775 5.27284 4.71655 5.49163C4.93534 5.71043 5.23208 5.83334 5.5415 5.83334ZM5.5415 7.00001C6.16034 7.00001 6.75384 6.75418 7.19142 6.31659C7.629 5.87901 7.87484 5.28552 7.87484 4.66668C7.87484 4.04784 7.629 3.45435 7.19142 3.01676C6.75384 2.57918 6.16034 2.33334 5.5415 2.33334C4.92267 2.33334 4.32917 2.57918 3.89159 3.01676C3.454 3.45435 3.20817 4.04784 3.20817 4.66668C3.20817 5.28552 3.454 5.87901 3.89159 6.31659C4.32917 6.75418 4.92267 7.00001 5.5415 7.00001ZM9.50409 5.42093C9.61348 5.31157 9.76183 5.25013 9.9165 5.25013C10.0712 5.25013 10.2195 5.31157 10.3289 5.42093L11.0832 6.17518L11.8374 5.42093C11.8912 5.36521 11.9556 5.32077 12.0268 5.2902C12.0979 5.25963 12.1745 5.24354 12.2519 5.24286C12.3294 5.24219 12.4062 5.25695 12.4779 5.28628C12.5496 5.31561 12.6147 5.35893 12.6695 5.4137C12.7243 5.46847 12.7676 5.5336 12.7969 5.60529C12.8262 5.67698 12.841 5.75379 12.8403 5.83124C12.8396 5.9087 12.8236 5.98524 12.793 6.05641C12.7624 6.12758 12.718 6.19195 12.6623 6.24576L11.908 7.00001L12.6623 7.75426C12.7685 7.86428 12.8273 8.01163 12.826 8.16458C12.8247 8.31753 12.7633 8.46383 12.6551 8.57199C12.547 8.68014 12.4007 8.74149 12.2477 8.74282C12.0948 8.74415 11.9474 8.68535 11.8374 8.57909L11.0832 7.82484L10.3289 8.57909C10.2189 8.68535 10.0716 8.74415 9.9186 8.74282C9.76566 8.74149 9.61935 8.68014 9.51119 8.57199C9.40304 8.46383 9.34169 8.31753 9.34036 8.16458C9.33903 8.01163 9.39783 7.86428 9.50409 7.75426L10.2583 7.00001L9.50409 6.24576C9.39473 6.13637 9.3333 5.98802 9.3333 5.83334C9.3333 5.67866 9.39473 5.53032 9.50409 5.42093ZM1.95634 8.85268C2.51459 8.07101 3.36567 7.58334 4.45825 7.58334H6.62475C7.71734 7.58334 8.56842 8.07159 9.12667 8.85268C9.66975 9.61276 9.9165 10.6178 9.9165 11.6667C9.9165 11.8214 9.85505 11.9698 9.74565 12.0792C9.63625 12.1886 9.48788 12.25 9.33317 12.25C9.17846 12.25 9.03009 12.1886 8.92069 12.0792C8.8113 11.9698 8.74984 11.8214 8.74984 11.6667C8.74984 10.7823 8.53984 10.0374 8.17759 9.53109C7.8305 9.04576 7.32767 8.75001 6.62475 8.75001H4.45825C3.75534 8.75001 3.2525 9.04576 2.90542 9.53109C2.54375 10.0374 2.33317 10.7823 2.33317 11.6661C2.33317 11.8208 2.27171 11.9692 2.16232 12.0786C2.05292 12.188 1.90455 12.2494 1.74984 12.2494C1.59513 12.2494 1.44675 12.188 1.33736 12.0786C1.22796 11.9692 1.1665 11.8208 1.1665 11.6661C1.1665 10.6178 1.41267 9.61276 1.95634 8.85268Z" fill="#035C4D"/>
    <path fill-rule="evenodd" clip-rule="evenodd" d="M1.1665 11.6667C1.1665 11.512 1.22796 11.3636 1.33736 11.2542C1.44675 11.1448 1.59513 11.0833 1.74984 11.0833H9.31509C9.4698 11.0833 9.61817 11.1448 9.72757 11.2542C9.83696 11.3636 9.89842 11.512 9.89842 11.6667C9.89842 11.8214 9.83696 11.9698 9.72757 12.0792C9.61817 12.1886 9.4698 12.25 9.31509 12.25H1.74984C1.59513 12.25 1.44675 12.1886 1.33736 12.0792C1.22796 11.9698 1.1665 11.8214 1.1665 11.6667Z" fill="#035C4D"/>
</svg>
