<svg width="77" height="6" viewBox="0 0 77 6" fill="none" xmlns="http://www.w3.org/2000/svg">
    <path d="M-3.26633e-05 2.88672L2.88672 5.77347L5.77347 2.88672L2.88672 -3.26633e-05L-3.26633e-05 2.88672ZM2.88672 2.88672V3.38672H3.88672V2.88672V2.38672H2.88672V2.88672Z" fill="#035C4D"/>
    <path d="M2.88672 2.38672C2.75411 2.38581 2.62693 2.43769 2.53317 2.53148C2.4394 2.62523 2.38672 2.7532 2.38672 2.88672C2.38672 3.02024 2.4394 3.14821 2.53317 3.24196C2.62693 3.33574 2.75411 3.38763 2.88672 3.38672C4.12005 3.37839 5.35339 3.37005 6.58672 3.36172C28.7867 3.21172 50.9867 3.06172 73.1867 2.91172C74.42 2.90339 75.6534 2.89505 76.8867 2.88672C75.6534 2.87839 74.42 2.87005 73.1867 2.86172C50.9867 2.71172 28.7867 2.56172 6.58672 2.41172C5.35339 2.40339 4.12005 2.39505 2.88672 2.38672Z" fill="#035C4D"/>
</svg>
