<svg width="28" height="28" viewBox="0 0 28 28" fill="none" xmlns="http://www.w3.org/2000/svg">
<path fill-rule="evenodd" clip-rule="evenodd" d="M1.4585 14C1.4585 7.07354 7.07366 1.45837 14.0002 1.45837C20.9267 1.45837 26.5418 7.07354 26.5418 14C26.5418 20.9265 20.9267 26.5417 14.0002 26.5417C7.07366 26.5417 1.4585 20.9265 1.4585 14ZM9.62516 19.8334C9.62516 19.6013 9.71735 19.3787 9.88144 19.2147C10.0455 19.0506 10.2681 18.9584 10.5002 18.9584H17.5002C17.7322 18.9584 17.9548 19.0506 18.1189 19.2147C18.283 19.3787 18.3752 19.6013 18.3752 19.8334C18.3752 20.0654 18.283 20.288 18.1189 20.4521C17.9548 20.6162 17.7322 20.7084 17.5002 20.7084H10.5002C10.2681 20.7084 10.0455 20.6162 9.88144 20.4521C9.71735 20.288 9.62516 20.0654 9.62516 19.8334ZM18.7018 11.7017L14.6185 15.785C14.4544 15.9489 14.232 16.0409 14.0002 16.0409C13.7683 16.0409 13.5459 15.9489 13.3818 15.785L9.2985 11.7017C9.21253 11.6216 9.14358 11.525 9.09575 11.4177C9.04793 11.3103 9.02221 11.1945 9.02014 11.077C9.01807 10.9595 9.03968 10.8428 9.08369 10.7338C9.12769 10.6249 9.1932 10.5259 9.27629 10.4428C9.35937 10.3597 9.45835 10.2942 9.5673 10.2502C9.67625 10.2062 9.79295 10.1846 9.91044 10.1867C10.0279 10.1888 10.1438 10.2145 10.2511 10.2623C10.3585 10.3101 10.4551 10.3791 10.5352 10.465L13.1252 13.055V7.00004C13.1252 6.76798 13.2174 6.54542 13.3814 6.38132C13.5455 6.21723 13.7681 6.12504 14.0002 6.12504C14.2322 6.12504 14.4548 6.21723 14.6189 6.38132C14.783 6.54542 14.8752 6.76798 14.8752 7.00004V13.055L17.4652 10.465C17.5453 10.3791 17.6419 10.3101 17.7492 10.2623C17.8565 10.2145 17.9724 10.1888 18.0899 10.1867C18.2074 10.1846 18.3241 10.2062 18.433 10.2502C18.542 10.2942 18.641 10.3597 18.724 10.4428C18.8071 10.5259 18.8726 10.6249 18.9166 10.7338C18.9606 10.8428 18.9823 10.9595 18.9802 11.077C18.9781 11.1945 18.9524 11.3103 18.9046 11.4177C18.8568 11.525 18.7878 11.6216 18.7018 11.7017Z" fill="#035C4D"/>
</svg>
