<svg width="15" height="15" viewBox="0 0 15 15" fill="none" xmlns="http://www.w3.org/2000/svg">
    <path d="M3.75 3.74995C3.75 3.94887 3.67098 4.13963 3.53033 4.28028C3.38968 4.42094 3.19891 4.49995 3 4.49995H2.25C2.05109 4.49995 1.86032 4.57897 1.71967 4.71962C1.57902 4.86028 1.5 5.05104 1.5 5.24995V12C1.5 12.1989 1.57902 12.3896 1.71967 12.5303C1.86032 12.6709 2.05109 12.75 2.25 12.75H9C9.19891 12.75 9.38968 12.6709 9.53033 12.5303C9.67098 12.3896 9.75 12.1989 9.75 12V11.25C9.75 11.051 9.82902 10.8603 9.96967 10.7196C10.1103 10.579 10.3011 10.5 10.5 10.5C10.6989 10.5 10.8897 10.579 11.0303 10.7196C11.171 10.8603 11.25 11.051 11.25 11.25V12C11.25 12.5967 11.0129 13.169 10.591 13.5909C10.169 14.0129 9.59674 14.25 9 14.25H2.25C1.65326 14.25 1.08097 14.0129 0.65901 13.5909C0.237053 13.169 0 12.5967 0 12V5.24995C0 4.65322 0.237053 4.08092 0.65901 3.65896C1.08097 3.23701 1.65326 2.99995 2.25 2.99995H3C3.19891 2.99995 3.38968 3.07897 3.53033 3.21962C3.67098 3.36028 3.75 3.55104 3.75 3.74995Z" fill="#035C4D"/>
    <path d="M8.697 2.2582L11.991 5.5522L7.281 10.2795C7.21134 10.3493 7.12859 10.4048 7.03747 10.4426C6.94635 10.4804 6.84866 10.4999 6.75 10.5H4.5C4.30109 10.5 4.11032 10.4209 3.96967 10.2803C3.82902 10.1396 3.75 9.94887 3.75 9.74995V7.49995C3.75002 7.40129 3.76951 7.3036 3.80735 7.21248C3.84518 7.12137 3.90063 7.03861 3.9705 6.96895L8.697 2.2582ZM13.569 0.680954C13.9827 1.09432 14.2252 1.64851 14.2481 2.23285C14.271 2.81719 14.0727 3.38868 13.6927 3.8332L13.5697 3.9682L13.05 4.4887L9.75975 1.19845L10.281 0.680954C10.717 0.244946 11.3084 0 11.925 0C12.5416 0 13.133 0.244946 13.569 0.680954Z" fill="#035C4D"/>
</svg>
