<svg width="16" height="16" viewBox="0 0 16 16" fill="none" xmlns="http://www.w3.org/2000/svg">
<path d="M14.6663 5V11.1667C14.6664 11.72 14.4547 12.2524 14.0748 12.6546C13.6949 13.0569 13.1754 13.2985 12.623 13.33L12.4997 13.3333H3.49967C2.94625 13.3334 2.41379 13.1216 2.01152 12.7416C1.60925 12.3615 1.36767 11.8419 1.33634 11.2893L1.33301 11.1667V5L7.76767 8.37067C7.83926 8.40816 7.91886 8.42775 7.99967 8.42775C8.08048 8.42775 8.16009 8.40816 8.23167 8.37067L14.6663 5Z" fill="#367AF2"/>
<path d="M14.6663 5V11.1667C14.6664 11.72 14.4547 12.2524 14.0748 12.6546C13.6949 13.0569 13.1754 13.2985 12.623 13.33L12.4997 13.3333H3.49967C2.94625 13.3334 2.41379 13.1216 2.01152 12.7416C1.60925 12.3615 1.36767 11.8419 1.33634 11.2893L1.33301 11.1667V5L7.76767 8.37067C7.83926 8.40816 7.91886 8.42775 7.99967 8.42775C8.08048 8.42775 8.16009 8.40816 8.23167 8.37067L14.6663 5Z" fill="url(#paint0_linear_1916_4351)"/>
<path d="M14.6663 5V11.1667C14.6664 11.72 14.4547 12.2524 14.0748 12.6546C13.6949 13.0569 13.1754 13.2985 12.623 13.33L12.4997 13.3333H3.49967C2.94625 13.3334 2.41379 13.1216 2.01152 12.7416C1.60925 12.3615 1.36767 11.8419 1.33634 11.2893L1.33301 11.1667V5L7.76767 8.37067C7.83926 8.40816 7.91886 8.42775 7.99967 8.42775C8.08048 8.42775 8.16009 8.40816 8.23167 8.37067L14.6663 5Z" fill="url(#paint1_linear_1916_4351)"/>
<path d="M14.6663 5V11.1667C14.6664 11.72 14.4547 12.2524 14.0748 12.6546C13.6949 13.0569 13.1754 13.2985 12.623 13.33L12.4997 13.3333H3.49967C2.94625 13.3334 2.41379 13.1216 2.01152 12.7416C1.60925 12.3615 1.36767 11.8419 1.33634 11.2893L1.33301 11.1667V5L7.76767 8.37067C7.83926 8.40816 7.91886 8.42775 7.99967 8.42775C8.08048 8.42775 8.16009 8.40816 8.23167 8.37067L14.6663 5Z" fill="url(#paint2_linear_1916_4351)" fill-opacity="0.75"/>
<path d="M14.6663 5V11.1667C14.6664 11.72 14.4547 12.2524 14.0748 12.6546C13.6949 13.0569 13.1754 13.2985 12.623 13.33L12.4997 13.3333H3.49967C2.94625 13.3334 2.41379 13.1216 2.01152 12.7416C1.60925 12.3615 1.36767 11.8419 1.33634 11.2893L1.33301 11.1667V5L7.76767 8.37067C7.83926 8.40816 7.91886 8.42775 7.99967 8.42775C8.08048 8.42775 8.16009 8.40816 8.23167 8.37067L14.6663 5Z" fill="url(#paint3_linear_1916_4351)" fill-opacity="0.7"/>
<path d="M1.33301 5.24008L7.76767 8.61075C7.83926 8.64824 7.91886 8.66783 7.99967 8.66783C8.08048 8.66783 8.16009 8.64824 8.23167 8.61075L14.6663 5.24008V4.83341C14.6663 4.54888 14.6103 4.26714 14.5014 4.00427C14.3925 3.7414 14.2329 3.50254 14.0317 3.30135C13.8305 3.10016 13.5917 2.94056 13.3288 2.83168C13.0659 2.72279 12.7842 2.66675 12.4997 2.66675H3.49967C2.92504 2.66675 2.37394 2.89502 1.96761 3.30135C1.56128 3.70768 1.33301 4.25878 1.33301 4.83341V5.24008Z" fill="url(#paint4_linear_1916_4351)"/>
<defs>
<linearGradient id="paint0_linear_1916_4351" x1="9.69234" y1="6.63333" x2="13.3363" y2="13.6767" gradientUnits="userSpaceOnUse">
<stop offset="0.199" stop-color="#0094F0" stop-opacity="0"/>
<stop offset="0.431" stop-color="#0094F0"/>
</linearGradient>
<linearGradient id="paint1_linear_1916_4351" x1="6.09501" y1="5.87733" x2="2.55167" y2="13.91" gradientUnits="userSpaceOnUse">
<stop offset="0.191" stop-color="#0094F0" stop-opacity="0"/>
<stop offset="0.431" stop-color="#0094F0"/>
</linearGradient>
<linearGradient id="paint2_linear_1916_4351" x1="11.515" y1="9.97133" x2="12.095" y2="14.1007" gradientUnits="userSpaceOnUse">
<stop stop-color="#2764E7" stop-opacity="0"/>
<stop offset="1" stop-color="#2764E7"/>
</linearGradient>
<linearGradient id="paint3_linear_1916_4351" x1="10.063" y1="6.02333" x2="11.1203" y2="14.4287" gradientUnits="userSpaceOnUse">
<stop offset="0.533" stop-color="#FF6CE8" stop-opacity="0"/>
<stop offset="1" stop-color="#FF6CE8"/>
</linearGradient>
<linearGradient id="paint4_linear_1916_4351" x1="5.29434" y1="0.767415" x2="9.31967" y2="11.3927" gradientUnits="userSpaceOnUse">
<stop stop-color="#6CE0FF"/>
<stop offset="0.462" stop-color="#29C3FF"/>
<stop offset="1" stop-color="#4894FE"/>
</linearGradient>
</defs>
</svg>
