<svg width="14" height="14" viewBox="0 0 14 14" fill="none" xmlns="http://www.w3.org/2000/svg">
    <path d="M9.818 6.3271V4.90891C9.818 4.76425 9.76054 4.62551 9.65824 4.52322C9.55595 4.42093 9.41721 4.36346 9.27255 4.36346H2.7271C2.58243 4.36346 2.44369 4.42093 2.3414 4.52322C2.23911 4.62551 2.18164 4.76425 2.18164 4.90891V10.3635C2.18164 10.5081 2.23911 10.6469 2.3414 10.7492C2.44369 10.8514 2.58243 10.9089 2.7271 10.9089H9.27255C9.41721 10.9089 9.55595 10.8514 9.65824 10.7492C9.76054 10.6469 9.818 10.5081 9.818 10.3635V8.94528M9.27255 4.36346L7.09073 2.18164M2.7271 4.36346L4.90891 2.18164L7.09073 4.36346M10.3635 6.54528H8.18164C7.89231 6.54528 7.61484 6.66021 7.41025 6.8648C7.20567 7.06938 7.09073 7.34686 7.09073 7.63619C7.09073 7.92551 7.20567 8.20299 7.41025 8.40758C7.61484 8.61216 7.89231 8.7271 8.18164 8.7271H10.3635C10.5081 8.7271 10.6469 8.66963 10.7492 8.56734C10.8514 8.46504 10.9089 8.3263 10.9089 8.18164V7.09073C10.9089 6.94607 10.8514 6.80733 10.7492 6.70504C10.6469 6.60274 10.5081 6.54528 10.3635 6.54528Z" stroke="#035C4D" stroke-linecap="round" stroke-linejoin="round"/>
</svg>
