<svg width="12" height="12" viewBox="0 0 12 12" fill="none" xmlns="http://www.w3.org/2000/svg">
    <path d="M6.63649 1.00211C6.58633 1.00064 6.53638 1.00925 6.4896 1.02744C6.44283 1.04562 6.40018 1.07301 6.36418 1.10798C6.32819 1.14295 6.29958 1.18479 6.28005 1.23102C6.26052 1.27725 6.25047 1.32693 6.25049 1.37711V5.37511C6.25049 5.58211 6.41849 5.75011 6.62549 5.75011H10.6235C10.6737 5.75014 10.7234 5.74008 10.7696 5.72055C10.8158 5.70102 10.8577 5.67241 10.8926 5.63642C10.9276 5.60042 10.955 5.55778 10.9732 5.511C10.9914 5.46423 11 5.41428 10.9985 5.36411C10.9639 4.21821 10.4932 3.12873 9.68252 2.31808C8.87188 1.50743 7.78239 1.03675 6.63649 1.00211ZM5.37849 2.10561C5.41695 2.14077 5.44767 2.18357 5.46868 2.23126C5.48968 2.27895 5.50052 2.3305 5.50049 2.38261V5.37511C5.50049 5.67348 5.61902 5.95963 5.82999 6.17061C6.04097 6.38159 6.32712 6.50011 6.62549 6.50011H9.60799C9.66015 6.5001 9.71174 6.51097 9.75947 6.53203C9.80719 6.55309 9.84999 6.58387 9.88514 6.62241C9.92029 6.66095 9.94702 6.7064 9.96361 6.75585C9.9802 6.8053 9.98629 6.85767 9.98149 6.90961C9.90197 7.76076 9.58169 8.57165 9.05812 9.24741C8.53455 9.92316 7.82935 10.4358 7.02504 10.7254C6.22073 11.015 5.35058 11.0695 4.51642 10.8826C3.68225 10.6957 2.91858 10.275 2.31476 9.66991C1.71093 9.06479 1.29194 8.30021 1.10681 7.46565C0.921675 6.63109 0.97806 5.76106 1.26936 4.95737C1.56067 4.15369 2.07484 3.44959 2.75172 2.92747C3.4286 2.40535 4.24018 2.0868 5.09149 2.00911C5.14341 2.00437 5.19574 2.01049 5.24516 2.02711C5.29458 2.04373 5.33999 2.07046 5.37849 2.10561Z" fill="#035C4D"/>
</svg>
