<svg id="SvgjsSvg1048" width="288" height="288" xmlns="http://www.w3.org/2000/svg" version="1.1" xmlns:xlink="http://www.w3.org/1999/xlink" xmlns:svgjs="http://svgjs.com/svgjs"><defs id="SvgjsDefs1049"></defs><g id="SvgjsG1050"><svg xmlns="http://www.w3.org/2000/svg" display="block" preserveAspectRatio="none" viewBox="0 0 2048 2048" width="288" height="288"><path fill="#ffffff" d="M 0 0 L 2048 0 L 2048 2048 L 0 2048 L 0 0 z" class="svgShape colorffffff-0 selectable"></path><path fill="#82d4c6" d="M 363.979 435.886 C 364.333 409.136 363.312 382.015 364.084 355.258 C 364.273 348.687 367.297 340.538 371.278 335.298 C 375.957 329.204 382.885 325.242 390.509 324.299 C 403.351 322.823 444.581 323.782 459.099 323.798 L 597.308 323.893 L 800.873 323.918 C 834.129 323.918 867.44 323.527 900.676 324.057 C 917.718 324.329 928.787 337.411 930.153 353.751 C 931.02 361.265 930.78 368.623 930.861 376.172 C 931.339 420.732 930.001 465.409 930.885 509.951 C 959.814 510.215 993.987 509.064 1021.94 510.157 L 1021.91 510.79 L 1196.18 510.757 C 1222.82 510.685 1250.4 509.59 1276.98 511.305 C 1286.02 511.889 1295.69 522.41 1296.7 531.414 C 1299.06 552.629 1298.57 575.753 1298.22 597.282 C 1298.19 598.828 1298.14 600.374 1298.08 601.92 L 1297.92 848.813 C 1326 850.959 1360.95 848.278 1389.65 849.153 C 1396.48 849.362 1416.51 848.584 1422.19 849.868 L 1424.67 849.515 C 1429.79 845.948 1438.88 837.732 1443.94 833.423 C 1456.64 846.214 1469.03 859.31 1481.1 872.698 C 1484.38 875.953 1488.37 880.309 1492.18 882.7 C 1490.1 889.709 1442.8 932.257 1433.16 941.391 C 1420.95 952.967 1400.17 973.751 1387.24 984.274 C 1378.98 996.059 1371.79 1003.85 1356.47 1005.09 C 1338.75 1010.02 1316.54 1011.09 1298.71 1015.66 L 1296.92 1016.04 C 1298.84 1048.21 1297.23 1091.54 1297.43 1124.81 L 1297.93 1178.71 C 1297.96 1193.32 1300.34 1211.68 1290.16 1222.93 C 1282.72 1231.16 1274.36 1233.13 1263.54 1233.41 C 1234.12 1234.14 1203.94 1233.09 1174.58 1234.23 C 1175.37 1244.62 1176.33 1291.71 1174.84 1301.21 C 1174.27 1314.27 1174.84 1322.74 1164.56 1332.2 C 1162.15 1334.44 1159.59 1336.5 1156.89 1338.37 C 1145.84 1340.51 1136.61 1340.08 1125.36 1340 L 939.61 1340.03 C 919.954 1340.05 847.268 1342.22 834.249 1337.65 C 812.179 1319.9 818.549 1298.05 818.705 1271.7 C 818.951 1259.4 818.802 1246.56 818.84 1234.22 C 817.73 1214.2 818.502 1187.37 818.596 1166.96 L 728.478 1167.01 C 732.847 1188.11 741.006 1214.14 744.251 1234.27 C 745.03 1239.17 746.558 1244.39 743.832 1248.59 C 725.62 1254.4 692.217 1262.77 676.527 1269.39 C 668.35 1264.27 666 1244.11 663.967 1234.64 L 663.459 1234.03 C 656.892 1231.83 639.819 1234.18 630.997 1232.39 C 601.163 1226.31 608.008 1181.25 608.042 1157 L 608.08 1074.16 L 607.295 1073.91 L 600.694 1073.65 C 600.002 1073.7 598.48 1073.85 597.504 1073.85 C 533.013 1073.57 468.498 1073.44 404.008 1073.43 C 389.572 1073.43 380.256 1073.41 370.518 1061.03 C 366.937 1056.47 364.357 1051.46 364.138 1045.59 C 363.401 1025.84 363.955 1005.79 363.961 986.012 L 363.974 858.606 L 363.979 435.886 z" class="svgShape color82d3d4-1 selectable"></path><path fill="#e4edeb" d="M 1443.94 833.423 C 1456.64 846.214 1469.03 859.31 1481.1 872.698 C 1484.38 875.953 1488.37 880.309 1492.18 882.7 C 1490.1 889.709 1442.8 932.257 1433.16 941.391 C 1420.95 952.967 1400.17 973.751 1387.24 984.274 C 1378.98 996.059 1371.79 1003.85 1356.47 1005.09 C 1338.75 1010.02 1316.54 1011.09 1298.71 1015.66 L 1296.92 1016.04 C 1298.84 1048.21 1297.23 1091.54 1297.43 1124.81 L 1297.93 1178.71 C 1297.96 1193.32 1300.34 1211.68 1290.16 1222.93 C 1282.72 1231.16 1274.36 1233.13 1263.54 1233.41 C 1234.12 1234.14 1203.94 1233.09 1174.58 1234.23 C 1175.37 1244.62 1176.33 1291.71 1174.84 1301.21 C 1174.27 1314.27 1174.84 1322.74 1164.56 1332.2 C 1162.15 1334.44 1159.59 1336.5 1156.89 1338.37 C 1145.84 1340.51 1136.61 1340.08 1125.36 1340 L 939.61 1340.03 C 919.954 1340.05 847.268 1342.22 834.249 1337.65 C 812.179 1319.9 818.549 1298.05 818.705 1271.7 C 818.951 1259.4 818.802 1246.56 818.84 1234.22 C 817.73 1214.2 818.502 1187.37 818.596 1166.96 L 728.478 1167.01 C 732.847 1188.11 741.006 1214.14 744.251 1234.27 C 745.03 1239.17 746.558 1244.39 743.832 1248.59 C 725.62 1254.4 692.217 1262.77 676.527 1269.39 C 668.35 1264.27 666 1244.11 663.967 1234.64 L 663.459 1234.03 C 656.892 1231.83 639.819 1234.18 630.997 1232.39 C 601.163 1226.31 608.008 1181.25 608.042 1157 L 608.08 1074.16 C 615.093 1073.89 621.281 1073.59 628.3 1073.97 L 629.391 1075.68 L 630.098 1074.01 C 634.274 1063.99 638.503 1061.12 647.537 1056.27 C 656.363 1047.64 669.271 1039.39 681.933 1039.32 C 682.178 997.441 702.047 1003.78 736.114 1004 C 745.211 995.423 759.956 991.458 763.787 987.068 C 764.442 984.262 764.392 984.883 765.899 982.255 C 773.629 979.022 807.081 962.853 811.319 956.827 C 832.332 956.508 853.348 956.459 874.363 956.68 C 886.936 956.743 925.175 958.455 933.705 953.719 L 941.151 945.877 C 943.541 945.638 947.218 944.795 948.667 946.546 C 968.015 969.923 990.723 1002.48 1008.9 1025.63 C 1022.01 1006.45 1034.69 986.983 1046.92 967.241 C 1047.65 966.549 1059.86 947.745 1061.02 945.963 C 1054.82 945.983 1048.38 945.8 1042.15 945.709 C 1042.24 944.176 1042.51 938.473 1043.18 937.569 C 1047.51 933.457 1058.44 933.234 1064.71 931.369 C 1106.09 919.058 1141.92 890.916 1157.65 849.941 C 1216.78 849.711 1275.92 849.837 1335.05 850.318 L 1389.79 850.391 C 1399.38 850.394 1413.09 850.765 1422.19 849.868 L 1424.67 849.515 C 1429.79 845.948 1438.88 837.732 1443.94 833.423 z" class="svgShape colore4eded-2 selectable"></path><path fill="#ffffff" d="M 1443.94 833.423 C 1456.64 846.214 1469.03 859.31 1481.1 872.698 C 1484.38 875.953 1488.37 880.309 1492.18 882.7 C 1490.1 889.709 1442.8 932.257 1433.16 941.391 C 1420.95 952.967 1400.17 973.751 1387.24 984.274 C 1378.98 996.059 1371.79 1003.85 1356.47 1005.09 C 1338.75 1010.02 1316.54 1011.09 1298.71 1015.66 L 1296.92 1016.04 C 1298.84 1048.21 1297.23 1091.54 1297.43 1124.81 L 1297.93 1178.71 C 1297.96 1193.32 1300.34 1211.68 1290.16 1222.93 C 1282.72 1231.16 1274.36 1233.13 1263.54 1233.41 C 1234.12 1234.14 1203.94 1233.09 1174.58 1234.23 C 1175.37 1244.62 1176.33 1291.71 1174.84 1301.21 C 1174.02 1293.6 1174.37 1279.14 1174.31 1271.02 L 1173.93 1234.19 C 1174.6 1212.51 1175.26 1189.96 1173.83 1168.34 C 1179.21 1168.31 1196.28 1168.95 1199.78 1167.65 C 1231.7 1165.1 1232.92 1112.18 1198.77 1109.49 C 1195 1110.13 1180.68 1109.97 1176.44 1109.98 L 1127.02 1109.81 C 1125.47 1095.17 1126.18 1067.56 1126.17 1051.99 L 1126.13 946.342 C 1109.62 946.071 1093.1 945.988 1076.59 946.095 C 1071.73 945.827 1065.95 945.97 1061.02 945.963 C 1054.82 945.983 1048.38 945.8 1042.15 945.709 C 1042.24 944.176 1042.51 938.473 1043.18 937.569 C 1047.51 933.457 1058.44 933.234 1064.71 931.369 C 1106.09 919.058 1141.92 890.916 1157.65 849.941 C 1216.78 849.711 1275.92 849.837 1335.05 850.318 L 1389.79 850.391 C 1399.38 850.394 1413.09 850.765 1422.19 849.868 L 1424.67 849.515 C 1429.79 845.948 1438.88 837.732 1443.94 833.423 z" class="svgShape colorffffff-3 selectable"></path><path fill="#eff4f3" d="M 1237.42 1028.21 C 1247.88 1023.14 1283.6 1018.23 1296.92 1016.04 C 1298.84 1048.21 1297.23 1091.54 1297.43 1124.81 L 1297.93 1178.71 C 1297.96 1193.32 1300.34 1211.68 1290.16 1222.93 C 1282.72 1231.16 1274.36 1233.13 1263.54 1233.41 C 1234.12 1234.14 1203.94 1233.09 1174.58 1234.23 C 1175.37 1244.62 1176.33 1291.71 1174.84 1301.21 C 1174.02 1293.6 1174.37 1279.14 1174.31 1271.02 L 1173.93 1234.19 C 1174.6 1212.51 1175.26 1189.96 1173.83 1168.34 C 1179.21 1168.31 1196.28 1168.95 1199.78 1167.65 C 1231.7 1165.1 1232.92 1112.18 1198.77 1109.49 C 1196.1 1108.14 1178.12 1108.74 1174.32 1108.79 C 1175.59 1088.48 1174.81 1061.18 1174.81 1040.41 C 1182.07 1040.04 1233.51 1031.6 1237.42 1028.21 z" class="svgShape coloreff4f4-4 selectable"></path><path fill="#d4f6f0" d="M 1223.97 943.356 C 1229.42 943.191 1243.43 940.531 1249.07 939.581 L 1296.99 931.471 C 1297.81 953.532 1298.06 975.61 1297.74 997.684 C 1297.73 1002.01 1297.22 1012.07 1298.71 1015.66 L 1296.92 1016.04 C 1283.6 1018.23 1247.88 1023.14 1237.42 1028.21 C 1233.51 1031.6 1182.07 1040.04 1174.81 1040.41 C 1174.81 1061.18 1175.59 1088.48 1174.32 1108.79 C 1178.12 1108.74 1196.1 1108.14 1198.77 1109.49 C 1195 1110.13 1180.68 1109.97 1176.44 1109.98 L 1127.02 1109.81 C 1125.47 1095.17 1126.18 1067.56 1126.17 1051.99 L 1126.13 946.342 C 1135.35 946.878 1144.4 948.627 1153.58 949.485 C 1168.15 950.846 1210.62 937.972 1222.59 940.432 L 1223.97 943.356 z" class="svgShape colord4f6f6-5 selectable"></path><path fill="#daeeeb" d="M 1223.97 943.356 C 1229.42 943.191 1243.43 940.531 1249.07 939.581 L 1296.99 931.471 C 1297.81 953.532 1298.06 975.61 1297.74 997.684 C 1297.73 1002.01 1297.22 1012.07 1298.71 1015.66 L 1296.92 1016.04 C 1283.6 1018.23 1247.88 1023.14 1237.42 1028.21 C 1235.19 1003.55 1225.13 965.897 1223.97 943.356 z" class="svgShape colordaeeee-6 selectable"></path><path fill="#6fc3b5" d="M 1443.94 833.423 C 1456.64 846.214 1469.03 859.31 1481.1 872.698 C 1484.38 875.953 1488.37 880.309 1492.18 882.7 C 1490.1 889.709 1442.8 932.257 1433.16 941.391 C 1420.95 952.967 1400.17 973.751 1387.24 984.274 C 1378.98 996.059 1371.79 1003.85 1356.47 1005.09 C 1338.75 1010.02 1316.54 1011.09 1298.71 1015.66 C 1297.22 1012.07 1297.73 1002.01 1297.74 997.684 C 1298.06 975.61 1297.81 953.532 1296.99 931.471 C 1309.62 930.089 1329.02 928.711 1340.45 923.658 C 1347.86 920.38 1417.33 858.095 1424.67 849.515 C 1429.79 845.948 1438.88 837.732 1443.94 833.423 z" class="svgShape color6fc2c3-7 selectable"></path><path fill="#035c4d" d="M 1332.64 991.885 C 1329.74 986.064 1327.75 981.171 1327.99 974.515 C 1328.24 966.742 1331.7 959.419 1337.54 954.287 C 1343.92 948.602 1352.4 945.873 1360.9 946.77 C 1372.46 948.069 1378.21 954.075 1384.81 962.465 L 1384.93 963.411 C 1388.34 971.821 1388.62 975.206 1387.24 984.274 C 1378.98 996.059 1371.79 1003.85 1356.47 1005.09 C 1346.51 1003.42 1342.86 1002.43 1335.65 995.423 L 1332.64 991.885 z" class="svgShape color2d3838-8 selectable"></path><path fill="#232e2c" d="M 1335.65 995.423 C 1340.63 993.451 1347.69 994.451 1353.41 991.851 C 1364.41 986.858 1375.4 968.576 1384.93 963.411 C 1388.34 971.821 1388.62 975.206 1387.24 984.274 C 1378.98 996.059 1371.79 1003.85 1356.47 1005.09 C 1346.51 1003.42 1342.86 1002.43 1335.65 995.423 z" class="svgShape color232e2e-9 selectable"></path><path fill="#07a086" d="M1481.1 872.698C1484.38 875.953 1488.37 880.309 1492.18 882.7 1490.1 889.709 1442.8 932.257 1433.16 941.391 1420.95 952.967 1400.17 973.751 1387.24 984.274 1388.62 975.206 1388.34 971.821 1384.93 963.411L1384.81 962.465C1404.78 942.379 1425.17 922.72 1445.98 903.503 1455.17 894.873 1470.93 879.29 1481.1 872.698zM1332.64 991.885 1335.65 995.423C1342.86 1002.43 1346.51 1003.42 1356.47 1005.09 1338.75 1010.02 1316.54 1011.09 1298.71 1015.66 1297.22 1012.07 1297.73 1002.01 1297.74 997.684 1308.71 996.32 1321.9 994.339 1332.64 991.885z" class="svgShape color079fa0-10 selectable"></path><path fill="#66f6de" d="M 818.705 1271.7 C 867.462 1272.08 917.313 1271.09 966.224 1271.08 C 1018.66 1271.07 1073.44 1272.19 1125.76 1271.35 L 1174.31 1271.02 C 1174.37 1279.14 1174.02 1293.6 1174.84 1301.21 C 1174.27 1314.27 1174.84 1322.74 1164.56 1332.2 C 1162.15 1334.44 1159.59 1336.5 1156.89 1338.37 C 1145.84 1340.51 1136.61 1340.08 1125.36 1340 L 939.61 1340.03 C 919.954 1340.05 847.268 1342.22 834.249 1337.65 C 812.179 1319.9 818.549 1298.05 818.705 1271.7 z" class="svgShape color66f5f6-11 selectable"></path><path fill="#5afadf" d="M 1125.76 1271.35 L 1174.31 1271.02 C 1174.37 1279.14 1174.02 1293.6 1174.84 1301.21 C 1174.27 1314.27 1174.84 1322.74 1164.56 1332.2 C 1162.15 1334.44 1159.59 1336.5 1156.89 1338.37 C 1145.84 1340.51 1136.61 1340.08 1125.36 1340 C 1126.48 1321.53 1125.51 1290.99 1125.76 1271.35 z" class="svgShape color5af9fa-12 selectable"></path><path fill="#daeeeb" d="M 647.537 1056.27 C 656.363 1047.64 669.271 1039.39 681.933 1039.32 C 683.309 1046.28 685.253 1053.25 691.629 1057.28 C 706.41 1066.65 777.542 1059.74 800.091 1061.89 L 798.041 1067.3 C 788.733 1071.2 722.679 1106.56 721.349 1109.19 C 721.279 1109.33 721.313 1109.5 721.294 1109.65 C 703.454 1109.54 691.745 1107.19 682.156 1125.37 C 680.985 1166.25 691.259 1167.39 728.478 1167.01 C 732.847 1188.11 741.006 1214.14 744.251 1234.27 C 745.03 1239.17 746.558 1244.39 743.832 1248.59 C 725.62 1254.4 692.217 1262.77 676.527 1269.39 C 668.35 1264.27 666 1244.11 663.967 1234.64 L 663.459 1234.03 C 656.892 1231.83 639.819 1234.18 630.997 1232.39 C 601.163 1226.31 608.008 1181.25 608.042 1157 L 608.08 1074.16 C 615.093 1073.89 621.281 1073.59 628.3 1073.97 L 629.391 1075.68 L 630.098 1074.01 C 634.274 1063.99 638.503 1061.12 647.537 1056.27 z" class="svgShape colordaeeee-13 selectable"></path><path fill="#eff4f3" d="M 608.08 1074.16 C 615.093 1073.89 621.281 1073.59 628.3 1073.97 L 629.391 1075.68 C 628.129 1090.73 632.201 1105.52 637.274 1119.7 C 642.722 1145.68 648.548 1171.58 654.751 1197.38 C 657.264 1208.03 660.41 1224.14 663.459 1234.03 C 656.892 1231.83 639.819 1234.18 630.997 1232.39 C 601.163 1226.31 608.008 1181.25 608.042 1157 L 608.08 1074.16 z" class="svgShape coloreff4f4-14 selectable"></path><path fill="#cbd7d5" d="M 647.537 1056.27 C 653.041 1055.93 657.736 1055.48 663.156 1056.94 C 690.235 1064.25 697.055 1098.5 677.665 1117.45 C 671.545 1123.4 663.232 1126.53 654.712 1126.11 C 647.777 1125.7 642.808 1121.66 637.274 1119.7 C 632.201 1105.52 628.129 1090.73 629.391 1075.68 L 630.098 1074.01 C 634.274 1063.99 638.503 1061.12 647.537 1056.27 z" class="svgShape colorcbd7d7-15 selectable"></path><path fill="#07a086" d="M 663.967 1234.64 C 671.115 1233.73 683.863 1234.14 691.385 1234.18 C 709.006 1234.39 726.629 1234.42 744.251 1234.27 C 745.03 1239.17 746.558 1244.39 743.832 1248.59 C 725.62 1254.4 692.217 1262.77 676.527 1269.39 C 668.35 1264.27 666 1244.11 663.967 1234.64 z" class="svgShape color079fa0-16 selectable"></path><path fill="#82d4c6" d="M 811.319 956.827 C 832.332 956.508 853.348 956.459 874.363 956.68 C 878.378 963.536 886.369 978.227 884.432 986.06 C 882.083 995.558 876.055 997.611 870.085 1003.98 C 886.585 1003.9 925.115 999.998 938.435 1011 C 943.485 1015.17 944.268 1029.96 944.054 1036.76 C 943.107 1066.88 914.491 1061.21 893.544 1061.69 C 866.609 1062.5 839.237 1060.66 812.569 1061.52 L 800.091 1061.89 C 777.542 1059.74 706.41 1066.65 691.629 1057.28 C 685.253 1053.25 683.309 1046.28 681.933 1039.32 C 682.178 997.441 702.047 1003.78 736.114 1004 C 745.211 995.423 759.956 991.458 763.787 987.068 C 764.442 984.262 764.392 984.883 765.899 982.255 C 773.629 979.022 807.081 962.853 811.319 956.827 z" class="svgShape color82d3d4-17 selectable"></path><path fill="#d4f6f0" d="M 811.319 956.827 C 832.332 956.508 853.348 956.459 874.363 956.68 C 878.378 963.536 886.369 978.227 884.432 986.06 C 882.083 995.558 876.055 997.611 870.085 1003.98 L 775.695 1004.11 L 772.453 1004.04 C 769.726 998.797 767.168 990.678 763.787 987.068 C 764.442 984.262 764.392 984.883 765.899 982.255 C 773.629 979.022 807.081 962.853 811.319 956.827 z" class="svgShape colord4f6f6-18 selectable"></path><path fill="#b7e4dc" d="M 765.899 982.255 C 768.128 986.643 774.884 999.655 775.695 1004.11 L 772.453 1004.04 C 769.726 998.797 767.168 990.678 763.787 987.068 C 764.442 984.262 764.392 984.883 765.899 982.255 z" class="svgShape colorb7e4e4-19 selectable"></path><path fill="#daeeeb" d="M 763.787 987.068 C 767.168 990.678 769.726 998.797 772.453 1004.04 L 736.114 1004 C 745.211 995.423 759.956 991.458 763.787 987.068 z" class="svgShape colordaeeee-20 selectable"></path><path fill="#5afadf" d="M 800.091 1061.89 L 812.569 1061.52 C 813.963 1062.02 816.693 1062.91 817.914 1063.49 C 819.809 1068.18 819.121 1103.89 818.584 1109.95 L 888.077 1109.82 C 917.062 1109.85 944.838 1102.96 943.859 1141.18 C 943.028 1173.62 910.23 1167.01 887.44 1167 L 818.596 1166.96 L 728.478 1167.01 C 691.259 1167.39 680.985 1166.25 682.156 1125.37 C 691.745 1107.19 703.454 1109.54 721.294 1109.65 C 721.313 1109.5 721.279 1109.33 721.349 1109.19 C 722.679 1106.56 788.733 1071.2 798.041 1067.3 L 800.091 1061.89 z" class="svgShape color5af9fa-21 selectable"></path><path fill="#ffffff" d="M 800.091 1061.89 L 812.569 1061.52 C 813.963 1062.02 816.693 1062.91 817.914 1063.49 C 819.809 1068.18 819.121 1103.89 818.584 1109.95 C 787.847 1110.04 751.736 1110.82 721.294 1109.65 C 721.313 1109.5 721.279 1109.33 721.349 1109.19 C 722.679 1106.56 788.733 1071.2 798.041 1067.3 L 800.091 1061.89 z" class="svgShape colorffffff-22 selectable"></path><path fill="#d4f6f0" d="M 800.091 1061.89 L 812.569 1061.52 C 813.963 1062.02 816.693 1062.91 817.914 1063.49 C 812.491 1066.45 808.079 1069.45 802.041 1070.33 C 799.007 1069.2 800.386 1070.04 798.041 1067.3 L 800.091 1061.89 z" class="svgShape colord4f6f6-23 selectable"></path><path fill="#232e2c" d="M 1199.78 1167.65 C 1194.91 1166.64 1165.89 1167.04 1158.85 1167.06 L 1048.27 1167.17 C 1033.97 1167.18 999.955 1170.41 988.827 1161.21 C 978.924 1152.61 978.365 1133.66 983.061 1122.72 C 990.868 1104.54 1022.88 1109.67 1040.3 1109.7 L 1127.02 1109.81 L 1176.44 1109.98 C 1180.68 1109.97 1195 1110.13 1198.77 1109.49 C 1232.92 1112.18 1231.7 1165.1 1199.78 1167.65 z" class="svgShape color232e2e-24 selectable"></path><path fill="#54e9d0" d="M 818.84 1234.22 L 1109.74 1234.35 C 1115.25 1234.55 1120.43 1234.76 1125.96 1234.64 L 1125.76 1271.35 C 1073.44 1272.19 1018.66 1271.07 966.224 1271.08 C 917.313 1271.09 867.462 1272.08 818.705 1271.7 C 818.951 1259.4 818.802 1246.56 818.84 1234.22 z" class="svgShape color54e8e9-25 selectable"></path><path fill="#cbd7d5" d="M 941.151 945.877 C 943.541 945.638 947.218 944.795 948.667 946.546 C 968.015 969.923 990.723 1002.48 1008.9 1025.63 C 1022.01 1006.45 1034.69 986.983 1046.92 967.241 C 1047.65 966.549 1059.86 947.745 1061.02 945.963 C 1065.95 945.97 1071.73 945.827 1076.59 946.095 C 1078.31 953.011 1075.48 956.51 1071.64 962.396 C 1054.7 988.333 1038.57 1014.91 1021.23 1040.56 C 1018.48 1044.1 1013.58 1048.42 1009.5 1050.09 C 1005.78 1051.62 997.918 1042.15 995.802 1039.31 C 978.354 1015.89 961.302 992.135 943.891 968.684 C 940.817 964.543 935.652 958.241 933.705 953.719 L 941.151 945.877 z" class="svgShape colorcbd7d7-26 selectable"></path><path fill="#48ecd0" d="M 1109.74 1234.35 L 1173.93 1234.19 L 1174.31 1271.02 L 1125.76 1271.35 L 1125.96 1234.64 C 1120.43 1234.76 1115.25 1234.55 1109.74 1234.35 z" class="svgShape color48ebec-27 selectable"></path><path fill="#eff4f3" d="M 1163.85 601.981 L 1298.08 601.92 L 1297.92 848.813 C 1326 850.959 1360.95 848.278 1389.65 849.153 C 1396.48 849.362 1416.51 848.584 1422.19 849.868 C 1413.09 850.765 1399.38 850.394 1389.79 850.391 L 1335.05 850.318 C 1275.92 849.837 1216.78 849.711 1157.65 849.941 C 1141.92 890.916 1106.09 919.058 1064.71 931.369 C 1058.44 933.234 1047.51 933.457 1043.18 937.569 C 1042.51 938.473 1042.24 944.176 1042.15 945.709 C 1048.38 945.8 1054.82 945.983 1061.02 945.963 C 1059.86 947.745 1047.65 966.549 1046.92 967.241 C 1034.69 986.983 1022.01 1006.45 1008.9 1025.63 C 990.723 1002.48 968.015 969.923 948.667 946.546 C 947.218 944.795 943.541 945.638 941.151 945.877 L 933.705 953.719 C 925.175 958.455 886.936 956.743 874.363 956.68 C 853.348 956.459 832.332 956.508 811.319 956.827 C 807.081 962.853 773.629 979.022 765.899 982.255 C 764.392 984.883 764.442 984.262 763.787 987.068 C 759.956 991.458 745.211 995.423 736.114 1004 C 702.047 1003.78 682.178 997.441 681.933 1039.32 C 669.271 1039.39 656.363 1047.64 647.537 1056.27 C 638.503 1061.12 634.274 1063.99 630.098 1074.01 L 629.391 1075.68 L 628.3 1073.97 C 621.281 1073.59 615.093 1073.89 608.08 1074.16 L 607.295 1073.91 C 608.641 1069.54 608 1032.11 607.995 1024.75 L 607.836 903.217 C 609.454 877.007 607.777 838.22 608.038 811.053 C 608.706 741.577 607.193 671.426 607.995 601.948 L 828.873 601.939 L 1163.85 601.981 z" class="svgShape coloreff4f4-28 selectable"></path><path fill="#daeeeb" d="M 607.995 601.948 L 828.873 601.939 C 825.588 612.458 822.961 623.171 821.007 634.016 C 820.04 639.393 819.412 646.453 818.21 651.44 C 816.02 652.235 815.684 652.069 813.303 652.318 C 827.859 653.078 838.311 658.42 837.059 674.647 C 836.038 687.893 828.555 694.881 822.516 705.59 C 826.163 715.277 826.724 735.456 832.195 749.436 C 813.155 765.032 814.271 771.8 815.313 794.888 L 887.222 794.761 C 900.13 794.752 913.401 794.211 926.07 795.716 C 933.107 796.552 940.235 802.487 941.979 809.044 C 944.603 818.911 946.164 836.993 937.685 844.487 C 927.329 853.64 914.034 851.524 901.351 851.667 C 888.472 851.65 875.606 851.512 862.741 851.433 C 865.033 852.776 873.764 871.888 878.161 877.043 C 885.622 885.789 891.623 891.213 900.172 898.799 C 894.121 898.961 859.175 898.272 856.296 899.631 C 878.403 899.679 902.247 898.655 924.122 900.315 C 946.424 902.008 947.051 930.014 941.151 945.877 L 933.705 953.719 C 925.175 958.455 886.936 956.743 874.363 956.68 C 853.348 956.459 832.332 956.508 811.319 956.827 C 807.081 962.853 773.629 979.022 765.899 982.255 C 764.392 984.883 764.442 984.262 763.787 987.068 C 759.956 991.458 745.211 995.423 736.114 1004 C 702.047 1003.78 682.178 997.441 681.933 1039.32 C 669.271 1039.39 656.363 1047.64 647.537 1056.27 C 638.503 1061.12 634.274 1063.99 630.098 1074.01 L 629.391 1075.68 L 628.3 1073.97 C 621.281 1073.59 615.093 1073.89 608.08 1074.16 L 607.295 1073.91 C 608.641 1069.54 608 1032.11 607.995 1024.75 L 607.836 903.217 C 609.454 877.007 607.777 838.22 608.038 811.053 C 608.706 741.577 607.193 671.426 607.995 601.948 z" class="svgShape colordaeeee-29 selectable"></path><path fill="#5afadf" d="M 697.116 955.816 C 687.964 950.15 682.78 944.462 682.072 933.204 C 680.937 920.616 683.117 902.225 699.015 900.514 C 715.589 898.731 734.684 899.589 751.491 899.627 L 856.296 899.631 C 878.403 899.679 902.247 898.655 924.122 900.315 C 946.424 902.008 947.051 930.014 941.151 945.877 L 933.705 953.719 C 925.175 958.455 886.936 956.743 874.363 956.68 C 853.348 956.459 832.332 956.508 811.319 956.827 C 787.259 956.402 763.195 956.332 739.133 956.617 C 725.78 956.664 710.226 957.145 697.116 955.816 z" class="svgShape color5af9fa-30 selectable"></path><path fill="#66f6de" d="M 815.313 794.888 L 887.222 794.761 C 900.13 794.752 913.401 794.211 926.07 795.716 C 933.107 796.552 940.235 802.487 941.979 809.044 C 944.603 818.911 946.164 836.993 937.685 844.487 C 927.329 853.64 914.034 851.524 901.351 851.667 C 888.472 851.65 875.606 851.512 862.741 851.433 L 754.574 851.319 C 737.043 851.341 719.022 851.954 701.654 850.503 C 686.858 849.267 682.528 837.96 682.068 824.943 C 681.507 809.061 683.372 803.5 696.754 795.104 C 709.381 794.366 725.913 794.837 738.904 794.843 L 815.313 794.888 z" class="svgShape color66f5f6-31 selectable"></path><path fill="#035c4d" d="M 813.303 652.318 C 827.859 653.078 838.311 658.42 837.059 674.647 C 836.038 687.893 828.555 694.881 822.516 705.59 L 815.601 713.769 C 811.565 712.952 808.443 711.655 804.621 710.235 C 808.597 704.164 814.313 697.132 818.84 691.265 C 801.998 692.485 798.289 687.902 794.638 672.546 C 797.594 660.284 801.207 656.119 813.303 652.318 z" class="svgShape color2d3838-32 selectable"></path><path fill="#eff4f3" d="M 813.103 664.57 C 817.564 663.128 822.352 665.555 823.827 670.005 C 825.302 674.455 822.911 679.261 818.472 680.769 C 813.986 682.293 809.118 679.871 807.628 675.374 C 806.137 670.877 808.595 666.026 813.103 664.57 z" class="svgShape coloreff4f4-33 selectable"></path><path fill="#035c4d" d="M 762.038 653.081 C 796.782 651.388 798.419 703.474 771.1 713.731 C 737.656 715.336 734.158 665.539 762.038 653.081 z" class="svgShape color2d3838-34 selectable"></path><path fill="#eff4f3" d="M 764.733 663.848 C 781.527 666.494 779.564 693.574 768.172 703.237 C 752.718 698.523 752.936 672.379 764.733 663.848 z" class="svgShape coloreff4f4-35 selectable"></path><path fill="#035c4d" d="M 718.217 653.934 L 731.129 654.059 C 731.354 665.036 731.07 677.417 732.531 688.166 C 732.488 687.845 742.182 691.507 737.222 699.931 C 734.656 700.323 734.174 700.381 731.743 701.233 C 729.84 705.501 730.9 706.03 731.034 711.346 L 729.318 712.68 C 725.012 713.292 724.701 713.421 720.519 712.594 C 718.303 710.195 719.05 709.01 718.783 704.783 L 719.036 701.927 C 713.055 695.834 698.649 705.056 692.48 697.061 C 691.32 687.446 711.353 663.88 718.217 653.934 z" class="svgShape color2d3838-36 selectable"></path><path fill="#ffffff" d="M 718.723 670.765 C 720.713 673.053 719.708 685.344 719.613 689.186 L 707.281 689.211 L 706.579 688.043 C 709.405 682.753 714.983 675.76 718.723 670.765 z" class="svgShape colorffffff-37 selectable"></path><path fill="#e4edeb" d="M 1163.85 601.981 L 1298.08 601.92 L 1297.92 848.813 L 1296.2 847.932 C 1287.55 849.274 1259.41 848.923 1249.31 848.96 L 1158.22 849.101 C 1170.87 817.143 1165.52 778.013 1166.44 743.955 C 1166.71 733.971 1165.7 722.578 1168.06 712.792 C 1169.17 711.136 1169.48 708.147 1169.61 706.206 C 1167.05 702.823 1165.12 703.714 1159.79 702.164 C 1158.55 698.155 1157.83 683.237 1160.4 680.241 C 1165.03 680.308 1167.19 681.021 1170.07 677.3 C 1170.22 669.56 1171.53 663.533 1172.08 655.989 C 1173.56 635.917 1170.75 620.593 1163.85 601.981 z" class="svgShape colore4eded-38 selectable"></path><path fill="#cbd7d5" d="M 828.873 601.939 L 1163.85 601.981 C 1170.75 620.593 1173.56 635.917 1172.08 655.989 C 1171.53 663.533 1170.22 669.56 1170.07 677.3 C 1167.19 681.021 1165.03 680.308 1160.4 680.241 C 1157.83 683.237 1158.55 698.155 1159.79 702.164 C 1165.12 703.714 1167.05 702.823 1169.61 706.206 C 1169.48 708.147 1169.17 711.136 1168.06 712.792 C 1133.74 715.301 1152.55 698.554 1144.8 680.904 C 1139.52 679.768 1139.12 680.582 1136.87 675.706 C 1136.81 673.264 1136.81 673.374 1137.52 671.029 C 1140 669.778 1140.45 669.45 1142.69 667.779 C 1144.8 664.272 1144.12 660.253 1144 656.037 C 1149.34 655.846 1153.55 655.524 1158.89 656.171 C 1160.65 658.49 1160.12 663.906 1160.34 667.684 L 1161.77 668.776 C 1172.59 668.314 1171.45 657.942 1171.44 649.502 C 1171.41 633.311 1168.72 618.694 1163.21 603.49 C 1151.6 603.282 1139.77 604.666 1128.45 604.36 C 1097.49 603.521 1064.7 605.676 1033.94 604.085 C 1015.14 619.655 988.556 635.818 968.658 650.667 C 963.436 654.565 946.656 665.395 943.143 669.691 C 935.837 667.553 927.945 669.209 922.115 674.104 C 916.285 679 913.288 686.486 914.13 694.052 L 912.526 693.051 C 909.972 694.766 906.833 696.656 904.699 698.792 L 904.865 699.447 C 907.539 702.086 909.612 703.405 910.021 707.024 C 905.786 715.616 889.334 714.181 881.374 712.568 C 880.378 720.68 871.744 742.269 868.475 750.837 C 854.391 745.234 847.983 742.716 833.474 748.883 L 832.195 749.436 C 826.724 735.456 826.163 715.277 822.516 705.59 C 828.555 694.881 836.038 687.893 837.059 674.647 C 838.311 658.42 827.859 653.078 813.303 652.318 C 815.684 652.069 816.02 652.235 818.21 651.44 C 819.412 646.453 820.04 639.393 821.007 634.016 C 822.961 623.171 825.588 612.458 828.873 601.939 z" class="svgShape colorcbd7d7-39 selectable"></path><path fill="#035c4d" d="M881.374 712.568C865.795 706.484 858.971 689.426 863.8 673.803 866.146 666.166 871.493 659.809 878.615 656.189 887.028 651.862 906.746 649.827 911.311 660.221 910.328 663.362 906.627 666.509 904.19 668.999 871.945 644.961 861.269 716.671 904.865 699.447 907.539 702.086 909.612 703.405 910.021 707.024 905.786 715.616 889.334 714.181 881.374 712.568zM1145.16 657.492C1149.66 657.357 1154.31 657.154 1158.8 657.11 1158.72 661.005 1158.07 665.4 1160.03 668.553 1163.17 670.28 1163.72 670.088 1167.24 670.473 1169.89 672.704 1169.17 673.034 1170.07 677.3 1167.19 681.021 1165.03 680.308 1160.4 680.241 1157.83 683.237 1158.55 698.155 1159.79 702.164 1165.12 703.714 1167.05 702.823 1169.61 706.206 1169.48 708.147 1169.17 711.136 1168.06 712.792 1133.74 715.301 1152.55 698.554 1144.8 680.904 1139.52 679.768 1139.12 680.582 1136.87 675.706 1139.2 671.8 1139.9 671.545 1143.99 669.532 1146.08 666.504 1145.28 661.433 1145.16 657.492z" class="svgShape color2d3838-40 selectable"></path><path fill="#e4edeb" d="M 954.115 928.905 C 975.384 935.313 993.608 938.432 1015.85 938.465 C 1020.38 938.472 1039.47 936.891 1041.44 937.994 L 1042.15 945.709 C 1048.38 945.8 1054.82 945.983 1061.02 945.963 C 1059.86 947.745 1047.65 966.549 1046.92 967.241 C 1043.81 966.101 1014.28 962.692 1007.92 961.533 C 989.446 958.168 971.225 950.189 954.337 946.763 L 954.115 928.905 z" class="svgShape colore4eded-41 selectable"></path><path fill="#035c4d" d="M 914.13 694.052 C 913.288 686.486 916.285 679 922.115 674.104 C 927.945 669.209 935.837 667.553 943.143 669.691 C 954.097 672.897 960.982 683.72 959.244 695 C 957.506 706.28 947.683 714.529 936.272 714.289 C 924.861 714.049 915.393 705.395 914.13 694.052 z" class="svgShape color2d3838-42 selectable"></path><path fill="#ffffff" d="M 932.801 679.709 C 948.149 678.763 950.703 693.204 940.871 702.854 C 924.583 704.76 922.48 689.055 932.801 679.709 z" class="svgShape colorffffff-43 selectable"></path><path fill="#e4edeb" d="M 1036.53 753.96 C 1053.87 753.754 1053.92 767.605 1054.01 781.391 C 1054.1 795.911 1054.87 811.555 1052.9 825.958 C 1052.25 830.757 1046.89 833.54 1043.14 835.754 C 1036.98 836.168 1028.13 834.998 1026.88 827.28 C 1023.57 806.857 1024.34 783.687 1025.97 763.049 C 1026.31 758.778 1033.31 755.515 1036.53 753.96 z" class="svgShape colore4eded-44 selectable"></path><path fill="#cbd7d5" d="M 999.226 864.386 C 1017.12 863.534 1043.7 863.717 1061.62 864.32 C 1058.94 875.365 1058.11 877.854 1051.51 887.05 C 1045.11 892.37 1039.48 895.551 1030.94 896.082 C 1023.05 896.596 1015.29 893.844 1009.48 888.469 C 1002.64 882.117 999.671 873.523 999.226 864.386 z" class="svgShape colorcbd7d7-45 selectable"></path><path fill="#035c4d" d="M993.365 669.197C1014.92 671.066 1009.09 696.224 1008.93 712.957L995.979 712.977C996.293 703.504 999.651 683.214 989.616 679.768 985.594 680.125 985.177 680.706 981.658 683.018 980.138 689.514 980.494 705.627 980.483 713L967.935 712.903C968.109 698.892 967.959 684.61 967.952 670.575 974.243 670.379 978.073 668.619 980.559 674.68 983.741 674.447 987.763 670.373 993.365 669.197zM1031.82 651.144C1036.5 650.7 1042.84 650.177 1047 652.361L1047.33 654.348C1042.72 663.096 1034.76 659.204 1035.13 669.285L1037.1 670.602C1040.05 670.593 1042.08 670.273 1044.67 671.617 1045.91 674.585 1045.29 675.913 1044.64 679.084 1042.01 680.808 1038.57 680.318 1034.96 680.453L1034.99 710.25 1034.45 712.259C1030.99 713.672 1025.85 713.11 1021.94 713.013 1022.01 703.834 1022.59 694.773 1022.11 685.577 1021.62 676.166 1019.81 683.158 1015.31 677.497 1014.86 674.65 1014.45 673.813 1015.3 671.08 1017.23 670.299 1018.89 669.987 1020.95 669.658 1026.81 662.839 1018.69 659.209 1031.82 651.144zM1118.73 669.214C1123.79 669.118 1130.38 670.079 1133.48 674.434 1133.71 678.232 1134.12 676.452 1131.82 679.856 1125.63 683.922 1116.39 678.333 1111.33 684.468 1107.82 688.732 1111.74 699.243 1115.65 702.519 1124.24 705.695 1124.88 695.469 1134.25 706.226 1134.76 707.605 1134.6 706.721 1134.02 708.914 1114.68 725.048 1087.22 701.685 1101.43 679.58 1105.85 672.713 1111.26 670.807 1118.73 669.214zM1050.21 650.098 1063.42 650.087C1063.52 670.889 1063.17 692.158 1063.05 712.994L1050.28 713.005C1050.49 692.036 1050.47 671.066 1050.21 650.098z" class="svgShape color2d3838-46 selectable"></path><path fill="#cbd7d5" d="M955.101 752.015C955.745 752.114 956.39 752.213 957.035 752.312 961.597 753.137 965.579 755.895 967.957 759.874 974.166 770.072 968.287 779.417 959.189 784.863 941.67 784.731 936.542 762.343 955.101 752.015zM1105.93 752.93C1124.96 750.923 1130.46 773.471 1113.11 784.523 1094.62 786.731 1091.98 765.157 1105.93 752.93z" class="svgShape colorcbd7d7-47 selectable"></path><path fill="#035c4d" d="M1076.28 670.761C1080.5 670.582 1084.56 670.03 1088.26 671.789 1089.29 676.895 1088.74 705.839 1088.75 712.829L1075.87 712.971 1076.28 670.761zM1079.54 650.414C1081.98 649.386 1084.78 649.783 1086.84 651.447 1088.9 653.112 1089.88 655.774 1089.39 658.376 1088.9 660.978 1087.01 663.099 1084.49 663.895 1080.82 665.049 1076.9 663.121 1075.58 659.517 1074.25 655.913 1076 651.904 1079.54 650.414z" class="svgShape color2d3838-48 selectable"></path><path fill="#07a086" d="M 363.979 435.886 C 364.333 409.136 363.312 382.015 364.084 355.258 C 364.273 348.687 367.297 340.538 371.278 335.298 C 375.957 329.204 382.885 325.242 390.509 324.299 C 403.351 322.823 444.581 323.782 459.099 323.798 L 597.308 323.893 L 800.873 323.918 C 834.129 323.918 867.44 323.527 900.676 324.057 C 917.718 324.329 928.787 337.411 930.153 353.751 C 929.114 379.546 929.913 409.57 930.01 435.727 C 886.531 435.054 843.046 434.907 799.564 435.287 L 603.473 435.272 L 455.08 435.339 C 425.799 435.322 392.907 434.585 363.979 435.886 z" class="svgShape color079fa0-49 selectable"></path><path fill="#82d4c6" d="M576.169 361.573C582.623 360.302 589.26 362.616 593.525 367.624 597.79 372.632 599.017 379.552 596.735 385.722 594.453 391.891 589.017 396.347 582.52 397.373 572.732 398.92 563.509 392.345 561.778 382.589 560.047 372.833 566.447 363.487 576.169 361.573zM502.807 361.691C512.652 360.445 521.652 367.393 522.94 377.233 524.227 387.073 517.318 396.102 507.483 397.432 497.59 398.769 488.494 391.809 487.199 381.91 485.903 372.011 492.902 362.945 502.807 361.691zM429.118 361.863C438.874 360.384 447.984 367.09 449.471 376.844 450.959 386.599 444.263 395.715 434.51 397.212 424.743 398.711 415.612 392.004 414.122 382.236 412.632 372.468 419.349 363.343 429.118 361.863z" class="svgShape color82d3d4-50 selectable"></path><path fill="#232e2c" d="M 1021.91 510.79 L 1196.18 510.757 C 1222.82 510.685 1250.4 509.59 1276.98 511.305 C 1286.02 511.889 1295.69 522.41 1296.7 531.414 C 1299.06 552.629 1298.57 575.753 1298.22 597.282 C 1298.19 598.828 1298.14 600.374 1298.08 601.92 L 1163.85 601.981 L 828.873 601.939 L 607.995 601.948 C 608.509 583.42 602.91 530.673 615.785 517.885 C 618.748 514.942 622.905 512.14 627.109 511.469 C 639.551 509.482 653.565 510.684 666.159 510.708 L 738.615 510.762 L 1021.91 510.79 z" class="svgShape color232e2e-51 selectable"></path><path fill="#ffffff" d="M 1259.09 535.853 L 1261.82 538.262 L 1261.9 540.4 C 1258.71 545.769 1251.77 551.339 1246.91 555.885 C 1253.24 561.651 1258.21 565.01 1261.29 572.898 L 1260.51 574.234 C 1253.53 573.213 1247.44 565.148 1242.67 559.985 L 1226.73 575.408 C 1225.93 575.217 1224.4 574.544 1223.57 574.214 L 1222.87 572.363 C 1224.88 567.463 1234.2 560.069 1238.52 556.245 C 1234.82 552.775 1223.18 543.426 1224.35 538.316 C 1231.02 539.049 1237.88 547.27 1242.59 552.013 C 1248.04 546.313 1253.35 541.269 1259.09 535.853 z" class="svgShape colorffffff-52 selectable"></path><path fill="#aec3bf" d="M 750.102 543.529 C 756.657 541.439 763.663 545.078 765.72 551.644 C 767.778 558.209 764.103 565.196 757.527 567.221 C 750.998 569.231 744.071 565.588 742.028 559.069 C 739.986 552.55 743.594 545.605 750.102 543.529 z" class="svgShape coloraec3c3-53 selectable"></path><path fill="#5afadf" d="M 653.113 543.48 C 657.406 542.217 662.046 543.377 665.24 546.511 C 668.434 549.645 669.682 554.263 668.501 558.579 C 667.32 562.895 663.895 566.234 659.55 567.305 C 653.035 568.912 646.43 565.019 644.679 558.541 C 642.929 552.062 646.675 545.373 653.113 543.48 z" class="svgShape color5af9fa-54 selectable"></path><path fill="#66f6de" d="M 702.635 543.383 C 709.126 541.802 715.674 545.764 717.286 552.247 C 718.898 558.731 714.968 565.298 708.492 566.941 C 701.972 568.595 695.351 564.632 693.728 558.104 C 692.105 551.577 696.1 544.974 702.635 543.383 z" class="svgShape color66f5f6-55 selectable"></path><path fill="#6fc3b5" d="M 533.82 1072.81 L 534.016 801.644 L 533.992 722.476 C 534.002 646.971 534.701 658.151 607.138 656.273 L 607.005 821.977 C 607.093 845.665 606.256 880.239 607.836 903.217 L 607.995 1024.75 C 608 1032.11 608.641 1069.54 607.295 1073.91 L 600.694 1073.65 C 597.462 1072.07 541.399 1072.8 533.82 1072.81 z" class="svgShape color6fc2c3-56 selectable"></path><path fill="#ffffff" d="M 834.249 1337.65 C 847.268 1342.22 919.954 1340.05 939.61 1340.03 L 1125.36 1340 C 1136.61 1340.08 1145.84 1340.51 1156.89 1338.37 C 1164.36 1346.67 1171.78 1355.73 1178.7 1364.48 C 1205.83 1398.83 1235.48 1431.81 1261.14 1467.13 C 1264.94 1472.37 1268.97 1499.04 1269.4 1505.92 C 1275.99 1539.88 1282.27 1573.91 1288.23 1608 C 1290.22 1619.11 1294.58 1647.68 1297.53 1657.82 C 1309.71 1665.37 1329.04 1674.31 1335.22 1686.33 L 1336.16 1686.25 C 1352.2 1684.8 1418.21 1696.97 1423.46 1713.08 C 1421.1 1741.23 1262.13 1750.58 1233.47 1752.58 C 1123.83 1759.62 1013.92 1761.36 904.119 1757.78 C 831.431 1755.51 757.158 1751.48 685.183 1740.15 C 674.444 1738.46 596.807 1727.74 618.722 1706.48 C 629.532 1695.99 689.457 1684.69 705.72 1686.04 C 707.445 1679.71 709.814 1675.12 712.595 1669.21 C 713.389 1663.14 725.019 1634.15 727.753 1626.69 L 758.157 1544.13 C 765.342 1524.87 774.437 1501.59 780.223 1482.19 C 786.863 1466.89 793.91 1445.78 799.838 1429.73 L 834.249 1337.65 z" class="svgShape colorffffff-57 selectable"></path><path fill="#eff4f3" d="M 1226.71 1668.22 C 1242.49 1650.62 1252.74 1644.65 1277 1648.58 C 1284.9 1651.72 1290.11 1653.81 1297.53 1657.82 C 1309.71 1665.37 1329.04 1674.31 1335.22 1686.33 L 1336.16 1686.25 C 1352.2 1684.8 1418.21 1696.97 1423.46 1713.08 C 1421.1 1741.23 1262.13 1750.58 1233.47 1752.58 C 1123.83 1759.62 1013.92 1761.36 904.119 1757.78 C 831.431 1755.51 757.158 1751.48 685.183 1740.15 C 674.444 1738.46 596.807 1727.74 618.722 1706.48 C 629.532 1695.99 689.457 1684.69 705.72 1686.04 C 707.445 1679.71 709.814 1675.12 712.595 1669.21 C 732.397 1647.08 754.86 1640.72 782.02 1654.41 C 791.488 1661.56 794.718 1665.75 800.751 1676.06 L 801.562 1675.23 C 803.577 1675.36 803.851 1675.33 805.774 1675.05 C 820.731 1672.88 836.932 1672.3 852.072 1671.58 C 879.367 1670.31 906.677 1669.39 933.995 1668.82 C 984.081 1667.89 1034.18 1667.84 1084.27 1668.65 C 1119.14 1668.88 1178.72 1669.16 1212.68 1673.37 C 1213.45 1676.87 1214.29 1681.32 1215.27 1684.68 C 1219.02 1678.84 1222.62 1673.83 1226.71 1668.22 z" class="svgShape coloreff4f4-58 selectable"></path><path fill="#232e2c" d="M1226.71 1668.22C1242.49 1650.62 1252.74 1644.65 1277 1648.58 1284.9 1651.72 1290.11 1653.81 1297.53 1657.82 1309.71 1665.37 1329.04 1674.31 1335.22 1686.33 1336.27 1690.77 1337.37 1695.49 1336.35 1700.04 1335.5 1703.82 1332.68 1708.09 1329.17 1709.91 1322.69 1713.29 1230.57 1713.12 1222.2 1710.46 1218.96 1709.43 1216.01 1706.39 1214.53 1703.36 1211.5 1697.19 1212.94 1690.76 1215.27 1684.68 1219.02 1678.84 1222.62 1673.83 1226.71 1668.22zM712.595 1669.21C732.397 1647.08 754.86 1640.72 782.02 1654.41 791.488 1661.56 794.718 1665.75 800.751 1676.06 804.115 1686.3 809.341 1697.22 804.704 1707.09 795.537 1715.79 735.65 1710.19 720.414 1711.61 703.861 1713.16 703.732 1698.86 705.72 1686.04 707.445 1679.71 709.814 1675.12 712.595 1669.21zM834.249 1337.65C847.268 1342.22 919.954 1340.05 939.61 1340.03L1125.36 1340C1136.61 1340.08 1145.84 1340.51 1156.89 1338.37 1164.36 1346.67 1171.78 1355.73 1178.7 1364.48 1205.83 1398.83 1235.48 1431.81 1261.14 1467.13 1264.94 1472.37 1268.97 1499.04 1269.4 1505.92 1265.2 1513.75 1263.41 1516.28 1256.03 1521.82L1255.48 1522.48C1230.18 1535.57 1215.06 1520.54 1204.98 1498.21L1194.23 1501.12C1189.2 1502.1 1184.04 1503.24 1178.96 1503.76 1145.85 1464.27 1110.62 1424.8 1078.38 1384.78L909.141 1384.62 879.909 1464.33C875.297 1476.82 868.842 1495.86 863.428 1507.85L859.673 1506.79C857.292 1509.39 856.561 1512.7 855.192 1516.05 849.898 1529.02 842.409 1536.11 829.036 1539.91L825.945 1540.32C797.818 1538.72 785.479 1515.9 795.277 1490.43L794.966 1488.55C789.831 1486.59 785.036 1484.9 780.223 1482.19 786.863 1466.89 793.91 1445.78 799.838 1429.73L834.249 1337.65z" class="svgShape color232e2e-59 selectable"></path><path fill="#035c4d" d="M794.966 1488.55C795.273 1488.29 795.581 1488.02 795.888 1487.76 812.591 1467.65 827.505 1463.39 850.055 1478.62 846.111 1489.54 826.625 1532.76 829.036 1539.91L825.945 1540.32C797.818 1538.72 785.479 1515.9 795.277 1490.43L794.966 1488.55zM1204.98 1498.21C1204.36 1484.66 1204.25 1474.5 1213.69 1463.3 1217.67 1458.58 1237.19 1448.68 1241.25 1455.26 1249.6 1468.77 1249.33 1510.33 1256.03 1521.82L1255.48 1522.48C1230.18 1535.57 1215.06 1520.54 1204.98 1498.21z" class="svgShape color2d3838-60 selectable"></path><path fill="#66f6de" d="M 1204.98 1498.21 C 1215.06 1520.54 1230.18 1535.57 1255.48 1522.48 L 1256.03 1521.82 C 1263.41 1516.28 1265.2 1513.75 1269.4 1505.92 C 1275.99 1539.88 1282.27 1573.91 1288.23 1608 C 1290.22 1619.11 1294.58 1647.68 1297.53 1657.82 C 1290.11 1653.81 1284.9 1651.72 1277 1648.58 C 1252.74 1644.65 1242.49 1650.62 1226.71 1668.22 C 1215.93 1622.32 1210.07 1573.58 1199.92 1527.36 C 1197.98 1518.57 1196.62 1509.85 1194.23 1501.12 L 1204.98 1498.21 z" class="svgShape color66f5f6-61 selectable"></path><path fill="#54e9d0" d="M 1269.4 1505.92 C 1275.99 1539.88 1282.27 1573.91 1288.23 1608 C 1290.22 1619.11 1294.58 1647.68 1297.53 1657.82 C 1290.11 1653.81 1284.9 1651.72 1277 1648.58 C 1277.6 1646.46 1257.67 1535.28 1255.48 1522.48 L 1256.03 1521.82 C 1263.41 1516.28 1265.2 1513.75 1269.4 1505.92 z" class="svgShape color54e8e9-62 selectable"></path><path fill="#6fc3b5" d="M 780.223 1482.19 C 785.036 1484.9 789.831 1486.59 794.966 1488.55 L 795.277 1490.43 C 785.479 1515.9 797.818 1538.72 825.945 1540.32 C 810.291 1577.51 797.651 1617.53 782.02 1654.41 C 754.86 1640.72 732.397 1647.08 712.595 1669.21 C 713.389 1663.14 725.019 1634.15 727.753 1626.69 L 758.157 1544.13 C 765.342 1524.87 774.437 1501.59 780.223 1482.19 z" class="svgShape color6fc2c3-63 selectable"></path><path fill="#07a086" d="M 829.036 1539.91 C 842.409 1536.11 849.898 1529.02 855.192 1516.05 C 856.561 1512.7 857.292 1509.39 859.673 1506.79 L 863.428 1507.85 C 844.047 1554.53 829.225 1605.24 810.008 1652.25 C 807.113 1659.34 803.722 1668.01 801.562 1675.23 L 800.751 1676.06 C 794.718 1665.75 791.488 1661.56 782.02 1654.41 C 797.651 1617.53 810.291 1577.51 825.945 1540.32 L 829.036 1539.91 z" class="svgShape color079fa0-64 selectable"></path><path fill="#54e9d0" d="M 1178.96 1503.76 C 1184.04 1503.24 1189.2 1502.1 1194.23 1501.12 C 1196.62 1509.85 1197.98 1518.57 1199.92 1527.36 C 1210.07 1573.58 1215.93 1622.32 1226.71 1668.22 C 1222.62 1673.83 1219.02 1678.84 1215.27 1684.68 C 1214.29 1681.32 1213.45 1676.87 1212.68 1673.37 C 1205.46 1637.2 1198.42 1601.01 1191.58 1564.77 C 1188.3 1547.69 1183.75 1519.74 1178.96 1503.76 z" class="svgShape color54e8e9-65 selectable"></path><path fill="#66f6de" d="M 1021.94 510.157 C 1023.86 489.446 1015.75 450.544 1031.67 436.612 C 1036.02 432.843 1041.49 430.608 1047.23 430.25 C 1058.31 429.533 1074.63 430.03 1086.13 430.029 L 1160.17 430.022 L 1389.43 430.011 L 1570.41 430.005 L 1625.6 429.921 C 1644.38 429.877 1668.03 426.164 1680.55 441.454 C 1684.81 446.655 1685.91 457.342 1686.45 464.152 C 1686.94 489.03 1686.61 514.482 1686.54 539.376 L 1686.53 675.015 L 1686.69 772.666 C 1686.73 789.641 1687.2 807.8 1686.14 824.575 C 1685.4 836.357 1674.01 848.087 1662.04 848.859 C 1620.3 851.549 1575.94 847.099 1534.29 849.7 C 1520.29 870.284 1508.84 869.806 1492.18 882.7 C 1488.37 880.309 1484.38 875.953 1481.1 872.698 C 1469.03 859.31 1456.64 846.214 1443.94 833.423 C 1438.88 837.732 1429.79 845.948 1424.67 849.515 L 1422.19 849.868 C 1416.51 848.584 1396.48 849.362 1389.65 849.153 C 1360.95 848.278 1326 850.959 1297.92 848.813 L 1298.08 601.92 C 1298.14 600.374 1298.19 598.828 1298.22 597.282 C 1298.57 575.753 1299.06 552.629 1296.7 531.414 C 1295.69 522.41 1286.02 511.889 1276.98 511.305 C 1250.4 509.59 1222.82 510.685 1196.18 510.757 L 1021.91 510.79 L 1021.94 510.157 z" class="svgShape color66f5f6-66 selectable"></path><path fill="#232e2c" d="M1468.53 808.521C1478.94 798.719 1496.73 779.842 1511.11 777.567 1517.44 776.566 1520.81 787.18 1518.46 792.008 1516.02 798.069 1510.43 802.856 1505.79 807.625 1515.37 809.596 1519.67 811.493 1524.83 820.351 1530.27 829.666 1537.08 838.614 1534.29 849.7 1520.29 870.284 1508.84 869.806 1492.18 882.7 1488.37 880.309 1484.38 875.953 1481.1 872.698 1469.03 859.31 1456.64 846.214 1443.94 833.423 1443.56 823.982 1439.12 768.198 1465.68 797.852 1467.14 799.481 1468.18 806.111 1468.53 808.521zM676.527 1269.39C692.217 1262.77 725.62 1254.4 743.832 1248.59L744.616 1249.22C753.542 1256.32 783.012 1271.82 776.804 1284.43 772.111 1293.96 759.678 1288.19 753.448 1284.88 755.168 1292.1 759.118 1302.63 755.099 1309.5 747.456 1322.56 706.959 1333.67 695.355 1324.73 683.717 1315.77 681.426 1284.23 676.527 1269.39z" class="svgShape color232e2e-67 selectable"></path></svg></g></svg>