<svg id="SvgjsSvg1067" width="288" height="288" xmlns="http://www.w3.org/2000/svg" version="1.1" xmlns:xlink="http://www.w3.org/1999/xlink" xmlns:svgjs="http://svgjs.com/svgjs"><defs id="SvgjsDefs1068"></defs><g id="SvgjsG1069"><svg xmlns="http://www.w3.org/2000/svg" display="block" preserveAspectRatio="none" viewBox="0 0 2048 2048" width="288" height="288"><path fill="#ffffff" d="M 0 0 L 2048 0 L 2048 2048 L 0 2048 L 0 0 z" class="svgShape colorffffff-0 selectable"></path><path d="M 1208.19 583.216 C 1214.52 556.339 1230.27 526.227 1247.15 504.588 C 1284 457.441 1338.22 427.047 1397.67 420.213 C 1459.35 412.85 1522.92 428.231 1571.8 467.264 C 1618.02 503.703 1647.62 557.212 1653.93 615.726 C 1660.09 675.324 1642.14 734.908 1604.09 781.19 C 1561.01 833.995 1504.15 859.616 1437.38 866.179 C 1418.06 869.173 1398.48 870.059 1378.97 868.822 L 1378.98 909.052 L 1470.52 899.545 C 1492.15 897.264 1525.69 889.813 1543.96 903.622 C 1561.25 916.69 1561.34 937.44 1563.06 956.978 L 1581.64 1170.63 L 1587.88 1238.65 C 1588.74 1248.35 1589.65 1258.3 1590.35 1267.99 C 1593.34 1309.61 1566.81 1317.74 1532.14 1320.16 C 1543.48 1340.11 1553.34 1361.12 1564.18 1380.07 C 1574.64 1381.07 1594.62 1386.65 1593.65 1401.18 C 1593.5 1403.44 1590.1 1406.96 1588.52 1408.75 C 1588.39 1411.7 1591.36 1419.69 1588.37 1421.62 C 1559.26 1440.4 1548.39 1434.75 1541.44 1399.93 L 1544.83 1390.74 C 1536.69 1371.89 1521.91 1337.8 1509.25 1321.6 C 1501.5 1322.64 1493.59 1323.82 1485.81 1324.41 C 1484.22 1335.76 1482.75 1347.14 1481.42 1358.53 C 1478.62 1381.72 1478.52 1394.31 1460.25 1411.06 L 1459.58 1411.57 C 1442.83 1409.2 1422.14 1407.7 1404.89 1405.75 L 1279.4 1391.62 L 1278.07 1387.75 C 1268.33 1372.89 1267.29 1365 1268.29 1347.7 L 849.734 1390.47 L 741.851 1401.52 C 729.572 1402.81 717.205 1404.22 704.963 1405.33 C 690.067 1406.67 680.671 1408.49 666.956 1400.7 C 644.969 1388.22 644.89 1365.18 642.894 1343.27 L 639.599 1307.09 C 639.148 1302.35 638.959 1294.31 636.22 1291.12 C 582.57 1291.48 528.249 1299.17 488.083 1257.94 C 460.497 1229.62 454.011 1204.13 453.921 1166.44 L 453.963 828.341 L 453.819 739.056 C 453.718 690.392 449.923 655.546 487.629 618.06 C 528.253 577.673 573.859 583.124 625.82 583.185 L 752.683 583.291 L 1208.19 583.216 z" fill="#ffffff" class="svgShape color000000-1 selectable"></path><path fill="#035c4d" d="M 548.711 1273.4 C 546.629 1271.76 541.252 1269.05 538.722 1267.81 C 509.061 1253.37 489.054 1224.91 488.333 1191.56 C 488.02 1177.06 488.169 1161.87 488.183 1147.04 L 488.232 1050.52 L 488.03 708.381 C 488.185 680.239 493.989 663.098 514.087 642.528 C 524.717 631.648 544.374 620.923 559.485 619.532 C 581.806 617.478 608.55 618.371 631.309 618.419 L 762.135 618.517 L 1046.09 618.426 C 1097.76 618.18 1149.43 618.271 1201.1 618.699 L 1200.87 620.043 C 1190.62 634.637 1193.47 679.703 1194.88 697.913 C 1159.32 681.782 1125.48 680.554 1088.05 693.607 C 1065.17 701.586 1046.29 718.78 1028.77 735.083 L 1072.76 774.785 C 1089.21 758.092 1103.96 743.035 1129.05 742.539 C 1174.99 741.629 1185.15 787.076 1160.91 818.876 C 1126.86 863.547 1078.51 900.866 1038.1 939.921 C 1038.04 953.654 1037.84 967.521 1038.32 981.237 L 1249.05 981.037 L 1249.16 925.013 C 1211.51 925.01 1173.02 924.598 1135.44 925.201 C 1175.18 888.38 1223.48 850.192 1239.34 797.323 C 1271.92 829.411 1300.65 853.495 1347.24 864.487 C 1352.61 865.321 1356.91 866.27 1362.16 867.483 L 1362.18 910.8 C 1362.04 926.972 1362 943.144 1362.04 959.317 C 1355.55 961.971 1353.66 962.926 1347.92 967.491 C 1335 983.797 1331.54 999 1339.74 1018.81 C 1333.57 1022.96 1328.94 1025.83 1323.55 1030.97 C 1314.7 1039.18 1306.89 1048.72 1304.71 1060.86 C 1301.87 1076.61 1299.55 1094.62 1298.44 1110.53 C 1285.9 1109.45 1275.62 1110.58 1265.26 1118.94 C 1256.33 1126.22 1250.85 1136.92 1250.17 1148.42 C 1249.44 1159.28 1253.15 1169.98 1260.43 1178.07 C 1268.49 1187 1276.95 1189.65 1288.23 1191.89 C 1285.92 1207.97 1283.74 1228.77 1280.85 1244.14 C 1255.9 1254.95 1233.56 1265.41 1207.64 1273.77 C 1192.55 1261.57 1168.44 1241.84 1154.9 1228.56 L 1155.31 1227.37 C 1159.52 1214.88 1161.35 1190.84 1140.5 1200.11 C 1134.55 1197.21 1126.7 1189.04 1121.14 1192.62 C 1096.61 1208.42 1098.35 1229.91 1124.96 1241.08 C 1129.24 1242.88 1133 1242.45 1137.28 1243.75 C 1151.73 1252.45 1164.81 1267.44 1178.87 1276.68 C 1133.65 1276.06 1087.53 1276.72 1042.23 1276.7 L 734.009 1276.66 L 636.036 1276.65 C 619.84 1276.65 560.676 1277.7 548.711 1273.4 z" class="svgShape color18acf2-2 selectable"></path><path fill="#F94981" d="M 1346.98 912.117 C 1351.69 911.861 1357.41 911.22 1362.18 910.8 C 1362.04 926.972 1362 943.144 1362.04 959.317 C 1355.55 961.971 1353.66 962.926 1347.92 967.491 C 1346.37 958.599 1346.98 922.98 1346.98 912.117 z" class="svgShape colorf94981-3 selectable"></path><path fill="#FFF" d="M 1347.24 864.487 C 1352.61 865.321 1356.91 866.27 1362.16 867.483 L 1362.18 910.8 C 1357.41 911.22 1351.69 911.861 1346.98 912.117 C 1346.96 896.24 1347.05 880.363 1347.24 864.487 z" class="svgShape colorffffff-4 selectable"></path><path d="M684.156 691.074L755.77 691.189C745.393 708.167 730.397 728.959 718.94 746.084L637.511 867.84C660.197 867.092 682.901 867.027 705.59 867.645 705.002 847.476 705.379 826.394 705.464 806.153L769.162 806.183 769.263 867.696C782.142 867.17 794.737 867.286 807.619 867.34 807.938 883.086 807.766 899.452 807.82 915.25L807.431 918.803C803.095 921.477 776.337 920.331 769.218 920.29L769.314 981.15 705.656 981.224C705.204 960.823 705.156 940.416 705.513 920.013L569.137 920.496C568.9 904.304 568.774 888.111 568.76 871.918 582.592 848.849 599.876 822.268 614.657 799.496 637.443 764.393 660.673 725.242 684.156 691.074zM838.053 691.099L961.048 691.107 960.806 887.63C960.807 915.18 962.128 954.251 960.631 981.044L894.868 981.183 894.896 745.469 838.551 745.446C837.911 727.637 838.113 708.979 838.053 691.099zM970.723 1026.72L988.093 1026.73 988.25 1104.02C983.928 1104.13 978.595 1104.4 974.316 1104.27 969.527 1104.13 973.335 1102.97 970.595 1100.04 960.839 1104.92 961.696 1105.27 950.916 1105.49 915.538 1094.13 931.748 1031.29 970.962 1053.54L970.723 1026.72z" fill="#ffffff" class="svgShape color000000-5 selectable"></path><path fill="#035c4d" d="M 956.814 1062.83 C 974.85 1062.8 975.365 1082.6 962.929 1091.89 C 946.207 1090.83 945.266 1072.34 956.814 1062.83 z" class="svgShape color18acf2-6 selectable"></path><path d="M 858.988 1132.82 L 875.989 1132.69 L 876.134 1210.79 C 871.004 1210.91 865.037 1211.27 860.008 1210.73 L 858.715 1207.15 C 849.103 1208.73 852.4 1212.4 838.244 1211.95 C 805.889 1202.62 817.072 1138.75 858.944 1159.66 L 858.988 1132.82 z" fill="#ffffff" class="svgShape color000000-7 selectable"></path><path fill="#035c4d" d="M 846.984 1168.69 C 862.911 1172.35 863.191 1191.31 849.788 1198.42 C 834.544 1196.04 834.029 1176.43 846.984 1168.69 z" class="svgShape color18acf2-8 selectable"></path><path d="M 570.112 1031.17 C 589.118 1031.01 621.106 1026.58 626.798 1050.64 C 628.361 1057.2 627.126 1064.13 623.388 1069.75 C 618.321 1077.23 612.655 1079.27 604.251 1081.07 L 588.119 1081.24 C 588.329 1088.83 588.451 1096.43 588.485 1104.02 L 570.487 1104.06 C 569.631 1080.78 570.107 1054.7 570.112 1031.17 z" fill="#ffffff" class="svgShape color000000-9 selectable"></path><path fill="#035c4d" d="M 588.371 1046.9 C 599.831 1046.61 616.544 1048.25 605.548 1064.09 C 600.218 1066.98 594.879 1066.47 588.888 1066.54 C 588.799 1059.99 588.627 1053.45 588.371 1046.9 z" class="svgShape color18acf2-10 selectable"></path><path d="M 817.084 1049.26 C 832.511 1044.68 848.709 1053.57 853.136 1069.04 C 857.563 1084.51 848.517 1100.62 833.003 1104.9 C 817.703 1109.12 801.861 1100.22 797.495 1084.96 C 793.129 1069.7 801.869 1053.78 817.084 1049.26 z" fill="#ffffff" class="svgShape color000000-11 selectable"></path><path fill="#035c4d" d="M 822.076 1062.9 C 826.801 1063.15 829.751 1063.47 833.105 1067.22 C 835.714 1070.17 836.977 1074.08 836.592 1078.01 C 835.986 1084.75 833.956 1086.95 829.017 1090.98 C 827.973 1091.07 826.926 1091.1 825.879 1091.08 C 810.914 1090.93 810.706 1072.39 822.076 1062.9 z" class="svgShape color18acf2-12 selectable"></path><path d="M 1133.35 1049.23 C 1148.73 1044.59 1164.95 1053.37 1169.47 1068.79 C 1173.99 1084.21 1165.09 1100.36 1149.63 1104.76 C 1134.35 1109.11 1118.41 1100.32 1113.94 1085.07 C 1109.47 1069.82 1118.14 1053.82 1133.35 1049.23 z" fill="#ffffff" class="svgShape color000000-13 selectable"></path><path fill="#035c4d" d="M 1139.16 1062.85 C 1155.53 1063.2 1157.31 1081.94 1144.16 1091.47 C 1127.7 1090.49 1125.15 1071.67 1139.16 1062.85 z" class="svgShape color18acf2-14 selectable"></path><path d="M 647.208 1155.23 C 650.131 1155.05 653.059 1154.97 655.988 1154.98 C 686.384 1154.97 679.051 1189.39 678.838 1210.98 C 673.754 1211.09 668.736 1211.6 663.921 1210.23 C 662.931 1208.46 662.843 1208.23 662.465 1206.35 C 649.909 1207.51 650.36 1218.29 633.341 1208.29 C 630.488 1205.02 626.651 1196.68 626.8 1192.71 C 627.397 1176.85 657.182 1178.66 660.518 1175.16 C 660.436 1174.75 660.353 1174.34 660.27 1173.93 C 659.607 1171.58 657.874 1169.67 655.591 1168.79 C 649.465 1166.36 641.129 1171.12 635.876 1174.06 C 633.574 1169.99 631.346 1165.42 629.2 1161.23 C 636.55 1157.77 639.469 1156.88 647.208 1155.23 z" fill="#ffffff" class="svgShape color000000-15 selectable"></path><path fill="#035c4d" d="M 653.069 1187.19 C 657.314 1187.06 657.056 1186.39 660.147 1188.18 C 662.302 1194.36 657.96 1197.82 653.074 1200.85 C 649.201 1200.03 648.346 1200.14 645.603 1197.23 C 643.688 1190.67 647.539 1189.12 653.069 1187.19 z" class="svgShape color18acf2-16 selectable"></path><path d="M570.07 1137.35C586.728 1137.09 603.929 1137.31 620.631 1137.31L620.89 1153 588.913 1153.09 588.782 1168.76C598.519 1168.97 609.321 1166.46 615.702 1170.05 617.936 1174.13 617.162 1175.21 617.153 1180.25L616.519 1182.5C611.761 1184.28 594.547 1183.49 588.546 1183.36 588.78 1192.57 588.538 1201.77 588.371 1210.99L570.263 1211C570.005 1186.45 569.94 1161.9 570.07 1137.35zM700.328 1049.13C702.119 1049 703.912 1048.91 705.707 1048.85 729.646 1047.98 733.436 1062.13 734.037 1082.39 725.632 1082.81 703.935 1080.7 698.49 1084.13L698.467 1085.89C710.755 1099.83 716.596 1087.26 724.598 1088.41 727.351 1092.61 728.393 1095.11 730.386 1099.65 720.936 1105.09 709.448 1107.65 698.84 1104.21 691.5 1101.89 685.47 1096.6 682.215 1089.62 673.433 1071.11 682.701 1056.28 700.328 1049.13z" fill="#ffffff" class="svgShape color000000-17 selectable"></path><path fill="#035c4d" d="M 707.043 1061.13 C 711.713 1061.91 717.278 1063.96 716.037 1069.65 C 712.493 1071.92 712.565 1071.1 707.5 1071.11 C 703.175 1071.31 699.861 1072.5 697.651 1068.56 C 698.935 1064.1 703.116 1062.76 707.043 1061.13 z" class="svgShape color18acf2-18 selectable"></path><path d="M 781.658 1155.19 C 806.655 1154.07 812.611 1165.18 813.035 1188.45 C 804.181 1189.29 782.985 1187.33 776.955 1191.26 L 776.652 1193.08 C 783.314 1201.3 792.827 1198.77 801.148 1195.81 L 803.032 1195.12 L 804.263 1196.39 L 809.744 1206.56 C 798.29 1212.05 785.939 1215.05 773.951 1209.03 C 766.954 1205.5 761.717 1199.25 759.471 1191.75 C 753.819 1173.49 764.581 1160.31 781.658 1155.19 z" fill="#ffffff" class="svgShape color000000-19 selectable"></path><path fill="#035c4d" d="M 782.607 1168.13 C 788.652 1168.13 793.897 1169.05 795.543 1175.84 L 794.418 1177.45 L 791.249 1177.48 C 787.019 1177.76 778.777 1179.31 776.43 1175.51 C 777.606 1171.92 779.729 1170.64 782.607 1168.13 z" class="svgShape color18acf2-20 selectable"></path><path d="M894.968 1049.08C896.421 1048.96 897.876 1048.88 899.332 1048.83 927.748 1047.93 920.831 1084.65 920.505 1104.14L902.934 1104.01C902.734 1092.3 909.066 1057.9 889.499 1064.53 881.697 1071.74 884.583 1093.2 884.646 1104.19L867.616 1103.99C867.005 1086.26 867.269 1067.62 867.262 1049.82 873.671 1049.77 879.42 1048.62 884.039 1053.7 886.938 1054.19 891.842 1050.76 894.968 1049.08zM1215.68 1048.27C1243.41 1049.96 1236.17 1082.97 1236.02 1104.05L1218.91 1103.93C1218.98 1091.15 1224.42 1051.48 1201.61 1067.08 1199.35 1072.69 1200.22 1096.06 1200.23 1104.12L1183.5 1104.08C1182.93 1086.14 1183.12 1067.23 1183.01 1049.22 1187.44 1049.3 1194.42 1049.05 1198.36 1050.42 1198.88 1053.2 1198.35 1052.36 1199.91 1054.39 1206.81 1052.06 1207.35 1049.35 1215.68 1048.27zM1039.27 1034.11L1056.55 1034.37 1056.62 1050.44 1070.95 1050.02 1070.95 1064.34 1056.54 1064.86C1056.73 1070.95 1055.06 1087.45 1060.41 1091.06 1064.26 1090.05 1064.09 1090.01 1068.01 1090.43 1071.2 1092.51 1071.72 1095.89 1072.94 1099.62 1071.33 1106.25 1055.92 1105.87 1050.42 1104.88 1032.62 1101.69 1042.7 1072.01 1038.1 1064.63 1035.85 1064.44 1034.11 1064.25 1031.88 1063.92 1030.73 1060.46 1030.8 1055.11 1032.5 1051.83 1041.26 1048.87 1039.38 1042.11 1039.27 1034.11zM762.455 1049.1C764.647 1048.91 766.843 1048.78 769.042 1048.71 780.01 1048.5 784.251 1051.31 791.784 1058.48L780.968 1067.83C773.938 1063.97 762.825 1059.61 759.966 1069.29 753.4 1091.53 766.143 1094.18 781.472 1086.48L783.762 1087.84 791.772 1096.52C782.055 1104.47 771.918 1108.87 759.345 1104.27 751.939 1101.57 746.016 1095.87 743.034 1088.58 735.439 1070.34 744.616 1055.2 762.455 1049.1zM738.58 1132.46C740.298 1132.34 740.971 1132.51 742.691 1132.7 747.548 1140.61 741.66 1185.93 745.968 1196.94 749.497 1197.84 750.991 1197.89 753.646 1200.4 755.442 1204.07 755.251 1204.41 754.938 1208.64 752.743 1211 749.313 1211.42 746.027 1212.31 740.714 1212.52 734.522 1212.29 730.665 1208.06 723.601 1200.31 726.799 1145.59 726.913 1133.03L738.58 1132.46zM664.199 1049.17C672.324 1048.23 679.36 1049.06 676.142 1060.6 674.242 1067.42 665.246 1063.4 661.48 1065.51 649.191 1072.4 660.159 1090.58 654.622 1102.93 651.093 1105.03 649.396 1104.2 644.75 1104.06 642.862 1104.1 641.795 1103.94 639.915 1103.75 637.714 1100.52 638.749 1056.61 638.755 1049.76 646.843 1049.68 647.797 1048.66 654.38 1053.1L655.443 1053.83C658.965 1054.01 660.721 1051.7 664.199 1049.17zM693.957 1156.98L711.355 1156.79 711.604 1210.57C708.875 1211.23 697.408 1210.87 693.879 1210.83L693.957 1156.98zM1012.39 1050.51C1016.44 1050.35 1018.43 1049.73 1021.32 1051.67 1022.21 1060.03 1022.02 1094.6 1021.48 1103.12 1018.16 1104.75 1014.53 1104.23 1010.75 1104.13 1008.08 1104.18 1006.63 1104.6 1004.59 1103.06 1003.71 1093.46 1004.02 1061.61 1004.83 1051.89 1007.51 1049.98 1008.42 1050.66 1012.39 1050.51zM1083.44 1050.21L1100.26 1050.19C1101.1 1067.2 1100.78 1087.05 1100.75 1104.16L1083.34 1104.07C1083.12 1086.12 1083.15 1068.16 1083.44 1050.21zM1010.57 1023.99C1014.18 1022.87 1018.12 1023.83 1020.81 1026.5 1023.49 1029.16 1024.49 1033.09 1023.4 1036.71 1022.31 1040.33 1019.31 1043.05 1015.59 1043.79 1010.26 1044.85 1005.03 1041.54 1003.7 1036.27 1002.36 1031 1005.38 1025.61 1010.57 1023.99zM1087.73 1024.18C1091.1 1022.67 1095.04 1023.1 1098 1025.32 1100.97 1027.53 1102.5 1031.18 1102 1034.85 1101.5 1038.52 1099.05 1041.63 1095.6 1042.97 1090.45 1044.98 1084.64 1042.52 1082.5 1037.42 1080.37 1032.32 1082.68 1026.45 1087.73 1024.18zM699.585 1130.18C703.066 1128.96 706.933 1129.74 709.67 1132.21 712.406 1134.69 713.577 1138.45 712.723 1142.04 711.869 1145.63 709.126 1148.46 705.57 1149.44 700.325 1150.87 694.887 1147.89 693.273 1142.7 691.659 1137.5 694.451 1131.97 699.585 1130.18z" fill="#ffffff" class="svgShape color000000-21 selectable"></path><path fill="#F94981" d="M636.22 1291.12L846.384 1291.2 1195.35 1291.06 1202.41 1296.22C1228.54 1288.52 1248.25 1290.97 1275.48 1291.25 1273.23 1310.08 1270.83 1328.9 1268.29 1347.7L849.734 1390.47 741.851 1401.52C729.572 1402.81 717.205 1404.22 704.963 1405.33 690.067 1406.67 680.671 1408.49 666.956 1400.7 644.969 1388.22 644.89 1365.18 642.894 1343.27L639.599 1307.09C639.148 1302.35 638.959 1294.31 636.22 1291.12zM1378.98 909.052L1470.52 899.545C1492.15 897.264 1525.69 889.813 1543.96 903.622 1561.25 916.69 1561.34 937.44 1563.06 956.978L1581.64 1170.63 1587.88 1238.65C1588.74 1248.35 1589.65 1258.3 1590.35 1267.99 1593.34 1309.61 1566.81 1317.74 1532.14 1320.16 1519.29 1300.54 1508.16 1286.22 1492.82 1268.76 1495.38 1256.43 1497.7 1232.94 1499.39 1219.78 1513.81 1217.81 1526.38 1210.15 1533.2 1197 1538.38 1186.9 1539.13 1175.11 1535.26 1164.44 1530.51 1151.1 1521.65 1144.06 1509.4 1138.39 1514.06 1108.83 1518.3 1083.66 1507.07 1055.18 1500.16 1037.69 1498.65 1032.44 1479.74 1024.17 1466.61 1018.42 1452.73 1012.4 1440.53 1004.91 1419.04 992.122 1401.32 971.22 1379.13 959.814L1378.98 909.052z" class="svgShape colorf94981-22 selectable"></path><path fill="#FE8AAC" d="M 1339.74 1018.81 C 1354.32 1046.91 1375.17 1057.38 1404.98 1066.88 C 1436.24 1076.52 1468.69 1081.78 1501.39 1082.48 C 1499.69 1101.49 1495.9 1132.06 1492.3 1150.62 C 1502.18 1151.47 1509.97 1153 1516.87 1161.28 C 1521.49 1166.77 1523.67 1173.91 1522.92 1181.04 C 1522.09 1188.72 1518.08 1195.71 1511.88 1200.32 C 1503.52 1206.62 1495.93 1206.71 1485.95 1206.06 L 1480.27 1253.4 C 1422.72 1244.01 1356.72 1239.72 1297.92 1231.77 C 1300.33 1218.22 1302.08 1200.49 1303.86 1186.49 L 1317.13 1077.3 C 1318.98 1062.82 1320.81 1045.13 1323.55 1030.97 C 1328.94 1025.83 1333.57 1022.96 1339.74 1018.81 z" class="svgShape colorfe8aac-23 selectable"></path><path fill="#FFF" d="M 1444.37 1095.41 C 1462.65 1092.57 1479.76 1105.11 1482.56 1123.39 C 1485.37 1141.68 1472.8 1158.77 1454.51 1161.55 C 1436.27 1164.32 1419.22 1151.79 1416.42 1133.54 C 1413.63 1115.3 1426.13 1098.24 1444.37 1095.41 z" class="svgShape colorffffff-24 selectable"></path><path d="M 1435.02 1112.51 C 1442.71 1111.23 1449.97 1116.44 1451.21 1124.14 C 1452.45 1131.83 1447.2 1139.07 1439.5 1140.26 C 1431.85 1141.45 1424.69 1136.24 1423.46 1128.61 C 1422.23 1120.98 1427.4 1113.78 1435.02 1112.51 z" fill="#000000" class="svgShape color000000-25 selectable"></path><path fill="#FFF" d="M 1352.08 1083.56 C 1370.15 1080.2 1387.54 1092.09 1390.95 1110.16 C 1394.37 1128.22 1382.54 1145.64 1364.48 1149.12 C 1346.35 1152.61 1328.84 1140.7 1325.4 1122.56 C 1321.97 1104.42 1333.92 1086.94 1352.08 1083.56 z" class="svgShape colorffffff-26 selectable"></path><path d="M1341.47 1101.52C1348.94 1099.23 1356.84 1103.45 1359.11 1110.93 1361.37 1118.4 1357.13 1126.3 1349.64 1128.54 1342.19 1130.77 1334.34 1126.55 1332.09 1119.1 1329.83 1111.66 1334.03 1103.79 1341.47 1101.52zM1386.07 1167.23C1408.28 1165.83 1422.01 1183.66 1423.82 1204.38 1424.24 1209.18 1424.56 1212.76 1421.34 1216.59 1417.32 1217.86 1417.34 1214.6 1412.45 1210.91 1403.46 1204.13 1395.75 1203.18 1385.14 1203 1367.39 1205.82 1368.68 1208.39 1353.44 1216.64 1351.31 1217.79 1350.58 1217.08 1348.96 1216.38 1348.57 1215.52 1347.93 1214.28 1347.94 1213.36 1348.17 1188.4 1361.85 1172.16 1386.07 1167.23z" fill="#000000" class="svgShape color000000-27 selectable"></path><path fill="#F94981" d="M 1491.41 1163.58 C 1506.56 1166.69 1518.38 1177.49 1503.89 1190.6 C 1498.6 1192.57 1495.14 1194.48 1490.13 1191.71 C 1486.99 1186.21 1490.55 1171.41 1491.41 1163.58 z" class="svgShape colorf94981-28 selectable"></path><path fill="#18ACF2" d="M 1297.92 1231.77 C 1356.72 1239.72 1422.72 1244.01 1480.27 1253.4 C 1474.38 1287.42 1471.05 1324.76 1466.31 1359.2 C 1465.19 1367.36 1460.15 1404.46 1460.25 1411.06 L 1459.58 1411.57 C 1442.83 1409.2 1422.14 1407.7 1404.89 1405.75 L 1279.4 1391.62 L 1278.07 1387.75 C 1283.93 1336.24 1291.38 1283.39 1297.92 1231.77 z" class="svgShape color18acf2-29 selectable"></path><path fill="#FFF" d="M 548.711 1273.4 C 532.239 1271.6 510.315 1258.5 498.889 1246.65 C 473.07 1219.88 469.966 1199.32 469.866 1164.32 L 469.894 829.983 L 469.763 737.993 C 469.69 694.98 464.843 662.001 497.652 628.913 C 533.881 592.375 576.034 598.817 622.525 598.868 L 749.938 598.952 L 1204.29 599.013 C 1203.04 604.925 1202.05 612.6 1201.1 618.699 C 1149.43 618.271 1097.76 618.18 1046.09 618.426 L 762.135 618.517 L 631.309 618.419 C 608.55 618.371 581.806 617.478 559.485 619.532 C 544.374 620.923 524.717 631.648 514.087 642.528 C 493.989 663.098 488.185 680.239 488.03 708.381 L 488.232 1050.52 L 488.183 1147.04 C 488.169 1161.87 488.02 1177.06 488.333 1191.56 C 489.054 1224.91 509.061 1253.37 538.722 1267.81 C 541.252 1269.05 546.629 1271.76 548.711 1273.4 z" class="svgShape colorffffff-30 selectable"></path><path fill="#FED402" d="M1239.34 797.323C1240.89 787.341 1241.48 780.784 1241.09 770.574 1276.03 817.48 1307.72 838.702 1361.11 857.741 1362.57 858.261 1362.2 865.906 1362.16 867.483 1356.91 866.27 1352.61 865.321 1347.24 864.487 1300.65 853.495 1271.92 829.411 1239.34 797.323zM1194.88 697.913C1193.47 679.703 1190.62 634.637 1200.87 620.043 1198.46 653.042 1200.82 676.683 1210.23 708.773 1204.25 703.92 1201.45 701.881 1194.88 697.913z" class="svgShape colorfed402-31 selectable"></path><path fill="#F94981" d="M 1485.81 1324.41 C 1487.48 1316.66 1488.6 1302.67 1489.37 1294.4 C 1496.72 1303.85 1502.53 1311.7 1509.25 1321.6 C 1501.5 1322.64 1493.59 1323.82 1485.81 1324.41 z" class="svgShape colorf94981-32 selectable"></path><path fill="#FED402" d="M1378.97 868.822C1379.04 866.493 1379.18 865.294 1379.42 862.985 1381.41 861.523 1388.22 862.974 1391.27 863.453 1407.09 865.934 1421.44 866.319 1437.38 866.179 1418.06 869.173 1398.48 870.059 1378.97 868.822zM1239.32 546.351C1291.96 442.211 1419.24 400.718 1523.14 453.821 1627.04 506.925 1667.97 634.383 1614.4 738.05 1561.18 841.066 1434.69 881.679 1331.44 828.909 1228.19 776.139 1187.01 649.836 1239.32 546.351z" class="svgShape colorfed402-33 selectable"></path><path fill="#FFF" d="M 1239.32 546.351 C 1291.96 442.211 1419.24 400.718 1523.14 453.821 C 1627.04 506.925 1667.97 634.383 1614.4 738.05 C 1615.02 733.114 1619.75 720.59 1621.51 715.212 C 1624.07 707.147 1626.07 698.915 1627.5 690.574 C 1648.09 575.479 1566.51 471.215 1452.99 453.12 C 1367.02 439.415 1288.5 473.933 1240.3 545.924 C 1239.97 546.066 1239.65 546.208 1239.32 546.351 z" class="svgShape colorffffff-34 selectable"></path><path d="M1416.23 482.143C1433.46 481.047 1449.32 485.485 1458.88 501 1468.59 516.754 1463.21 541.423 1461.12 559.164L1454.09 616.833C1451.04 641.357 1448.37 667.701 1443.91 692.012 1442.25 701.044 1436.5 706.049 1428.83 710.619 1394.74 717.998 1395.91 678.173 1393.53 655.409L1387.73 599.761C1385.02 573.579 1381.11 544.953 1380.27 518.705 1379.64 499.058 1398.28 486.503 1416.23 482.143zM1413.83 733.446C1433.3 729.088 1452.61 741.357 1456.94 760.834 1461.26 780.311 1448.96 799.602 1429.48 803.894 1410.04 808.177 1390.81 795.91 1386.49 776.479 1382.18 757.049 1394.41 737.794 1413.83 733.446z" fill="#000000" class="svgShape color000000-35 selectable"></path><path fill="#FE8AAC" d="M 1290.47 1178.64 C 1239.49 1162.28 1277.2 1113.15 1295.42 1125.99 C 1297.16 1130.25 1296.25 1131.48 1295.69 1136.45 L 1292.17 1164.68 C 1291.51 1169.27 1291.02 1174.03 1290.47 1178.64 z" class="svgShape colorfe8aac-36 selectable"></path><path fill="#F94981" d="M 1292.17 1164.68 C 1272.44 1161.46 1271.4 1139.53 1295.69 1136.45 L 1292.17 1164.68 z" class="svgShape colorf94981-37 selectable"></path><path fill="#FE8AAC" d="M1563.88 1386.91C1569.16 1387.83 1581.95 1392.31 1584.21 1397.5 1582.49 1402.07 1579.25 1400.87 1577.84 1403.27 1576.1 1406.23 1583.3 1412.37 1578.5 1416.84L1575.01 1415.86C1572.09 1417.24 1572.75 1417.66 1571.01 1421.5 1569.14 1421.48 1567.84 1420.17 1565.93 1418.97 1562.98 1419.19 1563.63 1419.57 1560.94 1422.65L1559.37 1422.59C1553.01 1416.21 1547.29 1403.86 1551.29 1394.9 1553.32 1390.34 1559.55 1388.51 1563.88 1386.91zM1122.28 1199.99C1131.18 1201.06 1134.84 1206.33 1141.41 1212.75 1143.25 1209.57 1143.98 1207.13 1147.85 1206.82 1151.23 1210.43 1149.21 1221.3 1148.69 1226.14 1144 1233.01 1141.61 1234.67 1133.84 1237.15 1127.16 1234.87 1114.54 1225.68 1112.11 1218.92L1112.92 1217.83 1120.16 1218.09 1121.05 1217.04C1118.68 1213.95 1116.82 1212.26 1116.7 1208.84 1120.94 1206.9 1119.61 1210.19 1125.84 1209.92L1126.03 1208.65C1123.84 1205.44 1122.14 1203.8 1122.28 1199.99z" class="svgShape colorfe8aac-38 selectable"></path><path fill="#18ACF2" d="M 1277.14 1268.07 C 1279.36 1270.49 1279.24 1272.84 1277.16 1275.06 C 1271.5 1276.69 1265.08 1276.39 1259.09 1276.5 L 1258.62 1275.69 C 1264.84 1273.27 1271.01 1270.73 1277.14 1268.07 z" class="svgShape color18acf2-39 selectable"></path><path d="M 1279.4 1391.62 L 1404.89 1405.75 C 1422.14 1407.7 1442.83 1409.2 1459.58 1411.57 C 1455.03 1417.23 1451.71 1421.21 1446.67 1426.4 C 1447.84 1470.29 1451.72 1514.64 1453.02 1558.24 C 1466 1555.97 1472.7 1556.25 1484.91 1562.46 L 1486.31 1562.42 C 1498.53 1562.14 1535.52 1568.26 1540.94 1580.17 C 1538.67 1608.87 1350.49 1608.01 1321.97 1602.86 C 1308.93 1600.5 1235.76 1596.89 1239.21 1578.09 C 1245.46 1569.57 1265.75 1565.42 1275.76 1563.91 C 1278.07 1563.55 1280.41 1563.34 1282.75 1563.29 C 1294.57 1557.14 1298.18 1557.22 1311.13 1559.07 C 1304.56 1533.73 1297.73 1508.45 1290.64 1483.25 L 1310.48 1426.23 L 1309.3 1425.69 C 1292.25 1417.87 1285.59 1408.37 1279.4 1391.62 z" fill="#000000" class="svgShape color000000-40 selectable"></path><path fill="#FFF" d="M 1330.03 1432.27 C 1353.9 1435.91 1404.78 1444.81 1426.42 1437.38 C 1428.47 1467.7 1431.43 1511.56 1431.12 1541.54 C 1430.67 1547.23 1430.63 1549.38 1431.1 1555.06 C 1408.79 1554.37 1353.19 1553.13 1332.54 1556.86 C 1327.39 1534.85 1318.26 1506.22 1312.17 1483.27 L 1330.03 1432.27 z" class="svgShape colorffffff-41 selectable"></path><path fill="#E6E5E5" d="M 1431.12 1541.54 C 1432.37 1551.52 1432.9 1572.44 1433.04 1582.99 C 1442.22 1583.04 1490.44 1585.39 1494.83 1581.08 C 1495.73 1574.07 1489.72 1566.91 1484.91 1562.46 L 1486.31 1562.42 C 1498.53 1562.14 1535.52 1568.26 1540.94 1580.17 C 1538.67 1608.87 1350.49 1608.01 1321.97 1602.86 C 1308.93 1600.5 1235.76 1596.89 1239.21 1578.09 C 1245.46 1569.57 1265.75 1565.42 1275.76 1563.91 C 1278.07 1563.55 1280.41 1563.34 1282.75 1563.29 C 1275.47 1570.82 1274.84 1573.12 1271.84 1582.8 C 1293.56 1583.57 1317.56 1583.04 1339.44 1583 C 1337.33 1573.73 1335.2 1565.96 1332.54 1556.86 C 1353.19 1553.13 1408.79 1554.37 1431.1 1555.06 C 1430.63 1549.38 1430.67 1547.23 1431.12 1541.54 z" class="svgShape colore6e5e5-42 selectable"></path></svg></g></svg>