<svg id="SvgjsSvg1001" width="288" height="288" xmlns="http://www.w3.org/2000/svg" version="1.1" xmlns:xlink="http://www.w3.org/1999/xlink" xmlns:svgjs="http://svgjs.com/svgjs"><defs id="SvgjsDefs1002"></defs><g id="SvgjsG1008"><svg xmlns="http://www.w3.org/2000/svg" display="block" preserveAspectRatio="none" viewBox="0 0 2048 2048" width="288" height="288"><path fill="#FFF" d="M 0 0 L 2048 0 L 2048 2048 L 0 2048 L 0 0 z" class="svgShape colorffffff-0 selectable"></path><path fill="#d7fffc" d="M 746.39 518.442 C 786.715 516.875 822.302 518.303 855.137 545.224 C 880.589 566.091 890.708 592.366 893.799 624.287 C 950.65 578.135 1016.08 580.253 1067.39 633.568 C 1094.79 662.044 1098.73 702.77 1082.18 737.772 C 1076.52 749.736 1068.04 758.271 1058.34 767.059 C 1046.36 767.423 1034.38 767.586 1022.39 767.547 C 1017.48 775.431 1012.44 783.234 1007.27 790.951 C 959.599 791.665 551.15 792.378 547.251 790.495 C 553.304 786.341 587.061 788.076 596.491 788.099 L 688.981 788.164 L 1005.97 787.89 L 1018.75 767.767 L 558.115 768.11 C 565.2 753.116 572.091 738.031 578.786 722.86 C 564.93 722.543 550.438 722.713 536.531 722.672 L 438.455 722.959 C 431.444 737.642 425.086 753.071 418.703 768.074 L 260.119 768.051 C 232.699 768.032 203.158 767.443 175.907 768.656 C 167.953 769.01 146.783 773.532 138.018 775.22 L 74.6819 787.553 C 100.376 788.988 134.117 788.027 160.503 788.042 L 317.887 788.073 L 370.723 788.035 C 381.095 788.035 396.376 787.627 406.285 789.252 L 405.783 789.695 C 400.815 790.766 394.502 791.488 389.409 791.457 C 364.549 791.302 339.598 791.306 314.745 791.332 L 154.756 791.616 L 88.9372 791.805 C 81.0708 791.846 58.197 792.714 51.5608 791.129 L 51.0154 790.064 C 57.1657 785.968 141.049 770.951 154.2 768.641 C 141.003 767.526 112.243 769.313 101.538 766.833 C 100.647 763.477 100.699 763.708 101.238 760.261 C 106.171 756.164 362.976 706.026 396.184 699.982 C 397.262 696.864 398.474 693.795 399.816 690.782 C 410.533 666.957 429.766 645.731 453.352 633.983 C 458.583 631.378 471.839 627.988 474.899 626.077 C 489.5 616.953 500.613 607.36 517.389 601.528 C 542.711 592.727 563.056 593.123 587.166 604.114 C 590.309 599.585 593.725 595.252 597.395 591.139 C 614.862 571.663 633.353 565.344 656.194 554.946 C 662.106 552.254 673.219 543.606 679.429 539.764 C 701.445 526.14 720.772 519.963 746.39 518.442 z" class="svgShape color020203-1 selectable"></path><path fill="#dae6fa" d="M 612.844 636.787 C 616.413 615.062 635.095 576.546 652.742 563.16 C 672.057 548.51 722.281 549.06 745.046 552.859 C 802.516 562.447 832.759 603.585 835.622 660.377 C 885.366 621.506 937.324 607.101 992.067 646.049 C 1032.92 675.116 1044.35 720.583 1020.69 764.768 L 562.68 764.894 C 569.735 749.77 576.714 734.61 583.616 719.415 C 536.289 719.298 483.837 718.319 436.795 719.742 C 430.083 734.773 423.516 749.869 417.095 765.026 L 269.881 764.999 C 248.703 764.991 213.232 766.033 192.92 764.433 C 212.769 759.445 234.947 755.398 255.118 751.107 C 300.649 741.303 346.296 732.047 392.049 723.34 C 394.355 716.05 396.328 709.637 399.255 702.581 C 407.111 700.764 440.433 695.416 443.644 692.158 L 443.827 690.269 C 445.389 686.328 445.741 686.005 444.985 682.027 C 447.581 679.861 449.927 671.916 451.292 668.92 C 455.194 660.348 468.245 635.917 476.507 631.511 C 493.422 622.491 528.107 628.951 542.183 642.278 C 553.01 652.528 555.475 659.037 561.819 670.292 C 569.027 644.203 572.646 631.214 589.141 608.869 C 601.786 618.263 605.21 623.076 612.844 636.787 z" class="svgShape colordae6fa-2 selectable"></path><path fill="#DAE6FA" d="M971.539 594.397C1007.41 591.207 1047.36 613.317 1069.58 640.392 1100.2 677.702 1094.95 733.916 1057.11 764.121 1046.91 764.564 1034.87 764.424 1024.53 764.53L1029.07 754.014C1045.24 709.929 1030.23 668.369 991.322 642.092 961.901 622.223 934.535 616.299 899.694 622.874 924.663 606.432 941.576 596.978 971.539 594.397zM748.228 521.468C788.523 520.059 824.144 521.663 856.272 549.875 878.973 569.809 888.723 595.602 890.31 625.238 869.493 633.648 856.826 639.431 839.249 653.305 837.904 641.333 835.854 632.749 832.285 621.266 808.116 549.963 728.149 535.548 663.218 554.14 690.379 533.577 714.203 523.229 748.228 521.468zM389.591 704.288C393.104 703.803 391.761 703.289 394.102 704.85 394.166 709.625 391.199 715.994 389.419 720.715 379.023 723.45 363.503 726.143 352.573 728.368L278.955 743.432 211.507 757.749C201.988 759.7 181.872 764.258 172.949 764.635 152.774 765.487 130.2 764.876 109.75 764.92 105.577 764.893 106.962 765.685 104.278 763.783L105.065 762.338C113.574 757.547 189.015 744.233 204.927 741.065 266.4 728.396 327.956 716.137 389.591 704.288zM539.581 599.316C558.711 597.371 567.706 598.955 585.285 606.656 572.302 624.882 565.492 637.495 560.534 659.349 556.582 651.821 553.758 648.404 548.168 642.313 546.81 640.992 545.394 639.732 543.926 638.535 525.984 624.146 504.791 622.379 482.744 624.92 503.012 609.919 514.555 603.077 539.581 599.316z" class="svgShape colordae6fa-3 selectable"></path><path fill="#FFF" d="M472.707 630.527C465.35 639.404 442.611 670.36 444.985 682.027 445.741 686.005 445.389 686.328 443.827 690.269 432.362 693.602 412.334 696.682 399.996 698.927 401.762 694.931 403.604 690.969 405.522 687.044 420.353 657.235 441.938 640.94 472.707 630.527zM646.609 562.823L647.836 562.688 648.647 563.645C629.125 584.576 620.572 601.732 611.432 628.788 609.175 624.849 606.943 621.763 604.347 618.07 598.932 612.495 596.947 610.853 590.634 606.287 606.267 583.042 621.772 573.84 646.609 562.823z" class="svgShape colorffffff-4 selectable"></path><path fill="#020203" d="M 957.111 837.81 C 978.058 814.225 1003.38 805.667 1033.55 803.192 C 1149.23 793.705 1184.04 883.443 1186.92 982.35 C 1188.13 1023.85 1185.68 1070.14 1168.65 1109.58 C 1171.59 1116.84 1173.45 1110.29 1170.93 1117.61 C 1170 1120.32 1165.55 1128.57 1163.64 1130.25 C 1157.76 1142.51 1145.48 1155.64 1135.23 1164.54 C 1098.17 1196.71 1072.32 1210.66 1021.47 1205.72 C 989.489 1202.74 960.024 1187.11 939.614 1162.31 C 899.921 1113.43 892.259 1024.44 899.413 963.091 C 905.301 912.598 916.536 870.489 957.111 837.81 z" class="svgShape color020203-5 selectable"></path><path fill="#035c4d" d="M 957.111 837.81 C 978.058 814.225 1003.38 805.667 1033.55 803.192 C 1149.23 793.705 1184.04 883.443 1186.92 982.35 C 1188.13 1023.85 1185.68 1070.14 1168.65 1109.58 C 1160.9 1126.15 1150.12 1143.88 1136.29 1156.08 C 1137.25 1150 1143.58 1142.03 1146.09 1136.03 C 1161.89 1098.34 1165.96 1061.92 1167.4 1021.61 C 1171.59 904.673 1125.7 794.795 988.149 825.946 C 976.898 828.494 967.674 833.928 957.111 837.81 z" class="svgShape color1a71f6-6 selectable"></path><path fill="#FFF" d="M 1136.29 1156.08 C 1150.12 1143.88 1160.9 1126.15 1168.65 1109.58 C 1171.59 1116.84 1173.45 1110.29 1170.93 1117.61 C 1170 1120.32 1165.55 1128.57 1163.64 1130.25 L 1162.3 1131.65 C 1148.27 1146.5 1145.13 1155.61 1125.68 1168.53 L 1136.29 1156.08 z" class="svgShape colorffffff-7 selectable"></path><path fill="#035c4d" d="M 920.713 890.721 C 944.463 835.93 984.775 822.579 1041.5 824.897 C 1093.62 827.027 1129.71 856.989 1147.91 905.504 C 1171.5 974.304 1170.28 1066.04 1143.56 1133.99 C 1138.24 1146.83 1124.04 1168.75 1112.95 1176.4 C 1082.33 1208.27 1022.75 1209.11 984.233 1192.11 C 947.093 1175.72 930.367 1147.82 916.275 1111.43 C 895.156 1046.16 893.908 954.285 920.713 890.721 z" class="svgShape color1a71f6-8 selectable"></path><path fill="#FFF" d="M 916.275 1111.43 L 919.678 1108.83 C 935.726 1145.79 957.046 1170.96 995.399 1186.54 C 1023.57 1197.98 1064.5 1197.94 1092.29 1185.43 C 1096.82 1183.4 1108.99 1177.41 1112.95 1176.4 C 1082.33 1208.27 1022.75 1209.11 984.233 1192.11 C 947.093 1175.72 930.367 1147.82 916.275 1111.43 z" class="svgShape colorffffff-9 selectable"></path><path fill="#FFF" d="M 920.713 890.721 C 919.999 901.151 911.301 920.694 909.027 933.531 C 898.817 991.166 899.455 1053.46 919.678 1108.83 L 916.275 1111.43 C 895.156 1046.16 893.908 954.285 920.713 890.721 z" class="svgShape colorffffff-10 selectable"></path><path fill="#020203" d="M 1016.79 879.428 C 1031.74 865.709 1061.01 866.628 1073.48 881.877 C 1091.16 903.505 1094.01 950.299 1095.31 977.405 C 1097.71 1001.4 1096.09 1085.5 1082.6 1103.28 C 1068.77 1132.37 1050.49 1158.82 1013.51 1148.59 C 1003.74 1145.89 991.728 1135.14 987.96 1125.6 C 964.044 1065.08 967.746 985.097 981.421 922.126 C 986.751 900.263 998.876 888.868 1016.79 879.428 z" class="svgShape color020203-11 selectable"></path><path fill="#FFF" d="M 1016.79 879.428 C 1031.74 865.709 1061.01 866.628 1073.48 881.877 C 1091.16 903.505 1094.01 950.299 1095.31 977.405 L 1093 975.31 C 1092.83 960.067 1089.88 938.675 1086.31 924.009 C 1077.17 886.374 1055.54 869.569 1016.79 879.428 z" class="svgShape colorffffff-12 selectable"></path><path fill="#DAE6FA" d="M 1093 975.31 L 1095.31 977.405 C 1097.71 1001.4 1096.09 1085.5 1082.6 1103.28 C 1094.3 1061.73 1095.07 1018.16 1093 975.31 z" class="svgShape colordae6fa-13 selectable"></path><path fill="#FFF" d="M 1011.79 886.253 C 1037.47 873.708 1067.87 880.227 1077.54 908.833 C 1094.75 959.785 1099.36 1080 1067.02 1123.54 C 1062.74 1132.23 1055.59 1139.19 1046.78 1143.23 C 980.717 1173.3 973.652 1065.88 974.365 1026.15 C 975.001 990.745 972.252 902.251 1011.79 886.253 z" class="svgShape colorffffff-14 selectable"></path><path fill="#035c4d" d="M 1067.02 1123.54 C 1062.74 1132.23 1055.59 1139.19 1046.78 1143.23 C 980.717 1173.3 973.652 1065.88 974.365 1026.15 C 975.001 990.745 972.252 902.251 1011.79 886.253 C 988.48 932.633 994.247 1009.02 997.719 1059.71 C 1000.23 1096.31 1016.99 1141.97 1063.57 1124.94 C 1064.73 1124.5 1065.88 1124.04 1067.02 1123.54 z" class="svgShape color1a71f6-15 selectable"></path><path fill="#020203" d="M 1238.83 808.997 L 1471.86 809.297 C 1468.37 830.898 1465.41 853.861 1461.56 875.207 C 1456.04 875.289 1450.33 875.453 1444.83 875.372 L 1443.6 886.7 L 1323.27 886.831 C 1323.22 907.425 1323.43 928.019 1323.89 948.609 C 1379.91 922.709 1449.14 938.542 1475.71 997.789 C 1482.58 1013.09 1487.71 1032.85 1487.21 1049.7 C 1487.01 1051.05 1486.76 1052.12 1486.81 1053.46 C 1488.55 1075.26 1485.11 1092.23 1476.49 1112.36 L 1480.11 1112.21 L 1481.04 1113.53 C 1479.79 1119.76 1473.69 1125.04 1472.41 1130.05 C 1469.13 1138.52 1459 1151 1452.06 1157.03 C 1413.42 1190.56 1380.57 1209.04 1327.57 1205.98 C 1277.17 1203.08 1241.78 1182.65 1209.12 1146.38 C 1219.23 1135.79 1235.47 1118.17 1246.45 1108.98 C 1252.48 1102.82 1258.63 1096.78 1264.9 1090.86 C 1295.71 1123.06 1328.95 1135.59 1373.04 1122.3 C 1377.18 1118.14 1379.73 1113.51 1382.86 1108.53 C 1366.38 1088.62 1347.01 1075.84 1321.53 1070.52 C 1252.29 1056.16 1190.52 1111.32 1162.48 1169.79 C 1152.34 1190.94 1147.12 1209.89 1142.5 1232.57 C 1128.28 1235.9 1106.98 1238.96 1092.22 1241.55 L 991.739 1258.96 C 926.415 1270.16 861.023 1281.82 795.678 1292.93 C 792.207 1293.52 788.263 1294.41 785.194 1293.22 L 785.516 1291.47 C 790.96 1289.51 811.461 1286.78 817.983 1285.71 L 878.011 1275.47 C 963.981 1260.51 1054.29 1246.31 1139.49 1229.71 C 1150.09 1178.38 1170.64 1136.79 1210.13 1101.53 C 1262.34 1054.91 1336.47 1048.85 1384.39 1105.07 C 1386 1100.72 1387.63 1096.4 1388.84 1091.92 C 1409 1017.6 1351.16 985.555 1289.63 1023.02 C 1270.66 1023.31 1250.9 1023.06 1231.87 1023.07 C 1231.37 1001.54 1230.58 833.209 1232.71 827.986 L 1235.07 827.286 L 1237.94 826.497 C 1239.74 821.794 1238.96 814.388 1238.83 808.997 z" class="svgShape color020203-16 selectable"></path><path fill="#035c4d" d="M1304.05 886.797L1323.27 886.831C1323.22 907.425 1323.43 928.019 1323.89 948.609 1379.91 922.709 1449.14 938.542 1475.71 997.789 1482.58 1013.09 1487.71 1032.85 1487.21 1049.7 1487.01 1051.05 1486.76 1052.12 1486.81 1053.46 1488.55 1075.26 1485.11 1092.23 1476.49 1112.36 1468.87 1128.13 1457.83 1145.63 1444.25 1156.94 1445.79 1151.85 1452.23 1141.2 1454.63 1135.96 1492.27 1053.81 1447.49 943.188 1345.01 956.281 1328.66 958.371 1319.04 961.803 1304.21 967.129L1304.05 886.797zM1238.83 808.997L1471.86 809.297C1468.37 830.898 1465.41 853.861 1461.56 875.207 1456.04 875.289 1450.33 875.453 1444.83 875.372L1452.36 827.984C1385.37 827.11 1318.11 828.143 1251.09 827.801 1245.63 827.773 1240.53 827.894 1235.07 827.286L1237.94 826.497C1239.74 821.794 1238.96 814.388 1238.83 808.997zM1246.45 1108.98C1252.48 1102.82 1258.63 1096.78 1264.9 1090.86 1295.71 1123.06 1328.95 1135.59 1373.04 1122.3 1369.78 1127.87 1365.3 1132.63 1359.95 1136.25 1327.26 1158.6 1267.66 1140.9 1246.45 1108.98z" class="svgShape color1a71f6-17 selectable"></path><path fill="#FFF" d="M 1476.49 1112.36 L 1480.11 1112.21 L 1481.04 1113.53 C 1479.79 1119.76 1473.69 1125.04 1472.41 1130.05 C 1459.85 1146.4 1453.16 1154.35 1436.1 1166.42 L 1444.25 1156.94 C 1457.83 1145.63 1468.87 1128.13 1476.49 1112.36 z" class="svgShape colorffffff-18 selectable"></path><path fill="#035c4d" d="M 1236.76 830.887 L 1448.68 831.092 L 1441.61 875.891 C 1440.95 879.832 1441.58 880.576 1439.27 882.732 C 1426.64 883.834 1408.89 883.227 1395.64 883.191 L 1323.37 883.124 L 1301.04 883.911 C 1301.07 912.898 1301.58 943.272 1301.04 972.141 C 1401.42 929.293 1476.53 994.573 1462.77 1101.18 C 1459.68 1125.16 1442.31 1159.49 1422.88 1174.61 C 1401.86 1196.55 1357.46 1204.03 1328.4 1202.41 C 1281.45 1199.78 1245.38 1181.07 1214.11 1146.54 C 1220.03 1140.19 1227.27 1133.42 1233.54 1127.28 C 1235.07 1125.15 1243.46 1116.59 1245.71 1114.19 C 1256.24 1125.52 1266.78 1134.81 1281.27 1140.44 C 1332.92 1160.53 1368.32 1148.7 1390.48 1099.53 C 1403.71 1055.8 1396.7 1005.56 1340.11 1004.06 C 1326.24 1003.69 1315.23 1007.23 1302.11 1011.36 L 1300.96 1011.91 L 1289.38 1019.26 C 1283.24 1019.61 1238.58 1020.91 1235.67 1018.62 L 1235.58 1017.42 C 1234.97 1007.99 1235.43 993.53 1235.47 983.656 L 1235.62 922.454 L 1235.44 864.597 C 1235.37 855.122 1234.84 841.227 1235.43 832.056 L 1236.76 830.887 z" class="svgShape color1a71f6-19 selectable"></path><path fill="#FFF" d="M1233.54 1127.28C1230.58 1132.61 1227.62 1135.81 1223.72 1140.4 1267.18 1191.28 1335.86 1207.63 1399.23 1184.95 1407.1 1182.14 1415.17 1177.23 1422.88 1174.61 1401.86 1196.55 1357.46 1204.03 1328.4 1202.41 1281.45 1199.78 1245.38 1181.07 1214.11 1146.54 1220.03 1140.19 1227.27 1133.42 1233.54 1127.28zM1323.37 883.124C1323.46 878.989 1322.76 878.969 1324.74 876.273 1335.4 875.13 1356.79 875.658 1368.15 875.642 1392.63 875.469 1417.12 875.552 1441.61 875.891 1440.95 879.832 1441.58 880.576 1439.27 882.732 1426.64 883.834 1408.89 883.227 1395.64 883.191L1323.37 883.124zM1302.11 1011.36C1322.03 995.215 1368.64 991.801 1385.57 1013.81 1398.15 1030.14 1399.55 1058.91 1397.41 1078.78 1396.88 1083.69 1394.55 1096.85 1390.48 1099.53 1403.71 1055.8 1396.7 1005.56 1340.11 1004.06 1326.24 1003.69 1315.23 1007.23 1302.11 1011.36zM1235.58 1017.42C1234.97 1007.99 1235.43 993.53 1235.47 983.656L1235.62 922.454 1235.44 864.597C1235.37 855.122 1234.84 841.227 1235.43 832.056L1236.76 830.887C1238.25 835.844 1239.11 1005.38 1237.2 1012.21L1236.44 1011.2C1236.2 1013.29 1236.04 1015.38 1235.58 1017.42z" class="svgShape colorffffff-20 selectable"></path><path fill="#FFF" d="M 1235.58 1017.42 C 1236.04 1015.38 1236.2 1013.29 1236.44 1011.2 L 1237.2 1012.21 C 1256 1013.56 1281.92 1012.82 1300.96 1011.91 L 1289.38 1019.26 C 1283.24 1019.61 1238.58 1020.91 1235.67 1018.62 L 1235.58 1017.42 z" class="svgShape colorffffff-21 selectable"></path><path fill="#020203" d="M 613.938 809.061 L 848.512 809.183 C 844.631 830.946 840.541 853.191 837.478 875.05 L 820.429 875.4 L 818.6 886.601 C 778.564 887.039 737.63 886.139 697.858 886.893 C 697.382 907.368 696.851 929.172 697.571 949.636 C 783.169 911.548 862.042 961.823 864.33 1054.07 C 864.966 1079.7 861.321 1098.25 849.567 1121.28 L 852.336 1123.3 C 851.586 1128.74 848.544 1133.41 844.704 1137.29 C 840.513 1144.83 832.879 1153.65 826.452 1159.37 C 788.169 1193.41 756.708 1209.34 704.175 1206.22 C 655.098 1203.31 616.961 1182.71 584.888 1146.63 C 598.137 1134.08 610.249 1120.59 623.968 1108.18 C 628.721 1103.57 637.469 1094.73 642.599 1090.95 C 664.121 1114.08 680.197 1125.86 713.214 1127.12 C 725.14 1127.58 738.448 1126.32 749.762 1122.24 C 762.827 1108.66 766.772 1088.76 768.154 1070.39 C 771.994 1019.36 732.452 999.058 687.861 1011.5 C 680.962 1013.43 669.197 1021.78 662.489 1022.38 C 644.179 1024.04 624.569 1023.17 606.037 1023.03 C 606.725 960.554 604.269 890.855 606.502 829.164 C 608.886 827.126 609.409 827.841 613.401 827.665 C 613.72 821.287 614.03 815.456 613.938 809.061 z" class="svgShape color020203-22 selectable"></path><path fill="#035c4d" d="M678.96 886.766L697.858 886.893C697.382 907.368 696.851 929.172 697.571 949.636 783.169 911.548 862.042 961.823 864.33 1054.07 864.966 1079.7 861.321 1098.25 849.567 1121.28 842.13 1133.15 831.475 1149.39 820.275 1158.06 821.993 1152.82 827.653 1144.51 830.419 1139.05 858.136 1084.28 844.015 995.013 784.707 966.3 749.556 949.283 714.051 954.896 678.78 967.265L678.96 886.766zM613.938 809.061L848.512 809.183C844.631 830.946 840.541 853.191 837.478 875.05L820.429 875.4C823.043 859.574 825.519 843.725 827.859 827.857L688.466 827.807C664.127 827.828 637.525 828.35 613.401 827.665 613.72 821.287 614.03 815.456 613.938 809.061zM642.599 1090.95C664.121 1114.08 680.197 1125.86 713.214 1127.12 725.14 1127.58 738.448 1126.32 749.762 1122.24 732.009 1152.24 685.341 1150.53 657.477 1137.37 645.615 1131.77 628.731 1120.99 623.968 1108.18 628.721 1103.57 637.469 1094.73 642.599 1090.95z" class="svgShape color1a71f6-23 selectable"></path><path fill="#FFF" d="M 849.567 1121.28 L 852.336 1123.3 C 851.586 1128.74 848.544 1133.41 844.704 1137.29 L 844.105 1137.86 C 831.19 1150.13 828.637 1155.79 812.805 1167.15 L 820.275 1158.06 C 831.475 1149.39 842.13 1133.15 849.567 1121.28 z" class="svgShape colorffffff-24 selectable"></path><path fill="#035c4d" d="M 611.21 830.925 L 824.411 831.107 C 821.859 846.518 819.331 864.712 816.262 879.871 L 814.996 882.281 C 809.416 883.707 781.416 883.239 774.053 883.192 C 748.722 883.03 722.951 883.391 697.639 883.097 C 690.471 883.354 683.09 883.714 675.939 883.854 L 675.713 972.263 C 777.335 930.289 851.655 992.341 839.399 1101.32 C 836.714 1125.2 820.433 1157.55 801.892 1173.43 C 779.597 1195.04 743.026 1204.03 712.877 1203.06 C 660.293 1201.37 625.311 1183.71 589.672 1147.11 C 598.376 1138.42 606.421 1130.36 615.621 1122.18 C 616.454 1120.95 621.047 1116.38 622.291 1115.1 C 648.684 1142.4 685.314 1157.43 723.56 1146.21 C 744.635 1140.03 756.257 1121.25 765.477 1102.59 C 771.474 1084.49 772.662 1072.73 771.124 1053.91 C 764.386 1001.57 717.555 998.621 677.042 1011.46 L 675.666 1012.23 C 672.381 1013.85 667.278 1017.3 664.03 1019.36 C 655.506 1019.98 618.943 1020.41 610.95 1019.31 C 609.235 1016.53 609.857 1016.78 609.925 1012.85 C 608.674 968.672 610.829 923.539 609.874 879.272 C 609.734 872.78 609.212 834.415 611.21 830.925 z" class="svgShape color1a71f6-25 selectable"></path><path fill="#FFF" d="M615.621 1122.18C612.334 1127.87 604.849 1135.8 600.223 1140.98 617.717 1160.77 634.591 1174.53 659.661 1184.19 696.395 1198.35 740.079 1198.94 776.874 1184.71 785.133 1181.54 793.621 1176.38 801.892 1173.43 779.597 1195.04 743.026 1204.03 712.877 1203.06 660.293 1201.37 625.311 1183.71 589.672 1147.11 598.376 1138.42 606.421 1130.36 615.621 1122.18zM697.639 883.097C697.779 879.762 697.653 879.766 698.788 876.683 703.709 874.88 812.993 875.169 816.056 876.626L816.262 879.871 814.996 882.281C809.416 883.707 781.416 883.239 774.053 883.192 748.722 883.03 722.951 883.391 697.639 883.097zM677.042 1011.46C696.579 994.689 743.152 993.268 760.937 1013.53 768.726 1022.41 772.162 1041.58 773.227 1053.16L771.124 1053.91C764.386 1001.57 717.555 998.621 677.042 1011.46zM611.969 1012.07C632.646 1013.09 654.863 1012.48 675.666 1012.23 672.381 1013.85 667.278 1017.3 664.03 1019.36 655.506 1019.98 618.943 1020.41 610.95 1019.31 609.235 1016.53 609.857 1016.78 609.925 1012.85L611.969 1012.07z" class="svgShape colorffffff-26 selectable"></path><path fill="#FFF" d="M 609.925 1012.85 C 608.674 968.672 610.829 923.539 609.874 879.272 C 609.734 872.78 609.212 834.415 611.21 830.925 C 612.571 837.381 612.259 883.175 612.101 891.841 C 611.381 931.155 613.286 973.187 611.969 1012.07 L 609.925 1012.85 z" class="svgShape colorffffff-27 selectable"></path><path fill="#DAE6FA" d="M 771.124 1053.91 L 773.227 1053.16 C 774.663 1063.04 774.104 1096.68 765.477 1102.59 C 771.474 1084.49 772.662 1072.73 771.124 1053.91 z" class="svgShape colordae6fa-28 selectable"></path><path fill="#020203" d="M1487.21 1049.7C1562.1 995.508 1717.31 1000.88 1746.87 1106.5 1808.01 1072.18 1884.46 1071.84 1922.34 1139.2 1937.29 1166.34 1940.81 1198.32 1932.13 1228.07 1924.97 1253.09 1910.22 1275.26 1893.7 1295.07L1705.75 1295.12 1650.95 1295.12C1644.25 1295.13 1629.09 1296.16 1623.81 1293.97L1623.05 1292.77C1628.36 1291.16 1677.81 1291.74 1685.59 1291.75L1820.05 1291.82C1842.17 1291.81 1869.6 1292.54 1891.4 1291.39 1916.59 1263.94 1934.63 1229.03 1933.14 1191.01 1932.17 1161.09 1919.09 1132.85 1896.88 1112.77 1874.77 1092.71 1847.91 1085.75 1818.53 1087.42 1788.42 1089.14 1769.37 1097.49 1744.31 1112.66 1735.43 1080.1 1719.99 1056.94 1690.12 1039.86 1646.5 1014.92 1588.1 1015.68 1540.69 1028.41 1518.88 1034.27 1505.59 1041.75 1486.81 1053.46 1486.76 1052.12 1487.01 1051.05 1487.21 1049.7zM1379.27 493.538L1381.6 494.049C1386.72 497.984 1414.78 546.472 1412.25 552.229 1405.63 555.953 1390.42 554.491 1382.25 554.287 1374.2 554.237 1354.01 555.132 1347.46 553.402L1346.62 551.456C1348.17 541.497 1373.03 501.5 1379.27 493.538z" class="svgShape color020203-29 selectable"></path><path fill="#035c4d" d="M 1380.3 497.53 C 1384.21 501.2 1406.6 543.102 1410.61 550.613 C 1401.38 551.129 1389.9 550.725 1380.5 550.642 L 1349.3 549.951 C 1358.35 533.516 1370.17 513.256 1380.3 497.53 z" class="svgShape color1a71f6-30 selectable"></path><path fill="#020203" d="M 1643.19 1204.41 C 1649.43 1208.72 1677.43 1257.44 1675.79 1264.15 C 1669.76 1267.39 1649.53 1266.01 1641.75 1265.86 C 1635.78 1265.92 1612.34 1267.38 1609.67 1263.36 C 1610.91 1254.8 1637.56 1210.44 1643.19 1204.41 z" class="svgShape color020203-31 selectable"></path><path fill="#035c4d" d="M 1643.27 1208.77 C 1648.28 1213.51 1669.01 1252.89 1674.42 1262.17 C 1665.49 1262.46 1655.28 1262.18 1646.25 1262.14 L 1612.57 1262.01 C 1621.57 1245.07 1633.49 1225.46 1643.27 1208.77 z" class="svgShape color1a71f6-32 selectable"></path><path fill="#020203" d="M 1703.37 1306.37 C 1709.32 1309.32 1738.11 1359.88 1736.55 1365.72 C 1730.55 1369.38 1714.52 1368.11 1706.84 1368.01 C 1699.92 1368.05 1675.33 1369.35 1671.59 1366.02 C 1671.19 1357.06 1697.04 1315.67 1703.37 1306.37 z" class="svgShape color020203-33 selectable"></path><path fill="#035c4d" d="M1704.31 1310.83C1709.48 1317.78 1728.86 1354.32 1734.26 1364.11 1724.79 1364.45 1713.86 1364.18 1704.28 1364.16L1673.61 1364.07 1704.31 1310.83zM1064.46 1302.11L1077.65 1301.99 1077.92 1367.04C1073.32 1367.2 1068.25 1367.05 1063.59 1367.01 1057.09 1354.31 1044.13 1333.97 1036.4 1320.81 1037.39 1335.19 1037.06 1352.44 1037.11 1367.06L1024.38 1366.99C1024.45 1345.34 1024.37 1323.7 1024.15 1302.05L1038.39 1302.11 1065.13 1346.84C1064.43 1332.34 1064.53 1316.64 1064.46 1302.11z" class="svgShape color1a71f6-34 selectable"></path><path fill="#020203" d="M 180.472 988.533 C 186.497 991.89 216.295 1040.52 213.519 1045.87 C 206.617 1049.64 192.835 1048.32 184.488 1048.16 C 178.104 1048.25 153.818 1049.39 149.542 1046.83 C 147.772 1038.69 174.502 997.101 180.472 988.533 z" class="svgShape color020203-35 selectable"></path><path fill="#035c4d" d="M 181.112 992.633 C 187.449 1000.38 206.304 1035 211.395 1044.18 C 201.864 1044.36 192.056 1044.25 182.5 1044.27 L 151.744 1044.13 C 161.206 1026.78 170.997 1009.61 181.112 992.633 z" class="svgShape color1a71f6-36 selectable"></path><path fill="#020203" d="M 571.003 1368.41 L 572.264 1369.53 L 571.434 1370.85 C 565.908 1372.9 522.431 1379.55 513.694 1381.02 L 367.53 1405.68 C 411.268 1407.05 458.048 1406.21 501.966 1406.22 L 733.032 1406.41 C 733.019 1399.27 732.521 1391.03 734.082 1384.27 L 735.051 1383.81 C 738.054 1388.77 738.986 1405.11 735.344 1409.54 L 731.25 1409.87 L 462.592 1409.86 L 382.029 1409.92 C 367.437 1409.96 346.957 1410.66 332.84 1409.42 C 342.608 1405.1 390.644 1398.77 404.805 1396.37 C 460.107 1386.48 515.509 1377.16 571.003 1368.41 z" class="svgShape color020203-37 selectable"></path><path fill="#035c4d" d="M 615.647 1302.01 C 632.543 1301.85 662.628 1297.23 665.863 1319.81 C 666.753 1325.72 665.144 1331.73 661.423 1336.41 C 656.775 1342.29 652.185 1343.03 645.252 1343.99 L 629.382 1344.5 L 629.186 1367.07 L 615.842 1367 C 615.958 1345.33 615.893 1323.67 615.647 1302.01 z" class="svgShape color1a71f6-38 selectable"></path><path fill="#FFF" d="M 629.716 1313.13 C 642.309 1312.78 657.847 1312.28 649.936 1330.46 C 643.532 1334.78 637.744 1333.47 629.871 1333.05 C 629.517 1326.44 629.668 1319.75 629.716 1313.13 z" class="svgShape colorffffff-39 selectable"></path><path fill="#035c4d" d="M 1322.25 1318.11 C 1356.54 1320.39 1347.16 1382.58 1312.06 1363.95 L 1312.06 1381.25 C 1312.07 1383 1312.01 1382.55 1311.34 1384.31 C 1307.43 1385.82 1302.68 1385.2 1298.34 1385.07 C 1298.85 1363.07 1298.92 1341.06 1298.55 1319.06 C 1303.36 1318.86 1307.45 1318.08 1311.54 1321.11 C 1312.96 1322.16 1320.2 1318.82 1322.25 1318.11 z" class="svgShape color1a71f6-40 selectable"></path><path fill="#FFF" d="M 1315.58 1328.99 C 1333.42 1328.29 1333.01 1347.21 1323.59 1357.17 C 1307.49 1361 1309.6 1335.59 1315.58 1328.99 z" class="svgShape colorffffff-41 selectable"></path><path fill="#035c4d" d="M 1593.4 1300.3 L 1606.13 1300.23 C 1607.52 1320.17 1606.85 1346.55 1606.82 1366.94 C 1602.5 1367.05 1598.87 1367.05 1594.55 1366.89 C 1593.63 1364.98 1594.18 1365.84 1592.96 1364.3 C 1584.77 1367.09 1585.93 1368.27 1576.77 1367.91 C 1552.05 1358.71 1560.55 1304.58 1593.34 1321.75 L 1593.4 1300.3 z" class="svgShape color1a71f6-42 selectable"></path><path fill="#FFF" d="M 1582.78 1328.83 C 1586.13 1328.83 1589.98 1328.45 1591.61 1331.84 C 1596.21 1341.39 1594.82 1352.6 1585.7 1358.21 C 1572.6 1355.01 1572.95 1336.33 1582.78 1328.83 z" class="svgShape colorffffff-43 selectable"></path><path fill="#035c4d" d="M 1373.07 1318.07 C 1398.29 1319.65 1399.78 1349.95 1385.98 1365.58 C 1381.21 1370.98 1370.47 1366.43 1363.69 1365.91 C 1362.62 1368.29 1362.99 1375.18 1362.97 1378.25 C 1363.06 1381.34 1363.26 1381.29 1362.01 1384.06 C 1358.75 1386 1354.02 1385.23 1350.03 1385.07 C 1350.32 1363.11 1350.27 1341.15 1349.88 1319.19 C 1353.49 1319.02 1358.95 1318.39 1362.18 1319.5 L 1363.2 1322.65 L 1364.32 1322.67 C 1367.91 1319.92 1368.77 1319.41 1373.07 1318.07 z" class="svgShape color1a71f6-44 selectable"></path><path fill="#FFF" d="M 1367.25 1328.87 C 1384.91 1328.38 1384.31 1347.7 1375.15 1357.59 C 1358.01 1359.48 1360.41 1334.79 1367.25 1328.87 z" class="svgShape colorffffff-45 selectable"></path><path fill="#035c4d" d="M444.274 1302.02L457.979 1302.02C458.066 1310.41 458.246 1318.8 458.518 1327.19L483.895 1327.22C483.978 1318.94 483.769 1310.43 483.664 1302.12L497.29 1302.01C497.281 1311.87 498.474 1360.9 496.319 1366.38L493.237 1367.19C490.444 1367.26 488.17 1367.63 485.707 1366.44 481.117 1359.89 483.305 1347.32 483.69 1338.78 474.985 1338.23 466.835 1338.36 458.143 1338.43L458.122 1366.85 444.522 1367C443.71 1345.96 444.186 1323.18 444.274 1302.02zM1420.8 1318.33C1442.7 1319.38 1450.72 1336.77 1441.98 1356.96 1439 1363.82 1432.14 1366.47 1425.21 1368.4 1390.62 1367.98 1389.51 1322.51 1420.8 1318.33z" class="svgShape color1a71f6-46 selectable"></path><path fill="#FFF" d="M 1418.57 1329.01 C 1435.63 1328.91 1434.81 1347.7 1425.59 1357 C 1409.05 1358.19 1409.08 1337.36 1418.57 1329.01 z" class="svgShape colorffffff-47 selectable"></path><path fill="#035c4d" d="M 1105.73 1318.27 C 1118.75 1317.94 1123.68 1321.54 1130.77 1332.06 C 1132.77 1349.6 1132.22 1362.7 1112.59 1367.97 C 1077.21 1368.5 1076.65 1323.96 1105.73 1318.27 z" class="svgShape color1a71f6-48 selectable"></path><path fill="#FFF" d="M 1105.94 1328.77 C 1121.94 1329.53 1121.74 1348.66 1110.92 1357.7 C 1095.79 1356.06 1094.6 1336.63 1105.94 1328.77 z" class="svgShape colorffffff-49 selectable"></path><path fill="#035c4d" d="M1209.65 1301.22C1221.09 1300.66 1233.92 1305 1239.99 1315.29 1240.35 1320 1236.76 1323.14 1233.37 1322.68 1225.81 1321.65 1216.34 1302.87 1205.62 1315.07 1204.39 1318.3 1204.37 1318.05 1205.19 1321.39 1207.53 1324.86 1211.84 1327.67 1215.82 1328.31 1243.64 1332.83 1250.82 1360.75 1219.5 1368.02 1200.38 1368.44 1194.22 1365.4 1187.98 1347.64 1198.36 1346.43 1199.87 1345.48 1205.99 1354.15 1210.32 1360.27 1225.76 1358.48 1225.56 1348.35 1218.45 1336.31 1179 1336.31 1192.76 1311.93 1196.7 1304.95 1202.31 1303.16 1209.65 1301.22zM918.933 1318.21C950.158 1318.64 953.776 1358.96 925.022 1368.12 889.909 1369.04 888.393 1323.75 918.933 1318.21z" class="svgShape color1a71f6-50 selectable"></path><path fill="#FFF" d="M 917.886 1328.78 C 934.805 1330.18 934.612 1349.1 923.113 1357.73 C 908.529 1357.7 906.882 1337.24 917.886 1328.78 z" class="svgShape colorffffff-51 selectable"></path><path fill="#035c4d" d="M733.737 1301.96L747.571 1301.98 742.889 1316.19C737.193 1333.18 731.358 1350.12 725.386 1367.01L711.6 1366.96C704.477 1346.4 695.973 1322.93 689.93 1302.23L704.136 1302.15C708.94 1318.26 713.931 1334.32 719.109 1350.32 724.232 1334.97 729.068 1317.53 733.737 1301.96zM1533.58 1318.22C1555.27 1317.29 1557.74 1329.22 1558.39 1347.83 1551.16 1347.86 1534.69 1345.98 1529.59 1349.24L1529.29 1351.14C1538.43 1364.91 1545.34 1353.34 1552.07 1354.62 1554.6 1358.05 1556.5 1359.24 1554.84 1363.25 1530.73 1381.11 1503.32 1353.86 1517.76 1328.63 1521.38 1322.31 1526.74 1319.77 1533.58 1318.22z" class="svgShape color1a71f6-52 selectable"></path><path fill="#FFF" d="M 1533.14 1329.04 C 1536.55 1328.82 1536.54 1328.81 1539.88 1329.48 C 1543.11 1331.78 1546.02 1333.47 1544.62 1337.77 L 1542.04 1338.94 C 1537.14 1338.72 1531.89 1339.31 1528.8 1336.03 C 1529.12 1332.81 1530.9 1331.5 1533.14 1329.04 z" class="svgShape colorffffff-53 selectable"></path><path fill="#035c4d" d="M 765.33 1318.22 C 787.427 1316.66 790.128 1329.42 790.165 1347.84 C 784.722 1347.78 764.064 1346.75 760.887 1348.85 C 760.641 1352 760.771 1351.52 762.944 1354.02 C 771.379 1363.75 778.96 1353.25 784.404 1354.39 C 786.731 1358.31 787.68 1359.15 787.237 1363.05 C 785.142 1365.21 784.811 1365.16 782.14 1366.18 C 756.69 1375.9 737.622 1353.92 749.521 1329.9 C 752.768 1323.34 758.238 1320.37 765.33 1318.22 z" class="svgShape color1a71f6-54 selectable"></path><path fill="#FFF" d="M 766.878 1328.76 C 772.039 1328.86 779.884 1332.57 776.012 1338.17 L 772.75 1338.57 C 768.133 1338.49 762.971 1339.52 760.979 1334.9 C 762.364 1331.57 763.942 1330.88 766.878 1328.76 z" class="svgShape colorffffff-55 selectable"></path><path fill="#035c4d" d="M1246.84 1318.94L1259.96 1319.05C1259.84 1329.14 1258.34 1347.71 1262.83 1355.72 1279.41 1367.54 1275.28 1326.27 1275.18 1319.25L1288.92 1319.45 1288.95 1330.75 1288.95 1366.92C1286.65 1367 1282.6 1367.28 1280.4 1367.1 1274.57 1366.64 1278.55 1366.58 1275.49 1363.05 1240.85 1384.48 1246.84 1337.62 1246.84 1318.94zM975.335 1318.09C995.103 1317.8 993.52 1333.27 993.324 1348.51 993.246 1354.62 993.221 1360.94 993.17 1367.07L979.656 1366.99C979.646 1356.98 983.682 1335.31 974.892 1329.73 971.142 1328.76 969.236 1329.67 965.481 1330.68 963.386 1336.86 964.149 1358.93 964.229 1367.05L950.943 1366.93 950.873 1319.24C954.504 1319.11 960.039 1318.54 963.265 1319.67L964.134 1323.17 965.247 1323.48C969.168 1320.4 970.484 1319.23 975.335 1318.09zM557.494 1301.99L608.767 1302.02C608.775 1307.14 609.562 1308.36 607.247 1312.09 603.025 1314.26 595.073 1313.43 589.967 1313.53 589.766 1324.54 589.809 1335.72 589.757 1346.75L589.769 1366.89 576.28 1367.2 576.098 1313.47C570.378 1313.18 563.267 1313.35 557.42 1313.34L557.494 1301.99zM504.001 1302.09C513.768 1302.03 544.758 1301.27 552.769 1302.58 554.32 1305.19 554.668 1309.46 553.438 1312.25 548.584 1313.89 541.786 1313.37 536.453 1313.34 536.165 1325.5 536.417 1338.28 536.49 1350.5L536.552 1367.03 522.99 1367.09 522.766 1313.38C516.933 1313.17 510.45 1313.32 504.551 1313.34 504.193 1310.07 504.144 1305.48 504.001 1302.09zM839.956 1319.22C848.319 1318.34 864.76 1318.72 868.045 1328.33 867.687 1332.04 867.772 1331.79 865.542 1334.77 856.143 1338.1 850.671 1323.34 842.35 1329.08 840.8 1333.19 840.781 1331.27 841.612 1335 848.593 1339.81 864.239 1339.47 867.405 1347.92 871.688 1359.34 863.663 1364.83 854.897 1367.7 846.057 1368.34 838.35 1367.64 830.749 1362.68 826.473 1359.89 825.557 1354.7 829.52 1351.37 836.683 1351.21 841.111 1357.49 850.298 1359.12 853.421 1358.28 856.408 1354.63 854.794 1353.37 846.624 1346.99 834.481 1346.71 828.15 1337.24 822.822 1329.27 833.799 1321.97 839.956 1319.22zM1488.97 1307.99C1503.04 1308.05 1499.86 1306.18 1502.49 1317.98 1503.01 1320.3 1505.76 1317.58 1510.07 1320.57 1510.48 1323.64 1510.95 1324.42 1509.56 1327.12 1504.86 1329.72 1501.97 1331.21 1501.53 1337.11 1501.17 1341.79 1501.07 1352.83 1504 1356.57 1511.7 1359.24 1510.67 1358.47 1511.45 1366.11 1481.04 1377.25 1490.36 1345.99 1487.34 1329.81 1484.64 1328.7 1484.57 1328.8 1482.38 1326.95 1481.3 1323.64 1481.66 1323.33 1482.35 1319.95 1484.2 1319.3 1485.71 1318.66 1487.52 1317.88 1489.65 1314.03 1488.93 1312.77 1488.97 1307.99zM1140.89 1308C1144.49 1308 1148.09 1308.01 1151.69 1308.05 1155.62 1311.3 1152.52 1314.94 1156.23 1318.83 1159.01 1318.88 1159.85 1318.69 1162.46 1319.66 1163.88 1323.38 1164.53 1325.05 1162.14 1328.14 1159.25 1328.42 1158.02 1328.36 1155.33 1329.58 1153.62 1333.98 1154.51 1350.48 1155.74 1355.12 1156.73 1358.87 1161.58 1353.5 1163.94 1365.67 1160.4 1368.23 1151.53 1368.67 1147.98 1366.64 1136.22 1359.92 1143.01 1340.4 1140.27 1329.55 1137.48 1328.84 1137.39 1328.96 1135.01 1327.43 1133.58 1324.25 1133.91 1323.81 1134.21 1320.36 1136.1 1319.52 1137.86 1318.68 1139.72 1317.78 1141.78 1314.03 1141 1312.71 1140.89 1308zM1452.06 1319.06C1465.67 1318.29 1460.99 1321.22 1467.05 1321.8 1472.46 1318.84 1473.42 1317.48 1479.01 1320.25 1481.75 1325.17 1481.3 1328.66 1476.25 1331.6 1463.18 1330.88 1464.94 1336.58 1465.16 1347.54L1465.3 1367 1451.83 1366.99C1452.04 1351.01 1452.11 1335.03 1452.06 1319.06zM798.459 1319.39C804.597 1319.08 804.184 1318.22 809.083 1321.66 811.941 1323.67 815.937 1316.39 823.103 1319.41 825.627 1323.68 825.525 1328.4 821.371 1331.57 808.058 1331.24 809.705 1337.3 810.089 1348.13L810.244 1366.99 796.937 1366.96C796.935 1360.05 796.075 1322.49 798.459 1319.39zM876.744 1319.41L889.953 1319.01C889.992 1332.87 890.818 1354.02 889.814 1367.08L876.092 1366.97 876.744 1319.41zM879.755 1301.31C883.145 1299.36 887.477 1300.55 889.396 1303.96 891.315 1307.37 890.085 1311.69 886.658 1313.57 883.277 1315.44 879.028 1314.23 877.135 1310.86 875.242 1307.5 876.411 1303.24 879.755 1301.31z" class="svgShape color1a71f6-56 selectable"></path></svg></g></svg>