<svg id="SvgjsSvg1001" width="288" height="288" xmlns="http://www.w3.org/2000/svg" version="1.1" xmlns:xlink="http://www.w3.org/1999/xlink" xmlns:svgjs="http://svgjs.com/svgjs"><defs id="SvgjsDefs1002"></defs><g id="SvgjsG1008"><svg xmlns="http://www.w3.org/2000/svg" display="block" preserveAspectRatio="none" viewBox="0 0 2048 2048" width="288" height="288"><defs><linearGradient id="a" x1="408.544" x2="342.138" y1="454.686" y2="339.497" gradientUnits="userSpaceOnUse"><stop offset="0" stop-color="#035c4d" class="svgShape stopColor3757b7-2"></stop><stop offset="1" stop-color="#035c4d" class="svgShape stopColor5988df-3"></stop></linearGradient></defs><path fill="#FFF" d="M 0 0 L 2048 0 L 2048 2048 L 0 2048 L 0 0 z" class="svgShape colorffffff-4 selectable"></path><path fill="#5883df" d="M 1446.78 179.293 C 1446.8 172.041 1446.72 164.628 1446.41 157.388 C 1445.72 141.398 1445.27 124.917 1465.48 124.501 C 1512.68 123.529 1559.9 124.254 1607.12 124.05 C 1621.23 123.981 1625.58 124.67 1632.85 137.434 C 1633.22 172.036 1633.32 206.641 1633.15 241.244 C 1633.18 257.106 1633.77 273.544 1633.03 289.379 C 1632.73 295.758 1625.97 300.715 1620.81 303.66 C 1602.82 304.203 1584.92 303.49 1567.07 304.028 L 1567.02 312.767 L 1567.08 573.739 L 1567.35 643.031 C 1567.41 653.217 1568.7 669.005 1566.94 678.651 C 1561.4 709.13 1537.22 709.912 1514.08 710.121 C 1467.64 710.54 1421.59 709.193 1375.58 709.963 C 1375.09 711.95 1373.96 716.059 1373.66 717.907 C 1371.69 725.351 1368.62 737.81 1364.77 744.327 C 1350.75 768.085 1346.81 791.047 1341.04 817.95 C 1320.23 914.932 1299.21 979.456 1221.65 1046.14 C 1209.56 1008.91 1180.4 962.702 1153.75 934.857 C 1154.67 933.93 1155.58 932.993 1156.47 932.044 C 1190.99 895.56 1201.96 828.993 1216.45 781.5 C 1220.27 768.944 1225.03 754.232 1227.31 741.498 C 1228.11 737.071 1226.22 721.985 1226.07 716.062 L 1225.87 709.875 C 1176.95 709.189 1126.38 709.896 1077.33 709.963 C 1070.83 679.901 1061.11 648.578 1053.18 618.633 C 1066.48 603.809 1081.89 584.085 1094.93 568.396 L 1157.59 494.442 C 1113.4 479.219 1060.39 460.404 1016.1 447.052 L 1126.09 346.359 C 1125.01 335.498 1124.66 322.202 1124.04 311.02 C 1123.88 292.648 1122.81 265.327 1120.93 247.175 C 1127.28 240.598 1136.77 231.131 1143.67 225.493 C 1158.89 210.71 1177.11 193.157 1193.08 179.331 C 1277.14 179.194 1362.83 180.528 1446.78 179.293 z" class="svgShape color5883df-5 selectable"></path><path fill="#FD7C6C" d="M 1446.78 179.293 C 1446.8 172.041 1446.72 164.628 1446.41 157.388 C 1445.72 141.398 1445.27 124.917 1465.48 124.501 C 1512.68 123.529 1559.9 124.254 1607.12 124.05 C 1621.23 123.981 1625.58 124.67 1632.85 137.434 C 1633.22 172.036 1633.32 206.641 1633.15 241.244 C 1633.18 257.106 1633.77 273.544 1633.03 289.379 C 1632.73 295.758 1625.97 300.715 1620.81 303.66 C 1602.82 304.203 1584.92 303.49 1567.07 304.028 L 1567.02 312.767 C 1554.97 312.5 1543.18 312.24 1531.13 312.913 C 1531.38 315.602 1531.54 318.299 1531.62 320.999 C 1532.15 347.995 1522.6 372.724 1503.55 391.976 C 1485.45 410.396 1460.73 420.819 1434.91 420.93 C 1388.16 421.1 1348.46 391.564 1337.59 345.518 C 1334.76 333.545 1334.82 324.177 1334.88 312.012 C 1340.47 265.718 1367.27 239.746 1411.1 227.536 C 1424.9 225.982 1433.16 225.662 1447.06 226.182 L 1446.78 179.293 z" class="svgShape colorfd7c6c-6 selectable"></path><path fill="#4363C4" d="M 1531.13 312.913 C 1530.42 309.232 1530.09 308.398 1530.58 304.582 C 1533.84 303.465 1561.56 303.995 1567.07 304.028 L 1567.02 312.767 C 1554.97 312.5 1543.18 312.24 1531.13 312.913 z" class="svgShape color4363c4-7 selectable"></path><path fill="#FFF" d="M1426.68 250.166C1435.91 249.745 1442.9 249.377 1449.04 257.089 1452.29 267.987 1445.69 330.595 1442.65 345.471 1442.12 348.048 1438.41 349.021 1436.11 349.928 1432.64 350.084 1428.07 350.496 1424.81 349.131 1422.79 348.284 1421.58 347.075 1420.79 345.062 1417.3 336.243 1410.12 264.434 1413.72 257.751 1416.33 252.914 1421.71 251.345 1426.68 250.166zM1529.51 150.235C1537.71 149.854 1549.78 147.731 1555.76 154.271 1558.85 163.853 1553.6 224.804 1549.91 233.223 1544.83 235.327 1537.54 236.405 1532.51 233.776 1527.78 226.569 1524.41 169.948 1524.74 158.164 1524.86 153.876 1526.46 152.702 1529.51 150.235zM1431.12 359.335C1437.32 359.016 1443.2 362.051 1446.54 367.281 1449.87 372.511 1450.14 379.13 1447.23 384.61 1444.33 390.091 1438.7 393.588 1432.5 393.766 1423.07 394.037 1415.17 386.665 1414.79 377.234 1414.41 367.802 1421.69 359.822 1431.12 359.335zM1536.81 245.423C1545.37 243.414 1553.94 248.683 1556.01 257.222 1558.08 265.762 1552.87 274.372 1544.35 276.504 1535.74 278.657 1527.02 273.385 1524.93 264.759 1522.84 256.132 1528.17 247.453 1536.81 245.423z" class="svgShape colorffffff-8 selectable"></path><path fill="#FE8D7C" d="M 1296.01 635.451 C 1314.43 634.091 1320.73 644.356 1317.67 661.562 C 1314.78 676.375 1306.72 687.269 1299.42 700.157 C 1298.76 701.314 1299.02 702.711 1299.57 703.815 L 1303.82 710.388 C 1327.11 709.496 1352.17 709.945 1375.58 709.963 C 1375.09 711.95 1373.96 716.059 1373.66 717.907 C 1371.69 725.351 1368.62 737.81 1364.77 744.327 C 1350.75 768.085 1346.81 791.047 1341.04 817.95 C 1320.23 914.932 1299.21 979.456 1221.65 1046.14 C 1209.56 1008.91 1180.4 962.702 1153.75 934.857 C 1154.67 933.93 1155.58 932.993 1156.47 932.044 C 1190.99 895.56 1201.96 828.993 1216.45 781.5 C 1220.27 768.944 1225.03 754.232 1227.31 741.498 C 1228.11 737.071 1226.22 721.985 1226.07 716.062 L 1225.87 709.875 L 1247.71 709.784 C 1255.35 681.502 1273.7 654.247 1296.01 635.451 z" class="svgShape colorfe8d7c-9 selectable"></path><path fill="#FD7C6C" d="M1303.82 710.388C1327.11 709.496 1352.17 709.945 1375.58 709.963 1375.09 711.95 1373.96 716.059 1373.66 717.907 1352.68 717.167 1327.47 717.464 1306.54 717.922L1303.82 710.388zM1225.87 709.875L1247.71 709.784C1247.33 711.65 1247.2 714.618 1245.83 715.757 1242.05 718.915 1230.27 717.783 1226.07 716.062L1225.87 709.875z" class="svgShape colorfd7c6c-10 selectable"></path><path fill="#881F31" d="M1299.57 703.815L1303.82 710.388 1306.54 717.922C1307.95 724.394 1310.47 748.195 1303.56 751.084 1303.24 747.645 1305.33 740.086 1305.78 736.007 1306.95 725.387 1302.81 713.844 1299.57 703.815zM1245.99 753.177C1258.58 752.233 1307.96 771.451 1323.29 774.518 1324.06 774.673 1325.3 776.198 1325.81 776.793 1313.08 777.974 1264.34 758.502 1248.69 755.471 1247.87 755.312 1246.55 753.79 1245.99 753.177z" class="svgShape color881f31-11 selectable"></path><path fill="#4363C4" d="M 1446.78 179.293 L 1447.06 226.182 C 1433.16 225.662 1424.9 225.982 1411.1 227.536 C 1367.27 239.746 1340.47 265.718 1334.88 312.012 L 1171.47 312.285 C 1156.35 312.315 1141.22 312.592 1126.09 312.429 C 1125.41 311.959 1124.72 311.49 1124.04 311.02 C 1123.88 292.648 1122.81 265.327 1120.93 247.175 C 1127.28 240.598 1136.77 231.131 1143.67 225.493 C 1158.89 210.71 1177.11 193.157 1193.08 179.331 C 1277.14 179.194 1362.83 180.528 1446.78 179.293 z" class="svgShape color4363c4-12 selectable"></path><path fill="#5883DF" d="M 1446.78 179.293 L 1447.06 226.182 C 1433.16 225.662 1424.9 225.982 1411.1 227.536 C 1400.96 224.695 1356.6 226.195 1343.49 226.204 L 1213.21 226.243 C 1191.5 226.175 1164.92 226.66 1143.67 225.493 C 1158.89 210.71 1177.11 193.157 1193.08 179.331 C 1277.14 179.194 1362.83 180.528 1446.78 179.293 z" class="svgShape color5883df-13 selectable"></path><path fill="#FFF" d="M 1403.65 559.01 C 1420.81 544.606 1433.83 539.853 1456.4 541.299 C 1492.98 543.642 1521.04 576.674 1517.31 613.214 C 1515.45 630.805 1506.67 646.933 1492.9 658.038 C 1468.16 678.06 1426.02 678.361 1403.61 654.876 L 1403.07 654.635 C 1376.7 619.326 1375 594.313 1403.19 559.013 L 1403.65 559.01 z" class="svgShape colorffffff-14 selectable"></path><path fill="#FEF2CD" d="M 1403.19 559.013 L 1403.65 559.01 C 1406.8 565.085 1412.16 569.03 1415.32 574.446 C 1429.04 597.921 1425.87 623.977 1410.27 645.6 C 1408.49 648.085 1404.85 652.313 1403.61 654.876 L 1403.07 654.635 C 1376.7 619.326 1375 594.313 1403.19 559.013 z" class="svgShape colorfef2cd-15 selectable"></path><path fill="#FED071" d="M 1296.01 635.451 C 1292.37 626.799 1290.51 621.306 1289.69 611.806 C 1288.15 594.932 1293.53 578.158 1304.59 565.319 C 1316.46 551.387 1333.45 542.819 1351.71 541.548 C 1371.52 540.086 1388.25 546.189 1403.19 559.013 C 1375 594.313 1376.7 619.326 1403.07 654.635 C 1376.53 677.128 1347.63 677.947 1317.67 661.562 C 1320.73 644.356 1314.43 634.091 1296.01 635.451 z" class="svgShape colorfed071-16 selectable"></path><path fill="#FFF" d="M 1073.11 602.306 C 1082.44 601.866 1091.79 601.995 1101.1 602.693 C 1100.94 619.184 1097.11 623.918 1108.02 626.951 C 1112.16 628.103 1110.15 649.919 1109.76 656.154 C 1102.93 656.11 1100.83 655.209 1100.86 647.578 C 1100.88 643.173 1101.17 638.654 1101.3 634.239 L 1073.04 633.889 C 1072.96 623.361 1072.98 612.833 1073.11 602.306 z" class="svgShape colorffffff-17 selectable"></path><path fill="#5883DF" d="M 1081.11 610.914 C 1084.78 610.816 1088.45 610.185 1091.3 612.229 C 1093.26 615.693 1092.38 620.983 1092.16 625.199 C 1088.53 625.333 1085.07 625.963 1082.15 624.069 C 1080.1 620.834 1080.95 615.049 1081.11 610.914 z" class="svgShape color5883df-18 selectable"></path><path fill="#FFF" d="M 1055.27 1347.5 C 1088.75 1344.28 1122.09 1339.73 1155.21 1333.86 C 1183.68 1379.52 1256.15 1501.12 1261.59 1548.97 C 1265 1578.96 1257.21 1635.63 1254.42 1667.28 L 1248.23 1738.16 C 1247.5 1747.38 1248.59 1764.8 1244.6 1772.23 C 1241.93 1773.28 1241.74 1773.01 1238.81 1772.81 L 1236.06 1773.1 C 1234.1 1775.79 1234.25 1780.43 1233.98 1783.95 L 1232.9 1799.15 L 1243.29 1800.07 L 1245.9 1821.76 C 1278.46 1828.2 1299.27 1837.01 1320.3 1863.23 C 1334.61 1862.23 1435.61 1874.13 1429.72 1892.73 C 1413.44 1910.64 1312.97 1918.5 1285.81 1920.78 C 1149.28 1932.21 1010.56 1932.91 873.66 1929.77 C 835.001 1928.88 581.875 1920.78 572.209 1890.64 C 573.512 1871.47 667.372 1862.33 685.337 1862.42 L 686.561 1862.43 L 701.568 1837.83 C 708.792 1827.22 727.088 1783.25 733.295 1768.99 L 738.275 1758.66 C 734.114 1756.72 728.161 1754.49 723.781 1752.71 C 762.666 1663.63 805.623 1576.87 835.384 1484.09 C 849.165 1441.12 863.507 1398.4 876.703 1355.22 C 891.261 1356.77 916.222 1356.19 930.917 1355.8 C 972.452 1354.5 1013.93 1351.73 1055.27 1347.5 z" class="svgShape colorffffff-19 selectable"></path><path fill="#E0EDF5" d="M 738.275 1758.66 C 775.95 1773.86 814.34 1788.11 851.809 1803.54 C 850.038 1807.96 848.482 1811.78 846.413 1816.11 L 836.94 1835.69 C 841.823 1840.4 847.345 1845.49 851.744 1850.58 C 866.811 1845.91 1084.59 1844.06 1100.66 1848.71 C 1102.45 1833.97 1103.46 1814.24 1106 1800.21 C 1108.27 1798.01 1108.7 1798.67 1112.6 1798.16 C 1113.63 1792.41 1113.72 1780.97 1114.82 1773.59 L 1115.09 1763.3 C 1124.05 1764.71 1138.44 1765.4 1147.81 1766.09 L 1211.69 1770.53 C 1215.42 1770.78 1236.67 1771.9 1238.81 1772.81 L 1236.06 1773.1 C 1234.1 1775.79 1234.25 1780.43 1233.98 1783.95 L 1232.9 1799.15 L 1243.29 1800.07 L 1245.9 1821.76 C 1278.46 1828.2 1299.27 1837.01 1320.3 1863.23 C 1334.61 1862.23 1435.61 1874.13 1429.72 1892.73 C 1413.44 1910.64 1312.97 1918.5 1285.81 1920.78 C 1149.28 1932.21 1010.56 1932.91 873.66 1929.77 C 835.001 1928.88 581.875 1920.78 572.209 1890.64 C 573.512 1871.47 667.372 1862.33 685.337 1862.42 L 686.561 1862.43 L 701.568 1837.83 C 708.792 1827.22 727.088 1783.25 733.295 1768.99 L 738.275 1758.66 z" class="svgShape colore0edf5-20 selectable"></path><path fill="#4363C4" d="M 1115.09 1763.3 C 1124.05 1764.71 1138.44 1765.4 1147.81 1766.09 L 1211.69 1770.53 C 1215.42 1770.78 1236.67 1771.9 1238.81 1772.81 L 1236.06 1773.1 C 1234.1 1775.79 1234.25 1780.43 1233.98 1783.95 L 1232.9 1799.15 L 1243.29 1800.07 L 1245.9 1821.76 C 1278.46 1828.2 1299.27 1837.01 1320.3 1863.23 C 1326.63 1873.92 1329.31 1881.89 1330.72 1894.02 L 1096.05 1894.07 C 1097.44 1878.93 1098.98 1863.81 1100.66 1848.71 C 1102.45 1833.97 1103.46 1814.24 1106 1800.21 C 1108.27 1798.01 1108.7 1798.67 1112.6 1798.16 C 1113.63 1792.41 1113.72 1780.97 1114.82 1773.59 L 1115.09 1763.3 z" class="svgShape color4363c4-21 selectable"></path><path fill="#FE8D7C" d="M 1115.09 1763.3 C 1124.05 1764.71 1138.44 1765.4 1147.81 1766.09 L 1211.69 1770.53 C 1215.42 1770.78 1236.67 1771.9 1238.81 1772.81 L 1236.06 1773.1 C 1234.1 1775.79 1234.25 1780.43 1233.98 1783.95 L 1232.9 1799.15 C 1191.85 1804.29 1211.79 1825.5 1186.95 1841.11 C 1180.18 1845.66 1160.65 1846.57 1153.3 1843.1 C 1125.61 1830.03 1148.74 1807.91 1112.6 1798.16 C 1113.63 1792.41 1113.72 1780.97 1114.82 1773.59 L 1115.09 1763.3 z" class="svgShape colorfe8d7c-22 selectable"></path><path fill="#FD7C6C" d="M 1115.09 1763.3 C 1124.05 1764.71 1138.44 1765.4 1147.81 1766.09 L 1211.69 1770.53 C 1215.42 1770.78 1236.67 1771.9 1238.81 1772.81 L 1236.06 1773.1 C 1234.1 1775.79 1234.25 1780.43 1233.98 1783.95 C 1207.62 1782.17 1179.15 1782.98 1152.62 1782.22 C 1140.7 1781.88 1128.06 1782.61 1116.23 1781.48 C 1114.48 1779.02 1115.04 1777.22 1114.82 1773.59 L 1115.09 1763.3 z" class="svgShape colorfd7c6c-23 selectable"></path><path fill="#5883DF" d="M 738.275 1758.66 C 775.95 1773.86 814.34 1788.11 851.809 1803.54 C 850.038 1807.96 848.482 1811.78 846.413 1816.11 L 836.94 1835.69 C 841.823 1840.4 847.345 1845.49 851.744 1850.58 C 861.845 1864.93 866.327 1876.74 868.549 1894.12 L 725.781 1894.21 L 677.268 1893.99 C 679.004 1880.78 681.055 1874.48 686.561 1862.43 L 701.568 1837.83 C 708.792 1827.22 727.088 1783.25 733.295 1768.99 L 738.275 1758.66 z" class="svgShape color5883df-24 selectable"></path><path fill="#FE8D7C" d="M 738.275 1758.66 C 775.95 1773.86 814.34 1788.11 851.809 1803.54 C 850.038 1807.96 848.482 1811.78 846.413 1816.11 L 836.94 1835.69 C 816.804 1821.63 786.371 1813.77 762.123 1817.54 C 746.417 1819.21 733.506 1823.59 719.137 1830.4 C 715.311 1832.21 705.53 1839.75 702.929 1839.56 L 701.568 1837.83 C 708.792 1827.22 727.088 1783.25 733.295 1768.99 L 738.275 1758.66 z" class="svgShape colorfe8d7c-25 selectable"></path><path fill="#FD7C6C" d="M 738.275 1758.66 C 775.95 1773.86 814.34 1788.11 851.809 1803.54 C 850.038 1807.96 848.482 1811.78 846.413 1816.11 C 817.736 1802.52 787.637 1791.25 758.506 1778.65 C 750.672 1775.26 741.507 1771.05 733.295 1768.99 L 738.275 1758.66 z" class="svgShape colorfd7c6c-26 selectable"></path><path fill="#4363C4" d="M 762.123 1817.54 C 762.148 1820.72 754.596 1828.37 752.063 1831.48 C 747.92 1836.63 744.198 1842.1 740.931 1847.85 C 729.562 1867.47 730.396 1874.47 725.781 1894.21 L 677.268 1893.99 C 679.004 1880.78 681.055 1874.48 686.561 1862.43 L 701.568 1837.83 L 702.929 1839.56 C 705.53 1839.75 715.311 1832.21 719.137 1830.4 C 733.506 1823.59 746.417 1819.21 762.123 1817.54 z" class="svgShape color4363c4-27 selectable"></path><path fill="#232448" d="M 876.703 1355.22 C 891.261 1356.77 916.222 1356.19 930.917 1355.8 C 972.452 1354.5 1013.93 1351.73 1055.27 1347.5 C 1050 1376.78 1040.94 1405.26 1028.31 1432.21 C 1005.88 1483.73 982.058 1536.34 960.312 1587.96 C 957.614 1594.91 952.097 1607.88 948.41 1614.3 C 939.788 1635.04 930.083 1655.62 920.953 1676.19 C 901.578 1720.02 881.919 1763.71 861.978 1807.28 L 851.809 1803.54 C 814.34 1788.11 775.95 1773.86 738.275 1758.66 C 734.114 1756.72 728.161 1754.49 723.781 1752.71 C 762.666 1663.63 805.623 1576.87 835.384 1484.09 C 849.165 1441.12 863.507 1398.4 876.703 1355.22 z" class="svgShape color232448-28 selectable"></path><path fill="#5883DF" d="M 948.41 1614.3 C 942.054 1616.99 936.09 1625.56 926.804 1627.96 C 903.527 1633.95 882.419 1623.44 876.297 1599.21 C 873.579 1588.75 875.283 1577.63 881.009 1568.47 C 894.107 1547.6 914.449 1553.28 932.914 1561.25 C 951.258 1569.17 956.931 1566.57 960.312 1587.96 C 957.614 1594.91 952.097 1607.88 948.41 1614.3 z" class="svgShape color5883df-29 selectable"></path><path fill="#232448" d="M 1055.27 1347.5 C 1088.75 1344.28 1122.09 1339.73 1155.21 1333.86 C 1183.68 1379.52 1256.15 1501.12 1261.59 1548.97 C 1265 1578.96 1257.21 1635.63 1254.42 1667.28 L 1248.23 1738.16 C 1247.5 1747.38 1248.59 1764.8 1244.6 1772.23 C 1241.93 1773.28 1241.74 1773.01 1238.81 1772.81 C 1236.67 1771.9 1215.42 1770.78 1211.69 1770.53 L 1147.81 1766.09 C 1138.44 1765.4 1124.05 1764.71 1115.09 1763.3 L 1101.21 1762.11 C 1106.49 1699.69 1111.67 1630.6 1118.75 1568.77 C 1091.06 1524.33 1057.5 1476.48 1028.31 1432.21 C 1040.94 1405.26 1050 1376.78 1055.27 1347.5 z" class="svgShape color232448-30 selectable"></path><path fill="#5883DF" d="M 601.635 226.182 C 601.322 195.756 610.313 179.757 642.761 179.487 C 655.83 179.378 669.239 179.402 682.316 179.428 L 768.212 179.539 L 1041.58 179.357 C 1046.01 179.384 1046.35 178.655 1049.52 180.606 C 1051.43 187.662 1053.97 217.287 1054.94 226.185 C 1057.18 254.598 1060.75 283.659 1063.55 312.091 L 1065.49 328.804 C 1039.68 359.54 1014.12 390.485 988.806 421.634 C 978.906 433.732 963.329 451.294 954.59 463.11 C 998.073 478.07 1041.48 493.259 1084.8 508.677 C 1053.85 539.189 1023.29 570.092 993.124 601.378 C 996.153 624.39 998.929 653.22 1000.47 676.51 C 983.069 687.368 968.442 697.698 951.71 709.504 C 930.864 710.553 907.675 709.692 886.546 709.907 C 837.442 710.406 787.758 709.255 738.683 710.161 L 736.367 710.155 C 735.15 718.311 731.559 736.6 732.807 744.377 C 735.507 761.203 739.384 778.807 743.467 795.517 C 753.856 838.035 758.098 886.293 784.39 922.636 C 790.337 930.856 805.261 946.879 813.668 951.58 C 816.171 951.665 815.022 951.907 817.138 950.978 L 818.304 952.572 C 810.348 971.299 790.431 995.949 783.115 1011.6 L 776.154 1021.34 C 771.719 1027.49 742.329 1068.59 737.653 1069.65 C 736.218 1067.45 736.584 1066.26 736.619 1063.56 L 734.443 1060.37 C 700.896 1033.22 673.945 1006.49 656.238 966.068 C 653.615 962.442 647.539 945.476 646.036 940.886 C 627.976 885.734 621.136 827.884 609.997 771.172 C 607.636 762.619 600.741 755.116 596.712 747.458 C 580.23 716.068 571.36 679.774 578.886 644.533 C 582.25 628.782 583.982 615.887 602.437 614.243 C 601.653 579.251 602.118 542.58 602.078 507.491 L 601.955 313.04 C 602.005 284.087 601.898 255.134 601.635 226.182 z" class="svgShape color5883df-31 selectable"></path><path fill="#4363C4" d="M 1063.55 312.091 L 1065.49 328.804 C 1039.68 359.54 1014.12 390.485 988.806 421.634 C 978.906 433.732 963.329 451.294 954.59 463.11 C 998.073 478.07 1041.48 493.259 1084.8 508.677 C 1053.85 539.189 1023.29 570.092 993.124 601.378 C 996.153 624.39 998.929 653.22 1000.47 676.51 C 983.069 687.368 968.442 697.698 951.71 709.504 C 930.864 710.553 907.675 709.692 886.546 709.907 C 837.442 710.406 787.758 709.255 738.683 710.161 C 753.407 691.871 778.136 674.731 792.175 654.348 C 794.306 651.254 799.026 645.324 802.025 643.104 L 803.859 643.913 C 802.965 635.389 802.662 619.119 802.242 609.888 C 802.176 608.424 803.68 606.27 804.56 605.028 C 811.319 600.434 821.393 601.844 829.776 602.066 C 887.422 510.609 906.022 419.64 900.436 312.752 C 884.457 313.005 868.474 313.003 852.495 312.748 C 858.906 311.01 892.274 311.66 900.298 312.033 C 911.284 313.189 942.047 312.273 955.001 312.227 L 1063.55 312.091 z" class="svgShape color4363c4-32 selectable"></path><path fill="#FFF" d="M 829.776 602.066 C 833.347 602.204 838.655 602.245 842.05 602.746 C 842.116 611.201 843.531 648.661 840.576 654.517 C 833.093 656.946 813.218 656.875 805.331 655.537 C 803.387 652.619 803.949 647.683 803.859 643.913 C 802.965 635.389 802.662 619.119 802.242 609.888 C 802.176 608.424 803.68 606.27 804.56 605.028 C 811.319 600.434 821.393 601.844 829.776 602.066 z" class="svgShape colorffffff-33 selectable"></path><path fill="#4363C4" d="M 812.053 628.459 C 812.042 623.303 810.763 617.163 812.707 612.909 C 816.033 610.415 815.951 611.296 821.139 611.192 L 833.898 611.224 C 833.927 623.239 833.84 635.483 834.036 647.475 L 811.567 647.734 C 811.642 641.366 811.614 634.798 812.053 628.459 z" class="svgShape color4363c4-34 selectable"></path><path fill="#5883DF" d="M 812.053 628.459 C 812.042 623.303 810.763 617.163 812.707 612.909 C 816.033 610.415 815.951 611.296 821.139 611.192 L 812.053 628.459 z" class="svgShape color5883df-35 selectable"></path><path fill="#FFF" d="M 864.591 602.433 C 873.918 601.994 883.263 602.095 892.579 602.735 C 892.415 607.66 891.43 621.375 893.128 625.4 C 895.902 625.929 896.792 626.133 899.451 627.051 C 899.688 627.562 900.139 628.384 900.199 629.213 C 902.347 658.814 898.649 657.356 871.934 656.498 C 867.247 656.347 863.814 655.32 860.576 651.5 L 861.53 649.436 C 864.756 647.626 865.865 647.705 869.409 647.48 L 891.358 647.938 C 891.645 643.968 892.661 638.364 890.784 635.303 C 888.296 634.356 888.03 634.217 885.777 632.795 C 883.452 627.78 884.321 616.809 884.448 610.957 L 870.713 610.94 C 870.862 617.785 871.278 626.092 870.628 632.767 L 868.896 634.177 C 865.83 634.569 867.158 634.929 864.739 633.233 C 861.825 627.658 860.94 606.536 864.591 602.433 z" class="svgShape colorffffff-36 selectable"></path><path fill="#FE8D7C" d="M 656.238 966.068 C 653.615 962.442 647.539 945.476 646.036 940.886 C 627.976 885.734 621.136 827.884 609.997 771.172 C 607.636 762.619 600.741 755.116 596.712 747.458 C 580.23 716.068 571.36 679.774 578.886 644.533 C 582.25 628.782 583.982 615.887 602.437 614.243 C 603.954 643.349 594.462 687.864 619.408 705.969 L 621.918 707.902 C 637.528 711.252 659.565 710.104 676.149 710.082 L 681.985 707.335 L 690.856 701.142 C 689.772 695.675 688.787 690.19 687.9 684.687 C 685.702 670.166 681.878 638.53 704.033 637.15 C 710.397 636.754 714.018 638.428 718.662 642.654 C 720.776 646.334 722.521 649.639 725.13 653.002 C 729.375 667.346 737.262 695.684 736.367 710.155 C 735.15 718.311 731.559 736.6 732.807 744.377 C 735.507 761.203 739.384 778.807 743.467 795.517 C 753.856 838.035 758.098 886.293 784.39 922.636 C 790.337 930.856 805.261 946.879 813.668 951.58 C 816.171 951.665 815.022 951.907 817.138 950.978 L 818.304 952.572 C 810.348 971.299 790.431 995.949 783.115 1011.6 L 776.154 1021.34 C 771.719 1027.49 742.329 1068.59 737.653 1069.65 C 736.218 1067.45 736.584 1066.26 736.619 1063.56 L 734.443 1060.37 C 700.896 1033.22 673.945 1006.49 656.238 966.068 z" class="svgShape colorfe8d7c-37 selectable"></path><path fill="#FD7C6C" d="M 656.238 966.068 C 662.714 966.495 690.551 988.294 700.184 993.367 C 718.93 1003.24 736.544 1010.77 757.329 1016.13 C 762.658 1017.63 771.226 1019.45 776.154 1021.34 C 771.719 1027.49 742.329 1068.59 737.653 1069.65 C 736.218 1067.45 736.584 1066.26 736.619 1063.56 L 734.443 1060.37 C 700.896 1033.22 673.945 1006.49 656.238 966.068 z" class="svgShape colorfd7c6c-38 selectable"></path><path fill="#881F31" d="M676.149 710.082L681.985 707.335C675.933 713.418 669.965 722.47 665.8 726.143 667.27 719.864 671.852 714.7 676.149 710.082zM619.408 705.969L621.918 707.902C617.772 709.144 611.053 711.66 607.182 710.415 610.442 707.937 615.331 707.066 619.408 705.969zM642.215 723.381C662.584 721.643 675.367 737.493 678.007 756.31 676.004 755.08 669.887 739.508 666.783 735.379 660.117 726.509 647.194 728.383 642.215 723.381z" class="svgShape color881f31-39 selectable"></path><path fill="#5883DF" d="M 601.635 226.182 C 601.322 195.756 610.313 179.757 642.761 179.487 C 655.83 179.378 669.239 179.402 682.316 179.428 L 768.212 179.539 L 1041.58 179.357 C 1046.01 179.384 1046.35 178.655 1049.52 180.606 C 1051.43 187.662 1053.97 217.287 1054.94 226.185 C 1057.18 254.598 1060.75 283.659 1063.55 312.091 L 955.001 312.227 C 942.047 312.273 911.284 313.189 900.298 312.033 C 898.607 294.552 895.973 277.175 892.409 259.978 C 890.16 249.374 886.418 236.43 884.866 226.042 L 884.12 225.787 C 861.342 227.681 821.344 226.444 797.096 226.381 L 677.987 226.39 C 653.134 226.316 626.334 225.665 601.635 226.182 z" class="svgShape color5883df-40 selectable"></path><path fill="#3348A5" d="M 884.866 226.042 C 940.974 226.219 998.97 226.984 1054.94 226.185 C 1057.18 254.598 1060.75 283.659 1063.55 312.091 L 955.001 312.227 C 942.047 312.273 911.284 313.189 900.298 312.033 C 898.607 294.552 895.973 277.175 892.409 259.978 C 890.16 249.374 886.418 236.43 884.866 226.042 z" class="svgShape color3348a5-41 selectable"></path><path fill="#4363C4" d="M 1041.58 179.357 C 1046.01 179.384 1046.35 178.655 1049.52 180.606 C 1051.43 187.662 1053.97 217.287 1054.94 226.185 C 998.97 226.984 940.974 226.219 884.866 226.042 L 884.12 225.787 C 879.937 210.593 873.743 194.927 867.884 180.319 L 989.412 180.379 C 999.388 180.382 1033.97 181.037 1041.58 179.357 z" class="svgShape color4363c4-42 selectable"></path><path fill="#4363C4" d="M 884.12 225.787 L 884.866 226.042 C 886.418 236.43 890.16 249.374 892.409 259.978 C 895.973 277.175 898.607 294.552 900.298 312.033 C 892.274 311.66 858.906 311.01 852.495 312.748 L 850.144 312.695 C 849.714 316.053 850.449 316.899 847.242 318.661 L 849.647 320.816 L 798.541 320.877 C 793.693 333.351 790.12 339.719 780.598 349.279 L 778.182 347.741 C 806.74 322.992 805.694 274.384 776.477 249.955 C 767.529 249.575 767.093 248.852 757.827 250.14 C 752.226 248.291 750.712 248.483 744.981 249.148 C 713.234 250.017 682.404 237.332 683.183 277.926 L 682.952 281.511 C 682.695 291.733 682.619 301.959 682.726 312.183 C 656.863 313.187 628.405 312.46 601.955 313.04 C 602.005 284.087 601.898 255.134 601.635 226.182 C 626.334 225.665 653.134 226.316 677.987 226.39 L 797.096 226.381 C 821.344 226.444 861.342 227.681 884.12 225.787 z" class="svgShape color4363c4-43 selectable"></path><path fill="#E0EDF5" d="M 776.477 249.955 L 779.638 249.142 L 780.088 249.922 C 790.706 258.441 794.52 265.612 799.028 278.35 C 811.731 278.245 837.356 277.389 849.049 278.498 L 848.978 280.572 C 850.394 286.301 850.026 305.52 850.144 312.695 C 849.714 316.053 850.449 316.899 847.242 318.661 L 849.647 320.816 L 798.541 320.877 C 793.693 333.351 790.12 339.719 780.598 349.279 L 778.182 347.741 C 806.74 322.992 805.694 274.384 776.477 249.955 z" class="svgShape colore0edf5-44 selectable"></path><path fill="#4363C4" d="M 776.477 249.955 L 779.638 249.142 L 780.088 249.922 C 790.706 258.441 794.52 265.612 799.028 278.35 C 811.731 278.245 837.356 277.389 849.049 278.498 L 848.978 280.572 C 835.814 281.702 814.772 280.993 800.803 281.028 C 801.712 297.024 802.044 302.228 799.826 318.057 C 811.507 318.043 836.67 317.392 847.242 318.661 L 849.647 320.816 L 798.541 320.877 C 793.693 333.351 790.12 339.719 780.598 349.279 L 778.182 347.741 C 806.74 322.992 805.694 274.384 776.477 249.955 z" class="svgShape color4363c4-45 selectable"></path><path fill="#E0EDF5" d="M 780.088 249.922 C 803.742 248.184 859.79 239.698 849.049 278.498 C 837.356 277.389 811.731 278.245 799.028 278.35 C 794.52 265.612 790.706 258.441 780.088 249.922 z" class="svgShape colore0edf5-46 selectable"></path><path fill="#E0EDF5" d="M 757.827 250.14 C 767.093 248.852 767.529 249.575 776.477 249.955 C 805.694 274.384 806.74 322.992 778.182 347.741 C 771.466 351.143 761.188 351.563 754.595 347.723 C 726.927 323.065 727.701 273.36 757.827 250.14 z" class="svgShape colore0edf5-47 selectable"></path><path fill="#E0EDF5" d="M 744.981 249.148 C 750.712 248.483 752.226 248.291 757.827 250.14 C 727.701 273.36 726.927 323.065 754.595 347.723 L 751.596 349.371 C 742.151 338.384 739.708 334.325 735.091 321.023 L 707.681 320.809 C 703.07 317.44 691.891 321.287 685.262 318.459 C 682.498 314.29 683.576 288.397 683.579 281.666 L 682.952 281.511 L 683.183 277.926 C 682.404 237.332 713.234 250.017 744.981 249.148 z" class="svgShape colore0edf5-48 selectable"></path><path fill="#E0EDF5" d="M 744.981 249.148 C 747.091 249.371 751.985 249.433 752.989 250.644 C 742.789 259.664 739.443 265.593 734.597 278.234 C 721.483 278.229 695.641 278.972 683.183 277.926 C 682.404 237.332 713.234 250.017 744.981 249.148 z" class="svgShape colore0edf5-49 selectable"></path><path fill="#4363C4" d="M 744.981 249.148 C 750.712 248.483 752.226 248.291 757.827 250.14 C 727.701 273.36 726.927 323.065 754.595 347.723 L 751.596 349.371 C 742.151 338.384 739.708 334.325 735.091 321.023 L 707.681 320.809 C 703.07 317.44 691.891 321.287 685.262 318.459 C 694.594 317.34 723.175 318.019 733.368 318.038 C 731.79 302.121 731.597 297.101 733.364 281.208 C 723.288 281.038 692.682 280.075 683.579 281.666 L 682.952 281.511 L 683.183 277.926 C 695.641 278.972 721.483 278.229 734.597 278.234 C 739.443 265.593 742.789 259.664 752.989 250.644 C 751.985 249.433 747.091 249.371 744.981 249.148 z" class="svgShape color4363c4-50 selectable"></path><path fill="#E0EDF5" d="M707.681 320.809L735.091 321.023C739.708 334.325 742.151 338.384 751.596 349.371 739.937 351.775 717.59 349.413 704.833 350.385 684.09 351.964 683.201 337.705 683.342 321.013 691.455 321.09 699.57 321.022 707.681 320.809zM798.541 320.877L849.647 320.816C850.81 346.267 844.865 351.464 818.424 350.233 807.241 349.713 791.058 351.394 780.598 349.279 790.12 339.719 793.693 333.351 798.541 320.877z" class="svgShape colore0edf5-51 selectable"></path><path fill="#FFF" d="M688.95 633.954C688.838 627.623 687.625 608.211 690.278 603.649 697.803 600.517 720.807 599.355 726.287 606.615L726.183 609.109C722.868 612.112 702.853 611.084 696.99 610.987L697.042 625.929C721.269 625.254 731.054 622.455 725.13 653.002 722.521 649.639 720.776 646.334 718.662 642.654 718.527 641.106 718.536 637.279 717.647 636.623 711.261 631.913 698.067 635.061 688.95 633.954zM746.869 602.195C758.253 601.693 769.298 601.965 780.679 602.144 780.998 610.142 779.798 617.212 780.644 625.27 782.996 626.215 782.378 625.878 784.543 627.362 785.507 633.985 785.426 649.912 783.754 656.371 773.104 657.075 755.641 656.424 745.007 655.88 744.722 647.521 743.318 607.4 746.869 602.195z" class="svgShape colorffffff-52 selectable"></path><path fill="#5883DF" d="M 753.109 611.544 L 773.673 611.675 C 773.623 623.582 773.653 635.49 773.761 647.397 L 753.06 647.803 C 753.433 635.675 753.232 623.672 753.109 611.544 z" class="svgShape color5883df-53 selectable"></path><path fill="#232448" d="M 284.976 1138.21 C 284.772 1116.31 282.918 1090.9 286.875 1069.62 C 289.498 1055.52 308.716 1038.54 322.911 1036.79 C 333.848 1035.43 345.935 1035.76 357.064 1035.78 L 411.776 1035.93 L 586.252 1035.76 C 610.777 1035.92 634.279 1049.99 636.887 1076.46 C 638.847 1096.36 637.766 1119.49 637.752 1139.7 L 637.613 1267.32 L 637.306 1520.66 C 637.302 1563.69 637.05 1606.71 637.455 1649.74 C 637.355 1655.79 636.931 1661.94 634.978 1667.66 C 629.712 1683.1 613.948 1697.54 597.376 1699.4 C 585.401 1700.74 571.217 1700.14 558.991 1700.08 L 494.607 1699.97 L 387.178 1700.04 C 368.643 1700.06 350.057 1700.29 331.534 1699.92 C 307.6 1699.46 285.374 1680.9 284.831 1656.19 C 283.632 1649.35 284.035 1625.89 284.035 1618.11 L 284.079 1542.68 L 284.346 1267.37 C 281.027 1267.57 277.421 1268.26 275.178 1266.39 C 274.175 1255.95 274.481 1223.75 275.173 1212.94 C 277.011 1211.6 282.107 1211.89 284.91 1211.77 L 284.819 1205.39 C 284.737 1201.13 285.115 1198.16 283.156 1194.44 C 279.956 1192.18 281.23 1192.82 276.437 1193.14 L 275.226 1191.58 C 274.145 1184.19 274.226 1146.14 275.454 1139.16 C 278.351 1137.59 281.542 1138.13 284.976 1138.21 z" class="svgShape color232448-54 selectable"></path><path fill="#035c4d" d="M284.346 1267.37C281.027 1267.57 277.421 1268.26 275.178 1266.39 274.175 1255.95 274.481 1223.75 275.173 1212.94 277.011 1211.6 282.107 1211.89 284.91 1211.77L284.98 1508.31 284.928 1606.2C284.932 1620.9 285.587 1641.87 284.831 1656.19 283.632 1649.35 284.035 1625.89 284.035 1618.11L284.079 1542.68 284.346 1267.37zM284.819 1205.39C284.737 1201.13 285.115 1198.16 283.156 1194.44 279.956 1192.18 281.23 1192.82 276.437 1193.14L275.226 1191.58C274.145 1184.19 274.226 1146.14 275.454 1139.16 278.351 1137.59 281.542 1138.13 284.976 1138.21 285.013 1156.82 285.982 1187.69 284.819 1205.39zM311.924 1101.03C315.307 1096.9 318.413 1092.43 324.134 1092.23 337.198 1091.79 350.786 1091.99 363.843 1092.02L443.771 1092.16 545.927 1092.01C563.566 1091.98 581.241 1091.79 598.878 1092.12 605.039 1092.24 607.602 1096.26 610.818 1100.83 612.38 1115.32 611.862 1134.19 611.867 1149.07L611.871 1223.96 611.841 1291.04C611.834 1300.39 612.268 1317.5 611.379 1326.2 610.447 1349.23 611.054 1376.13 611.045 1399.41L611.058 1528.91C611.102 1554.03 611.538 1579.43 610.839 1604.34 610.476 1617.31 600.741 1617.61 590.929 1617.8 572.916 1618.16 552.851 1617.99 535.048 1617.99L426.438 1618 357.438 1618C346.876 1617.99 322.339 1620.61 314.51 1613.14 312.64 1611.35 311.842 1601.55 311.809 1598.37 311.477 1566.92 311.615 1535.44 311.627 1503.98L311.753 1326.08 311.752 1173.37C311.764 1152.06 310.724 1121.39 311.924 1101.03z" class="svgShape color5883df-55 selectable"></path><path fill="#E0EDF5" d="M 311.924 1101.03 C 315.307 1096.9 318.413 1092.43 324.134 1092.23 C 337.198 1091.79 350.786 1091.99 363.843 1092.02 L 443.771 1092.16 L 545.927 1092.01 C 563.566 1091.98 581.241 1091.79 598.878 1092.12 C 605.039 1092.24 607.602 1096.26 610.818 1100.83 C 612.38 1115.32 611.862 1134.19 611.867 1149.07 L 611.871 1223.96 L 611.841 1291.04 C 611.834 1300.39 612.268 1317.5 611.379 1326.2 L 536.139 1326.06 L 503.643 1326.03 L 413.926 1326.07 L 380.812 1326.03 L 311.753 1326.08 L 311.752 1173.37 C 311.764 1152.06 310.724 1121.39 311.924 1101.03 z" class="svgShape colore0edf5-56 selectable"></path><path fill="#FFF" d="M492.48 1120.2C503.391 1120.06 514.303 1120.01 525.215 1120.03 512.83 1139.06 500.541 1162.62 490.319 1183.06 466.546 1230.59 436.223 1278.03 413.926 1326.07L380.812 1326.03C397.945 1289.45 424.606 1244.54 444.252 1208.18 454.776 1188.25 465.441 1168.39 476.246 1148.6 480.729 1140.43 487.33 1127.57 492.48 1120.2zM571.827 1198.91C573.266 1211.46 574.379 1236.29 572.68 1248.76 570.429 1265.27 554.054 1285.91 547.602 1301.5 543.655 1310.32 538.528 1316.78 536.139 1326.06L503.643 1326.03C526.37 1284.57 547.808 1239.53 571.827 1198.91zM383.572 1120.03C393.683 1119.86 404.211 1120.09 414.355 1120.17 409.414 1131.1 399.592 1147.58 393.55 1158.49 382.282 1179.28 370.85 1199.97 359.257 1220.57 355.227 1227.07 351.607 1234.03 347.977 1240.78 347.9 1231.35 347.187 1199.1 348.433 1191.92 351.485 1174.32 373.807 1135.87 383.572 1120.03z" class="svgShape colorffffff-57 selectable"></path><path fill="#FD7C6C" d="M 494.594 1524.29 C 506.187 1522.8 566.53 1520.73 573.039 1526.59 C 578.603 1531.61 577.755 1559.61 577.059 1567.53 C 576.783 1570.65 576.041 1574.67 573.46 1576.71 C 566.305 1582.37 505.077 1580.19 493.442 1579.58 C 491.656 1568.95 489.704 1532.78 494.594 1524.29 z" class="svgShape colorfd7c6c-58 selectable"></path><path fill="#232448" d="M 493.442 1579.58 C 482.277 1581.52 447.178 1580.09 435.699 1577.8 C 428.378 1576.33 429.538 1534.39 432.996 1528.33 C 441.968 1521.27 480.923 1524.11 494.594 1524.29 C 489.704 1532.78 491.656 1568.95 493.442 1579.58 z" class="svgShape color232448-59 selectable"></path><path fill="#70C6E5" d="M 438.485 1372.14 C 451.841 1371.72 467.17 1371.29 480.491 1372.12 C 483.682 1372.62 487.099 1373.47 488.643 1376.49 C 491.316 1382.02 491.971 1390.53 491.475 1396.78 C 490.629 1407.44 494.389 1421.18 483.736 1427.06 C 475.347 1427.3 441.544 1430.6 434.397 1423.7 C 430.61 1418.4 430.168 1406.51 430.654 1400.67 C 431.561 1389.77 428.397 1378.63 438.485 1372.14 z" class="svgShape color70c6e5-60 selectable"></path><path fill="#FED071" d="M 527.465 1371.38 C 536.452 1371.23 545.441 1371.15 554.429 1371.15 C 577.566 1371.33 577.843 1376.38 578.02 1399.01 C 578.106 1410.05 579.523 1420.75 569.397 1427.27 C 555.708 1427.46 537.793 1428.61 524.49 1426.11 C 517.372 1424.77 517.084 1406.52 517.482 1400.31 C 518.199 1389.1 514.55 1376.14 527.465 1371.38 z" class="svgShape colorfed071-61 selectable"></path><path fill="#232448" d="M438.336 1447.19C447.056 1447.14 481.18 1445.14 486.629 1450.42 492.419 1456.04 490.885 1483.04 490.164 1491.34 489.673 1497 487.84 1499.05 483.624 1502.45 476.245 1502.96 435.888 1505.22 432.974 1497.67 428.904 1487.14 430.004 1466.87 431.693 1455.35 432.288 1451.29 435.222 1449.24 438.336 1447.19zM350.474 1524.13C359.16 1524.08 393.358 1521.58 399.675 1528.99 401.896 1531.6 402.82 1544.38 402.396 1548.49 401.287 1559.25 405.696 1572.99 394.763 1579.26 383.424 1580.53 363.956 1579.79 352.385 1579.33 338.225 1578.77 342.77 1541.6 343.584 1532.35 343.932 1528.4 347.393 1526.04 350.474 1524.13zM525.471 1447.2C538.833 1447.09 554.955 1446.4 568.2 1447.76 577.176 1449.29 577.774 1465.08 577.283 1471.72 576.438 1483.16 579.974 1495.82 568.877 1502.22 561.343 1503.14 525.364 1504.54 521.144 1499.43 515.522 1492.63 517.107 1465.04 518.513 1455.83 519.194 1451.37 522.052 1449.47 525.471 1447.2zM350.441 1372.09C358.572 1372.01 393.867 1369.51 399.755 1376 401.911 1378.38 402.979 1392.24 402.566 1396.57 401.506 1407.69 406.059 1420.73 394.507 1426.94L367.668 1427.19C344.408 1427.4 342.697 1425.23 342.735 1400.7 342.751 1390.25 341.001 1378.37 350.441 1372.09zM351.394 1447.15C364.318 1447.05 382.307 1446.18 394.976 1448.07 402.952 1450.18 402.891 1466.69 402.51 1472.82 401.818 1483.92 405.311 1496.5 394.07 1502 386.882 1502.46 349.823 1504.33 346.41 1498.76 340.687 1489.42 342.441 1466.48 344.008 1455.54 344.609 1451.35 348.08 1449.17 351.394 1447.15z" class="svgShape color232448-62 selectable"></path><path fill="#5883DF" d="M455.617 1635.39C464.39 1633.19 473.666 1635.92 479.846 1642.53 486.027 1649.13 488.14 1658.57 485.366 1667.17 482.591 1675.78 475.366 1682.21 466.493 1683.96 453.245 1686.58 440.327 1678.16 437.376 1664.98 434.425 1651.8 442.518 1638.67 455.617 1635.39zM423.491 1060C437.522 1059.4 452.727 1060.01 466.921 1059.78 476.275 1059.63 487.646 1059.55 496.964 1060.45 500.156 1060.76 499.763 1061.2 501.162 1063.39 501.184 1066.93 500.934 1066.92 499.331 1069.95 476.176 1069.97 452.651 1070.4 429.503 1069.94 425.175 1069.86 423.886 1069.6 421.472 1066.84 421.324 1062.79 421.371 1064.05 423.491 1060z" class="svgShape color5883df-63 selectable"></path><path fill="#FED071" d="M 1153.75 934.857 C 1180.4 962.702 1209.56 1008.91 1221.65 1046.14 L 1227.65 1062.66 L 1127.07 1123.77 C 1144.19 1186.62 1161.09 1265.13 1168.4 1330.34 C 1165.16 1331.11 1157.95 1332.63 1155.21 1333.86 C 1122.09 1339.73 1088.75 1344.28 1055.27 1347.5 C 1013.93 1351.73 972.452 1354.5 930.917 1355.8 C 916.222 1356.19 891.261 1356.77 876.703 1355.22 C 872.491 1355.03 869.418 1355.26 865.588 1353.52 C 861.13 1345.51 853.037 1167.34 854.339 1149.69 C 849.484 1145.23 829.859 1134.01 823.425 1130.21 C 804.176 1118.93 785 1107.52 765.899 1095.99 C 755.735 1089.84 741.18 1081.36 731.962 1074.19 C 732.617 1068.53 733.136 1065.86 734.443 1060.37 L 736.619 1063.56 C 736.584 1066.26 736.218 1067.45 737.653 1069.65 C 742.329 1068.59 771.719 1027.49 776.154 1021.34 L 783.115 1011.6 C 790.431 995.949 810.348 971.299 818.304 952.572 L 817.138 950.978 C 818.753 949.944 819.57 948.884 820.816 949.684 C 840.373 962.249 882.677 992.319 898.952 1005.83 L 904.518 1009.94 C 912.501 1005.72 930.196 1001.59 938.943 999.588 C 943.948 1023.53 965.703 1024.05 986.328 1023.44 C 997.637 1023.1 1014.89 1019.78 1022.84 1011.28 C 1026.92 1006.94 1024.24 995.606 1023.45 989.97 C 1029.7 989.805 1058.55 990.615 1061.81 989.669 C 1087.33 974.757 1128.74 946.743 1153.75 934.857 z" class="svgShape colorfed071-64 selectable"></path><path fill="#FDBE55" d="M 817.138 950.978 C 818.753 949.944 819.57 948.884 820.816 949.684 C 840.373 962.249 882.677 992.319 898.952 1005.83 L 904.518 1009.94 C 909.863 1015.58 911.724 1017.53 915.93 1024.01 C 916.649 1050.73 909.753 1074.76 897.687 1098.59 C 889.999 1113.77 871.785 1144.74 854.339 1149.69 C 849.484 1145.23 829.859 1134.01 823.425 1130.21 C 804.176 1118.93 785 1107.52 765.899 1095.99 C 755.735 1089.84 741.18 1081.36 731.962 1074.19 C 732.617 1068.53 733.136 1065.86 734.443 1060.37 L 736.619 1063.56 C 736.584 1066.26 736.218 1067.45 737.653 1069.65 C 742.329 1068.59 771.719 1027.49 776.154 1021.34 L 783.115 1011.6 C 790.431 995.949 810.348 971.299 818.304 952.572 L 817.138 950.978 z" class="svgShape colorfdbe55-65 selectable"></path><path fill="#FED071" d="M 817.138 950.978 C 818.753 949.944 819.57 948.884 820.816 949.684 C 840.373 962.249 882.677 992.319 898.952 1005.83 C 865.729 1016.67 840.479 1017.76 805.617 1014.51 C 799.799 1013.97 788.341 1012.97 783.115 1011.6 C 790.431 995.949 810.348 971.299 818.304 952.572 L 817.138 950.978 z" class="svgShape colorfed071-66 selectable"></path><path fill="#FDBE55" d="M 1153.75 934.857 C 1180.4 962.702 1209.56 1008.91 1221.65 1046.14 L 1227.65 1062.66 L 1127.07 1123.77 C 1122.38 1112.99 1118.76 1098.21 1114.55 1086.82 C 1102.77 1054.95 1085.91 1013.38 1061.81 989.669 C 1087.33 974.757 1128.74 946.743 1153.75 934.857 z" class="svgShape colorfdbe55-67 selectable"></path><path fill="#E0EDF5" d="M 1536.29 944.693 L 1534.99 944.813 C 1508.16 947.052 1478.93 943.729 1451.95 945.067 C 1435.77 945.869 1418.84 947.488 1418.28 926.337 C 1417.32 890.024 1418.38 853.45 1418 817.109 C 1417.93 810.566 1421.18 804.554 1426.13 800.462 C 1440.64 796.165 1483.56 797.885 1500.5 797.886 L 1609.41 797.837 L 1716.79 797.844 C 1735.48 797.849 1754.09 797.745 1772.85 797.985 C 1791.59 798.225 1791.23 817.373 1791.17 831.197 C 1791.09 854.2 1791 877.149 1790.91 900.147 C 1790.58 914.261 1796.66 940.744 1777.53 943.973 C 1777.32 944.013 1775.14 944.697 1774.98 944.744 L 1759.85 959.312 C 1753.1 952.612 1749.06 948.51 1741.35 943.04 C 1730.71 949.119 1706.38 941.655 1700.01 947.527 C 1666.88 935.515 1644.89 936.174 1611.32 947.603 C 1603.5 943.365 1581.4 948.338 1570.58 942.715 C 1562.92 948.031 1557.8 952.814 1550.94 959.04 C 1547.05 955.077 1540.37 947.886 1536.29 944.693 z" class="svgShape colore0edf5-68 selectable"></path><path fill="#70C6E5" d="M 1536.29 944.693 C 1539.73 940.53 1542.98 937.498 1546.91 933.845 C 1609.87 875.361 1717.08 879.729 1774.98 944.744 L 1759.85 959.312 C 1753.1 952.612 1749.06 948.51 1741.35 943.04 C 1730.71 949.119 1706.38 941.655 1700.01 947.527 C 1666.88 935.515 1644.89 936.174 1611.32 947.603 C 1603.5 943.365 1581.4 948.338 1570.58 942.715 C 1562.92 948.031 1557.8 952.814 1550.94 959.04 C 1547.05 955.077 1540.37 947.886 1536.29 944.693 z" class="svgShape color70c6e5-69 selectable"></path><path fill="#E0EDF5" d="M 1570.58 942.715 C 1606.12 918.339 1637.9 909.775 1681.55 916.94 C 1699.91 919.955 1726.79 931.206 1741.35 943.04 C 1730.71 949.119 1706.38 941.655 1700.01 947.527 C 1666.88 935.515 1644.89 936.174 1611.32 947.603 C 1603.5 943.365 1581.4 948.338 1570.58 942.715 z" class="svgShape colore0edf5-70 selectable"></path><path fill="#C0CAD6" d="M1513.13 832.315L1664.2 832.506 1718.12 832.434C1726.35 832.426 1750.91 830.352 1756.64 836.684 1761.72 842.316 1757.56 849.307 1752.59 853.841 1673.42 856.213 1590.88 853.032 1511.62 853.006 1509.69 853.006 1506.38 848.654 1505.67 846.894 1504.67 844.387 1504.73 841.585 1505.82 839.117 1507.38 835.503 1509.64 833.653 1513.13 832.315zM1447.6 884.02L1549.92 883.954C1561.47 883.95 1592.13 883.257 1601.75 885.066 1605.69 888.009 1605.96 894.194 1603.63 898.139L1600.19 898.999C1586.66 900.409 1545.39 899.637 1529.6 899.491 1509.78 899.308 1466.4 900.718 1448.66 898.809 1443.19 894.89 1445.51 889.361 1447.6 884.02zM1460.83 825.584C1470.27 824.223 1479.01 830.796 1480.32 840.237 1481.63 849.679 1475.01 858.383 1465.56 859.641 1456.18 860.89 1447.56 854.33 1446.26 844.961 1444.96 835.593 1451.47 826.934 1460.83 825.584z" class="svgShape colorc0cad6-71 selectable"></path><path fill="#FE8D7C" d="M 882.055 882.017 C 871.726 848.577 865.455 817.838 898.584 795.082 C 918.82 784.431 918.716 783.076 926.067 761.243 C 938.894 723.149 970.841 717.044 986.051 758.566 C 1024.81 736.359 1029.1 765.377 1018.93 796.642 C 1023.36 798.823 1026.2 804.382 1028.35 808.69 C 1033.14 815.747 1039.09 835.256 1041.88 837.054 C 1070.16 845.901 1075.82 873.421 1054.65 894.024 C 1053.28 922.535 1043.35 941.551 1016.94 953.822 L 1022.65 986.173 L 1023.45 989.97 C 1024.24 995.606 1026.92 1006.94 1022.84 1011.28 C 1014.89 1019.78 997.637 1023.1 986.328 1023.44 C 965.703 1024.05 943.948 1023.53 938.943 999.588 C 934.354 977.761 929.552 956.512 925.277 934.547 C 898.899 948.387 870.933 936.075 869.268 903.366 C 868.851 895.173 875.958 887.182 882.055 882.017 z" class="svgShape colorfe8d7c-72 selectable"></path><path fill="#232448" d="M 882.055 882.017 C 871.726 848.577 865.455 817.838 898.584 795.082 C 918.82 784.431 918.716 783.076 926.067 761.243 C 938.894 723.149 970.841 717.044 986.051 758.566 C 1024.81 736.359 1029.1 765.377 1018.93 796.642 L 1015.64 796.831 C 1006.01 790.82 998.044 792.918 986.84 794.181 C 971.012 818.789 941.791 827.939 913.694 826.955 C 920.841 844.366 932.181 864.911 924.565 883.055 C 924.163 884.003 923.749 884.946 923.322 885.883 C 908.962 875.957 898.035 871.869 882.055 882.017 z" class="svgShape color232448-73 selectable"></path><path fill="#FD7C6C" d="M959.337 955.688C980.926 961.173 995.784 960.429 1016.94 953.822L1022.65 986.173C1021.11 986.667 1020.66 986.826 1019 986.708 992.452 984.81 976.737 974.428 959.337 955.688zM1041.88 837.054C1070.16 845.901 1075.82 873.421 1054.65 894.024 1052.19 874.988 1045.4 858.486 1041.01 839.95 1041.3 838.985 1041.59 838.02 1041.88 837.054z" class="svgShape colorfd7c6c-74 selectable"></path><path fill="#232448" d="M 1018.93 796.642 C 1023.36 798.823 1026.2 804.382 1028.35 808.69 C 1026.98 807.898 1017.76 798.729 1015.64 796.831 L 1018.93 796.642 z" class="svgShape color232448-75 selectable"></path><path fill="#FD7C6C" d="M 994.534 849.861 L 993.748 847.21 C 996.234 847.547 1015.14 868.547 1019.08 872.182 C 1014.54 876.949 1009.53 882.569 1004.41 886.552 L 1002.8 886.144 C 999.687 875.638 996.574 860.636 994.534 849.861 z" class="svgShape colorfd7c6c-76 selectable"></path><path fill="#881F31" d="M 994.534 849.861 L 993.748 847.21 C 996.234 847.547 1015.14 868.547 1019.08 872.182 C 1014.54 876.949 1009.53 882.569 1004.41 886.552 L 1002.8 886.144 C 1006.26 880.797 1011.04 876.445 1015.56 871.922 C 1007.71 864.209 1001.81 858.218 994.534 849.861 z" class="svgShape color881f31-77 selectable"></path><path fill="#232448" d="M961.125 851.872C973.958 853.846 977.948 867.769 965.356 875.814 951.779 873.804 946.946 858.821 961.125 851.872zM1016.85 837.809C1030.53 838.896 1035.04 853.554 1024.26 862.694 1010.73 860.427 1006.08 847.236 1016.85 837.809zM953.153 826.965C958.702 826.31 967.191 826.856 965.489 834.728 962.449 837.994 958.03 838.742 953.231 841.572L952.4 842.07C949.041 845.268 948.195 846.818 943.643 845.115 939.483 836.363 946.517 831.01 953.153 826.965zM1008.02 812.207C1013.83 811.804 1026.55 812.06 1024.04 821.123 1020.29 823.731 1020.22 822.846 1014.76 823.126 1007.97 825.174 1006.02 826.896 999.683 822.947 997.122 817.084 1003.63 814.464 1008.02 812.207z" class="svgShape color232448-78 selectable"></path><path fill="#0C070E" d="M 995.279 899.091 C 1003.68 898.408 1014.33 901.16 1014.63 911.268 L 1013.5 911.799 C 1007.47 904.239 1006.59 901.326 996.34 901.959 L 995.007 902.052 C 986.799 907.16 987.101 910.271 983.662 919.955 L 982.554 919.874 C 980.966 909.729 987.134 903.604 995.279 899.091 z" class="svgShape color0c070e-79 selectable"></path><path fill="#CA3B42" d="M 895.063 895.083 C 903.277 894.654 918.857 896.415 919.774 907.022 L 918.13 907.259 L 914.789 904.474 C 904.319 896.289 900.107 900.111 888.013 899.819 C 889.571 897.257 892.241 896.451 895.063 895.083 z" class="svgShape colorca3b42-80 selectable"></path><path fill="#035c4d" d="M 260.14 663.144 C 262.681 659.161 267.735 651.099 273.156 650.854 C 316.449 648.891 360.324 650.067 403.701 650.426 C 414.703 650.518 419.493 661.017 420.179 670.627 C 421.922 695.036 420.551 719.828 420.995 744.312 C 421.076 753.209 421.515 788.793 420.308 794.953 C 417.632 801.001 411.999 807.796 404.899 808.029 C 371.24 809.133 337.369 808.245 303.669 808.536 C 293.043 808.627 281.37 808.911 270.88 807.776 C 264.966 803.713 263.722 801.835 260.135 795.587 C 259.261 780.054 259.919 758.883 259.726 742.651 C 259.689 721.492 258.472 683.242 260.14 663.144 z" class="svgShape color4363c4-81 selectable"></path><path fill="#035c4d" d="M 260.14 663.144 C 262.681 659.161 267.735 651.099 273.156 650.854 C 316.449 648.891 360.324 650.067 403.701 650.426 C 414.703 650.518 419.493 661.017 420.179 670.627 C 421.922 695.036 420.551 719.828 420.995 744.312 C 421.076 753.209 421.515 788.793 420.308 794.953 C 419.972 756.59 419.904 718.225 420.103 679.861 C 413.796 682.175 406.223 685.301 400.777 689.217 C 401.361 694.064 401.824 695.042 400.148 699.407 L 398.853 700.316 C 396.773 699.203 396.868 699.343 395.738 697.285 L 392.956 696.845 C 390.254 699.895 391.818 699.253 388.567 699.772 C 386.067 697.33 385.875 694.167 385.071 690.607 C 378.744 698.111 362.327 704.415 352.944 708.744 C 314.905 700.827 314.704 727.757 304.134 727.907 L 302.904 727.166 C 292.763 721.152 288.127 724.085 284.886 735.302 C 276.86 737.372 268.275 740.388 259.726 742.651 C 259.689 721.492 258.472 683.242 260.14 663.144 z" class="svgShape color70c6e5-82 selectable"></path><path fill="#FFF" d="M 375.279 675.766 L 374.01 673.411 C 374.505 671.994 374.362 671.054 375.799 670.81 C 388.301 668.687 396.856 680.166 400.777 689.217 C 401.361 694.064 401.824 695.042 400.148 699.407 L 398.853 700.316 C 396.773 699.203 396.868 699.343 395.738 697.285 L 392.956 696.845 C 390.254 699.895 391.818 699.253 388.567 699.772 C 386.067 697.33 385.875 694.167 385.071 690.607 C 382.906 688.355 378.345 685.93 375.546 684.338 C 373.691 681.203 374.081 682.598 375.2 678.063 L 375.279 675.766 z" class="svgShape colorffffff-83 selectable"></path><path fill="#FFF" d="M 375.2 678.063 C 386.81 681.404 390.61 684.407 392.956 696.845 C 390.254 699.895 391.818 699.253 388.567 699.772 C 386.067 697.33 385.875 694.167 385.071 690.607 C 382.906 688.355 378.345 685.93 375.546 684.338 C 373.691 681.203 374.081 682.598 375.2 678.063 z" class="svgShape colorffffff-84 selectable"></path><path fill="#70C6E5" d="M 375.279 675.766 C 388.161 678.654 394.588 683.521 395.738 697.285 L 392.956 696.845 C 390.61 684.407 386.81 681.404 375.2 678.063 L 375.279 675.766 z" class="svgShape color70c6e5-85 selectable"></path><path fill="#FFF" d="M 284.886 735.302 C 288.127 724.085 292.763 721.152 302.904 727.166 L 304.134 727.907 C 314.704 727.757 314.905 700.827 352.944 708.744 C 359.956 712.614 362.944 714.541 368.74 720.559 C 370.283 719.958 379.14 716.194 381.888 718.519 C 400.549 734.311 376.785 737.978 376.363 740.032 C 372.779 757.486 365.107 775.718 340.161 775.484 C 324.308 775.335 313.18 764.248 305.755 747.147 C 292.89 747.006 290.17 748.095 284.886 735.302 z" class="svgShape colorffffff-86 selectable"></path><path fill="#4363C4" d="M 322.004 737.862 C 326.912 735.618 328.423 731.02 332.209 728.378 C 338.999 723.638 349.515 724.499 354.312 731.913 C 356.796 735.83 357.588 740.586 356.507 745.096 C 352.513 762.347 329.418 760.65 325.515 745.135 C 324.66 741.736 323.516 741.049 320.744 739.235 L 322.004 737.862 z" class="svgShape color4363c4-87 selectable"></path><path fill="#5883DF" d="M 320.744 739.235 C 315.67 737.752 311.608 736.899 307.104 734.122 L 307.493 733.466 C 313.227 734.01 316.684 735.743 322.004 737.862 L 320.744 739.235 z" class="svgShape color5883df-88 selectable"></path><path fill="url(#a)" d="M 366.072 329.709 C 403.524 324.29 438.268 350.284 443.641 387.743 C 449.015 425.202 422.978 459.914 385.513 465.242 C 348.112 470.56 313.473 444.578 308.109 407.184 C 302.745 369.79 328.684 335.119 366.072 329.709 z" class="svgShape colorgradient-89 selectable"></path><path fill="#FFF" d="M417.903 367.782C422.342 370.753 426.662 381.285 427.445 386.449 430.078 403.823 427.477 414.774 417.834 428.819L409.434 419.813C401.891 412.387 394.525 404.785 387.341 397.013 396.101 388.012 408.359 375.522 417.903 367.782zM366.802 346.229C383.676 345.102 391.971 346.644 406.443 355.701 399.085 363.84 388.616 373.731 380.658 381.65 378.964 383.5 378.133 383.891 376.029 385.303 372.165 384.242 349.378 360.008 344.782 355.309 353.007 350.321 357.437 348.338 366.802 346.229zM375.532 409.613C385.213 417.865 397.714 430.892 406.579 440.168 396.202 446.781 389.494 448.467 377.592 449.991 362.926 449.029 357.138 446.828 344.802 439.491 354.559 429.043 364.814 419.072 375.532 409.613zM333.258 367.48C339.672 371.903 357.898 391.64 363.947 398.152 358.17 404.525 350.005 411.956 343.675 418.028L333.47 427.804C328.507 421.132 325.198 413.378 323.816 405.178 321.508 391.452 325.179 378.585 333.258 367.48z" class="svgShape colorffffff-90 selectable"></path><path fill="#E0EDF5" d="M1526.7 1294.37L1537.98 1293.5C1539.37 1307.28 1540.56 1324.41 1541.1 1338.15 1534.73 1338.77 1525.46 1341.76 1520.4 1337.64 1519.28 1334.55 1520.03 1335.39 1517.91 1333.28 1461.63 1342.04 1417.4 1397.78 1414.14 1453.64 1411.74 1489.12 1423.77 1524.05 1447.51 1550.53 1475.77 1581.98 1507.81 1592.46 1548.48 1594.52 1548.37 1600.38 1549.7 1616.14 1547.24 1620.61L1544.25 1621.1C1510.08 1620.98 1476.85 1609.93 1449.4 1589.59 1415.92 1564.42 1393.85 1526.97 1388.06 1485.49 1381.87 1443.92 1392.61 1401.61 1417.88 1368.03 1442.04 1335.9 1477.96 1313.26 1517.91 1307.46 1517.56 1303.72 1516.84 1299.93 1517.98 1296.43 1521.56 1294.04 1521.73 1294.8 1526.7 1294.37zM1563.14 1305.73C1576.79 1307.24 1597.71 1313.6 1610.14 1319.22 1648.32 1336.33 1678.12 1367.93 1692.98 1407.05 1708.03 1446.84 1706.39 1491.02 1688.43 1529.59 1669.9 1569.83 1637.64 1597.04 1596.59 1612.3L1578.29 1617.6C1577.64 1608.73 1576.38 1599.92 1574.54 1591.22 1593.01 1585.6 1606.55 1580.48 1622.3 1568.79 1650.77 1547.64 1669.61 1516 1674.65 1480.89 1679.45 1445.27 1669.69 1409.22 1647.56 1380.9 1627 1354.1 1594.27 1336.71 1561.02 1332.26 1562.12 1323.93 1562.56 1314.21 1563.14 1305.73z" class="svgShape colore0edf5-91 selectable"></path><path fill="#FED071" d="M 1721.5 1236.38 C 1742.14 1235.62 1764.26 1235.8 1784.98 1236.29 C 1794.68 1236.52 1799.59 1239.25 1804.93 1247.08 C 1805.1 1271.99 1805.13 1296.9 1805.02 1321.81 C 1800.67 1328.49 1798.97 1330.09 1791.76 1333.43 C 1777.66 1334.38 1726.01 1336.26 1715.42 1330.3 C 1712.21 1328.49 1710.9 1325.03 1709.93 1321.65 C 1706.97 1311.33 1706.34 1250.57 1710.75 1243.33 C 1713.21 1239.3 1717.12 1237.55 1721.5 1236.38 z" class="svgShape colorfed071-92 selectable"></path><path fill="#FFF" d="M 1757.39 1252.16 C 1761.62 1251.93 1772.83 1251.82 1775.08 1255.62 C 1772.1 1272.38 1756.52 1253.43 1753.69 1273.14 C 1755.54 1274.28 1765.53 1273.99 1769.18 1274.35 C 1770.84 1276.72 1770.1 1275.67 1769.9 1279.7 C 1764.94 1283.25 1757.64 1282.47 1752.91 1285.62 C 1755.24 1286.96 1764.59 1287.54 1767.98 1287.97 C 1769.8 1291.22 1769.12 1289.46 1768.94 1293.99 C 1765.35 1299.67 1759.82 1294.41 1755 1298.33 C 1756.26 1303.65 1761.24 1305.19 1766.2 1304.81 L 1770.59 1304.01 C 1773.99 1305.2 1772.5 1304.24 1774.92 1307.4 C 1776.34 1320.63 1754.53 1317.51 1748 1312.86 C 1742.6 1309.01 1742.74 1301.41 1737.21 1296.72 C 1734.47 1297.1 1733.25 1297.57 1730.66 1296.73 C 1729.2 1293.65 1729.13 1291.28 1731.04 1288.54 C 1733.52 1288.17 1734.91 1288.2 1737.03 1286.93 L 1737.56 1284.28 C 1734.33 1280.99 1733.92 1284.72 1730.07 1281.43 C 1729.97 1277.67 1729.34 1277.46 1730.94 1274.68 C 1745 1274.38 1736.83 1258.8 1757.39 1252.16 z" class="svgShape colorffffff-93 selectable"></path><path fill="#035c4d" d="M 1718.81 523.641 C 1722.07 520.009 1720.18 510.335 1721.78 505.149 C 1729.09 481.538 1759.95 473.351 1777.64 490.866 C 1786.77 499.908 1787.3 511.567 1787.58 523.585 C 1791.87 524.75 1793.79 524.789 1796.7 527.862 C 1798.85 534.294 1799.12 569.306 1798.69 577.742 C 1799.3 593.337 1800.73 603.336 1780.27 601.779 C 1770.59 601.042 1717.83 603.67 1712.99 598.919 C 1710.07 590.674 1709.8 536.022 1711.79 528.516 C 1714.05 525.329 1715.24 525.17 1718.81 523.641 z" class="svgShape color5883df-94 selectable"></path><path fill="#035c4d" d="M 1798.69 577.742 C 1799.3 593.337 1800.73 603.336 1780.27 601.779 C 1770.59 601.042 1717.83 603.67 1712.99 598.919 C 1710.07 590.674 1709.8 536.022 1711.79 528.516 C 1714.05 525.329 1715.24 525.17 1718.81 523.641 C 1719.71 535.461 1735.91 546.916 1744.73 553.106 C 1754.96 541.779 1769.64 545.941 1766.04 561.75 C 1778.87 562.224 1785.3 562.57 1797.7 559.974 C 1797.66 563.528 1796.99 575.618 1798.69 577.742 z" class="svgShape color4363c4-95 selectable"></path><path fill="#FFF" d="M1744.73 553.106C1754.96 541.779 1769.64 545.941 1766.04 561.75 1758.24 569.092 1765.16 573.829 1761.11 579.266 1744.08 586.513 1752.55 569.603 1747.84 563.661 1744.09 558.92 1744.67 558.9 1744.73 553.106zM1749.18 496.143C1750.36 496.084 1751.55 496.045 1752.74 496.027 1771.92 495.796 1773.24 508.981 1773.09 524.239L1760.25 524.412 1734.3 524.05C1734.39 509.499 1734.99 502.158 1749.18 496.143z" class="svgShape colorffffff-96 selectable"></path><path fill="#035c4d" d="M 1319.99 1265.01 C 1320.02 1244.43 1320.56 1219.3 1348.7 1218.97 C 1356.77 1218.81 1364.57 1221.9 1370.33 1227.55 C 1382.72 1239.86 1377.6 1251.72 1379.83 1265.44 C 1384.28 1267.24 1384.56 1267.27 1387.98 1270.51 C 1391.14 1279.7 1392.3 1317.68 1388.01 1325.88 C 1386.12 1329.48 1383.13 1331.86 1379.25 1332.99 C 1373.25 1334.75 1319.18 1334.73 1314.71 1331.69 C 1311.34 1329.4 1309.97 1325.3 1309.3 1321.45 C 1310.79 1307.04 1307.79 1291.49 1309.62 1277.07 C 1310.54 1269.78 1313.62 1267.63 1319.99 1265.01 z" class="svgShape color5883df-97 selectable"></path><path fill="#70C6E5" d="M 1319.99 1265.01 C 1320.02 1244.43 1320.56 1219.3 1348.7 1218.97 C 1356.77 1218.81 1364.57 1221.9 1370.33 1227.55 C 1382.72 1239.86 1377.6 1251.72 1379.83 1265.44 C 1376.44 1265.84 1369.68 1265.38 1366.02 1265.25 C 1354.96 1265.42 1343.31 1265.19 1332.2 1265.13 L 1319.99 1265.01 z" class="svgShape color70c6e5-98 selectable"></path><path fill="#FFF" d="M 1332.2 1265.13 C 1332.26 1257.45 1331.09 1240.47 1337.34 1236.87 C 1366.89 1219.83 1366.23 1250.09 1366.02 1265.25 C 1354.96 1265.42 1343.31 1265.19 1332.2 1265.13 z" class="svgShape colorffffff-99 selectable"></path><path fill="#035c4d" d="M 1355.57 1312.14 C 1363.7 1305.47 1369.36 1302.03 1375.37 1293.05 C 1379.62 1286.69 1383.12 1275.28 1387.98 1270.51 C 1391.14 1279.7 1392.3 1317.68 1388.01 1325.88 C 1386.12 1329.48 1383.13 1331.86 1379.25 1332.99 C 1373.25 1334.75 1319.18 1334.73 1314.71 1331.69 C 1311.34 1329.4 1309.97 1325.3 1309.3 1321.45 C 1321.62 1319.71 1332.61 1317.18 1344.62 1314.19 C 1349.31 1314.12 1352.05 1314.68 1355.57 1312.14 z" class="svgShape color4363c4-100 selectable"></path><path fill="#FFF" d="M 1344.62 1314.19 C 1343.27 1308.34 1345.87 1302.04 1341.53 1297.23 C 1332.21 1286.93 1349.44 1278.32 1357.07 1285.82 C 1364.06 1292.69 1353.1 1302.16 1355.47 1310.71 C 1355.51 1311.19 1355.54 1311.67 1355.57 1312.14 C 1352.05 1314.68 1349.31 1314.12 1344.62 1314.19 z" class="svgShape colorffffff-101 selectable"></path><path fill="#70C6E5" d="M 1611.32 947.603 C 1644.89 936.174 1666.88 935.515 1700.01 947.527 C 1717 954.927 1729.67 963.198 1742.39 976.781 C 1737.64 981.79 1732.03 987.051 1727.05 991.921 C 1726.47 991.309 1725.88 990.702 1725.29 990.102 C 1684.16 948.48 1625.03 951.106 1584.02 991.366 L 1569.58 975.847 C 1584.34 962.578 1594.13 956.596 1611.32 947.603 z" class="svgShape color70c6e5-102 selectable"></path><path fill="#70C6E5" d="M 1647.58 986.301 C 1649.9 986.058 1652.24 985.917 1654.57 985.88 C 1677.57 985.556 1694.22 993.097 1710.51 1008.91 L 1695.17 1024.28 C 1684.8 1014.15 1680.58 1010.54 1666.3 1006.67 C 1644.27 1003.4 1631.73 1009.63 1616.1 1024.27 L 1601.89 1008.82 C 1616.65 995.412 1627.91 989.282 1647.58 986.301 z" class="svgShape color70c6e5-103 selectable"></path><path fill="#5883DF" d="M 1634.14 1058.91 C 1633.72 1053.89 1634.23 1049.97 1636.32 1045.29 C 1638.71 1039.77 1643.31 1035.5 1649 1033.54 C 1654.97 1031.43 1661.53 1031.83 1667.2 1034.64 C 1675.31 1038.67 1677.77 1044.08 1680.34 1052.14 C 1679.7 1060.8 1678.57 1066.47 1671.42 1072.45 C 1666.67 1076.44 1660.5 1078.31 1654.34 1077.63 C 1643.4 1076.47 1637.23 1068.8 1634.14 1058.91 z" class="svgShape color5883df-104 selectable"></path><path fill="#4363C4" d="M 1634.14 1058.91 C 1638.54 1056.16 1647.39 1061.8 1655.55 1060.85 C 1666.07 1059.62 1669.59 1055.8 1678.48 1052.75 L 1680.34 1052.14 C 1679.7 1060.8 1678.57 1066.47 1671.42 1072.45 C 1666.67 1076.44 1660.5 1078.31 1654.34 1077.63 C 1643.4 1076.47 1637.23 1068.8 1634.14 1058.91 z" class="svgShape color4363c4-105 selectable"></path></svg></g></svg>