<svg id="SvgjsSvg1064" width="288" height="288" xmlns="http://www.w3.org/2000/svg" version="1.1" xmlns:xlink="http://www.w3.org/1999/xlink" xmlns:svgjs="http://svgjs.com/svgjs"><defs id="SvgjsDefs1065"></defs><g id="SvgjsG1066"><svg xmlns="http://www.w3.org/2000/svg" display="block" preserveAspectRatio="none" viewBox="0 0 2048 2048" width="288" height="288"><path fill="#ffffff" d="M 0 0 L 2048 0 L 2048 2048 L 0 2048 L 0 0 z" class="svgShape colorffffff-0 selectable"></path><path fill="#031133" d="M 436.599 476.312 C 479.867 475.355 525.687 476.046 569.143 476.046 L 808.765 476.06 L 1114.78 476.036 C 1162.87 476.026 1211 475.945 1259.07 475.888 C 1276.99 475.867 1290.39 476.857 1303.38 490.641 C 1309.26 496.87 1315.93 507.623 1316.67 515.961 C 1318.15 532.58 1317.55 551.033 1317.48 567.799 L 1317.5 651.862 C 1317.59 749.675 1318.39 849.563 1317.18 947.27 C 1336.04 972.819 1332.28 994.505 1332.18 1025.38 C 1407.49 1020.19 1448.17 959.522 1478.16 898.138 C 1469.7 885.192 1470.53 873.019 1467.56 858.437 C 1466.33 852.407 1461.45 846.055 1460.44 839.635 C 1459.93 836.365 1460.33 833.018 1461.59 829.959 C 1465.38 820.526 1476.22 819.076 1484.88 822.786 C 1494.55 826.925 1497.04 833.28 1500.54 842.446 C 1509.21 830.203 1522 804.661 1532.37 794.938 C 1545.04 783.068 1553 792.62 1559.61 805.091 C 1567.9 810.964 1583.51 794.85 1582.59 828.682 C 1589.1 834.07 1609.83 831.917 1597.85 855.698 C 1592.82 865.684 1582.03 873.637 1575.82 883.277 C 1570.44 891.631 1566.11 903.797 1560.26 912.186 C 1544.55 925.396 1541.98 936.013 1532.59 953.737 C 1523.64 970.703 1513.37 986.939 1501.87 1002.29 C 1455.47 1063.96 1407.45 1091.94 1332.18 1102.35 L 1332.39 1325.76 C 1332.32 1346.84 1328.61 1362.08 1313.01 1377.46 C 1292.58 1397.61 1268.91 1395.33 1242.63 1394.96 C 1283.25 1470.63 1307.83 1553.24 1317 1638.26 C 1320.65 1672.08 1324.69 1706.63 1325.25 1740.62 C 1340.42 1741.74 1364.46 1747.26 1375.15 1758.83 C 1384.85 1769.31 1384.97 1780.23 1384.91 1793.31 C 1370.57 1794.21 1348.36 1793.43 1333.56 1793.4 L 1241.1 1793.36 C 1240.41 1775.23 1243.38 1756.1 1242.53 1738.14 C 1239.69 1677.97 1232.76 1616.17 1219.62 1557.37 C 1215.71 1539.87 1205.67 1516.42 1198.98 1499.79 C 1185.71 1466.32 1166.68 1427.13 1149.71 1394.97 L 918.612 1395.08 C 912.344 1446.66 899.359 1513.75 884.966 1563.12 C 878.893 1583.95 858.836 1627.01 849.086 1647.39 C 834.029 1679.57 817.705 1711.15 800.15 1742.04 C 828.93 1750.41 837.214 1763.57 836.988 1793.04 C 822.215 1794.05 799.057 1793.3 783.845 1793.31 C 754.47 1793.48 725.095 1793.43 695.721 1793.15 C 695.843 1758.3 716.746 1731.08 732.723 1701.05 C 749.735 1669.56 765.651 1637.49 780.443 1604.9 C 787.507 1589.56 795.956 1571.5 801.79 1555.69 C 806.633 1542.56 810.606 1522.04 813.657 1507.79 C 821.282 1470.34 828.243 1432.76 834.537 1395.06 C 806.181 1394.88 779.113 1399.85 757.273 1377.73 C 738.81 1359.03 738.532 1340.1 738.811 1315.3 C 738.983 1300.01 738.779 1284.11 738.777 1268.76 L 738.771 1112.91 C 681.04 1133.52 640.501 1204.96 630.239 1262.48 C 630.886 1263.22 631.522 1263.98 632.145 1264.75 C 639.549 1273.94 642.218 1285.95 647.423 1296.45 C 649.686 1302.39 655.232 1309.89 657.01 1315.76 C 660.746 1328.11 651.203 1337.91 638.799 1335.31 C 628.473 1333.16 626.112 1330.2 620.466 1322.54 C 618.986 1335.99 617.725 1351.5 614.884 1364.6 C 613.556 1370.72 610.068 1375.96 604.634 1378.94 C 594.4 1384.57 590.616 1373.22 583.678 1373.27 C 579.842 1373.3 573.828 1379.59 566.959 1376.52 C 560.776 1375.27 557.738 1363.95 555.156 1361.58 C 551.277 1358.01 538.525 1362.32 534.94 1352.75 C 530.631 1341.24 533.854 1328.2 535.85 1316.35 C 538.58 1300.14 541.836 1283.71 546.397 1267.92 C 547.782 1263.22 553.239 1257.49 554.773 1251.89 C 559.673 1233.97 564.157 1215.86 571.011 1198.56 C 592.669 1142.28 630.504 1090.79 682.688 1059.42 C 697.3 1050.64 710.062 1045.26 725.605 1038.46 C 704.196 1037.11 673.255 1037.97 651.294 1037.96 L 514.114 1037.94 C 496.667 1037.96 437.234 1039.95 424.042 1034.84 C 411.27 1029.9 401.041 1020.01 395.687 1007.41 C 393.103 1001.18 392.048 995.548 391.999 988.871 C 391.811 962.976 391.89 936.969 391.891 911.082 L 391.933 760.729 L 391.914 604.484 C 391.882 578.845 391.524 553.139 391.679 527.512 C 392.135 521.476 391.666 514.528 394.033 508.845 C 402.149 489.361 415.929 478.948 436.599 476.312 z" class="svgShape color031133-1 selectable"></path><path fill="#52cc99" d="M 400.067 573.16 L 1309.21 573.067 L 1309.38 940.267 C 1300.15 933.658 1291.36 929.266 1279.87 928.853 C 1246.04 927.637 1211.22 928.424 1177.33 928.451 L 980.329 928.475 L 854.365 928.449 C 838.158 928.425 821.674 928.484 805.481 928.44 C 783.877 928.381 772.647 930.902 756.336 945.086 C 733.463 971.448 738.483 995.38 738.822 1029.47 C 703.239 1028.58 666.508 1029.24 630.721 1028.97 C 588.514 1029.8 545.44 1028.8 503.087 1029.18 C 481.672 1029.37 456.68 1029.76 435.416 1028.21 C 426.586 1026.84 419.776 1024.12 413.249 1017.97 C 395.28 1001.03 399.908 968.483 400.003 945.175 L 400.096 863.718 L 400.067 573.16 z" class="svgShape color099ce1-2 selectable"></path><path fill="#0486c8" d="M 630.721 1028.97 C 631.408 1027.99 632.431 1026.46 633.394 1025.74 C 663.778 1003.01 695.477 981.903 726.55 960.109 C 734.597 954.465 746.655 945.061 756.336 945.086 C 733.463 971.448 738.483 995.38 738.822 1029.47 C 703.239 1028.58 666.508 1029.24 630.721 1028.97 z" class="svgShape color0486c8-3 selectable"></path><path fill="#ffffff" d="M 552.581 647.681 C 559.977 647.248 570.321 647.735 577.931 647.872 C 577.497 671.808 577.9 696.993 577.928 721.024 L 591.939 721.039 L 592.094 742.953 L 577.971 743.081 L 577.968 766.616 C 569.902 766.993 560.767 766.736 552.613 766.681 L 552.561 748.249 L 552.238 744.448 C 549.21 741.588 503.038 742.761 495.278 742.718 L 495.015 721.808 C 514.32 697.061 533.036 672.329 552.581 647.681 z" class="svgShape colorffffff-4 selectable"></path><path fill="#099ce1" d="M 551.568 681.692 C 553.883 684.585 552.722 715.251 552.673 720.948 L 525.305 720.824 L 524.842 720.453 C 523.921 716.261 546.939 689.882 551.568 681.692 z" class="svgShape color099ce1-5 selectable"></path><path fill="#ffffff" d="M853.69 647.839C878.402 647.089 906.014 647.746 930.95 647.861L930.671 671.115 879.308 671.254 879.641 695.707 925.752 695.914 925.638 718.605C915.769 718.954 888.7 717.971 880.659 719.351L879.854 720.885 879.894 743.688C897.342 743.539 914.791 743.515 932.24 743.615L932.177 766.867 853.849 766.816C853.704 730.899 851.949 682.763 853.69 647.839zM1111.68 678.303C1136.83 676.033 1159.04 694.626 1161.23 719.785 1163.43 744.945 1144.76 767.1 1119.6 769.215 1094.54 771.321 1072.5 752.759 1070.32 727.708 1068.14 702.658 1086.63 680.563 1111.68 678.303z" class="svgShape colorffffff-6 selectable"></path><path fill="#099ce1" d="M 1110.94 702.845 C 1118.49 701.054 1126.42 703.457 1131.7 709.137 C 1136.99 714.817 1138.81 722.898 1136.48 730.297 C 1134.14 737.695 1128.02 743.269 1120.43 744.893 C 1108.88 747.365 1097.5 740.081 1094.9 728.56 C 1092.3 717.039 1099.45 705.572 1110.94 702.845 z" class="svgShape color099ce1-7 selectable"></path><path fill="#ffffff" d="M740.274 646.246C742.79 646.075 745.31 645.964 747.831 645.914 768.977 645.64 789.683 661.336 788.657 683.284 787.534 707.288 758.089 728.922 741.337 744.054 757.553 743.709 774.528 743.981 790.802 744.011L790.486 766.952 730.064 766.971 704.026 766.844 703.905 747.689C716.94 735.101 760.781 700.3 761.952 684.34 762.228 680.585 761.083 677.274 758.473 674.546 754.71 670.613 749.909 668.878 744.508 669.034 734.522 669.323 727.241 677.59 720.707 684.154L704.105 669.739C714.362 656.713 723.609 649.288 740.274 646.246zM639.068 646.324C640.955 646.234 642.844 646.184 644.733 646.175 666.803 646.135 686.601 660.064 685.39 683.839 684.29 705.424 664.692 718.593 650.395 732.158 646.121 736.213 641.598 740.051 637.224 743.963 653.726 743.379 671.455 743.839 688.063 743.996L688.044 766.784C667.211 767.204 645.412 766.91 624.5 766.921L601.648 766.686 601.036 748.097C618.239 731.236 637.998 714.769 653.769 696.731 664.109 684.904 658.851 668.235 641.746 669.052 631.204 669.555 624.48 677.096 618.006 684.48 612.661 680.322 606.13 674.288 600.915 669.721 612.142 655.908 621.096 648.733 639.068 646.324zM989.909 680.162C1007.26 678.032 1002.08 688.825 1002.05 703.068 1001.17 703.021 1000.29 702.979 999.412 702.942 966.228 701.555 975.177 742.682 975.201 766.681 967.269 766.721 959.193 766.568 951.249 766.498 948.744 757.342 950.121 694.332 950.168 681.159L974.346 681.101 974.513 692.098C980.192 685.466 981.941 683.578 989.909 680.162zM1216.05 680.203C1217 680.097 1217.94 680.001 1218.89 679.914 1232.68 678.662 1228.23 691.897 1228.02 702.542 1192.81 702.646 1201.98 740.239 1202.05 766.697 1194.34 766.98 1186.08 766.805 1178.3 766.767 1176.15 763.688 1176.97 691.055 1176.96 681.162 1183.62 680.976 1191.62 680.519 1198.12 681.209 1200.4 683.526 1199.91 686.057 1200.32 689.941 1202.14 690.359 1210.85 682.173 1216.05 680.203zM1055.13 680.133C1061.51 679.523 1066.92 678.885 1066.92 687.234 1066.92 692.448 1066.68 697.868 1066.64 703.102 1029.62 700.75 1039.9 738.883 1040.01 766.737 1032.24 766.935 1024.12 766.742 1016.32 766.667 1014.02 764.568 1014.85 690.704 1014.84 681.278 1020.63 681.056 1034.66 679.588 1038.58 682.969 1038.64 686.296 1038.5 687.317 1039.52 690.572 1043.71 689.149 1046.74 683.285 1055.13 680.133zM927.062 801.688C930.094 801.701 931.509 801.353 933.865 803.196 936.042 807.787 934.978 814.327 934.891 820.052 956.741 805.88 973.173 827.652 960.975 849.212 948.568 859.131 948.396 854.009 935.177 851.634 931.814 853.775 931.274 854.91 927.965 853.144 925.789 844.789 926.932 812.22 927.062 801.688z" class="svgShape colorffffff-8 selectable"></path><path fill="#099ce1" d="M 944.098 821.945 C 960.221 824.034 962.471 840.668 948.038 848.2 C 931.216 846.859 930.24 830.643 944.098 821.945 z" class="svgShape color099ce1-9 selectable"></path><path fill="#ffffff" d="M 600.133 815.554 C 602.942 815.926 602.885 815.905 605.478 817.041 L 606.446 820.202 C 627.427 811.326 641.532 817.811 635.655 844.649 C 634.512 849.868 626.789 853.639 622.005 855.472 C 613.31 855.065 612.678 854.493 605.955 848.769 C 606.255 854.485 607.774 864.687 604.431 868.875 C 600.629 869.306 602.185 869.803 599.428 868.088 C 598.468 861.316 598.178 820.137 600.133 815.554 z" class="svgShape colorffffff-10 selectable"></path><path fill="#099ce1" d="M 614.279 822.986 C 630.64 821.877 634.179 837.96 621.525 847.613 C 605.732 849.165 601.441 832.953 614.279 822.986 z" class="svgShape color099ce1-11 selectable"></path><path fill="#ffffff" d="M 888.948 816.108 C 898.966 814.773 898.51 816.786 907.669 819.072 C 911.334 816.127 911.971 814.751 916.085 817.283 C 917.074 823.999 917.953 849.792 913.154 853.968 C 908.97 853.509 910.475 853.902 906.814 851.017 C 884.028 867.066 862.758 832.974 888.948 816.108 z" class="svgShape colorffffff-12 selectable"></path><path fill="#099ce1" d="M 894.008 821.798 C 910.974 823.967 912.493 838.477 899.351 848.438 C 881.93 847.381 880.557 830.141 894.008 821.798 z" class="svgShape color099ce1-13 selectable"></path><path fill="#ffffff" d="M 681.142 816.516 C 687.931 814.156 695.464 815.644 700.846 820.408 C 706.228 825.172 708.62 832.469 707.102 839.494 C 705.583 846.519 700.392 852.178 693.524 854.295 C 683.162 857.488 672.153 851.79 668.776 841.487 C 665.4 831.184 670.901 820.075 681.142 816.516 z" class="svgShape colorffffff-14 selectable"></path><path fill="#099ce1" d="M 683.132 823.033 C 700.904 821.411 703.661 836.991 691.626 847.754 C 675.206 849.515 671.168 833.064 683.132 823.033 z" class="svgShape color099ce1-15 selectable"></path><path fill="#ffffff" d="M 1002.01 816.118 C 1006.2 815.624 1011.83 815.414 1015.8 816.736 C 1022.19 818.86 1030.2 828.852 1027.97 835.577 C 1021.12 841.371 1007.13 835.546 999.323 838.549 C 997.389 841.653 997.629 840.062 998.304 843.431 C 1004.7 849.973 1011.99 849.141 1018.47 843.581 C 1020.72 841.64 1021.81 841.472 1024.29 842.282 L 1024.98 844.049 C 1022.78 853.451 1012.47 856.596 1003.9 854.941 C 998.942 854.033 994.624 851.024 992.057 846.691 C 984.67 834.393 990.187 822.55 1002.01 816.118 z" class="svgShape colorffffff-16 selectable"></path><path fill="#099ce1" d="M 1006.06 821.827 C 1011.3 822.249 1017.79 824.366 1018.61 830.284 C 1016.3 832.17 1016.52 831.513 1012.75 831.547 L 997.111 831.134 L 997.707 830.297 C 1001 825.591 1001.23 824.98 1006.06 821.827 z" class="svgShape color099ce1-17 selectable"></path><path fill="#ffffff" d="M 774.679 815.264 C 785.629 816.106 794.2 822.465 795.281 833.999 C 791.336 843.541 772.353 834.17 765.484 838.722 C 765.538 842.397 769.075 847.681 772.836 848.236 C 778.773 849.112 784.666 844.12 789.015 840.84 C 790.495 841.884 791.076 842.474 792.418 843.692 L 792.018 845.888 C 785.282 854.664 776.583 859.19 766.207 852.856 C 760.955 849.587 757.335 844.245 756.244 838.155 C 753.868 825.292 762.866 817.425 774.679 815.264 z" class="svgShape colorffffff-18 selectable"></path><path fill="#099ce1" d="M 774.136 821.865 C 778.98 822.659 784.596 824.534 784.781 830.305 C 782.234 832.339 782.454 831.617 778.25 831.618 C 772.552 831.743 770.179 832.533 766.02 829.265 L 766.248 827.212 C 769.231 823.992 770.067 823.842 774.136 821.865 z" class="svgShape color099ce1-19 selectable"></path><path fill="#ffffff" d="M507.052 803.76C510.177 803.681 510.286 803.555 513.253 804.351 520.657 814.492 506.568 846.175 525.125 847.679 548.629 849.584 530.012 812.197 541.182 803.81 544.859 803.907 543.534 803.182 545.922 804.993L546.138 808.75C546.1 824.113 551.731 851.87 530.397 854.967 500.485 859.309 506.652 823.533 507.052 803.76zM1051.77 803.052C1059.45 802.883 1072.79 802.135 1079.89 803.47 1082.14 806.275 1081.23 804.669 1081.56 809.131 1078.77 811.77 1064.66 810.972 1060 810.96L1060.05 823.785C1066.59 823.706 1074.9 822.252 1079 826.118 1079.73 829.738 1080.08 828.177 1078.42 831.04 1074.14 833.045 1067.66 831.153 1061.01 832.317L1060.03 833.979 1060.13 846.974C1066.29 846.984 1074.9 846.219 1080.44 847.816 1082.4 850.215 1081.72 848.78 1081.37 852.833 1077.58 855.672 1057.31 854.188 1051.57 854.019 1050.99 838.274 1051.58 819.033 1051.77 803.052zM1192.84 816.001C1196.12 815.87 1196.17 815.728 1199.27 816.577 1205.21 822.1 1208.08 836.562 1210.3 844.703 1212.95 836.152 1216.74 820.293 1224.5 815.998L1226.02 816.878C1227.42 824.67 1221.13 837.478 1218.02 845.236 1214.73 854.839 1208.91 875.38 1194.61 868.521L1193.88 865.936C1198.19 857.442 1211.9 865.198 1203.16 844.106 1200.88 838.6 1193.22 820.917 1192.84 816.001zM852.276 815.263C859.506 815.258 867.327 817.378 871.428 823.948L870.799 825.906C867.978 827.573 868.151 827.79 864.964 827.49L861.356 825.293C855.724 821.822 854.79 821.824 848.519 824.265L847.715 826.544 847.358 826.212C853.874 832.055 869.57 832.277 871.471 842.164 873.405 852.22 862.015 854.658 855.362 855.456 848.455 854.798 840.371 851.951 837.771 844.774L838.791 843.303C849.475 839.774 851.017 856.084 862.801 845.271 863.456 837.648 841.101 838.424 838.856 829.894 836.471 820.835 845.878 816.987 852.276 815.263zM1110.86 815.211C1126.83 817.281 1124.78 840.504 1122.56 852.501 1120.19 854.713 1121.52 853.79 1117.92 854.521 1109.51 848.667 1124.18 813.863 1101.54 824.719L1100.57 825.194C1095.23 835.903 1101.04 844.712 1096.14 853.25 1092.92 854.811 1094.56 854.637 1091.04 853.701 1088.65 849.599 1086.69 820.367 1093.9 815.985 1100.42 816.454 1094.31 816.337 1098.38 819.28 1103.83 816.674 1104.94 816.016 1110.86 815.211zM809.866 816.098C817.024 815.521 826.72 815.135 830.663 822.3 830.957 826.178 831.481 824.567 829.673 827.454 821.628 828.582 818.672 816.011 809.73 825.288 808.922 833.296 827.021 829.038 834.298 842.334 834.589 848.994 826.919 853.024 821.295 855.002 812.575 855.301 804.523 853.879 799.708 845.39L800.234 843.608C803.204 842.37 803.144 842.078 806.231 842.591 808.204 844.305 812.645 848.514 815.183 848.662 818.937 848.881 823.703 848.141 823.696 843.583 818.188 837.275 783.326 832.008 809.866 816.098zM568.933 816.208C572.875 815.79 578.155 814.845 581.659 816.692 592.644 822.481 590.623 845.278 585.967 854.204L584.455 854.642C575.581 848.099 589.114 828.66 573.668 821.644 557.644 827.28 565.194 840.942 562.218 853.803L560.093 854.379C552.551 850.587 554.252 824.216 556.424 817.593L558.582 816.621C561.395 817.857 562.215 818.383 565.264 818.922L568.933 816.208zM726.955 816.09C736.443 814.935 749.37 817.126 749.972 829.09 743.103 833.932 730.845 815.333 724.536 825.626 717.629 836.896 723.069 853.263 739.133 846.51 740.695 844.717 742.003 843.589 743.755 841.987 747.079 841.25 745.687 840.883 748.207 842.295L748.567 844.798C747.409 848.094 745.396 851.773 742.044 853.231 716.005 864.559 699.987 829.083 726.955 816.09zM1174.03 804.543C1177.84 804.711 1179.33 804.329 1181.7 806.618 1181.24 810.092 1180.6 813.078 1182.91 816.029L1188.01 816.584C1189.68 819.186 1189.12 817.722 1188.7 821.463 1183.28 823.95 1180.82 825.788 1180.54 832.303 1180.39 835.808 1181.07 844.279 1183.31 846.928 1189.82 848.657 1189.56 848.048 1191.21 854.073 1166.97 861.015 1176.31 836.332 1173.31 823.748 1171.5 823.017 1170.59 822.605 1168.87 821.68 1168.04 819.146 1167.96 819.32 1168.75 816.802L1172.75 815.623C1174.32 813.091 1173.9 808.038 1174.03 804.543zM1134.28 802.573C1138.63 802.406 1140.43 801.718 1142.34 805.889 1141.34 809.212 1140.28 811.318 1141.16 814.614 1143.79 816.898 1143.2 816.134 1147.77 816.161L1148.95 817.706C1149.02 822.107 1149.84 820.545 1147.62 823.111 1145.43 823.294 1144.13 823.451 1141.97 823.842 1141.16 826.71 1141.64 847.937 1141.68 852.691 1140.18 854.589 1137.65 854.152 1135.54 853.929 1131.07 848.7 1136.21 832.184 1133.35 823.678L1128.57 822.157C1127.39 819.207 1127.48 820.707 1128.57 817.497L1133.03 815.302C1135.27 811.403 1134.39 807.57 1134.28 802.573zM972.854 801.788C975.394 801.649 976.519 801.732 979.07 801.927 981.863 805.123 980.182 847.237 980.101 853.739 976.507 853.811 975.892 854.44 973.268 852.902 971.978 842.479 972.805 813.582 972.854 801.788zM662.87 814.813C665.152 816.754 664.917 816.775 665.852 819.688 664.886 821.553 665.211 821.534 662.477 822.508 645.606 828.518 656.784 839.83 652.384 852.204 649.665 854.847 650.04 853.972 645.083 854.324 645.004 845.731 644.338 824.982 645.851 817.922 647.916 816.061 647.215 816.854 650.76 816.235L652.306 818.226C655.999 818.86 659.162 816.586 662.87 814.813zM1153.16 816.012C1156.81 815.871 1157.66 815.663 1161.23 816.781 1162.6 821.103 1161.96 848.345 1161.92 854.603 1158.44 854.501 1157.88 854.674 1154.53 853.538 1153.53 850.804 1153.28 821.058 1153.16 816.012zM1154.5 802.692C1155.82 801.616 1157.63 801.339 1159.22 801.967 1160.8 802.594 1161.93 804.029 1162.17 805.722 1162.4 807.414 1161.7 809.101 1160.34 810.136 1158.29 811.703 1155.35 811.328 1153.75 809.294 1152.16 807.261 1152.49 804.321 1154.5 802.692z" class="svgShape colorffffff-20 selectable"></path><path fill="#fd7868" d="M 1001.43 1386.57 L 861.28 1386.82 C 842.91 1386.85 823.638 1386.45 805.483 1386.69 C 769.123 1387.18 747.11 1363 747.052 1327.75 C 747.008 1301.3 746.999 1274.34 747 1247.75 L 746.93 1092.45 L 746.793 1017.19 C 746.771 1005.16 746.257 990.621 747.487 978.876 C 749.367 960.934 769.832 939.13 788.243 937.513 C 803.716 936.154 821.463 936.729 837.299 936.735 L 933.883 936.728 L 1260.71 936.485 C 1280.66 936.548 1294.2 936.613 1309.22 952.299 C 1315.92 959.422 1320.46 968.297 1322.31 977.894 C 1324.56 988.934 1323.76 1029.26 1323.75 1042.15 L 1323.77 1157.4 L 1323.9 1281.27 C 1323.93 1301.38 1324.97 1324.71 1322.52 1344.6 C 1320.38 1362.1 1299.52 1381.49 1282.61 1384.95 C 1268.58 1387.7 1248.63 1386.87 1233.92 1386.87 L 1163.21 1386.82 L 1001.43 1386.57 z" class="svgShape colorfd7868-21 selectable"></path><path fill="#ef6c5c" d="M 1191.48 1385.66 C 1224.89 1329.61 1259.33 1270.64 1291.53 1213.97 C 1298.23 1201.97 1305.17 1190.1 1312.34 1178.38 C 1316.12 1172.22 1322.66 1164.1 1323.77 1157.4 L 1323.9 1281.27 C 1323.93 1301.38 1324.97 1324.71 1322.52 1344.6 C 1320.38 1362.1 1299.52 1381.49 1282.61 1384.95 C 1268.58 1387.7 1248.63 1386.87 1233.92 1386.87 L 1163.21 1386.82 L 1001.43 1386.57 C 1005.66 1385.37 1012.98 1385.6 1017.56 1385.57 C 1075.51 1385.28 1133.54 1386.24 1191.48 1385.66 z" class="svgShape coloref6c5c-22 selectable"></path><path fill="#031133" d="M920.729 1077.59C930.939 1075.69 940.753 1082.44 942.617 1092.66 944.481 1102.88 937.683 1112.66 927.458 1114.48 917.295 1116.29 907.582 1109.54 905.729 1099.39 903.877 1089.23 910.582 1079.49 920.729 1077.59zM1143.04 1077.55C1153.29 1075.95 1162.87 1083 1164.38 1093.26 1165.9 1103.51 1158.77 1113.04 1148.5 1114.47 1138.35 1115.89 1128.96 1108.85 1127.46 1098.71 1125.96 1088.58 1132.92 1079.13 1143.04 1077.55zM998.989 1157.03C1007.77 1156.67 1063.1 1156.21 1069.49 1157.33 1071.66 1160.59 1070.9 1160.01 1070.73 1164.83 1059.26 1165.55 1009.81 1166.28 1000.26 1164.45 998.257 1161.42 998.988 1161.45 998.989 1157.03z" class="svgShape color031133-23 selectable"></path><path fill="#fd7868" d="M1240.64 1411.9L1241.72 1412.22C1245.88 1416.64 1255.81 1442.96 1259 1450.03 1299.33 1539.5 1311.19 1634.52 1316.77 1731.97 1297.76 1731.85 1278.75 1731.88 1259.75 1732.07 1256.01 1732.25 1255.31 1732.41 1251.55 1731.49 1250.67 1728.22 1249.39 1707.66 1248.99 1702.65 1247.61 1684.68 1245.86 1666.74 1243.73 1648.84 1240.33 1621.67 1234.6 1581.24 1227.56 1555.03 1217.76 1518.52 1199.03 1477.99 1183.56 1443.53 1202.47 1432.77 1221.49 1422.23 1240.64 1411.9zM625.199 1121.74C628.527 1123.48 663.367 1152.05 668.673 1156.32 640.464 1194.29 631.509 1220.37 620.568 1265.04 632.29 1275.82 633.664 1285.88 639.93 1300.12 642.979 1307.05 647.296 1313.09 649.676 1320.48 648.736 1325.22 645.912 1327.14 641.32 1327.5 629.604 1328.4 626.662 1312.38 618.71 1305.67 607.628 1312.9 615.451 1369.88 597.758 1372 590.847 1369.25 589.738 1363.36 590.366 1356.65 591.231 1347.39 592.437 1338.15 593.583 1328.92 594.126 1325.66 594.381 1325.74 593.083 1322.77 590.046 1320.44 591.666 1320.85 588.175 1321.11 580.622 1327.7 586.718 1368.17 574.044 1368.32 552.585 1368.56 574.212 1326.43 565.288 1317.67L562.466 1317.83C554.498 1325.28 563.093 1357.43 545.811 1352.34 538.452 1346.23 542.212 1327.64 544.123 1318.74 548.026 1300.55 548.55 1276.7 559.519 1261.35 563.688 1255.51 565.488 1244.35 567.278 1237.52 578.183 1195.91 596.63 1154.34 625.199 1121.74zM1539.45 798.982C1569.28 797.37 1532.81 833.629 1532.58 846.029 1534.38 848.673 1533.19 847.8 1536.34 848.661 1545.21 845.998 1553.21 814.052 1567.18 813.068 1590.84 819.47 1555.02 848.318 1553.46 858.739 1553.28 859.978 1555.33 861.476 1556.22 862.398 1565.25 863.638 1580.78 823.004 1592.78 843.869 1595.57 848.705 1578.85 866.936 1575.15 870.71 1564.96 881.108 1562.2 895.036 1553.96 906.652 1550.7 911.293 1542.6 915.848 1540.16 920.79 1528.67 944.044 1517.5 965.09 1502.85 986.607 1492.91 1000.39 1484.45 1011.62 1472.51 1023.9 1459.44 1011.21 1444.22 999.225 1430.71 986.27 1460.59 954.338 1469.26 935.212 1487.87 897.098 1479.2 885.626 1478.68 874.453 1475.76 860.627 1474.08 852.681 1462.74 830.56 1475.33 828.834 1491.23 826.654 1491.05 850.831 1498.1 856.528 1507.02 854.921 1526.69 810.744 1539.45 798.982z" class="svgShape colorfd7868-24 selectable"></path><path fill="#fcc702" d="M1424.32 993.782C1429.09 995.693 1460.51 1025.03 1466.48 1030.46 1435.96 1059.89 1409.01 1075.84 1368.36 1087.35 1356.53 1090.08 1343.98 1092.17 1332 1094.36L1331.99 1034.13C1371.53 1028.79 1393.23 1018.09 1424.32 993.782zM737.91 1043.11C739.722 1047.2 738.999 1095.74 738.998 1103.64 709.752 1115.59 696.121 1128.12 674.496 1149.83L652.336 1132.07C644.882 1126.32 637.583 1120.38 630.448 1114.24 661.352 1079.64 694.184 1058.04 737.91 1043.11z" class="svgShape colorfcc702-25 selectable"></path><path fill="#099ce1" d="M 1250.57 1740.04 C 1258.4 1740.01 1313.5 1739.2 1316.94 1741.02 C 1317.09 1741.73 1318.3 1747.35 1318.76 1747.46 C 1340.92 1752.81 1377.86 1753.26 1376.79 1785.13 L 1249.07 1784.97 C 1249.17 1770.51 1250.05 1754.59 1250.57 1740.04 z" class="svgShape color099ce1-26 selectable"></path><path fill="#fcc702" d="M 720.689 1740.18 C 736.993 1739.55 773.243 1739.29 788.961 1740.41 L 789.682 1741.5 L 787.111 1747.43 C 787.272 1748.39 787.163 1750.04 788.308 1750.08 C 811.975 1750.9 825.765 1759.02 829.157 1784.96 L 818.25 1785.05 L 703.897 1784.97 C 706.012 1767.66 711.521 1754.86 720.689 1740.18 z" class="svgShape colorfcc702-27 selectable"></path><path fill="#099ce1" d="M1098.1 506.401C1107.34 505.837 1122.57 506.081 1131.63 506.533 1131.93 512.228 1133.22 537.851 1130.77 541.053L1096.48 540.915C1096.13 534.22 1094.75 510.8 1098.1 506.401zM1167 506.486C1178.01 506.236 1187.93 506.023 1198.97 506.418 1199.18 512.992 1201.17 537.952 1196.93 540.975 1186.02 541.042 1175.1 540.993 1164.19 540.828 1163.98 533.57 1163.02 513.075 1164.64 507.508L1167 506.486z" class="svgShape color099ce1-28 selectable"></path><path fill="#3dbef0" d="M 1235.52 504.35 C 1239.73 506.342 1246.19 514.326 1249.55 518.079 L 1254.57 513.25 C 1258.51 509.407 1260.75 506.688 1266.61 506.577 L 1267.43 507.986 C 1265.28 515.978 1261.38 518.054 1254.96 523.572 C 1258.84 526.846 1267.42 533.021 1267.98 537.819 C 1268.17 539.422 1266.64 540.901 1265.54 542.523 C 1260.79 541.9 1253.31 533.285 1249.68 529.636 C 1244.47 534.982 1241.28 539.662 1234 540.828 L 1232.57 539.76 C 1233.04 532.86 1238.93 529.062 1244.18 524.283 C 1239.8 519.06 1234.81 516.335 1232.22 510.393 C 1232.43 506.658 1232.35 507.854 1235.52 504.35 z" class="svgShape color3dbef0-29 selectable"></path><path fill="#031133" d="M 1533.55 488.867 C 1604.95 480.876 1669.32 532.267 1677.33 603.665 C 1685.35 675.064 1633.98 739.447 1562.58 747.488 C 1491.15 755.532 1426.73 704.133 1418.71 632.699 C 1410.69 561.265 1462.11 496.861 1533.55 488.867 z" class="svgShape color031133-30 selectable"></path><path fill="#ffffff" d="M 1536.31 496.867 C 1603.3 490.416 1662.83 539.509 1669.25 606.503 C 1675.67 673.496 1626.55 733.003 1559.55 739.394 C 1492.6 745.78 1433.14 696.698 1426.72 629.748 C 1420.31 562.797 1469.36 503.314 1536.31 496.867 z" class="svgShape colorffffff-31 selectable"></path><path fill="#031133" d="M 1544.51 529.132 C 1558.4 528.812 1563.31 532.667 1569.85 544.433 C 1570.21 555.961 1568.43 577.654 1567.99 590.024 C 1567.53 602.871 1566.75 630.578 1564.51 642.55 C 1560.3 648.251 1558.49 649.502 1551.99 652.322 C 1548.35 652.724 1545.21 652.691 1541.69 651.518 C 1537.69 650.18 1533.32 646.659 1531.55 642.758 C 1528.43 635.873 1525.14 546.526 1528.1 540.578 C 1531.27 534.189 1538.11 531.161 1544.51 529.132 z" class="svgShape color031133-32 selectable"></path><path fill="#099ce1" d="M 1537.16 619.16 C 1536.82 603.423 1531.28 555.706 1536.76 543.712 C 1538.26 540.427 1540.75 537.404 1544.43 536.568 C 1549.43 535.434 1554.06 537.828 1557.91 540.728 C 1560.52 543.119 1561.7 544.461 1561.9 548.22 C 1562.56 560.463 1559.44 636.722 1555.4 641.44 C 1553.36 643.823 1550.46 644.96 1547.36 644.83 C 1544.48 644.709 1541.21 643.501 1539.47 641.08 C 1535.95 636.179 1536.82 625.006 1537.16 619.16 z" class="svgShape color099ce1-33 selectable"></path><path fill="#3dbef0" d="M 1537.16 619.16 C 1536.82 603.423 1531.28 555.706 1536.76 543.712 C 1538.26 540.427 1540.75 537.404 1544.43 536.568 C 1549.43 535.434 1554.06 537.828 1557.91 540.728 C 1551.18 546.71 1541.63 537.423 1539.55 559.029 C 1538.39 571.129 1541.88 611.092 1537.16 619.16 z" class="svgShape color3dbef0-34 selectable"></path><path fill="#031133" d="M 1543.53 662.546 C 1554.29 660.089 1565.01 666.819 1567.47 677.58 C 1569.94 688.341 1563.22 699.063 1552.46 701.534 C 1541.69 704.006 1530.95 697.277 1528.49 686.506 C 1526.02 675.735 1532.76 665.005 1543.53 662.546 z" class="svgShape color031133-35 selectable"></path><path fill="#099ce1" d="M 1537.19 687.927 C 1535.02 683.797 1535.38 678.791 1538.13 675.021 C 1540.88 671.251 1545.54 669.375 1550.14 670.184 C 1555.78 671.178 1559.97 675.955 1560.23 681.678 C 1560.49 687.401 1556.74 692.538 1551.22 694.037 C 1545.69 695.537 1539.86 692.997 1537.19 687.927 z" class="svgShape color099ce1-36 selectable"></path><path fill="#9adcfb" d="M 1537.19 687.927 C 1535.02 683.797 1535.38 678.791 1538.13 675.021 C 1540.88 671.251 1545.54 669.375 1550.14 670.184 C 1541.4 676.585 1539.38 677.168 1537.19 687.927 z" class="svgShape color9adcfb-37 selectable"></path><path fill="#0486c8" d="M 268.955 285.034 C 284.142 284.103 331.074 284.234 345.803 285.055 C 346.858 295.603 348.268 354.829 345.542 362.652 C 336.079 363.339 273.63 364.43 269.623 360.806 C 267.125 352.219 267.308 293.702 268.955 285.034 z" class="svgShape color0486c8-38 selectable"></path><path fill="#ffffff" d="M 275.826 293.002 L 338.007 293.102 C 338.328 313.516 338.159 334.316 338.192 354.761 C 317.483 354.957 296.772 354.971 276.062 354.804 L 275.826 293.002 z" class="svgShape colorffffff-39 selectable"></path><path fill="#fcc702" d="M 599.211 1513.02 C 623.072 1512.33 651.589 1512.87 675.656 1513.23 C 676.316 1522.27 677.003 1585.55 674.54 1590.07 C 654.208 1591.01 619.221 1591.03 598.989 1590.36 C 598.214 1572.33 597.581 1529.95 599.211 1513.02 z" class="svgShape colorfcc702-40 selectable"></path><path fill="#ffffff" d="M 606.88 1522.05 C 627.19 1521.75 647.504 1521.73 667.814 1522.01 L 668.033 1581.96 L 607.613 1581.96 C 606.615 1562.82 606.96 1541.38 606.88 1522.05 z" class="svgShape colorffffff-41 selectable"></path><path fill="#031133" d="M 270.693 723.474 C 294.191 718.871 316.935 734.31 321.331 757.848 C 325.727 781.385 310.088 803.992 286.513 808.181 C 263.229 812.317 240.963 796.914 236.621 773.668 C 232.28 750.422 247.486 728.02 270.693 723.474 z" class="svgShape color031133-42 selectable"></path><path fill="#ffffff" d="M 273.794 731.521 C 292.63 728.636 310.25 741.532 313.197 760.358 C 316.144 779.185 303.307 796.848 284.49 799.857 C 265.585 802.879 247.822 789.969 244.861 771.055 C 241.901 752.14 254.87 734.419 273.794 731.521 z" class="svgShape colorffffff-43 selectable"></path><path fill="#fcc702" d="M 392.813 330.222 C 416.689 329.177 448.111 330.15 472.472 330.168 L 623.799 330.124 C 623.991 336.602 624.404 344.396 623.482 350.697 C 620.661 350.808 617.839 350.879 615.016 350.909 C 594.811 351.066 395.479 352.063 393.799 349.875 C 390.69 345.826 391.893 335.028 392.813 330.222 z" class="svgShape colorfcc702-44 selectable"></path><path fill="#031133" d="M 1288.36 376.439 C 1309.27 372.621 1329.28 386.575 1332.92 407.512 C 1336.56 428.449 1322.44 448.341 1301.47 451.808 C 1280.75 455.235 1261.15 441.316 1257.55 420.626 C 1253.95 399.935 1267.7 380.211 1288.36 376.439 z" class="svgShape color031133-45 selectable"></path><path fill="#ffffff" d="M 1287.55 385.432 C 1297.96 382.66 1309.06 385.744 1316.56 393.493 C 1324.05 401.242 1326.76 412.44 1323.64 422.757 C 1320.52 433.074 1312.06 440.894 1301.53 443.192 C 1285.75 446.637 1270.1 436.846 1266.3 421.147 C 1262.5 405.447 1271.94 389.586 1287.55 385.432 z" class="svgShape colorffffff-46 selectable"></path><path fill="#031133" d="M 250.846 1163.96 C 262.025 1163.42 275.247 1163.69 286.475 1163.91 C 349.439 1165.17 413.661 1162.07 476.498 1164.11 C 476.916 1172.03 476.955 1176.05 476.372 1183.94 C 452.31 1185.37 412.092 1184.09 387.203 1184.01 C 342.109 1183.87 295.517 1184.78 250.59 1184.08 C 250.161 1175.95 250.209 1172.07 250.846 1163.96 z" class="svgShape color031133-47 selectable"></path><path fill="#fcc702" d="M392.297 288.033C444.438 286.637 502.928 287.899 555.573 288.071 555.951 296.052 556.01 300.332 555.374 308.25 537.481 309.453 513.672 308.797 495.091 308.815L392.461 308.805C392.006 301.305 392.092 295.572 392.297 288.033zM1715.83 971.351C1731.83 970.042 1745.91 981.814 1747.46 997.786 1749.01 1013.76 1737.46 1028.02 1721.51 1029.81 1710.98 1031 1700.62 1026.41 1694.42 1017.82 1688.21 1009.23 1687.12 997.957 1691.55 988.33 1695.99 978.704 1705.27 972.215 1715.83 971.351z" class="svgShape colorfcc702-48 selectable"></path><path fill="#099ce1" d="M323.376 1206.45C358.725 1206.16 402.41 1205.06 437.194 1206.42 437.82 1212.56 439.925 1223.05 434.947 1227.01L320.281 1226.92C319.978 1221.16 319.022 1212.54 320.805 1207.41L323.376 1206.45zM1646.65 1435.81C1661.05 1435.36 1676.81 1435.61 1691.24 1435.81L1691.51 1480.74C1684.88 1481.94 1655.39 1481.27 1646.75 1481.19 1646.11 1467.51 1646.64 1449.79 1646.65 1435.81z" class="svgShape color099ce1-49 selectable"></path><path fill="#031133" d="M1425.3 1455.31C1439.42 1454.6 1610.13 1453.87 1615.99 1455.91 1617.35 1458.31 1616.79 1460.39 1616.56 1463.23 1603.93 1464.28 1587.24 1463.79 1574.34 1463.77L1508 1463.79C1495.99 1463.8 1434.99 1465.5 1426.16 1463.09 1424.36 1459.81 1425.08 1459.77 1425.3 1455.31zM1425.22 1534.47C1443.86 1533.31 1610.18 1533.38 1615.59 1535.26 1617.24 1538.63 1616.64 1537.97 1616.25 1542.35 1604.13 1543.33 1430.54 1543.14 1426.01 1541.54 1424.47 1539.27 1425.01 1537.31 1425.22 1534.47zM393.069 372.042C403.314 372.002 452.728 370.611 457.656 373.844 459.83 379.241 458.967 385.596 458.518 391.417 445.424 392.843 407.495 391.919 393.036 391.691 392.656 385.15 392.922 378.596 393.069 372.042z" class="svgShape color031133-50 selectable"></path><path fill="#fcc702" d="M 319.976 1248.93 C 327.477 1248.6 336.386 1248.99 343.997 1249.13 C 344.494 1257.11 344.56 1262.48 344.326 1270.48 C 336.836 1271.03 327.669 1270.78 320.034 1270.78 C 318.934 1262.86 319.269 1256.79 319.976 1248.93 z" class="svgShape colorfcc702-51 selectable"></path><path fill="#ef6c5c" d="M 251.486 1249.01 L 275.774 1249.01 C 276.037 1255.79 275.877 1263.15 275.855 1269.98 C 267.989 1270.42 259.518 1270.13 251.587 1270.01 C 251.109 1262.16 251.176 1256.9 251.486 1249.01 z" class="svgShape coloref6c5c-52 selectable"></path><path fill="#099ce1" d="M 251.928 1206.41 C 260.575 1206.28 267.215 1206.33 275.822 1206.88 C 276.159 1212.8 276.611 1221.32 275.603 1226.98 C 267.436 1227.25 259.494 1227.1 251.335 1226.98 C 251.057 1221.19 250.489 1211.8 251.928 1206.41 z" class="svgShape color099ce1-53 selectable"></path></svg></g></svg>