<svg id="SvgjsSvg1122" width="288" height="288" xmlns="http://www.w3.org/2000/svg" version="1.1" xmlns:xlink="http://www.w3.org/1999/xlink" xmlns:svgjs="http://svgjs.com/svgjs"><defs id="SvgjsDefs1123"></defs><g id="SvgjsG1124"><svg xmlns="http://www.w3.org/2000/svg" display="block" preserveAspectRatio="none" viewBox="0 0 2048 2048" width="288" height="288"><path fill="#FFF" d="M 0 0 L 2048 0 L 2048 2048 L 0 2048 L 0 0 z" class="svgShape colorffffff-0 selectable"></path><path fill="#13161C" d="M 1087.57 632.289 L 1088.43 635.163 C 1094.71 637.902 1146.92 636.34 1157.36 636.155 L 1166.79 636.036 L 1177.55 636.147 C 1183.39 636.595 1189.97 636.963 1195.74 637.614 C 1201.34 639.54 1207.12 641.422 1212.61 643.62 L 1218.21 646.335 C 1252.13 672.306 1252.62 694.517 1252.86 734.3 L 1281.95 753.046 C 1280.92 773.391 1279.71 793.726 1278.32 814.049 C 1277.77 822.982 1277.2 840.219 1275.7 847.97 C 1292.71 858.588 1309.86 868.982 1327.15 879.151 C 1336.38 884.66 1349.31 891.817 1357.66 898.154 L 1360.78 903.315 C 1369.25 903.245 1374.67 903.089 1383 904.274 C 1383.76 914.222 1383.53 921.197 1383.21 931.115 L 1383.17 1111.74 L 1383.13 1171.13 C 1383.13 1181.62 1382.74 1196.34 1383.57 1206.56 C 1381.44 1208.97 1381.17 1209.08 1376.7 1209.15 C 1363.19 1209.38 1349.46 1209.25 1335.95 1209.21 C 1307.97 1209.04 1279.99 1209.05 1252.02 1209.26 C 1252.18 1219.84 1252.47 1227.63 1250.7 1238.03 C 1244.99 1259.13 1234.85 1276.48 1216.15 1288.8 C 1224.21 1307.51 1236.44 1329.91 1245.61 1348.73 C 1246.12 1349.78 1248.73 1355.3 1249.19 1356 C 1256.68 1373.83 1264.44 1391.53 1272.49 1409.11 C 1257.13 1401.1 1239.06 1400.07 1222.89 1406.29 C 1206.71 1412.51 1193.99 1425.37 1187.95 1441.61 C 1172.2 1414.4 1153.85 1382.11 1137.25 1355.78 C 1119.15 1356.94 1094.54 1356.16 1075.87 1356.11 L 971.773 1355.98 C 950.93 1355.97 928.078 1355.48 907.412 1356.44 C 904.665 1361.23 901.603 1366.27 899.26 1371.24 C 897.989 1373.51 895.866 1377.05 894.79 1379.28 C 892.059 1384.32 888.766 1390.05 886.24 1395.12 L 881.404 1403.49 C 878.922 1407.9 876.393 1412.26 874.125 1416.78 L 867.985 1427.09 L 860.672 1439.13 L 860.204 1439.19 C 860.649 1440.24 861.063 1441.31 861.447 1442.39 C 862.353 1444.94 863.085 1447.55 863.638 1450.2 C 868.724 1474.55 858.238 1499.51 837.287 1512.93 C 823.401 1521.82 806.465 1524.6 790.466 1520.61 C 774.467 1516.62 760.819 1506.21 752.734 1491.84 C 737.116 1464.08 745.941 1428.95 772.827 1411.87 C 773.206 1408.98 781.376 1390.75 783.143 1386.41 C 782.791 1386.26 782.439 1386.11 782.087 1385.97 C 750.926 1360.71 733.962 1305.84 752.329 1269.03 C 758.958 1255.75 774.6 1231.41 785.334 1227.51 C 784.891 1222.22 785.208 1214.68 785.284 1209.16 C 751.267 1209.2 714.939 1209.86 681.113 1208.96 C 680.21 1180.71 680.973 1148.38 680.972 1119.81 C 671.561 1119.69 663.989 1119.59 654.582 1118.67 C 641.705 1107.33 626.261 1079.21 628.28 1063.07 C 631.9 1034.13 624.214 1024.13 613.513 997.109 L 583.8 921.779 C 565.482 908.698 557.744 885.259 564.674 863.843 C 571.604 842.426 591.606 827.963 614.115 828.093 C 651.174 805.503 696.798 774.93 734.248 754.825 C 751.344 744.615 768.514 734.528 785.756 724.565 C 785.627 699.115 786.642 679.55 804.882 659.449 C 813.273 650.106 824.081 643.261 836.114 639.669 C 850.972 635.38 873.295 636.956 889.187 636.746 C 915.087 636.404 941.981 637.591 967.85 636.408 C 981.612 636.474 1081.6 637.47 1087.02 635.417 L 1087.57 632.289 z" class="svgShape color13161c-1 selectable"></path><path fill="#FFF" d="M 690.013 913.097 L 1127.4 912.965 C 1208.83 912.974 1293.08 911.9 1374.19 913.058 C 1376.01 995.462 1373.81 1078.48 1374.6 1160.94 C 1374.72 1173.47 1374.78 1186.63 1374.44 1199.15 L 923.654 1199.45 C 847.167 1199.46 766.217 1200.74 690.138 1199.44 C 689.98 1177.97 690.022 1156.5 690.264 1135.03 C 704.776 1135.08 707.933 1136.57 708.238 1120.42 C 720.265 1113.92 720.49 1107.41 712.562 1097.11 L 713.442 1093.24 C 727.767 1093.02 735.836 1083.04 726.265 1070.09 L 726.088 1067.14 C 728.062 1066.88 729.992 1066.36 731.829 1065.59 C 739 1062.6 741.068 1055.3 737.882 1048.51 C 735.12 1042.62 731.832 1041.56 725.963 1039.35 C 740.727 1024.03 733.803 1013.51 713.575 1011.96 C 706.023 1011.38 697.725 1011.78 690.05 1011.58 L 690.013 913.097 z" class="svgShape colorffffff-2 selectable"></path><path fill="#13161C" d="M 1194.12 972.241 C 1209 972.035 1233.65 969.842 1245.05 979.179 C 1262.64 993.578 1261.14 1016.25 1248.06 1032.51 C 1231.61 1045.01 1214.38 1042.16 1194.07 1041.93 L 1194.12 972.241 z" class="svgShape color13161c-3 selectable"></path><path fill="#FFF" d="M 1209.03 985.808 C 1218.55 985.431 1226.35 984.604 1234.57 990.436 C 1246.67 999.023 1245 1011.86 1237.27 1022.66 C 1227.42 1030.14 1221.08 1029.1 1209.04 1028.81 L 1209.03 985.808 z" class="svgShape colorffffff-4 selectable"></path><path fill="#13161C" d="M 1041.98 972.203 C 1049.82 972.044 1057.66 971.956 1065.51 971.94 C 1088.8 972.101 1112.81 983.209 1087.97 1005.83 C 1099.37 1011.13 1102.94 1019.53 1098.39 1031.35 C 1086.05 1046.51 1060.1 1042.18 1041.78 1041.91 L 1041.98 972.203 z" class="svgShape color13161c-5 selectable"></path><path fill="#FFF" d="M1057.56 1012.44C1067.41 1012.27 1094.25 1010.11 1081.55 1028.12 1074.99 1029.81 1063.2 1029.29 1056.07 1029.14 1056.02 1025.04 1055.42 1015.26 1057.56 1012.44zM1056.27 985.206C1066.26 984.92 1089.26 982.084 1079.52 999.211 1072.66 1001.51 1063.68 1000.99 1056.34 1000.98L1056.27 985.206z" class="svgShape colorffffff-6 selectable"></path><path fill="#13161C" d="M1153.19 1072.45L1167.66 1072.66C1161.33 1095.96 1153.04 1119.82 1147.34 1142.9L1131.75 1143C1127.53 1126.07 1122.01 1108.89 1116.86 1092.17 1111.35 1108.24 1106.32 1126.27 1101.4 1142.65L1085.24 1142.83 1072.92 1100.2 1064.67 1072.81C1069.91 1072.66 1075.37 1072.66 1080.63 1072.6 1084.96 1089.78 1089.04 1105.98 1094.21 1122.93 1099.52 1107.38 1104.78 1088.68 1109.62 1072.77L1124.25 1072.74C1127.56 1086.71 1135.03 1108.57 1139.42 1122.91 1144.33 1106.79 1148.09 1087.79 1153.19 1072.45zM899.565 971.186C931.494 970.455 936.437 1006.27 925.403 1029.75 921.846 1037.33 914.729 1040.97 906.878 1042.98 865.494 1044.2 865.862 979.7 899.565 971.186z" class="svgShape color13161c-7 selectable"></path><path fill="#FFF" d="M 901.922 983.927 C 918.079 986.93 917.309 1008.04 913.267 1020.5 C 911.549 1025.79 908.679 1028 903.737 1030.26 C 886.266 1025.54 886.328 990.51 901.922 983.927 z" class="svgShape colorffffff-8 selectable"></path><path fill="#13161C" d="M 1195.47 1072.44 C 1200.61 1072.27 1205.9 1072.48 1211.05 1072.59 C 1220.26 1095 1231.27 1120.36 1239.32 1142.89 L 1223.39 1142.94 C 1219.33 1132.3 1221.83 1126.54 1208.4 1126.92 L 1186.88 1126.82 C 1184.8 1132.27 1182.5 1137.51 1180.19 1142.86 L 1164.35 1142.88 C 1167.69 1135.33 1193.27 1074.71 1195.47 1072.44 z" class="svgShape color13161c-9 selectable"></path><path fill="#FFF" d="M 1202.28 1088.72 C 1205.45 1092.3 1210.7 1109.01 1212.55 1114.49 C 1209.59 1114.66 1205.56 1114.56 1202.5 1114.58 L 1191.66 1114.18 C 1194.07 1107.04 1199.2 1095.95 1202.28 1088.72 z" class="svgShape colorffffff-10 selectable"></path><path fill="#13161C" d="M 890.852 1072.43 L 906.805 1072.31 L 935.417 1142.72 L 919.775 1142.76 C 915.408 1132.58 918.103 1127.14 905.48 1126.78 L 882.812 1126.82 L 876.094 1142.75 L 861.018 1142.6 C 868.25 1121.35 881.966 1094.15 890.852 1072.43 z" class="svgShape color13161c-11 selectable"></path><path fill="#FFF" d="M 898.082 1088.6 C 901.115 1092.2 907.092 1109.14 907.948 1114.05 C 905.886 1115.44 900.823 1114.73 897.75 1114.65 L 888.001 1114.06 C 891.459 1105.71 894.761 1097.02 898.082 1088.6 z" class="svgShape colorffffff-12 selectable"></path><path fill="#13161C" d="M 1138.25 972.395 C 1143.24 972.37 1148.52 972.52 1153.53 972.589 C 1161.57 994.714 1172.58 1019.61 1181.44 1041.92 L 1165.18 1042.02 C 1161.32 1029.21 1162.87 1025.61 1148.74 1025.92 L 1129.02 1025.79 C 1127.18 1031.45 1124.96 1036.56 1122.66 1042.04 L 1107 1041.88 C 1111.13 1032.58 1133.79 975.488 1138.25 972.395 z" class="svgShape color13161c-13 selectable"></path><path fill="#FFF" d="M 1144.39 988.646 C 1147.72 992.014 1153 1008.07 1153.84 1013.01 C 1151.98 1014.26 1146.55 1013.71 1143.75 1013.69 L 1134.38 1013.46 C 1137.4 1004.96 1140.88 996.938 1144.39 988.646 z" class="svgShape colorffffff-14 selectable"></path><path fill="#13161C" d="M820.233 1071.31C831.978 1070.75 841.024 1073.34 849.958 1081.03L842.058 1091.15C795.561 1066.03 787.102 1132.03 825.977 1130.5 828.964 1130.38 836.031 1128.62 837.937 1126.17 838.266 1122.83 838.711 1121.12 837.672 1117.91 831.742 1117.02 828.918 1116.87 826.86 1110.88 827.57 1105.21 827.84 1105.25 832.916 1104.35L851.557 1104.45C851.746 1115.22 851.988 1125.09 851.399 1135.86 789.372 1173.02 756.49 1080.78 820.233 1071.31zM1003.87 1072.75L1056.08 1072.77 1056.17 1086.12 1018.91 1085.89 1018.89 1101.34 1050.97 1101.29 1051.04 1114.04 1020.92 1114.01 1019.36 1114.68C1018.14 1118.8 1018.64 1125.17 1018.71 1129.67L1056.02 1129.77 1056.08 1142.95 1003.97 1142.92 1003.87 1072.75zM817.151 972.188C831.097 972.135 845.042 972.158 858.987 972.257L858.999 986.033 829.948 986.136C829.353 990.448 828.746 992.465 829.652 996.62 834.972 999.865 855.928 994.691 860.386 1008.46 865.606 1024.58 861.326 1035.86 845.307 1042.01 830.974 1044.87 822.168 1043.02 810.598 1034.67 812.881 1030.64 815.281 1027.45 817.975 1023.71 826.986 1029.74 849.455 1036.45 846.578 1016.87 844.368 1001.84 824.629 1015.96 815.874 1010.05 813.196 1003.97 816.439 980 817.151 972.188zM961.694 971.119C970.713 970.723 977.815 971.17 984.626 977.608 1003.18 995.148 975.582 1017.72 964.2 1028.78L993.004 1029.02 993.022 1042.06 958.5 1042.02C952.252 1042.04 946.502 1043.72 942.282 1038.57 940.521 1026.16 973.568 1007.85 974.678 995.455 976.462 975.537 955.16 987.924 948.588 992.359L941.212 982.39C948.951 975.961 951.65 973.8 961.694 971.119zM1285.08 1072.43C1290.28 1072.26 1295.81 1072.35 1301.04 1072.34 1293.15 1086.66 1284 1101.57 1275.63 1115.71L1275.64 1142.97 1260.29 1142.94 1260.12 1116.86 1255.33 1108.65C1248.28 1096.74 1241.42 1084.73 1234.73 1072.62L1250.32 1072.81C1256.15 1082.28 1262.12 1093.12 1267.73 1102.84 1272.77 1095.34 1280.51 1080.68 1285.08 1072.43zM932.416 1072.74C951.904 1072.47 971.395 1072.47 990.883 1072.76L990.976 1086.01 968.267 1086.07 968.187 1119.75 968.582 1142.85 953.814 1142.88C953.916 1124.03 953.89 1105.18 953.735 1086.33L932.702 1086.22 932.416 1072.74z" class="svgShape color13161c-15 selectable"></path><path fill="#035c4d" d="M 1087.57 632.289 L 1088.43 635.163 C 1094.71 637.902 1146.92 636.34 1157.36 636.155 L 1166.79 636.036 L 1177.55 636.147 C 1183.39 636.595 1189.97 636.963 1195.74 637.614 C 1201.34 639.54 1207.12 641.422 1212.61 643.62 L 1218.21 646.335 C 1252.13 672.306 1252.62 694.517 1252.86 734.3 L 1281.95 753.046 C 1280.92 773.391 1279.71 793.726 1278.32 814.049 C 1277.77 822.982 1277.2 840.219 1275.7 847.97 L 1252.94 835.396 C 1251.11 845.133 1253 889.955 1252.86 903.415 C 1243.15 903.836 1228.61 903.275 1218.55 903.2 L 820.804 903.212 C 777.806 903.638 726.519 905.324 683.842 903.664 C 682.102 904.755 681.441 904.614 681.245 907.098 C 679.968 923.259 681.548 942.042 680.948 958.035 C 674.152 948.506 663.572 918.593 658.408 905.814 C 662.315 899.131 664.67 891.656 665.299 883.942 C 666.467 869.612 661.61 855.445 651.897 844.846 C 642.183 834.247 628.492 828.176 614.115 828.093 C 651.174 805.503 696.798 774.93 734.248 754.825 C 751.344 744.615 768.514 734.528 785.756 724.565 C 785.627 699.115 786.642 679.55 804.882 659.449 C 813.273 650.106 824.081 643.261 836.114 639.669 C 850.972 635.38 873.295 636.956 889.187 636.746 C 915.087 636.404 941.981 637.591 967.85 636.408 C 981.612 636.474 1081.6 637.47 1087.02 635.417 L 1087.57 632.289 z" class="svgShape colorf7276f-16 selectable"></path><path fill="#3B83F4" d="M 1087.57 632.289 L 1088.43 635.163 C 1094.71 637.902 1146.92 636.34 1157.36 636.155 L 1166.79 636.036 L 1177.55 636.147 C 1183.39 636.595 1189.97 636.963 1195.74 637.614 C 1201.34 639.54 1207.12 641.422 1212.61 643.62 L 1218.21 646.335 C 1252.13 672.306 1252.62 694.517 1252.86 734.3 L 1281.95 753.046 C 1280.92 773.391 1279.71 793.726 1278.32 814.049 C 1277.77 822.982 1277.2 840.219 1275.7 847.97 L 1252.94 835.396 C 1251.11 845.133 1253 889.955 1252.86 903.415 C 1243.15 903.836 1228.61 903.275 1218.55 903.2 L 1218.23 778.38 C 1218.23 766.778 1218.38 755.058 1218.21 743.497 C 1217.89 721.623 1220.92 698.248 1204.37 680.954 C 1194.27 670.412 1183.22 667.425 1169.17 667.163 C 1146.03 666.732 1122.93 666.959 1099.81 666.966 L 968.688 666.965 L 897.636 666.945 C 886.363 666.945 865.705 665.727 855.747 668.129 C 819.95 676.763 818.969 709.526 820.43 739.345 C 820.95 749.959 820.554 760.747 820.592 770.611 L 820.804 903.212 C 777.806 903.638 726.519 905.324 683.842 903.664 C 682.102 904.755 681.441 904.614 681.245 907.098 C 679.968 923.259 681.548 942.042 680.948 958.035 C 674.152 948.506 663.572 918.593 658.408 905.814 C 662.315 899.131 664.67 891.656 665.299 883.942 C 666.467 869.612 661.61 855.445 651.897 844.846 C 642.183 834.247 628.492 828.176 614.115 828.093 C 651.174 805.503 696.798 774.93 734.248 754.825 C 751.344 744.615 768.514 734.528 785.756 724.565 C 785.627 699.115 786.642 679.55 804.882 659.449 C 813.273 650.106 824.081 643.261 836.114 639.669 C 850.972 635.38 873.295 636.956 889.187 636.746 C 915.087 636.404 941.981 637.591 967.85 636.408 C 981.612 636.474 1081.6 637.47 1087.02 635.417 L 1087.57 632.289 z" class="svgShape color3b83f4-17 selectable"></path><path fill="#FEC21D" d="M 614.115 828.093 C 651.174 805.503 696.798 774.93 734.248 754.825 C 747.905 779.676 761.184 804.733 774.08 829.988 C 762.056 835.98 669.182 883.804 665.299 883.942 C 666.467 869.612 661.61 855.445 651.897 844.846 C 642.183 834.247 628.492 828.176 614.115 828.093 z" class="svgShape colorfec21d-18 selectable"></path><path fill="#FFF" d="M 785.673 824.849 C 785.743 849.61 786.56 878.662 785.728 903.075 C 763.043 903.418 740.355 903.53 717.667 903.413 C 709.527 903.413 691.138 902.941 683.842 903.664 C 682.102 904.755 681.441 904.614 681.245 907.098 C 679.968 923.259 681.548 942.042 680.948 958.035 C 674.152 948.506 663.572 918.593 658.408 905.814 C 662.315 899.131 664.67 891.656 665.299 883.942 C 669.182 883.804 762.056 835.98 774.08 829.988 C 777.906 828.171 781.786 826.53 785.673 824.849 z" class="svgShape colorffffff-19 selectable"></path><path fill="#13161C" d="M785.756 724.565C785.897 752.987 787.442 796.976 785.673 824.849 781.786 826.53 777.906 828.171 774.08 829.988 761.184 804.733 747.905 779.676 734.248 754.825 751.344 744.615 768.514 734.528 785.756 724.565zM1252.86 734.3L1281.95 753.046C1280.92 773.391 1279.71 793.726 1278.32 814.049 1277.77 822.982 1277.2 840.219 1275.7 847.97L1252.94 835.396C1252.78 805.298 1251.29 763.769 1252.86 734.3z" class="svgShape color13161c-20 selectable"></path><path fill="#FFF" d="M 1009.56 694.19 C 1041.84 691.34 1068.12 702.95 1076.33 736.894 C 1084.64 771.27 1071.67 808.546 1033.77 817.142 C 999.092 821.711 971.413 809.25 963.708 772.974 C 955.936 736.38 971.011 702.248 1009.56 694.19 z" class="svgShape colorffffff-21 selectable"></path><path fill="#035c4d" d="M 1018.73 717.325 C 1057.77 718.388 1061.66 783.555 1023.46 793.35 C 1005.74 792.991 995.183 784.176 991.793 766.639 C 987.508 744.473 993.821 721.242 1018.73 717.325 z" class="svgShape colorf7276f-22 selectable"></path><path fill="#FFF" d="M860.105 697.091C883.255 696.289 909.121 696.649 932.3 696.89 933.056 705.123 932.909 711.738 932.152 719.912 916.155 720.327 900.152 720.435 884.151 720.235 883.941 726.528 883.265 733.699 882.81 740.052 896.285 739.109 908.351 738.792 920.909 745.468 939.612 755.412 944.327 780.556 933.554 798.051 927.213 808.349 917.828 813.814 906.188 816.715 893.125 819.572 848.553 818.602 846.052 801.794 847.881 795.004 853.114 789.49 857.614 784.081 869.541 791.743 878.909 795.313 893.506 794.049 904.377 793.108 912.464 786.923 910.2 775.069 906.165 753.941 864.713 767.076 856.168 760.632 854.074 754.158 859.396 707.673 860.105 697.091zM1133.55 694.187C1152.09 692.889 1171.07 694.513 1181.57 712.271 1200.18 743.729 1159.95 775.695 1138.78 793.441 1152.9 793.054 1178.37 792.83 1191.91 793.978 1192.29 801.408 1192.05 808.534 1191.89 815.964 1172.81 816.929 1152.26 816.581 1133.05 816.585 1122.49 816.687 1111.93 816.481 1101.39 815.967 1100.98 808.527 1101.17 803.15 1101.5 795.668 1115.41 778.863 1150.01 756.792 1157.63 735.225 1158.48 732.054 1158.33 726.876 1156.01 724.379 1141.73 709.022 1125.53 722.296 1114.2 730.693 1107.44 725.813 1102.1 721.232 1096.02 715.593 1106.12 703 1118.19 697.3 1133.55 694.187z" class="svgShape colorffffff-23 selectable"></path><path fill="#13161C" d="M 843.225 836.333 C 866.904 835.008 901.447 836.158 925.848 836.209 L 1079.07 836.217 L 1160.38 836.17 C 1170.23 836.148 1181.24 835.933 1191.14 836.044 C 1193.78 836.073 1194.42 838.565 1195.48 840.643 C 1186.9 841.786 1170.74 841.344 1161.29 841.33 L 1103.03 841.193 L 916.08 841.212 C 908.618 841.208 847.357 841.723 844.445 840.322 L 843.225 836.333 z" class="svgShape color13161c-24 selectable"></path><path fill="#FFF" d="M 1105.02 857.158 L 1126.16 857.013 C 1126.26 867.606 1126.26 878.2 1126.15 888.792 L 1105.12 888.86 L 1105.02 857.158 z" class="svgShape colorffffff-25 selectable"></path><path fill="#13161C" d="M996.669 858.145L1017.03 858.086 1017.16 889.124 996.524 889.149 996.669 858.145zM1038.02 858.323C1044.86 858.176 1052.02 858.383 1058.89 858.483L1058.95 889.108 1037.95 889.258 1038.02 858.323zM915.346 858.25L935.615 858.335C935.964 868.359 935.927 879.073 936.057 889.154L915.179 889.252C915.172 878.918 915.228 868.583 915.346 858.25zM956.555 858.568L976.677 858.485C976.799 868.7 976.737 878.917 976.489 889.131L956.436 889.201 956.555 858.568z" class="svgShape color13161c-26 selectable"></path><path fill="#3B83F4" d="M 785.284 1209.16 C 790.882 1209.26 816.082 1209.43 820.311 1210.39 C 820.086 1226.13 822.789 1240.34 833.981 1252.42 C 846.251 1265.67 863.329 1265.7 879.95 1265.79 L 1086.8 1265.9 L 1143.7 1265.99 C 1179.52 1266.03 1193.72 1269.55 1214.13 1235.35 C 1226.32 1236.31 1238.51 1237.2 1250.7 1238.03 C 1244.99 1259.13 1234.85 1276.48 1216.15 1288.8 C 1224.21 1307.51 1236.44 1329.91 1245.61 1348.73 C 1246.12 1349.78 1248.73 1355.3 1249.19 1356 C 1256.68 1373.83 1264.44 1391.53 1272.49 1409.11 C 1257.13 1401.1 1239.06 1400.07 1222.89 1406.29 C 1206.71 1412.51 1193.99 1425.37 1187.95 1441.61 C 1172.2 1414.4 1153.85 1382.11 1137.25 1355.78 C 1119.15 1356.94 1094.54 1356.16 1075.87 1356.11 L 971.773 1355.98 C 950.93 1355.97 928.078 1355.48 907.412 1356.44 C 904.665 1361.23 901.603 1366.27 899.26 1371.24 C 897.989 1373.51 895.866 1377.05 894.79 1379.28 C 892.059 1384.32 888.766 1390.05 886.24 1395.12 L 881.404 1403.49 C 878.922 1407.9 876.393 1412.26 874.125 1416.78 L 867.985 1427.09 L 860.672 1439.13 L 860.204 1439.19 C 860.649 1440.24 861.063 1441.31 861.447 1442.39 C 862.353 1444.94 863.085 1447.55 863.638 1450.2 C 868.724 1474.55 858.238 1499.51 837.287 1512.93 C 823.401 1521.82 806.465 1524.6 790.466 1520.61 C 774.467 1516.62 760.819 1506.21 752.734 1491.84 C 737.116 1464.08 745.941 1428.95 772.827 1411.87 C 773.206 1408.98 781.376 1390.75 783.143 1386.41 C 782.791 1386.26 782.439 1386.11 782.087 1385.97 C 750.926 1360.71 733.962 1305.84 752.329 1269.03 C 758.958 1255.75 774.6 1231.41 785.334 1227.51 C 784.891 1222.22 785.208 1214.68 785.284 1209.16 z" class="svgShape color3b83f4-27 selectable"></path><path fill="#FEC21D" d="M 785.334 1227.51 L 785.888 1233.63 C 787.585 1241.57 789.877 1249.38 792.743 1256.98 L 794.786 1261.04 C 805.406 1277.11 811.344 1282.69 828.153 1292.42 L 833.003 1294.65 C 852.936 1306.66 895.246 1323.49 918.704 1334.97 L 911.468 1349.18 L 907.412 1356.44 C 904.665 1361.23 901.603 1366.27 899.26 1371.24 C 897.989 1373.51 895.866 1377.05 894.79 1379.28 C 892.059 1384.32 888.766 1390.05 886.24 1395.12 L 881.404 1403.49 C 878.922 1407.9 876.393 1412.26 874.125 1416.78 L 867.985 1427.09 L 860.672 1439.13 L 860.204 1439.19 C 860.649 1440.24 861.063 1441.31 861.447 1442.39 C 862.353 1444.94 863.085 1447.55 863.638 1450.2 C 868.724 1474.55 858.238 1499.51 837.287 1512.93 C 823.401 1521.82 806.465 1524.6 790.466 1520.61 C 774.467 1516.62 760.819 1506.21 752.734 1491.84 C 737.116 1464.08 745.941 1428.95 772.827 1411.87 C 773.206 1408.98 781.376 1390.75 783.143 1386.41 C 782.791 1386.26 782.439 1386.11 782.087 1385.97 C 750.926 1360.71 733.962 1305.84 752.329 1269.03 C 758.958 1255.75 774.6 1231.41 785.334 1227.51 z" class="svgShape colorfec21d-28 selectable"></path><path fill="#035c4d" d="M 772.827 1411.87 C 787.716 1402.41 806.018 1399.99 822.855 1405.25 C 839.693 1410.52 853.356 1422.93 860.204 1439.19 C 860.649 1440.24 861.063 1441.31 861.447 1442.39 C 862.353 1444.94 863.085 1447.55 863.638 1450.2 C 868.724 1474.55 858.238 1499.51 837.287 1512.93 C 823.401 1521.82 806.465 1524.6 790.466 1520.61 C 774.467 1516.62 760.819 1506.21 752.734 1491.84 C 737.116 1464.08 745.941 1428.95 772.827 1411.87 z" class="svgShape colorf7276f-29 selectable"></path><path fill="#13161C" d="M 800.044 1429.42 C 817.966 1426.8 834.665 1439.07 837.521 1456.96 C 840.377 1474.84 828.329 1491.7 810.483 1494.8 C 798.727 1496.83 786.785 1492.39 779.224 1483.16 C 771.663 1473.93 769.654 1461.34 773.964 1450.22 C 778.275 1439.09 788.239 1431.15 800.044 1429.42 z" class="svgShape color13161c-30 selectable"></path><path fill="#FFF" d="M 785.334 1227.51 L 785.888 1233.63 C 787.585 1241.57 789.877 1249.38 792.743 1256.98 L 794.786 1261.04 C 805.406 1277.11 811.344 1282.69 828.153 1292.42 C 818.671 1306.77 805.619 1336.97 797.667 1353.44 L 793.998 1361.97 C 791.42 1367.8 788.772 1374.07 785.963 1379.75 L 783.143 1386.41 C 782.791 1386.26 782.439 1386.11 782.087 1385.97 C 750.926 1360.71 733.962 1305.84 752.329 1269.03 C 758.958 1255.75 774.6 1231.41 785.334 1227.51 z" class="svgShape colorffffff-31 selectable"></path><path fill="#FFF" d="M 794.786 1261.04 C 805.406 1277.11 811.344 1282.69 828.153 1292.42 C 818.671 1306.77 805.619 1336.97 797.667 1353.44 C 782.35 1336.21 776.089 1313.49 781.685 1290.77 C 784.259 1280.32 790.088 1270.71 794.786 1261.04 z" class="svgShape colorffffff-32 selectable"></path><path fill="#E0E0E5" d="M 785.334 1227.51 L 785.888 1233.63 C 773.235 1250.33 759.151 1267.43 754.59 1288.38 C 747.452 1321.17 763.461 1356.48 785.963 1379.75 L 783.143 1386.41 C 782.791 1386.26 782.439 1386.11 782.087 1385.97 C 750.926 1360.71 733.962 1305.84 752.329 1269.03 C 758.958 1255.75 774.6 1231.41 785.334 1227.51 z" class="svgShape colore0e0e5-33 selectable"></path><path fill="#E0E0E5" d="M 792.743 1256.98 L 794.786 1261.04 C 790.088 1270.71 784.259 1280.32 781.685 1290.77 C 776.089 1313.49 782.35 1336.21 797.667 1353.44 L 793.998 1361.97 C 769.718 1343.37 764.246 1294.81 780.462 1270.05 C 783.509 1265.4 787.259 1258.41 792.743 1256.98 z" class="svgShape colore0e0e5-34 selectable"></path><path fill="#13161C" d="M 1105.21 1300.15 C 1112.17 1297.01 1176.18 1301.2 1189.54 1297.96 C 1202.93 1294.72 1201.67 1295.57 1216.15 1288.8 C 1224.21 1307.51 1236.44 1329.91 1245.61 1348.73 C 1246.12 1349.78 1248.73 1355.3 1249.19 1356 C 1256.68 1373.83 1264.44 1391.53 1272.49 1409.11 C 1257.13 1401.1 1239.06 1400.07 1222.89 1406.29 C 1206.71 1412.51 1193.99 1425.37 1187.95 1441.61 C 1172.2 1414.4 1153.85 1382.11 1137.25 1355.78 L 1132.71 1348.05 C 1124.71 1332.79 1113.91 1315.71 1105.21 1300.15 z" class="svgShape color13161c-35 selectable"></path><path fill="#FFF" d="M 938.814 1300.15 C 942.901 1298.08 1102.3 1298.43 1105.21 1300.15 C 1113.91 1315.71 1124.71 1332.79 1132.71 1348.05 L 1137.25 1355.78 C 1119.15 1356.94 1094.54 1356.16 1075.87 1356.11 L 971.773 1355.98 C 950.93 1355.97 928.078 1355.48 907.412 1356.44 L 911.468 1349.18 L 918.704 1334.97 C 925.582 1323.47 932.286 1311.86 938.814 1300.15 z" class="svgShape colorffffff-36 selectable"></path><path fill="#E0E0E5" d="M 1132.71 1348.05 L 1137.25 1355.78 C 1119.15 1356.94 1094.54 1356.16 1075.87 1356.11 L 971.773 1355.98 C 950.93 1355.97 928.078 1355.48 907.412 1356.44 L 911.468 1349.18 C 931.17 1347.79 956.561 1348.32 976.56 1348.28 L 1088.15 1348.28 C 1094.15 1348.28 1128.79 1349.26 1132.71 1348.05 z" class="svgShape colore0e0e5-37 selectable"></path><path fill="#13161C" d="M 833.003 1294.65 C 860.923 1302.59 886.312 1297.98 915.213 1298.97 C 920.949 1299.17 934.035 1298.31 938.814 1300.15 C 932.286 1311.86 925.582 1323.47 918.704 1334.97 C 895.246 1323.49 852.936 1306.66 833.003 1294.65 z" class="svgShape color13161c-38 selectable"></path><path fill="#035c4d" d="M 614.115 828.093 C 628.492 828.176 642.183 834.247 651.897 844.846 C 661.61 855.445 666.467 869.612 665.299 883.942 C 664.67 891.656 662.315 899.131 658.408 905.814 C 663.572 918.593 674.152 948.506 680.948 958.035 L 680.521 960.236 C 671.509 955.872 656.858 943.138 646.891 954.002 C 641.141 968.123 661.781 980.059 659.455 994.729 C 658.875 998.394 658.842 1007.94 658.916 1011.88 L 690.05 1011.58 C 697.725 1011.78 706.023 1011.38 713.575 1011.96 C 733.803 1013.51 740.727 1024.03 725.963 1039.35 C 731.832 1041.56 735.12 1042.62 737.882 1048.51 C 741.068 1055.3 739 1062.6 731.829 1065.59 C 729.992 1066.36 728.062 1066.88 726.088 1067.14 L 726.265 1070.09 C 735.836 1083.04 727.767 1093.02 713.442 1093.24 L 712.562 1097.11 C 720.49 1107.41 720.265 1113.92 708.238 1120.42 C 702.05 1119.68 687.761 1119.9 680.972 1119.81 C 671.561 1119.69 663.989 1119.59 654.582 1118.67 C 641.705 1107.33 626.261 1079.21 628.28 1063.07 C 631.9 1034.13 624.214 1024.13 613.513 997.109 L 583.8 921.779 C 565.482 908.698 557.744 885.259 564.674 863.843 C 571.604 842.426 591.606 827.963 614.115 828.093 z" class="svgShape colorf7276f-39 selectable"></path><path fill="#3B83F4" d="M 614.115 828.093 C 628.492 828.176 642.183 834.247 651.897 844.846 C 661.61 855.445 666.467 869.612 665.299 883.942 C 664.67 891.656 662.315 899.131 658.408 905.814 C 651.082 918.345 638.821 927.216 624.626 930.253 C 610.431 933.291 595.614 930.215 583.8 921.779 C 565.482 908.698 557.744 885.259 564.674 863.843 C 571.604 842.426 591.606 827.963 614.115 828.093 z" class="svgShape color3b83f4-40 selectable"></path><path fill="#13161C" d="M605.063 849.476C621.006 846.562 636.288 857.141 639.175 873.089 642.061 889.038 631.456 904.301 615.503 907.16 599.588 910.013 584.37 899.439 581.49 883.529 578.611 867.62 589.158 852.383 605.063 849.476zM726.265 1070.09C704.955 1070.08 683.339 1070.14 662.018 1069.87 658.972 1069.83 658 1069.67 656.314 1067.87 657.053 1066.73 658.206 1065.29 659.745 1065.34 672.132 1065.75 717.7 1062.34 726.088 1067.14L726.265 1070.09zM712.562 1097.11C696.075 1096.98 679.49 1096.99 663.003 1096.95 659.462 1096.95 659.004 1096.9 657.256 1094.95L658.495 1093.23C664.377 1091.4 705.238 1092.16 713.442 1093.24L712.562 1097.11zM656.923 1037.39C664.106 1036.03 718.745 1036.29 725.438 1037.84L727.103 1040.55C719.34 1041.45 664.65 1042.05 658.472 1040.34L656.923 1037.39z" class="svgShape color13161c-41 selectable"></path><path fill="#035c4d" d="M 820.311 1210.39 L 895.982 1215.19 L 896.121 1241.54 L 918.149 1241.83 L 918.38 1217.3 L 939.028 1218.22 L 938.99 1241.96 L 960.959 1241.99 L 960.961 1219.95 C 968.676 1220.15 975.434 1220.28 983.095 1221.15 L 982.958 1241.43 C 990.391 1241.67 997.847 1241.99 1005.28 1241.83 C 1005.29 1235.54 1005.19 1228.91 1005.35 1222.65 C 1012.28 1222.85 1021.3 1222.87 1028.04 1223.45 L 1028.04 1241.83 L 1049.78 1241.93 L 1049.48 1225.15 C 1057.5 1225.75 1067.45 1226.77 1075.33 1227.01 C 1083.57 1215.89 1091.65 1217.85 1098.76 1228.47 C 1102.77 1228.68 1113.75 1229.04 1117.36 1229.63 C 1126.16 1217.19 1134.15 1216.56 1141.81 1230.35 L 1214.13 1235.35 C 1193.72 1269.55 1179.52 1266.03 1143.7 1265.99 L 1086.8 1265.9 L 879.95 1265.79 C 863.329 1265.7 846.251 1265.67 833.981 1252.42 C 822.789 1240.34 820.086 1226.13 820.311 1210.39 z" class="svgShape colorf7276f-42 selectable"></path><path fill="#3B83F4" d="M1075.33 1227.01C1083.57 1215.89 1091.65 1217.85 1098.76 1228.47 1092.54 1245.27 1076.18 1244.31 1075.33 1227.01zM1117.36 1229.63C1126.16 1217.19 1134.15 1216.56 1141.81 1230.35 1133.8 1243.97 1123.57 1245.67 1117.36 1229.63z" class="svgShape color3b83f4-43 selectable"></path><path fill="#FFF" d="M 1252.94 835.396 L 1275.7 847.97 C 1292.71 858.588 1309.86 868.982 1327.15 879.151 C 1336.38 884.66 1349.31 891.817 1357.66 898.154 L 1360.78 903.315 C 1327.94 904.837 1286.42 903.552 1252.86 903.415 C 1253 889.955 1251.11 845.133 1252.94 835.396 z" class="svgShape colorffffff-44 selectable"></path><path fill="#3B83F4" d="M 921.198 400.001 C 919.987 378.584 929.794 378.743 947.877 375.936 C 986.166 369.992 1024.41 363.653 1062.71 357.8 C 1079.12 355.292 1087.26 355.673 1089.44 374.349 C 1143.4 368.05 1144.27 356.592 1153.95 415.964 C 1199.07 408.756 1172.04 435.676 1187.88 436.046 C 1194.68 437.773 1196.72 438.361 1200.03 444.831 C 1209.96 447.8 1224.37 466.181 1229.09 475.066 C 1243.82 502.961 1246.75 535.603 1237.21 565.674 C 1230.74 586.254 1210.29 621.312 1195.74 637.614 C 1189.97 636.963 1183.39 636.595 1177.55 636.147 L 1166.79 636.036 L 1157.36 636.155 C 1146.92 636.34 1094.71 637.902 1088.43 635.163 L 1087.57 632.289 L 1087.02 635.417 C 1081.6 637.47 981.612 636.474 967.85 636.408 C 967.737 627.05 967.497 617.695 967.129 608.345 C 954.418 609.969 914.912 620.079 905.534 612.941 C 894.863 604.819 894.152 582.995 892.36 570.621 C 867.473 574.571 866.279 575.713 862.861 550.05 C 858.546 550.12 854.181 550.701 850.92 547.743 C 844.177 541.624 843.085 519.284 841.527 509.75 L 840.244 501.754 C 839.751 491.243 843.839 490.271 852.005 485.887 C 852.702 481.178 848.852 470.786 852.37 463.011 C 857.177 458.387 867.467 458.006 874.222 457.111 C 872.639 449.627 869.298 429.073 869.135 421.86 L 873.082 413.84 C 887.076 401.782 916.217 406.237 921.198 400.001 z" class="svgShape color3b83f4-45 selectable"></path><path fill="#FFF" d="M 1200.03 444.831 C 1209.96 447.8 1224.37 466.181 1229.09 475.066 C 1243.82 502.961 1246.75 535.603 1237.21 565.674 C 1230.74 586.254 1210.29 621.312 1195.74 637.614 C 1189.97 636.963 1183.39 636.595 1177.55 636.147 L 1166.79 636.036 L 1157.36 636.155 C 1146.92 636.34 1094.71 637.902 1088.43 635.163 L 1087.57 632.289 C 1088.02 623.066 1087.72 611.529 1087.74 602.133 C 1087.93 598.041 1087.86 593.28 1087.9 589.127 C 1111.8 584.603 1136.15 582.358 1159.82 576.817 C 1183.65 571.238 1174.01 546.985 1170.68 529.606 C 1192.72 526.017 1196.3 525.503 1193.2 502.357 L 1199.13 501.564 L 1201.21 500.312 C 1211.47 491.193 1202.92 467.773 1201.54 453.951 C 1201.24 453.103 1200.23 446.143 1200.03 444.831 z" class="svgShape colorffffff-46 selectable"></path><path fill="#FFF" d="M 1200.03 444.831 C 1209.96 447.8 1224.37 466.181 1229.09 475.066 C 1243.82 502.961 1246.75 535.603 1237.21 565.674 C 1230.74 586.254 1210.29 621.312 1195.74 637.614 C 1189.97 636.963 1183.39 636.595 1177.55 636.147 L 1166.79 636.036 L 1157.36 636.155 C 1159.55 631.877 1166.3 623.36 1169.5 619.357 C 1196.9 585.17 1216.41 545.812 1199.13 501.564 L 1201.21 500.312 C 1211.47 491.193 1202.92 467.773 1201.54 453.951 C 1201.24 453.103 1200.23 446.143 1200.03 444.831 z" class="svgShape colorffffff-47 selectable"></path><path fill="#E0E0E5" d="M 1200.03 444.831 C 1209.96 447.8 1224.37 466.181 1229.09 475.066 C 1243.82 502.961 1246.75 535.603 1237.21 565.674 C 1230.74 586.254 1210.29 621.312 1195.74 637.614 C 1189.97 636.963 1183.39 636.595 1177.55 636.147 C 1181.03 635.986 1187.32 636.45 1189.23 633.676 C 1202.99 613.948 1215.58 595.413 1225.06 573.127 C 1241.49 534.486 1235.33 481.964 1201.54 453.951 C 1201.24 453.103 1200.23 446.143 1200.03 444.831 z" class="svgShape colore0e0e5-48 selectable"></path><path fill="#E0E0E5" d="M 1199.13 501.564 L 1201.21 500.312 C 1204.64 501.353 1207.17 502.338 1208.61 505.973 C 1227.44 553.617 1197.08 601.474 1166.79 636.036 L 1157.36 636.155 C 1159.55 631.877 1166.3 623.36 1169.5 619.357 C 1196.9 585.17 1216.41 545.812 1199.13 501.564 z" class="svgShape colore0e0e5-49 selectable"></path><path fill="#13161C" d="M 967.129 608.345 C 1005.88 601.298 1048.3 595.288 1087.3 589.197 L 1087.74 602.133 C 1087.72 611.529 1088.02 623.066 1087.57 632.289 L 1087.02 635.417 C 1081.6 637.47 981.612 636.474 967.85 636.408 C 967.737 627.05 967.497 617.695 967.129 608.345 z" class="svgShape color13161c-50 selectable"></path><path fill="#F7276F" d="M 1153.95 415.964 C 1199.07 408.756 1172.04 435.676 1187.88 436.046 C 1194.68 437.773 1196.72 438.361 1200.03 444.831 C 1200.23 446.143 1201.24 453.103 1201.54 453.951 C 1202.92 467.773 1211.47 491.193 1201.21 500.312 L 1199.13 501.564 L 1193.2 502.357 C 1196.3 525.503 1192.72 526.017 1170.68 529.606 C 1164.89 492.395 1160.34 452.748 1153.95 415.964 z" class="svgShape colorf7276f-51 selectable"></path><path fill="#13161C" d="M 1193.2 502.357 C 1191.33 492.494 1182.73 443.377 1184.89 437.132 L 1187.88 436.046 C 1194.68 437.773 1196.72 438.361 1200.03 444.831 C 1200.23 446.143 1201.24 453.103 1201.54 453.951 C 1202.92 467.773 1211.47 491.193 1201.21 500.312 L 1199.13 501.564 L 1193.2 502.357 z" class="svgShape color13161c-52 selectable"></path><path fill="#F7276F" d="M 852.005 485.887 C 852.702 481.178 848.852 470.786 852.37 463.011 C 857.177 458.387 867.467 458.006 874.222 457.111 C 880.006 491.926 888.15 536.097 892.36 570.621 C 867.473 574.571 866.279 575.713 862.861 550.05 C 858.546 550.12 854.181 550.701 850.92 547.743 C 844.177 541.624 843.085 519.284 841.527 509.75 L 840.244 501.754 C 839.751 491.243 843.839 490.271 852.005 485.887 z" class="svgShape colorf7276f-53 selectable"></path><path fill="#13161C" d="M852.005 485.887C854.843 495.073 862.049 540.365 862.861 550.05 858.546 550.12 854.181 550.701 850.92 547.743 844.177 541.624 843.085 519.284 841.527 509.75L840.244 501.754C839.751 491.243 843.839 490.271 852.005 485.887zM921.198 400.001C919.987 378.584 929.794 378.743 947.877 375.936 986.166 369.992 1024.41 363.653 1062.71 357.8 1079.12 355.292 1087.26 355.673 1089.44 374.349 1072.12 377.031 925.315 401.672 921.198 400.001z" class="svgShape color13161c-54 selectable"></path><path fill="#FFF" d="M 1082.11 434.584 C 1109.03 430.006 1134.6 448.008 1139.36 474.892 C 1144.13 501.777 1126.3 527.469 1099.45 532.419 C 1072.34 537.419 1046.34 519.381 1041.53 492.231 C 1036.71 465.082 1054.93 439.207 1082.11 434.584 z" class="svgShape colorffffff-55 selectable"></path><path fill="#13161C" d="M 1086.43 466.338 C 1096 463.954 1105.71 469.716 1108.2 479.262 C 1110.69 488.807 1105.04 498.581 1095.53 501.182 C 1089.27 502.892 1082.59 501.108 1078.01 496.513 C 1073.44 491.917 1071.69 485.219 1073.43 478.975 C 1075.17 472.731 1080.14 467.904 1086.43 466.338 z" class="svgShape color13161c-56 selectable"></path><path fill="#FFF" d="M 954.545 453.355 C 981.907 451.757 1005.39 472.621 1007.03 499.98 C 1008.67 527.339 987.843 550.857 960.486 552.538 C 933.071 554.222 909.491 533.339 907.849 505.921 C 906.207 478.503 927.125 454.955 954.545 453.355 z" class="svgShape colorffffff-57 selectable"></path><path fill="#13161C" d="M 952.89 485.405 C 962.68 483.006 972.559 489.01 974.936 498.806 C 977.314 508.602 971.287 518.467 961.486 520.823 C 951.716 523.171 941.889 517.167 939.519 507.403 C 937.149 497.638 943.13 487.797 952.89 485.405 z" class="svgShape color13161c-58 selectable"></path><path fill="#FFF" d="M 752.734 1491.84 C 760.819 1506.21 774.467 1516.62 790.466 1520.61 C 806.465 1524.6 823.401 1521.82 837.287 1512.93 L 831.103 1538.97 L 828.513 1546.87 L 799.286 1637.04 C 794.877 1650.61 787.966 1673.74 782.638 1686.18 C 780.679 1684.81 778.698 1683.48 776.695 1682.18 C 755.999 1668.81 734.585 1666.43 710.814 1671.6 C 692.555 1676.22 679.584 1683.54 666.231 1696.76 L 659.306 1705.15 C 655.042 1711.3 651.412 1717.87 648.472 1724.76 L 645.523 1732.84 C 642.843 1731.89 624.158 1732.82 619.284 1732.83 C 617.54 1723.06 618.119 1707.54 618.204 1697.23 C 618.313 1680.28 618.526 1663.34 618.84 1646.39 C 625.103 1645.41 631.864 1645.39 638.227 1645.18 C 638.682 1633.59 638.871 1613.54 638.557 1602.95 C 637.061 1552.53 638.159 1535.95 694.33 1538.39 C 705.81 1538.88 727.837 1538.35 740.669 1538.4 C 742.873 1528.96 749.238 1499.45 752.734 1491.84 z" class="svgShape colorffffff-59 selectable"></path><path fill="#FEC21D" d="M 752.734 1491.84 C 760.819 1506.21 774.467 1516.62 790.466 1520.61 C 806.465 1524.6 823.401 1521.82 837.287 1512.93 L 831.103 1538.97 L 828.513 1546.87 L 799.286 1637.04 C 794.877 1650.61 787.966 1673.74 782.638 1686.18 C 780.679 1684.81 778.698 1683.48 776.695 1682.18 C 755.999 1668.81 734.585 1666.43 710.814 1671.6 C 720.418 1630.12 729.757 1588.58 738.831 1546.99 C 739.092 1545.08 740.221 1540.47 740.669 1538.4 C 742.873 1528.96 749.238 1499.45 752.734 1491.84 z" class="svgShape colorfec21d-60 selectable"></path><path fill="#E0E0E5" d="M 638.227 1645.18 C 638.682 1633.59 638.871 1613.54 638.557 1602.95 C 637.061 1552.53 638.159 1535.95 694.33 1538.39 C 705.81 1538.88 727.837 1538.35 740.669 1538.4 C 740.221 1540.47 739.092 1545.08 738.831 1546.99 C 715.121 1546.6 689.988 1545.61 666.432 1547.39 C 642.84 1549.17 646.796 1579.37 646.845 1595.72 L 646.998 1644.91 C 652.571 1644.89 657.736 1644.41 662.94 1646.17 C 669.941 1653.47 662.72 1691.46 666.231 1696.76 L 659.306 1705.15 C 655.042 1711.3 651.412 1717.87 648.472 1724.76 L 645.523 1732.84 C 642.843 1731.89 624.158 1732.82 619.284 1732.83 C 617.54 1723.06 618.119 1707.54 618.204 1697.23 C 618.313 1680.28 618.526 1663.34 618.84 1646.39 C 625.103 1645.41 631.864 1645.39 638.227 1645.18 z" class="svgShape colore0e0e5-61 selectable"></path><path fill="#FFF" d="M 626.616 1654.02 L 656.088 1654.01 C 656.119 1663.1 654.781 1699.47 659.306 1705.15 C 655.042 1711.3 651.412 1717.87 648.472 1724.76 C 642.167 1723.96 633.075 1724.07 626.488 1723.96 C 626.364 1700.65 626.406 1677.34 626.616 1654.02 z" class="svgShape colorffffff-62 selectable"></path><path fill="#FEC21D" d="M 1424.44 695.387 L 1432.06 702.149 C 1447.47 713.997 1460.21 717.981 1479.62 716.717 C 1477.55 730.13 1457.07 847.146 1453.59 853.962 C 1456.28 863.84 1457.75 870.242 1456.84 880.531 C 1454.38 908.23 1427.73 930.168 1400.09 925.348 C 1395.18 924.492 1389.96 923.812 1384.96 923.017 C 1383.31 925.789 1383.8 928.105 1383.9 931.41 L 1383.21 931.115 C 1383.53 921.197 1383.76 914.222 1383 904.274 C 1374.67 903.089 1369.25 903.245 1360.78 903.315 L 1357.66 898.154 C 1348.93 870.62 1353.1 854.35 1373.32 833.611 C 1376.06 827.607 1377.29 822.993 1379.14 816.671 C 1394.79 777.388 1408.97 735.357 1424.44 695.387 z" class="svgShape colorfec21d-63 selectable"></path><path fill="#3B83F4" d="M 1373.32 833.611 C 1402.33 817.087 1435.97 819.977 1452.66 852.087 C 1452.98 852.707 1453.29 853.332 1453.59 853.962 C 1456.28 863.84 1457.75 870.242 1456.84 880.531 C 1454.38 908.23 1427.73 930.168 1400.09 925.348 C 1395.18 924.492 1389.96 923.812 1384.96 923.017 C 1383.31 925.789 1383.8 928.105 1383.9 931.41 L 1383.21 931.115 C 1383.53 921.197 1383.76 914.222 1383 904.274 C 1374.67 903.089 1369.25 903.245 1360.78 903.315 L 1357.66 898.154 C 1348.93 870.62 1353.1 854.35 1373.32 833.611 z" class="svgShape color3b83f4-64 selectable"></path><path fill="#13161C" d="M 1404.47 848.085 C 1420.38 846.191 1434.82 857.547 1436.73 873.458 C 1438.64 889.369 1427.3 903.818 1411.39 905.741 C 1395.46 907.666 1380.99 896.306 1379.08 880.374 C 1377.17 864.443 1388.54 849.982 1404.47 848.085 z" class="svgShape color13161c-65 selectable"></path><path fill="#035c4d" d="M 1187.95 1441.61 C 1193.99 1425.37 1206.71 1412.51 1222.89 1406.29 C 1239.06 1400.07 1257.13 1401.1 1272.49 1409.11 C 1286.82 1416.58 1297.56 1429.48 1302.3 1444.92 C 1307.05 1460.36 1305.42 1477.07 1297.76 1491.29 C 1302.15 1506.97 1304.58 1523.05 1307.99 1538.94 C 1309.25 1544.82 1310.51 1553.91 1312.68 1559.25 C 1308.24 1562.34 1244.2 1578.7 1233.01 1581.74 C 1229.93 1567.76 1217.84 1527.63 1213.51 1514.49 C 1188.55 1499.53 1177.8 1468.89 1187.95 1441.61 z" class="svgShape colorf7276f-66 selectable"></path><path fill="#13161C" d="M1297.76 1491.29C1302.15 1506.97 1304.58 1523.05 1307.99 1538.94 1309.25 1544.82 1310.51 1553.91 1312.68 1559.25 1308.24 1562.34 1244.2 1578.7 1233.01 1581.74 1229.93 1567.76 1217.84 1527.63 1213.51 1514.49 1227.67 1522.97 1244.69 1525.3 1260.6 1520.91 1276.51 1516.53 1289.94 1505.83 1297.76 1491.29zM1241.39 1429.18C1259.47 1427.51 1275.55 1440.65 1277.5 1458.7 1279.45 1476.75 1266.55 1493.03 1248.53 1495.25 1236.62 1496.71 1224.86 1491.66 1217.73 1482.01 1210.61 1472.37 1209.23 1459.63 1214.13 1448.69 1219.04 1437.74 1229.45 1430.29 1241.39 1429.18zM1263.41 1686.92C1288.42 1670.08 1303.43 1667.91 1333.27 1670.29L1333.78 1670.7C1356.63 1673.95 1372.24 1682.91 1389.29 1697.99 1402.68 1711.35 1408.13 1722.3 1413.99 1740.03 1415.59 1749.23 1416.83 1757.42 1417.21 1766.76 1355.44 1767.74 1293.66 1767.62 1231.89 1766.42 1231.92 1756.92 1231.89 1749.46 1232.94 1739.97 1238.26 1716.06 1246.12 1704 1263.41 1686.92z" class="svgShape color13161c-67 selectable"></path><path fill="#3B83F4" d="M 1413.99 1740.03 C 1415.59 1749.23 1416.83 1757.42 1417.21 1766.76 C 1355.44 1767.74 1293.66 1767.62 1231.89 1766.42 C 1231.92 1756.92 1231.89 1749.46 1232.94 1739.97 L 1351.59 1740.11 C 1370.2 1740.11 1395.93 1740.94 1413.99 1740.03 z" class="svgShape color3b83f4-68 selectable"></path><path fill="#F7276F" d="M 1333.78 1670.7 C 1356.63 1673.95 1372.24 1682.91 1389.29 1697.99 L 1384.74 1708.08 C 1369.06 1693.07 1355.98 1686.19 1334.78 1682.46 C 1334.57 1678.62 1334.12 1674.55 1333.78 1670.7 z" class="svgShape colorf7276f-69 selectable"></path><path fill="#13161C" d="M 710.814 1671.6 C 734.585 1666.43 755.999 1668.81 776.695 1682.18 C 778.698 1683.48 780.679 1684.81 782.638 1686.18 C 800.341 1703.56 806.79 1715.8 812.004 1739.98 C 812.846 1749.15 812.911 1756.95 813.006 1766.12 L 642.918 1766.13 C 642.905 1757.46 643.035 1748.77 644.426 1740.19 L 645.523 1732.84 L 648.472 1724.76 C 651.412 1717.87 655.042 1711.3 659.306 1705.15 L 666.231 1696.76 C 679.584 1683.54 692.555 1676.22 710.814 1671.6 z" class="svgShape color13161c-70 selectable"></path><path fill="#035c4d" d="M 644.426 1740.19 L 755.038 1740 C 772.918 1740 794.378 1740.59 812.004 1739.98 C 812.846 1749.15 812.911 1756.95 813.006 1766.12 L 642.918 1766.13 C 642.905 1757.46 643.035 1748.77 644.426 1740.19 z" class="svgShape colorf7276f-71 selectable"></path><path fill="#13161C" d="M 1472.89 617.377 C 1484.86 605.068 1498.36 588.894 1512.25 578.632 C 1519.51 573.265 1528.69 575.251 1530.94 584.601 C 1532.37 590.563 1531.23 591.455 1528.47 596.952 C 1547 593.735 1550.15 605.885 1542.24 619.988 C 1576.47 625.185 1539.81 658.904 1529.42 670.668 L 1521.48 681.243 C 1508.63 698.708 1501.32 709.672 1479.62 716.717 C 1460.21 717.981 1447.47 713.997 1432.06 702.149 L 1424.44 695.387 C 1406.61 675.231 1416.13 657.741 1411.08 635.554 C 1409.21 626.959 1398.18 620.184 1398.18 611.4 C 1398.17 601.994 1408.85 599.107 1416.42 600.062 C 1432.88 601.872 1436.57 618.128 1444.39 629.465 C 1451.86 640.28 1467.12 622.807 1472.89 617.377 z" class="svgShape color13161c-72 selectable"></path><path fill="#035c4d" d="M 1432.06 702.149 C 1432.58 699.575 1432.96 698.214 1433.98 695.735 C 1438.93 683.91 1448.4 674.555 1460.29 669.75 C 1486.81 658.734 1496.74 670.839 1517.69 679.669 L 1519.48 680.404 L 1521.48 681.243 C 1508.63 698.708 1501.32 709.672 1479.62 716.717 C 1460.21 717.981 1447.47 713.997 1432.06 702.149 z" class="svgShape colorf7276f-73 selectable"></path><path fill="#3B83F4" d="M 1528.47 596.952 C 1547 593.735 1550.15 605.885 1542.24 619.988 C 1576.47 625.185 1539.81 658.904 1529.42 670.668 C 1525.51 665.88 1517.58 658.88 1512.4 655.481 L 1513.62 653.753 L 1512.06 653.578 L 1510.66 651.796 C 1507.98 651.161 1497.07 639.543 1494.32 636.764 C 1499.91 630.47 1527.68 601.565 1528.47 596.952 z" class="svgShape color3b83f4-74 selectable"></path><path fill="#3B83F4" d="M 1542.24 619.988 C 1576.47 625.185 1539.81 658.904 1529.42 670.668 C 1525.51 665.88 1517.58 658.88 1512.4 655.481 L 1513.62 653.753 C 1519.43 648.232 1540.61 626.073 1542.24 619.988 z" class="svgShape color3b83f4-75 selectable"></path><path fill="#13161C" d="M 1542.24 619.988 C 1540.61 626.073 1519.43 648.232 1513.62 653.753 L 1512.06 653.578 L 1510.66 651.796 C 1514.04 646.33 1536.4 623.031 1542.24 619.988 z" class="svgShape color13161c-76 selectable"></path><path fill="#3B83F4" d="M 1472.89 617.377 C 1484.86 605.068 1498.36 588.894 1512.25 578.632 C 1519.51 573.265 1528.69 575.251 1530.94 584.601 C 1532.37 590.563 1531.23 591.455 1528.47 596.952 C 1521.98 598.481 1497.2 627.35 1491.28 633.886 C 1484.58 628.217 1479.12 623.526 1472.89 617.377 z" class="svgShape color3b83f4-77 selectable"></path><path fill="#F7276F" d="M 1512.4 655.481 C 1517.58 658.88 1525.51 665.88 1529.42 670.668 L 1521.48 681.243 L 1519.48 680.404 C 1520.9 667.854 1511.9 662.898 1512.4 655.481 z" class="svgShape colorf7276f-78 selectable"></path><path fill="#E0E0E5" d="M1515.85 367.185C1541.55 365.985 1553.09 373.591 1564.22 396.997 1575.85 396.924 1584.61 396.78 1593.84 404.709 1607.22 416.459 1607.34 437.547 1595.11 450.343 1583.28 462.733 1562.92 458.304 1547.4 459.054 1542.44 459.294 1536.69 458.98 1531.71 458.939 1515.5 458.965 1461.32 462.21 1453.18 452.529 1427.1 421.519 1447.06 397.771 1481.36 396.992 1488.96 380.689 1497.93 371.788 1515.85 367.185zM1523.7 1431.16C1550.15 1429.38 1561.6 1436.55 1572.81 1460.47 1585.07 1460.55 1594.35 1460.29 1603.67 1469.29 1616.08 1481.4 1615.38 1502.43 1603.03 1514.43 1591.53 1525.61 1573.81 1521.97 1559.24 1522.51 1553.74 1522.71 1548.27 1522.52 1542.81 1522.52 1530.6 1522.52 1482.73 1523.26 1473.23 1521.26 1468.74 1520.36 1464.55 1518.34 1461.05 1515.4 1442.61 1499.77 1450.17 1467.49 1473.74 1462 1479.45 1460.67 1485.02 1460.71 1490.83 1460.54 1491.18 1459.83 1491.54 1459.13 1491.91 1458.44 1499.89 1443.48 1507.47 1436.11 1523.7 1431.16zM536.85 1312.3C560.216 1310.47 573.198 1321.25 582.094 1341.87 594.225 1341.8 603.871 1341.98 613.156 1350.4 625.592 1362.05 624.789 1383.41 612.702 1394.96 605.638 1401.83 595.41 1402.76 585.984 1402.82 573.329 1402.92 560.585 1402.66 547.903 1402.48 536.528 1402.48 489.416 1403.17 480.801 1401.17 476.86 1400.23 473.187 1398.4 470.067 1395.82 456.918 1385.04 455.224 1363.71 467.521 1351.48 477.464 1341.59 487.753 1342.06 500.678 1341.95 508.398 1325.4 518.08 1315.16 536.85 1312.3zM541.944 501.13C541.983 495.706 541.241 486.833 544.693 483.06 554.834 480.912 624.083 480.96 634.51 482.934 638.177 486.948 637.138 495.258 637.141 501.118 681.2 501.475 725.262 501.611 769.323 501.524 784.788 501.418 826.35 500.117 840.244 501.754L841.527 509.75C822.609 511.015 792.75 510.056 773.289 510.025 727.845 509.873 682.402 509.963 636.959 510.295 637.024 515.067 637.594 528.802 634.624 529.149 616.242 531.298 558.823 530.113 543.404 529.885 542.723 524.124 542.374 516.631 541.923 510.717 518.801 510.46 494.103 509.793 470.954 510.412 462.037 510.65 458.051 513.857 452.911 520.291 448.604 540.522 452.271 569.308 451.304 590.844 450.704 604.188 452.726 632.43 432.636 635.348 410.924 638.502 385.57 637.04 363.255 637.042 355.686 650.551 349.381 656.643 332.848 652.622 321.335 649.821 316.931 636.86 320.224 626.48 322.156 620.464 326.408 615.467 332.038 612.597 346.205 605.416 357.006 615.493 362.741 627.961 380.892 628.138 399.265 628.897 417.397 628.281 423.94 628.058 432.728 627.42 437.586 622.436 453.647 605.96 430.087 530.026 450.42 509.577 453.596 506.383 457.509 504.388 461.855 503.307 479.432 498.936 522.245 501.182 541.944 501.13z" class="svgShape colore0e0e5-79 selectable"></path><path fill="#FFF" d="M551.052 490.207C575.749 489.636 603.324 490.039 628.016 490.582 628.213 500.815 628.131 511.051 627.769 521.28 602.233 521.592 576.694 521.579 551.158 521.242 550.868 511.078 551.041 500.413 551.052 490.207zM336.437 620.425C342.991 618.059 350.238 621.332 352.796 627.813 355.354 634.294 352.296 641.635 345.893 644.383 341.58 646.234 336.601 645.593 332.898 642.71 329.194 639.827 327.351 635.158 328.087 630.522 328.823 625.887 332.022 622.019 336.437 620.425z" class="svgShape colorffffff-80 selectable"></path><path fill="#E0E0E5" d="M 1383.21 931.115 L 1383.9 931.41 C 1385.84 951.08 1384.13 993.43 1384.37 1014.9 C 1452.22 1015.23 1520.08 1015.04 1587.93 1014.31 C 1587.95 1008.81 1587.18 1000.03 1590.76 996.15 C 1599.34 994.364 1674.74 993.948 1681.36 996.708 C 1684.75 1000.52 1683.39 1035.99 1683.04 1042.9 C 1657.53 1043.91 1631.63 1042.88 1606.08 1043.15 C 1600.42 1043.21 1594.47 1043.21 1588.85 1042.9 C 1588.12 1035.63 1587.9 1030.68 1587.84 1023.36 L 1384.34 1022.95 L 1384.34 1112.38 C 1408.97 1112.74 1433.6 1112.85 1458.23 1112.72 C 1486.42 1112.71 1523.39 1106.65 1525.06 1145.56 C 1525.59 1157.9 1525.34 1170.47 1525.35 1182.81 C 1525.23 1209.87 1525.41 1236.93 1525.87 1263.99 C 1531.79 1256.95 1538.55 1247.53 1546.93 1244.17 L 1548.53 1244.62 C 1549.74 1253.26 1527.85 1277.2 1520.69 1282.47 C 1515.26 1276.53 1494.11 1253.25 1492.79 1246.9 C 1494.35 1244.07 1493.24 1245 1496.05 1243.85 C 1502.83 1245.39 1511.32 1257.69 1516.08 1263.57 C 1516.58 1236.4 1516.82 1209.22 1516.8 1182.04 C 1516.92 1118.87 1517.25 1120.85 1454.95 1120.94 L 1384.33 1120.78 L 1384.39 1176.13 C 1384.4 1182.41 1384.77 1201.24 1383.57 1206.56 C 1382.74 1196.34 1383.13 1181.62 1383.13 1171.13 L 1383.17 1111.74 L 1383.21 931.115 z" class="svgShape colore0e0e5-81 selectable"></path><path fill="#FFF" d="M 1596.9 1004.04 C 1622.81 1003.82 1648.72 1003.86 1674.63 1004.15 C 1675.06 1013.86 1674.92 1024.74 1675.01 1034.54 C 1651.63 1035.7 1620.73 1034.72 1597.06 1034.36 L 1596.9 1004.04 z" class="svgShape colorffffff-82 selectable"></path><path fill="#035c4d" d="M 1281.95 753.046 C 1314.79 773.56 1347.2 794.773 1379.14 816.671 C 1377.29 822.993 1376.06 827.607 1373.32 833.611 C 1353.1 854.35 1348.93 870.62 1357.66 898.154 C 1349.31 891.817 1336.38 884.66 1327.15 879.151 C 1309.86 868.982 1292.71 858.588 1275.7 847.97 C 1277.2 840.219 1277.77 822.982 1278.32 814.049 C 1279.71 793.726 1280.92 773.391 1281.95 753.046 z" class="svgShape colorf7276f-83 selectable"></path><path fill="#3B83F4" d="M 1312.68 1559.25 C 1316.69 1588.18 1326.73 1642.4 1333.27 1670.29 C 1303.43 1667.91 1288.42 1670.08 1263.41 1686.92 C 1252.69 1652.48 1243.64 1616.5 1233.01 1581.74 C 1244.2 1578.7 1308.24 1562.34 1312.68 1559.25 z" class="svgShape color3b83f4-84 selectable"></path><path fill="#E0E0E5" d="M 1411.17 1347.96 C 1421.27 1323.94 1449.45 1323.37 1457.28 1347.93 C 1507.63 1348.24 1557.99 1348.26 1608.35 1347.98 C 1614.84 1335.09 1626.81 1324.8 1641.31 1333.1 C 1646.73 1336.24 1650.7 1341.4 1652.35 1347.45 C 1659.19 1373.6 1623.36 1389.62 1608.26 1356.53 C 1560.47 1355.58 1504.33 1355.06 1456.65 1356.5 C 1453.9 1364 1450.96 1369.26 1443.24 1372.8 C 1437.81 1375.25 1431.6 1375.29 1426.15 1372.9 C 1418.24 1369.37 1414.89 1363.79 1411.42 1356.25 L 1304.26 1355.86 C 1288.39 1355.84 1264.56 1355.07 1249.19 1356 C 1248.73 1355.3 1246.12 1349.78 1245.61 1348.73 C 1259.64 1347.37 1286.45 1348.16 1301.19 1348.17 C 1337.85 1348.34 1374.51 1348.27 1411.17 1347.96 z" class="svgShape colore0e0e5-85 selectable"></path><path fill="#FFF" d="M1429.67 1339.33C1434.19 1337.59 1439.3 1338.45 1443.01 1341.55 1446.73 1344.66 1448.47 1349.54 1447.56 1354.29 1446.65 1359.05 1443.24 1362.94 1438.64 1364.46 1431.76 1366.74 1424.32 1363.1 1421.88 1356.27 1419.44 1349.45 1422.9 1341.92 1429.67 1339.33zM1628.07 1339.5C1635.17 1337.79 1642.33 1342.12 1644.11 1349.2 1645.88 1356.29 1641.62 1363.49 1634.55 1365.33 1627.39 1367.2 1620.08 1362.87 1618.28 1355.69 1616.47 1348.51 1620.87 1341.24 1628.07 1339.5z" class="svgShape colorffffff-86 selectable"></path><path fill="#E0E0E5" d="M 1013.94 1519.89 C 1024.39 1513.02 1033.84 1507.31 1047.21 1510.35 C 1055.6 1512.24 1062.8 1517.57 1067.05 1525.04 C 1071.73 1533.35 1072.73 1543.23 1069.83 1552.31 C 1067.45 1559.95 1062.02 1566.26 1054.83 1569.77 C 1048.46 1572.93 1036.33 1575.15 1030.39 1571.54 C 1014.72 1561.98 1006.3 1565.26 989.727 1563.64 C 988.721 1557.23 988.261 1553.26 987.923 1546.79 L 886.357 1546.48 C 869.05 1546.41 844.989 1545.65 828.513 1546.87 L 831.103 1538.97 C 849.396 1538.06 870.765 1538.48 889.391 1538.42 L 987.879 1537.97 C 987.919 1515.47 994.034 1520.8 1013.94 1519.89 z" class="svgShape colore0e0e5-87 selectable"></path><path fill="#FFF" d="M 1036.62 1518.12 C 1048.57 1518.45 1059.34 1523.63 1062.27 1536.15 C 1063.66 1542.01 1062.63 1548.18 1059.43 1553.28 C 1054.25 1561.55 1048.17 1563.51 1039.48 1565.43 C 1035 1564.29 1032.88 1563.46 1028.58 1561.67 L 1017.31 1555.02 C 1010.9 1554.87 1004.13 1554.96 997.684 1554.93 C 997.217 1545.7 997.181 1538.75 997.467 1529.5 L 1018.18 1528.97 C 1024.7 1523.88 1028.49 1520.39 1036.62 1518.12 z" class="svgShape colorffffff-88 selectable"></path><path fill="#E0E0E5" d="M1036.07 1533.54C1040.33 1531.79 1045.2 1533.81 1046.96 1538.06 1048.73 1542.31 1046.72 1547.19 1042.47 1548.96 1038.21 1550.75 1033.31 1548.73 1031.54 1544.46 1029.77 1540.19 1031.8 1535.3 1036.07 1533.54zM679.091 422.017L678.633 422.893 677.848 424.341C669.32 440.293 651.858 447.443 639.7 431.211 635.683 425.806 634.131 418.959 635.424 412.351 637.813 399.726 649.24 394.303 661.489 396.594 669.928 398.172 674.74 406.631 678.803 413.507L811.078 413.765C829.377 413.743 855.653 412.74 873.082 413.84L869.135 421.86 679.091 422.017z" class="svgShape colore0e0e5-89 selectable"></path><path fill="#FFF" d="M 654.277 405.471 C 660.89 404.401 667.181 408.703 668.582 415.254 C 669.982 421.805 666.002 428.304 659.529 430.032 C 655.043 431.23 650.262 429.858 647.093 426.464 C 643.925 423.07 642.885 418.206 644.388 413.813 C 645.891 409.42 649.693 406.212 654.277 405.471 z" class="svgShape colorffffff-90 selectable"></path><path fill="#E0E0E5" d="M1269.83 362.639C1277.08 368.591 1292.47 384.484 1292.3 394.144L1291.21 395.175C1283.57 392.905 1278.85 385.243 1274.01 379.046 1274.33 405.124 1274.52 431.204 1274.56 457.284 1274.68 484.876 1275.35 519.074 1269.84 545.616 1264.91 569.36 1236.89 630.148 1218.21 646.335L1212.61 643.62C1231.79 611.893 1258.87 573.433 1263.13 536.074 1268.78 486.654 1264.49 431.946 1265.19 381.958 1261.63 386.198 1257.54 392.07 1252.87 394.342 1249.68 394.195 1251.1 394.724 1248.58 392.464 1247.76 385.24 1264.28 368.237 1269.83 362.639zM567.094 642.284C576.369 646.017 591.882 664.905 598.142 673.084 594.451 678.542 574.032 701.9 566.552 698.561 566.283 691.964 578.112 681.595 582.675 676.995L565.766 676.744C559.918 682.593 545.889 698.65 537.978 698.221L537.227 696.465C537.607 692.104 538.63 691.529 541.631 687.972 545.313 684.287 548.987 680.463 552.636 676.734 545.242 676.852 519.432 678.718 516.647 672.249 522.193 666.739 544.112 668.531 552.244 668.75 548.038 663.659 534.755 653.026 537.948 646.481L540.959 645.472C545.809 646.101 560.894 663.256 565.676 667.901L581.583 668.284C576.757 663.112 568.113 655.422 565.084 648.914 563.918 646.41 565.695 644.609 567.094 642.284zM409.281 1055.63C412.122 1057.41 412.06 1057.17 413.45 1060.18 413.038 1066.64 403.479 1073.41 397.999 1078.77 408.921 1079.3 448.495 1076.32 454.044 1083.18 454.106 1086.33 454.605 1085 452.589 1087.32 445.236 1088.28 435 1088.3 427.378 1088.53 431.618 1094.24 445.147 1105.43 442.646 1111.82 436.253 1116.05 430.095 1105.54 426.109 1100.75 422.21 1096.7 418.258 1092.23 414.45 1088.06 407.985 1087.73 400.738 1087.94 394.202 1087.99 398.992 1093.88 412.901 1106.97 411.869 1114.62 403.382 1115.12 384.687 1092.44 379.719 1085.37 388.472 1075.04 399.284 1064.79 409.281 1055.63zM867.985 1427.09L874.125 1416.78C878.353 1418.92 903.276 1418.21 909.219 1418.21L998.196 1418.07C1005.88 1418.06 1037.76 1416.65 1041.67 1419.76 1041.88 1424.21 1042.49 1422.39 1040.71 1425.73 1036.15 1428.09 888.546 1425.83 867.985 1427.09zM861.447 1442.39L980.159 1442.16C999.112 1442.14 1018.22 1441.91 1037.16 1442.36 1039.8 1442.42 1041.55 1443.66 1043.03 1445.7L1042.7 1447.44C1036.69 1451.35 1022.23 1450.67 1014.82 1450.44 964.824 1448.9 913.504 1451.84 863.638 1450.2 863.085 1447.55 862.353 1444.94 861.447 1442.39zM886.24 1395.12C901.928 1394.94 1037.01 1393.79 1041.63 1395.82 1042.5 1398.54 1042.19 1398.55 1041.4 1401.38 1039.5 1402.94 1039.71 1403.3 1036.95 1403.27 1025.19 1403.16 1012.39 1402.72 1000.66 1403.01 961.945 1403.97 919.664 1401.6 881.404 1403.49L886.24 1395.12zM1646.34 533.511C1657.04 533.671 1673.84 555.36 1680.53 563.678 1673.04 571.733 1658.97 587.905 1650.29 593.443 1646.87 593.255 1648.36 593.832 1645.7 591.58 1645.78 584.585 1656.04 576.128 1661.36 570.711L1662.29 569.008C1655.76 565.26 1616.91 571.025 1608.23 564.741 1607.05 555.03 1654.8 558.504 1663.17 558.507 1656.51 549.887 1644.97 544.734 1646.34 533.511zM1668.52 769.514C1676.17 773.733 1693.22 792.708 1694.63 801.852L1693.56 803.186C1686.26 802.197 1678.03 791.706 1672.72 786.123 1672.93 799.111 1673.89 825.44 1672.29 838.943 1671.55 839.937 1670.8 840.931 1670.06 841.926 1667.58 841.055 1667.66 841.096 1665.56 839.521 1662.83 832.662 1663.97 795.549 1663.94 785.626 1659.47 790.9 1649.76 803.805 1642.83 804.546L1641.96 802.941C1643.92 792.583 1660.1 775.305 1668.52 769.514zM899.26 1371.24C943.64 1369.95 988.413 1371.95 1032.82 1370.66 1035.48 1370.58 1038.25 1371.49 1040.6 1372.64 1042.74 1375.6 1042.32 1373.99 1041.88 1377.64 1037.15 1381.09 912.49 1378.6 894.79 1379.28 895.866 1377.05 897.989 1373.51 899.26 1371.24zM605.302 1429.47L609.552 1430.79C612.555 1434.08 611.793 1474.78 611.877 1481.82 616.394 1477.11 628.353 1463.56 635.204 1463.81 635.444 1473.38 616.343 1490.97 609.686 1497.66 607.943 1498.3 608.192 1498.04 606.148 1497.94 599.695 1493.53 579.773 1473.11 582.271 1464.89L584.83 1464.36C589.49 1466.83 599.041 1477.88 602.728 1482.07 602.884 1471.4 600.865 1435.86 605.302 1429.47zM1361.71 328.674C1371.65 326.605 1381.4 332.947 1383.53 342.871 1385.66 352.794 1379.38 362.577 1369.47 364.77 1359.47 366.982 1349.58 360.634 1347.43 350.622 1345.28 340.61 1351.69 330.762 1361.71 328.674z" class="svgShape colore0e0e5-91 selectable"></path><path fill="#FFF" d="M 1361.97 337.558 C 1367.04 335.448 1372.85 337.865 1374.94 342.947 C 1377.02 348.028 1374.57 353.832 1369.47 355.884 C 1364.42 357.92 1358.67 355.493 1356.61 350.453 C 1354.54 345.412 1356.94 339.651 1361.97 337.558 z" class="svgShape colorffffff-92 selectable"></path><path fill="#E0E0E5" d="M 1363.24 1479.54 C 1370.57 1477.12 1378.49 1480.99 1381.1 1488.26 C 1383.7 1495.53 1380.03 1503.55 1372.83 1506.33 C 1368.01 1508.19 1362.55 1507.3 1358.58 1503.99 C 1354.61 1500.68 1352.75 1495.47 1353.71 1490.39 C 1354.68 1485.32 1358.33 1481.16 1363.24 1479.54 z" class="svgShape colore0e0e5-93 selectable"></path><path fill="#FFF" d="M 1365.04 1487.45 C 1367.16 1486.5 1369.63 1486.8 1371.46 1488.23 C 1373.29 1489.66 1374.18 1491.99 1373.77 1494.27 C 1373.36 1496.56 1371.72 1498.43 1369.51 1499.14 C 1366.34 1500.17 1362.93 1498.53 1361.73 1495.41 C 1360.54 1492.3 1362 1488.8 1365.04 1487.45 z" class="svgShape colorffffff-94 selectable"></path><path fill="#E0E0E5" d="M 533.025 1032.69 C 537.786 1030.88 543.158 1031.78 547.066 1035.05 C 550.973 1038.32 552.804 1043.45 551.851 1048.46 C 550.899 1053.46 547.311 1057.56 542.475 1059.17 C 535.22 1061.58 527.368 1057.76 524.798 1050.56 C 522.228 1043.36 525.883 1035.42 533.025 1032.69 z" class="svgShape colore0e0e5-95 selectable"></path><path fill="#FFF" d="M 534.328 1040.67 C 536.151 1039.31 538.572 1039.05 540.643 1040 C 542.713 1040.94 544.104 1042.94 544.271 1045.21 C 544.438 1047.48 543.354 1049.66 541.444 1050.9 C 538.623 1052.72 534.862 1051.98 532.943 1049.23 C 531.023 1046.47 531.635 1042.68 534.328 1040.67 z" class="svgShape colorffffff-96 selectable"></path><path fill="#E0E0E5" d="M 1721.68 1342.49 C 1728.78 1339.98 1736.57 1343.61 1739.23 1350.65 C 1741.88 1357.69 1738.42 1365.57 1731.43 1368.36 C 1726.78 1370.23 1721.49 1369.43 1717.59 1366.28 C 1713.69 1363.13 1711.81 1358.12 1712.66 1353.18 C 1713.5 1348.25 1716.96 1344.15 1721.68 1342.49 z" class="svgShape colore0e0e5-97 selectable"></path><path fill="#FFF" d="M 1724.72 1349.53 C 1727.85 1348.86 1730.95 1350.8 1731.71 1353.91 C 1732.46 1357.03 1730.6 1360.18 1727.51 1361.02 C 1725.44 1361.58 1723.22 1360.97 1721.72 1359.43 C 1720.22 1357.89 1719.68 1355.66 1720.3 1353.6 C 1720.92 1351.54 1722.62 1349.98 1724.72 1349.53 z" class="svgShape colorffffff-98 selectable"></path></svg></g></svg>