<svg width="18" height="18" viewBox="0 0 18 18" fill="none" xmlns="http://www.w3.org/2000/svg">
    <path d="M6.75004 9.00004C6.74929 8.63508 6.83745 8.27543 7.00689 7.9522C7.17634 7.62896 7.42196 7.35186 7.72254 7.14486C8.02311 6.93785 8.36958 6.80718 8.73199 6.76413C9.09439 6.72108 9.46183 6.76696 9.80254 6.89778C9.84853 6.91541 9.89755 6.92381 9.94679 6.9225C9.99603 6.92119 10.0445 6.91019 10.0895 6.89013C10.1345 6.87007 10.1751 6.84135 10.209 6.8056C10.2429 6.76985 10.2694 6.72778 10.287 6.68179C10.3047 6.63579 10.3131 6.58677 10.3117 6.53753C10.3104 6.48829 10.2994 6.43979 10.2794 6.3948C10.2593 6.34981 10.2306 6.30921 10.1949 6.27532C10.1591 6.24143 10.117 6.21491 10.071 6.19728C9.61663 6.02334 9.12674 5.96253 8.6436 6.0201C8.16045 6.07766 7.69856 6.25188 7.29775 6.52772C6.89694 6.80357 6.56924 7.17276 6.3429 7.60347C6.11655 8.03418 5.99837 8.51348 5.99854 9.00004C5.99854 10.6575 7.34104 12 8.99854 12C9.48509 12.0002 9.96439 11.882 10.3951 11.6557C10.8258 11.4293 11.195 11.1016 11.4708 10.7008C11.7467 10.3 11.9209 9.83812 11.9785 9.35498C12.036 8.87183 11.9752 8.38194 11.8013 7.92754C11.7657 7.83464 11.6946 7.7597 11.6038 7.71919C11.5129 7.67868 11.4097 7.67593 11.3168 7.71154C11.2239 7.74714 11.1489 7.81819 11.1084 7.90905C11.0679 7.99991 11.0652 8.10314 11.1008 8.19604C11.2316 8.53674 11.2775 8.90418 11.2344 9.26659C11.1914 9.62899 11.0607 9.97546 10.8537 10.276C10.6467 10.5766 10.3696 10.8222 10.0464 10.9917C9.72314 11.1611 9.36349 11.2493 8.99854 11.2485C7.75354 11.2485 6.74854 10.2435 6.74854 8.99854L6.75004 9.00004Z" fill="#808080"/>
    <path fill-rule="evenodd" clip-rule="evenodd" d="M9.00019 3.75C4.41769 3.75 1.68769 7.2975 0.90019 8.4375C0.787984 8.60363 0.728027 8.79953 0.728027 9C0.728027 9.20047 0.787984 9.39637 0.90019 9.5625C1.65769 10.7025 4.38769 14.25 9.00019 14.25C13.5827 14.25 16.3127 10.7025 17.1002 9.5625C17.2124 9.39637 17.2724 9.20047 17.2724 9C17.2724 8.79953 17.2124 8.60363 17.1002 8.4375C16.3427 7.2975 13.6127 3.75 9.00019 3.75ZM1.54519 8.8575C2.28244 7.755 4.81519 4.5 9.00019 4.5C13.1852 4.5 15.7127 7.7475 16.4552 8.8575C16.4852 8.90036 16.5013 8.95142 16.5013 9.00375C16.5013 9.05608 16.4852 9.10714 16.4552 9.15C15.7179 10.2525 13.1852 13.5075 9.00019 13.5075C4.81519 13.5075 2.28769 10.26 1.54519 9.15C1.51518 9.10714 1.49908 9.05608 1.49908 9.00375C1.49908 8.95142 1.51518 8.90036 1.54519 8.8575Z" fill="#808080"/>
</svg>
