<svg width="16" height="16" viewBox="0 0 16 16" fill="none" xmlns="http://www.w3.org/2000/svg">
<g clip-path="url(#clip0_2477_3253)">
<path d="M3.00065 14.9997L1.33398 13.333V5.99967C2.66732 5.99967 3.66732 6.66634 3.66732 7.99967V9.99967M13.022 14.9997L14.6887 13.333V5.99967C13.3553 5.99967 12.3553 6.66634 12.3553 7.99967V9.99967M9.33398 3.33301V1.33301H6.66732V3.33301H4.66732V5.99967H6.66732V7.99967H9.33398V5.99967H11.334V3.33301H9.33398Z" stroke="#00A0A6"/>
<path d="M4.43771 12.8908L3.76437 12.2175C2.95637 11.4095 3.15837 10.3995 3.96637 9.59082L6.66837 12.2935V15.3328M11.5844 12.8908L12.2577 12.2175C13.0657 11.4095 12.8644 10.3995 12.0557 9.59082L9.35371 12.2935V15.3328" stroke="#00A0A6"/>
</g>
<defs>
<clipPath id="clip0_2477_3253">
<rect width="16" height="16" fill="white"/>
</clipPath>
</defs>
</svg>
