<svg id="SvgjsSvg1001" width="288" height="288" xmlns="http://www.w3.org/2000/svg" version="1.1" xmlns:xlink="http://www.w3.org/1999/xlink" xmlns:svgjs="http://svgjs.com/svgjs"><defs id="SvgjsDefs1002"></defs><g id="SvgjsG1008"><svg xmlns="http://www.w3.org/2000/svg" display="block" preserveAspectRatio="none" viewBox="0 0 2048 2048" width="288" height="288"><path fill="#d8d8d8" d="M 0 0 L 2048 0 L 2048 2048 L 0 2048 L 0 0 z" class="svgShape colorffffff-0 selectable"></path><path fill="#07a984" d="M 1557.13 629.913 C 1581.48 631.734 1640.66 648.721 1657.05 664.475 C 1670.2 670.268 1683.48 677.015 1694.25 686.84 C 1746.32 734.332 1781.52 801.048 1808.78 865.188 C 1822.65 897.84 1820.43 924.433 1815.77 958.593 C 1810.66 993.536 1803.84 1028.2 1795.31 1062.47 C 1788.41 1090.92 1781.58 1114.72 1777.76 1143.96 C 1774.51 1168.81 1765.72 1197.7 1758.21 1221.65 C 1754.83 1230.95 1747.37 1231.11 1742.37 1234.43 C 1739.49 1258.18 1733.72 1287.33 1728.89 1310.99 C 1722.27 1343.41 1721.99 1351.46 1725.96 1384.15 C 1728.11 1401.38 1730.13 1418.63 1732.03 1435.89 C 1738.22 1494.88 1743.56 1553.96 1748.05 1613.1 C 1744.02 1613.88 1737.97 1614.53 1734.93 1616.87 L 1734.32 1618.81 C 1736.02 1633.62 1743.6 1686.64 1736.37 1696.99 C 1723.71 1701.61 1611.68 1699.4 1587.7 1699.41 L 1535.38 1699.58 C 1512.57 1699.68 1493.66 1705.57 1503.4 1671.6 C 1511.41 1643.66 1559.71 1628.5 1583.97 1616.05 C 1565.96 1540.17 1550.45 1463.71 1537.46 1386.81 C 1535.94 1377.32 1529.45 1318.06 1527.34 1315.18 C 1521.19 1328.59 1516.33 1343 1510.43 1356.31 C 1501.61 1376.23 1503 1386.59 1503.13 1407.86 L 1503.37 1460.2 C 1503.64 1512.16 1502.13 1564.12 1498.85 1615.98 C 1495.45 1616.57 1489.05 1617.89 1485.85 1618.15 C 1440.62 1626.94 1389.11 1623.27 1344.54 1612.39 C 1341.14 1592.04 1338.65 1561.72 1336.81 1540.88 C 1331.64 1482.22 1327.43 1419.31 1329.3 1360.56 C 1330.06 1336.8 1335.37 1301.5 1339 1278.2 C 1344.94 1241 1351.64 1203.93 1359.09 1167.01 C 1362.42 1150.31 1367.98 1128.21 1370.34 1111.97 L 1370.5 1110.82 C 1370.15 1110.57 1369.77 1110.36 1369.44 1110.08 C 1359.86 1101.87 1352.16 937.307 1351.62 916.42 C 1350.94 861.961 1353.45 827.141 1361.06 774.185 C 1365.45 762.386 1369.01 734.651 1374.38 720.432 C 1376.46 714.901 1388.13 683.035 1388.55 679.874 C 1400.03 669.619 1418.92 662.716 1433.02 655.291 C 1434.74 661.787 1436.45 668.655 1438.41 675.052 C 1441.85 687.021 1444.77 703.331 1456.98 708.743 C 1492.94 724.675 1537.31 700.643 1554.77 668.001 C 1563.03 652.566 1561.58 645.151 1557.13 629.913 z" class="svgShape colorfefe36-1 selectable"></path><path fill="#01014C" d="M 1370.5 1110.82 C 1429.58 1136.6 1491.93 1140.57 1555.67 1136.92 C 1569.87 1136.11 1593.99 1133.97 1607.6 1130.54 C 1603.18 1138.12 1604.84 1146.82 1612.7 1151.3 C 1629.14 1160.68 1645.07 1155.2 1659.72 1145.47 C 1656.79 1159.91 1654.46 1174.16 1651.83 1189.12 C 1649.32 1203.45 1642.37 1229.71 1662.05 1235.53 C 1669.79 1237.82 1675.88 1234.94 1680.35 1228.22 L 1687.24 1226.26 C 1686.82 1236.63 1690.21 1239.87 1699.35 1244.67 L 1708.41 1244.91 C 1716.06 1241.5 1718.54 1237.14 1721.47 1229.82 C 1724 1229.19 1727.08 1227.7 1728.41 1225.37 C 1733.16 1230.84 1735.42 1232.27 1742.37 1234.43 C 1739.49 1258.18 1733.72 1287.33 1728.89 1310.99 C 1722.27 1343.41 1721.99 1351.46 1725.96 1384.15 C 1728.11 1401.38 1730.13 1418.63 1732.03 1435.89 C 1738.22 1494.88 1743.56 1553.96 1748.05 1613.1 C 1744.02 1613.88 1737.97 1614.53 1734.93 1616.87 L 1734.32 1618.81 C 1736.02 1633.62 1743.6 1686.64 1736.37 1696.99 C 1723.71 1701.61 1611.68 1699.4 1587.7 1699.41 L 1535.38 1699.58 C 1512.57 1699.68 1493.66 1705.57 1503.4 1671.6 C 1511.41 1643.66 1559.71 1628.5 1583.97 1616.05 C 1565.96 1540.17 1550.45 1463.71 1537.46 1386.81 C 1535.94 1377.32 1529.45 1318.06 1527.34 1315.18 C 1521.19 1328.59 1516.33 1343 1510.43 1356.31 C 1501.61 1376.23 1503 1386.59 1503.13 1407.86 L 1503.37 1460.2 C 1503.64 1512.16 1502.13 1564.12 1498.85 1615.98 C 1495.45 1616.57 1489.05 1617.89 1485.85 1618.15 C 1440.62 1626.94 1389.11 1623.27 1344.54 1612.39 C 1341.14 1592.04 1338.65 1561.72 1336.81 1540.88 C 1331.64 1482.22 1327.43 1419.31 1329.3 1360.56 C 1330.06 1336.8 1335.37 1301.5 1339 1278.2 C 1344.94 1241 1351.64 1203.93 1359.09 1167.01 C 1362.42 1150.31 1367.98 1128.21 1370.34 1111.97 L 1370.5 1110.82 z" class="svgShape color01014c-2 selectable"></path><path d="M1583.97 1616.05C1613.13 1625.88 1671.3 1623.46 1703.14 1620.69 1709.32 1620.15 1731.45 1615.38 1733.72 1616.97L1734.32 1618.81C1736.02 1633.62 1743.6 1686.64 1736.37 1696.99 1723.71 1701.61 1611.68 1699.4 1587.7 1699.41L1535.38 1699.58C1512.57 1699.68 1493.66 1705.57 1503.4 1671.6 1511.41 1643.66 1559.71 1628.5 1583.97 1616.05zM1527.34 1315.18C1519.16 1306.12 1460.16 1177.23 1454.46 1159.82L1454.97 1157.55C1483.63 1182.3 1487.5 1182.88 1519.78 1198.85 1521.11 1215.64 1529.91 1304.61 1527.34 1315.18zM1699.35 1244.67L1708.41 1244.91C1706.22 1249.6 1704.88 1258.29 1704.45 1263.67 1701.63 1299.45 1690.54 1335.99 1694.57 1371.85 1695.88 1383.43 1696.92 1394.75 1698.07 1406.14L1709.22 1512.7C1710.18 1521.74 1717.88 1591.18 1716.37 1595.33L1714.38 1596.01 1712.34 1594.76C1708.45 1587.56 1707.38 1561.82 1706.46 1552.46L1697.35 1458.59 1690.05 1393.32C1688.73 1381.31 1686.34 1362.92 1686.74 1351.19 1687.83 1318.85 1698.41 1277.25 1699.33 1245.83L1699.35 1244.67z" fill="#000000" class="svgShape color000000-3 selectable"></path><path fill="#FE005F" d="M 1587.85 791.894 C 1581.15 777.754 1578.39 738.689 1581.09 723.126 C 1587.92 683.794 1615.41 657.725 1657.05 664.475 C 1670.2 670.268 1683.48 677.015 1694.25 686.84 C 1746.32 734.332 1781.52 801.048 1808.78 865.188 C 1822.65 897.84 1820.43 924.433 1815.77 958.593 C 1810.66 993.536 1803.84 1028.2 1795.31 1062.47 C 1788.41 1090.92 1781.58 1114.72 1777.76 1143.96 C 1774.51 1168.81 1765.72 1197.7 1758.21 1221.65 C 1754.83 1230.95 1747.37 1231.11 1742.37 1234.43 C 1735.42 1232.27 1733.16 1230.84 1728.41 1225.37 C 1727.08 1227.7 1724 1229.19 1721.47 1229.82 C 1718.54 1237.14 1716.06 1241.5 1708.41 1244.91 L 1699.35 1244.67 C 1690.21 1239.87 1686.82 1236.63 1687.24 1226.26 L 1680.35 1228.22 C 1675.88 1234.94 1669.79 1237.82 1662.05 1235.53 C 1642.37 1229.71 1649.32 1203.45 1651.83 1189.12 C 1654.46 1174.16 1656.79 1159.91 1659.72 1145.47 C 1645.07 1155.2 1629.14 1160.68 1612.7 1151.3 C 1604.84 1146.82 1603.18 1138.12 1607.6 1130.54 C 1617 1126.94 1625.28 1121.98 1632.86 1115.34 C 1639.37 1109.62 1647.41 1101.77 1650.71 1093.64 C 1654.39 1084.57 1660 994.999 1661.1 978.074 C 1656.59 972.254 1647.22 954.845 1643.67 948.118 C 1618.43 900.342 1597.2 845.25 1587.85 791.894 z" class="svgShape colorfe005f-4 selectable"></path><path d="M1587.85 791.894L1588.75 793.563C1591.29 798.359 1594.11 804.622 1596.25 809.663 1614.86 853.617 1643.72 891.243 1667.47 932.01 1665.77 944.113 1663.43 967.222 1661.1 978.074 1656.59 972.254 1647.22 954.845 1643.67 948.118 1618.43 900.342 1597.2 845.25 1587.85 791.894zM1680.35 1228.22C1685.92 1214.74 1688.24 1185.58 1692.72 1170.63 1693.49 1168.04 1694.5 1167.79 1696.41 1166.82L1697.48 1168C1698.5 1175.47 1689.69 1217.44 1687.24 1226.26L1680.35 1228.22zM1721.47 1229.82C1722.94 1220.42 1730.19 1181.15 1734.6 1175.21 1735.62 1173.83 1735.26 1174.28 1737.19 1174.12 1738.02 1188.58 1728.78 1209.7 1728.41 1225.37 1727.08 1227.7 1724 1229.19 1721.47 1229.82z" fill="#000000" class="svgShape color000000-5 selectable"></path><path fill="#64FEFC" d="M 230.189 1039.36 C 251.589 936.443 299.575 805.549 354.741 715.783 C 386.826 663.574 438.729 628.377 498.424 615.218 C 502.235 614.377 504.024 613.871 506.776 615.733 C 504.641 623.149 502.179 630.942 503.348 638.622 C 507.742 667.512 538.036 692.062 565.316 698.915 C 591.313 705.446 616.797 704.13 624.119 673.778 C 624.702 671.337 625.253 668.888 625.772 666.432 L 630.933 648.159 C 641.935 653.494 661.139 668.491 668.171 678.426 C 670.42 681.603 672.93 687.046 675.324 690.874 C 702.704 720.504 732.046 766.646 747.949 803.892 C 742.642 805.425 703.433 801.883 695.007 801.23 C 688.471 799.098 667.236 788.089 661.933 783.414 L 657.384 782.982 C 654.182 787.055 652.341 789.604 649.603 793.994 C 645.893 804.166 640.943 813.953 637.037 824.444 C 625.055 856.632 614.832 895.4 613.737 929.851 C 646.499 942.725 659.119 945.256 694.2 948.141 C 691.825 967.745 689.405 989.221 686.166 1008.65 C 685.358 1012.73 684.564 1017.37 683.54 1021.34 C 679.767 1046.97 674.652 1072.39 668.214 1097.48 C 665.179 1100.08 658.804 1104.38 657.126 1105.96 C 640.727 1116.49 609.016 1125.01 589.486 1129.29 C 511.5 1143.79 457.396 1136.45 381.863 1119.79 C 330.763 1106.03 297.17 1093.7 253.321 1063.81 C 242.892 1054.86 238.172 1050.45 230.189 1039.36 z" class="svgShape color64fefc-6 selectable"></path><path d="M573.865 941.205C587.533 903.175 621.657 823.394 649.603 793.994 645.893 804.166 640.943 813.953 637.037 824.444 625.055 856.632 614.832 895.4 613.737 929.851 646.499 942.725 659.119 945.256 694.2 948.141 691.825 967.745 689.405 989.221 686.166 1008.65 685.358 1012.73 684.564 1017.37 683.54 1021.34 672.894 1020.87 656.116 1015.39 645.892 1011.81 563.554 982.975 490.858 931.02 425.826 873.86 421.025 869.64 412.532 863.885 409.764 858.199L410.87 856.736C416.372 856.26 426.902 865.207 431.853 868.43 440.764 874.144 449.817 879.633 459.004 884.892 498.751 907.677 532.152 923.034 573.865 941.205zM695.007 801.23C692.627 776.795 689.226 753.27 684.564 729.168 682.471 718.346 676.456 700.691 675.324 690.874 702.704 720.504 732.046 766.646 747.949 803.892 742.642 805.425 703.433 801.883 695.007 801.23zM657.384 782.982C610.362 750.337 562.976 718.472 511.279 693.492 506.474 691.17 500.542 690.296 498.526 685.032L499.74 682.766C511.91 679.605 653.551 768.945 661.933 783.414L657.384 782.982z" fill="#000000" class="svgShape color000000-7 selectable"></path><path fill="#01014C" d="M 253.321 1063.81 C 297.17 1093.7 330.763 1106.03 381.863 1119.79 C 457.396 1136.45 511.5 1143.79 589.486 1129.29 C 590.417 1136.42 580.606 1151.04 575.951 1157.01 C 556.722 1181.67 538.061 1191.57 510.275 1202.96 C 508.517 1227.8 505.154 1256.52 504.578 1280.89 C 491.996 1394.28 468.412 1506.17 434.161 1614.99 C 395.355 1627.61 360.947 1627.48 320.607 1621.83 C 313.973 1620.9 294.802 1614.81 290.57 1614.79 C 288.19 1613.23 281.563 1610.18 278.716 1608.77 C 279.728 1593.7 282.668 1573.62 284.484 1558.35 C 289.01 1519.89 294.101 1481.5 299.754 1443.2 C 303.059 1420.48 311.418 1374.2 309.63 1353.09 C 308.225 1336.5 297.205 1297.01 292.506 1279.54 C 283.798 1247.15 275.317 1214.69 267.064 1182.18 C 256.004 1145.01 249.825 1102.38 253.321 1063.81 z" class="svgShape color01014c-8 selectable"></path><path d="M253.321 1063.81C297.17 1093.7 330.763 1106.03 381.863 1119.79 361.925 1148.3 354.815 1160.84 321.497 1176.57 327.372 1215.79 333.792 1254.93 340.754 1293.97 343.654 1310.59 348.522 1332.25 350.425 1348.4 351.431 1356.93 346.308 1385.76 344.792 1396.2L334.453 1468.77 323.351 1548.42C322.252 1556.43 318.569 1591.69 314.608 1595.86L312.803 1595.81C310.574 1593.26 310.473 1592.6 311.002 1588.15 313.692 1565.56 317.134 1542.34 320.456 1519.87L335.442 1414.89C337.041 1404.16 343.954 1362.83 343.458 1353.41 342.46 1334.45 335.121 1298.61 331.685 1278.42L320.691 1213.33C318.979 1202.97 317.099 1188.81 314.912 1178.83 291.56 1184.45 288.392 1181.72 267.064 1182.18 256.004 1145.01 249.825 1102.38 253.321 1063.81zM589.486 1129.29C609.016 1125.01 640.727 1116.49 657.126 1105.96 673.79 1157.92 685.687 1210.32 698.277 1263.15 713.148 1325.55 714.865 1369.45 709.427 1433.52 704.396 1492.79 699.75 1551.99 690.208 1610.92 717.305 1626.18 748.074 1635.79 771.392 1655.32 781.892 1664.12 792.388 1698.19 778.736 1699.18 761.611 1700.42 726.38 1699.59 709.248 1699.58L604.607 1699.56C589.468 1699.56 574.198 1699.45 559.058 1699.77 555.745 1699.84 553.567 1699 550.844 1697.29 543.111 1687.11 551.95 1632 553.13 1618.58 553.525 1614.07 547.547 1616.31 547.141 1611.51 546.67 1605.94 546.364 1599.52 546.061 1593.95 545.132 1576.85 544.327 1559.74 543.645 1542.62 542.201 1499.93 541.48 1457.21 541.481 1414.49 541.444 1406.83 543.045 1371.58 541.899 1367.99 533.74 1342.45 516.19 1305.09 504.578 1280.89 505.154 1256.52 508.517 1227.8 510.275 1202.96 538.061 1191.57 556.722 1181.67 575.951 1157.01 580.606 1151.04 590.417 1136.42 589.486 1129.29z" fill="#000000" class="svgShape color000000-9 selectable"></path><path fill="#FE005F" d="M 747.949 803.892 C 751.258 805.824 797.835 807.429 805.552 807.716 C 821.213 808.298 844.922 811.212 860.887 810.053 C 880.093 805.411 897.987 795.924 914.95 785.2 C 923.002 780.109 936.389 752.708 949.862 773.913 C 954.611 781.386 953.129 792.648 950.143 801.071 C 969.128 797.49 988.163 794.173 1007.24 791.122 L 1022.86 800.783 C 1030.57 829.888 1048.78 851.15 1083.03 844.226 C 1089.39 842.94 1093.78 838.362 1100.89 837.463 L 1102.55 838.347 C 1096.66 854.731 1063.4 851.973 1049.57 846.377 C 1046.3 845.074 1043.1 843.598 1039.99 841.955 C 1039.51 854.123 1037.71 858.493 1029.18 867.427 C 1047.05 884.353 1037.05 903.516 1014.77 908.576 C 1019.81 915.987 1020.81 919.604 1019.08 928.488 L 1015.18 929.92 C 1011.68 936.176 1008.45 940.469 1001.05 942.234 C 992.108 944.364 981.731 942.559 972.428 943.386 C 967.976 943.781 956.999 948.197 954.121 948.031 C 951.397 947.878 948.758 947.028 946.456 945.564 C 944.171 944.124 942.579 942.65 940.689 940.771 C 933.458 941.76 920.691 943.924 913.682 944.312 C 892.587 928.227 856.351 935.542 832.202 938.479 C 817.774 940.181 803.335 941.787 788.886 943.296 C 794.424 970.098 799.193 997.12 804.873 1023.87 C 807.724 1037.3 813.022 1050.17 816.218 1063.54 C 820.438 1081.19 833.53 1153.87 825.088 1166.88 C 822.317 1171.15 817.692 1173.79 812.773 1174.74 C 811.622 1174.96 811.815 1174.89 810.523 1174.92 L 807.392 1175.82 C 807.411 1188.05 794.68 1194.95 783.598 1191.41 L 781.4 1191.08 C 754.32 1208.6 750.01 1185.8 746.563 1163.73 C 743.641 1145.01 739.365 1126.78 732.441 1109.13 C 724.945 1120.98 712.122 1131.76 698.525 1129.25 C 674.47 1124.81 691.825 1105.7 697.391 1098.16 C 702.629 1091.06 705.897 1064.83 704.738 1057.25 C 702.908 1045.27 692.87 1019.13 686.166 1008.65 C 689.405 989.221 691.825 967.745 694.2 948.141 C 659.119 945.256 646.499 942.725 613.737 929.851 C 614.832 895.4 625.055 856.632 637.037 824.444 C 640.943 813.953 645.893 804.166 649.603 793.994 C 652.341 789.604 654.182 787.055 657.384 782.982 L 661.933 783.414 C 667.236 788.089 688.471 799.098 695.007 801.23 C 703.433 801.883 742.642 805.425 747.949 803.892 z" class="svgShape colorfe005f-10 selectable"></path><path d="M1007.24 791.122L1022.86 800.783C1030.57 829.888 1048.78 851.15 1083.03 844.226 1089.39 842.94 1093.78 838.362 1100.89 837.463L1102.55 838.347C1096.66 854.731 1063.4 851.973 1049.57 846.377 1046.3 845.074 1043.1 843.598 1039.99 841.955 1039.51 854.123 1037.71 858.493 1029.18 867.427 1047.05 884.353 1037.05 903.516 1014.77 908.576 1019.81 915.987 1020.81 919.604 1019.08 928.488L1015.18 929.92C1015.12 925.647 1015.14 922.043 1013.5 918.066 1005.92 899.736 956.144 912.983 942.786 907.917 940.836 905.207 941.2 906.674 941.65 903.373 949.937 896.759 1023.64 911.682 1030.47 895.868 1049.83 851.056 957.62 876.908 943.261 866.903L943.236 864.068C950.995 857.412 1016.5 870.09 1028.8 859.819 1036.57 853.335 1036.55 842.357 1030.15 834.799 1027.17 831.3 1023.16 828.833 1018.7 827.756 1013.82 826.559 994.979 826.43 988.802 826.175 969.385 825.363 949.982 824.25 930.6 822.834 937.548 816.005 943.844 808.508 950.143 801.071 969.128 797.49 988.163 794.173 1007.24 791.122zM781.4 1191.08C780.996 1188.32 781.047 1186.75 781.931 1183.95 785.219 1173.53 772.917 1118.2 775.802 1113.5 782.084 1115.41 793.213 1180.24 783.598 1191.41L781.4 1191.08zM807.392 1175.82C804.999 1168.73 804.979 1150.77 804.178 1142.58 803.476 1135.38 799.144 1113.25 800.924 1107.77L802.199 1106.98C807.724 1111.8 812.487 1166.55 810.523 1174.92L807.392 1175.82zM785.328 1043.3C787.649 1043.86 787.257 1043.8 789.439 1044.87 800.555 1063.62 784.074 1088.44 767.17 1098.3 764.101 1097.23 765.332 1098.1 763.3 1095.64 764.651 1092.59 771.8 1088.44 775.243 1085.03 789.269 1071.12 784.919 1060.14 785.271 1045.09L785.328 1043.3z" fill="#000000" class="svgShape color000000-11 selectable"></path><path fill="#16A1D6" d="M 1330.15 456.053 C 1313.96 447.005 1300.06 433.794 1296.46 416.591 C 1281.69 345.298 1364.44 327.197 1413.38 357.337 C 1417.34 359.775 1434.38 367.25 1438.83 367.656 C 1471.24 370.621 1500.67 361.236 1517.57 399.407 C 1568.44 405.436 1580.7 446.875 1574.25 491.453 C 1591.08 513.752 1593.94 533.237 1571.89 553.984 C 1567.04 558.543 1559.13 560.515 1555.63 563.852 C 1552.35 574.326 1549.76 580.886 1545.54 590.951 C 1545.1 594.814 1555.04 625.678 1557.13 629.913 C 1561.58 645.151 1563.03 652.566 1554.77 668.001 C 1537.31 700.643 1492.94 724.675 1456.98 708.743 C 1444.77 703.331 1441.85 687.021 1438.41 675.052 C 1436.45 668.655 1434.74 661.787 1433.02 655.291 L 1430.32 645.087 C 1406.19 645 1381.64 639.906 1363.21 623.424 C 1325.07 589.312 1334.26 534.91 1331.09 489.246 C 1327.03 476.229 1327.38 469.244 1330.15 456.053 z" class="svgShape color16a1d6-12 selectable"></path><path d="M1330.15 456.053C1313.96 447.005 1300.06 433.794 1296.46 416.591 1281.69 345.298 1364.44 327.197 1413.38 357.337 1417.34 359.775 1434.38 367.25 1438.83 367.656 1471.24 370.621 1500.67 361.236 1517.57 399.407 1568.44 405.436 1580.7 446.875 1574.25 491.453 1550.07 478.426 1531.84 485.883 1518.37 508.87 1517.19 507.768 1516.03 506.64 1514.9 505.486 1496.24 486.312 1494.97 460.235 1495.04 435.064L1484.61 430.988C1441.44 449.97 1384.7 472.171 1337.58 458.971 1334.18 469.253 1332.74 478.554 1331.09 489.246 1327.03 476.229 1327.38 469.244 1330.15 456.053zM1430.32 645.087C1452.13 641.973 1469.02 639.31 1489.03 628.73 1496.04 625.018 1503.04 620.148 1509.57 616.782 1495.1 647.72 1472.4 668.178 1438.41 675.052 1436.45 668.655 1434.74 661.787 1433.02 655.291L1430.32 645.087zM1537.24 562.74L1555.63 563.852C1552.35 574.326 1549.76 580.886 1545.54 590.951 1542.24 584.681 1539.01 570.131 1537.24 562.74zM1435.5 506.852C1452.5 505.181 1453.36 527.003 1442.35 537.956 1426.17 540.574 1424.28 517.611 1435.5 506.852zM1360.96 507.626C1377.1 507.446 1378.04 529.973 1366.37 539.747 1350.04 539.489 1350.18 517.414 1360.96 507.626zM1402.59 579.174C1414.3 578.21 1430.58 578.72 1437.74 589.773L1436.9 591.738C1431.68 593.04 1425 587.79 1418.79 586.151 1396.84 582.08 1396.94 594.84 1385.69 592.328 1382.89 585.731 1398.13 580.701 1402.59 579.174zM1553.41 510.074C1557.41 509.686 1560.63 509.74 1563.6 512.835L1562.91 514.753C1549.92 524.497 1549.19 511.213 1541 535.513L1540.36 536.946 1538.65 537.412 1536.55 535.84C1532.47 524.074 1544.34 514.836 1553.41 510.074z" fill="#000000" class="svgShape color000000-13 selectable"></path><path fill="#FE005F" d="M 536.276 386.622 C 541.528 379.288 548.575 371.879 556.13 367.189 C 590.931 343.85 626.621 364.725 662.334 364.913 C 694.276 365.08 735.332 341.34 758.231 380.852 C 764.593 391.9 766.116 405.084 762.438 417.292 C 756.889 435.616 742.689 446.973 726.406 455.366 C 726.449 461.419 726.083 467.305 725.765 473.345 C 722.478 521.32 735.578 577.379 694.036 613.53 C 685.783 620.61 676.241 626.032 665.934 629.498 C 660.62 631.336 634.682 636.082 633.81 636.886 L 630.933 648.159 L 625.772 666.432 C 625.253 668.888 624.702 671.337 624.119 673.778 C 616.797 704.13 591.313 705.446 565.316 698.915 C 538.036 692.062 507.742 667.512 503.348 638.622 C 502.179 630.942 504.641 623.149 506.776 615.733 C 509.669 606.459 515.067 590.128 516.145 581.179 C 511.953 574.628 508.319 564.058 505.688 556.749 C 479.831 546.929 466.265 530.052 476.055 500.381 C 477.249 496.762 480.734 493.352 481.353 489.794 C 468.532 438.541 482.781 399.74 536.276 386.622 z" class="svgShape colorfe005f-14 selectable"></path><path d="M536.276 386.622C541.528 379.288 548.575 371.879 556.13 367.189 590.931 343.85 626.621 364.725 662.334 364.913 694.276 365.08 735.332 341.34 758.231 380.852 764.593 391.9 766.116 405.084 762.438 417.292 756.889 435.616 742.689 446.973 726.406 455.366 726.449 461.419 726.083 467.305 725.765 473.345 723.088 468.584 720.556 463.744 718.171 458.831 665.726 472.603 611.474 457.355 565.35 431.516 564.64 458.783 561.802 479.73 541.088 499.53 523.285 476.319 505.92 471.106 481.353 489.794 468.532 438.541 482.781 399.74 536.276 386.622zM557.359 612.194C574.759 622.859 588.9 629.406 609.43 633.521 615.78 634.794 628.584 634.555 633.81 636.886L630.933 648.159 625.772 666.432C592.198 659.315 572.973 642.82 557.359 612.194zM505.688 556.749C512.817 556.439 516.011 556.096 523.023 554.806 521.365 562.716 519.172 573.894 516.145 581.179 511.953 574.628 508.319 564.058 505.688 556.749zM653.248 562.54C660.626 560.301 668.428 564.436 670.716 571.799 673.005 579.162 668.921 586.991 661.574 589.329 654.157 591.689 646.237 587.558 643.927 580.125 641.617 572.692 645.8 564.8 653.248 562.54zM692.026 498.774C708.245 501.237 707.389 521.952 694.452 531.064 678.952 528.583 679.717 507.462 692.026 498.774zM614.939 499.66C631.365 498.367 633.243 519.739 621.365 529.49 604.688 532.796 605.025 510.057 614.939 499.66zM499.782 504.014C514.356 503.724 532.002 517.533 525.607 531.702 519.315 528.891 519.736 518.187 513.039 512.944 507.668 508.737 502.119 511.57 499.041 507.602L499.782 504.014z" fill="#000000" class="svgShape color000000-15 selectable"></path><path fill="#fe005f" d="M 1388.55 679.874 C 1388.13 683.035 1376.46 714.901 1374.38 720.432 C 1369.01 734.651 1365.45 762.386 1361.06 774.185 C 1353.45 827.141 1350.94 861.961 1351.62 916.42 C 1331.63 925.927 1316.57 932.885 1294.73 938.716 C 1285.41 940.951 1270.62 943.907 1261.14 942.925 C 1203.08 936.913 1139.23 925.101 1082.66 911.324 C 1059.16 919.52 1043.15 923.045 1019.08 928.488 C 1020.81 919.604 1019.81 915.987 1014.77 908.576 C 1037.05 903.516 1047.05 884.353 1029.18 867.427 C 1037.71 858.493 1039.51 854.123 1039.99 841.955 C 1043.1 843.598 1046.3 845.074 1049.57 846.377 C 1063.4 851.973 1096.66 854.731 1102.55 838.347 L 1100.89 837.463 C 1093.78 838.362 1089.39 842.94 1083.03 844.226 C 1048.78 851.15 1030.57 829.888 1022.86 800.783 L 1007.24 791.122 C 997.631 781.023 989.421 765.809 995.284 751.608 C 997.901 745.267 1004.43 742.107 1010.39 745.813 C 1014.29 748.242 1019.42 752.295 1022.91 755.39 C 1037.81 768.61 1059.06 769.266 1076.75 776.94 C 1082.33 779.361 1086.94 782.503 1091.99 785.868 C 1145.65 787.212 1193.45 789.288 1247.09 794.314 C 1258.48 785.106 1271.09 772.54 1282.6 762.77 C 1315.77 734.609 1351.82 703.048 1388.55 679.874 z" class="svgShape colorfe005f-16 selectable"></path><path d="M1361.06 774.185C1353.45 827.141 1350.94 861.961 1351.62 916.42 1331.63 925.927 1316.57 932.885 1294.73 938.716 1296.06 931.365 1312.71 900.718 1317.11 889.984 1326.72 866.011 1335.85 841.85 1344.5 817.515 1347.47 809.204 1357.27 780.304 1361.06 774.185zM1344.54 1612.39C1389.11 1623.27 1440.62 1626.94 1485.85 1618.15 1487.22 1634.01 1493.87 1686.68 1486.14 1697.76 1481.74 1698.79 1475.23 1699.56 1470.61 1699.55 1425.15 1699.48 1382.41 1699.65 1336.61 1699.53 1310.48 1699.07 1283.8 1700.59 1257.77 1699.05 1250.67 1698.63 1251.63 1678.45 1253.71 1673.08 1263.12 1648.79 1288.9 1639.31 1310.47 1629.03 1321.88 1623.61 1333.24 1618.06 1344.54 1612.39zM434.161 1614.99L467.334 1631.66C487.924 1641.97 510.917 1651.51 519.275 1675.2 521.29 1680.91 521.812 1696.82 513.459 1699.35 508.535 1700.84 498.218 1699.16 492.812 1699.8 428.639 1699.51 364.461 1699.6 300.288 1699.57 295.993 1699.57 291.584 1698.99 287.453 1697.87 279.108 1687.25 287.66 1629.17 290.57 1614.79 294.802 1614.81 313.973 1620.9 320.607 1621.83 360.947 1627.48 395.355 1627.61 434.161 1614.99zM1036.3 960.218C1037.43 960.645 1041.69 962.82 1041.11 964.057 1029.84 988.097 1004.48 1069.55 991.208 1086.14 988.493 1084.2 987.781 1084.12 986.556 1081.04 987.65 1076.33 1000.97 1044.19 1003.71 1038.1 1014.25 1014.68 1024.86 982.657 1036.3 960.218zM1103.81 960.324C1110.08 963.62 1144.11 1019.4 1149.27 1029.08 1149.21 1032.66 1149.17 1031.57 1146.33 1035.06 1141.04 1033.59 1130.8 1014.79 1127.51 1009.5 1118.74 995.349 1109.34 981.216 1101.21 966.736 1101.16 962.852 1101.1 964.144 1103.81 960.324zM925.327 653.487C932.658 654.046 933.226 657.738 936.588 664.237 946.824 684.026 959.379 703.355 967.552 724.028 967.237 725.159 966.921 726.291 966.606 727.422 965.495 727.452 964.063 727.338 962.926 727.284 959.755 724.586 957.181 719.87 955.225 716.152 945.218 697.131 934.602 678.315 925.138 659.037 924.508 657.754 925.098 654.787 925.327 653.487zM896.51 677.404L899.506 677.903C904.136 681.151 938.595 728.848 942.875 736.299 942.657 740.025 942.865 738.742 939.787 742.178 939.699 742.136 939.611 742.098 939.525 742.054 935.283 739.89 895.801 686.867 894.599 682.096 894.238 680.662 895.82 678.68 896.51 677.404zM1034.37 653.254C1038.36 654.692 1037.91 653.85 1040.05 656.69 1040.03 661.788 1015.03 718.898 1011.04 725.448 1010.44 725.593 1008.97 725.545 1008.28 725.552L1006.69 723.704C1005.66 716.16 1029.78 663.875 1034.37 653.254zM1127.38 699.717L1129.81 700.617C1132.19 703.736 1131.8 702.094 1131.57 705.546 1124.72 712.289 1084.31 740.158 1074.49 747.087 1073.64 747.115 1072.31 746.666 1071.39 746.433L1070.22 743.964C1071.96 737.863 1118.81 705.827 1127.38 699.717zM977.528 954.777C980.151 954.936 981.481 956.526 982.612 958.668 980.845 962.898 936.64 993.897 928.516 999.854L925.229 999.808C923.056 998.027 923.773 999.143 923.452 996.141 927.21 989.538 968.389 961.203 977.528 954.777zM1132.69 635.453C1135.43 636.741 1135.24 636.712 1137.25 639.029 1137.28 644.852 1108.25 673.97 1102.96 679.527 1099.07 678.232 1100.62 679.301 1097.99 676.43 1098.76 670.606 1126.49 642.269 1132.69 635.453zM1130.65 952.336C1139.02 953.216 1158.85 984.664 1164.27 992.191 1165.56 993.993 1163.56 996.504 1162.67 997.999 1155.7 996.604 1135.59 965.804 1130.06 959.023 1128.25 956.812 1129.77 954.472 1130.65 952.336zM938.242 1023.62C941.759 1025.44 942.445 1025.96 942.562 1029.55 937.362 1037.08 919.359 1055.86 912.221 1063.38 909.417 1061.87 909.368 1062.1 907.817 1059.4 908.592 1053.49 932.774 1028.97 938.242 1023.62zM1056.7 602.516C1060.06 603.36 1060.63 603.359 1062.05 606.134 1061.92 614.104 1052.35 632.643 1048.36 640.378 1044.52 639.116 1045.98 640.214 1043.62 637.278 1043.21 629.807 1053.15 609.907 1056.7 602.516z" fill="#000000" class="svgShape color000000-17 selectable"></path></svg></g></svg>