<svg width="24" height="24" viewBox="0 0 24 24" fill="none" xmlns="http://www.w3.org/2000/svg">
    <circle cx="12" cy="12" r="12" fill="#C2156C" fill-opacity="0.1"/>
    <g clip-path="url(#clip0_1489_1578)">
        <path fill-rule="evenodd" clip-rule="evenodd" d="M8.40058 10.7996C9.10291 10.7517 9.74312 11.2155 9.84987 11.9604C9.90966 12.3778 9.95866 12.9751 9.95866 13.8125C9.95866 14.6502 9.90966 15.2475 9.84987 15.6649C9.73816 16.4448 9.04137 16.9164 8.30112 16.8152C7.61074 16.7207 6.93058 16.5329 6.49074 16.3958C5.99433 16.2412 5.5787 15.8454 5.45474 15.2959C5.3462 14.8089 5.29162 14.3114 5.29199 13.8125C5.29199 13.2035 5.37366 12.6902 5.45474 12.3294C5.56354 11.8467 5.8972 11.483 6.31283 11.2966C6.33383 8.32625 8.87949 5.9375 12.0003 5.9375C15.1212 5.9375 17.6668 8.32625 17.6878 11.2966C18.1035 11.483 18.4371 11.8467 18.5459 12.3291C18.6273 12.6902 18.7087 13.2035 18.7087 13.8125C18.7087 14.4215 18.627 14.9348 18.5459 15.2959C18.4284 15.8174 18.0483 16.2001 17.5857 16.3701C17.2772 17.3819 16.6641 18.0813 15.7132 18.5057C14.7712 18.9257 13.5281 19.0619 12.0003 19.0619C11.8456 19.0619 11.6972 19.0005 11.5878 18.8911C11.4785 18.7817 11.417 18.6333 11.417 18.4786C11.417 18.3239 11.4785 18.1755 11.5878 18.0661C11.6972 17.9567 11.8456 17.8953 12.0003 17.8953C13.4966 17.8953 14.5317 17.7552 15.2378 17.4402C15.617 17.2711 15.9087 17.0485 16.1274 16.7455C15.9862 16.7719 15.8437 16.7953 15.6998 16.8155C14.9593 16.9164 14.2625 16.4448 14.1511 15.6649C14.091 15.2475 14.042 14.6499 14.042 13.8128C14.042 12.9751 14.091 12.3778 14.1508 11.9601C14.2575 11.2155 14.8977 10.7517 15.6004 10.7996C15.3224 9.20825 13.8253 7.97917 12.0003 7.97917C10.1754 7.97917 8.67795 9.20825 8.40058 10.7996ZM8.45891 11.9657C8.53912 11.9549 8.59366 11.9756 8.62574 11.9989C8.65608 12.0208 8.68524 12.0581 8.69487 12.1255C8.74533 12.4784 8.79199 13.0195 8.79199 13.8125C8.79199 14.6058 8.74533 15.1466 8.69487 15.4995C8.68524 15.5669 8.65579 15.6045 8.62574 15.6264C8.59366 15.6497 8.53912 15.6701 8.45891 15.6593C7.86041 15.5777 7.24995 15.4102 6.83783 15.2819C6.69695 15.2382 6.61587 15.141 6.59283 15.0395C6.50326 14.6367 6.45827 14.2252 6.45866 13.8125C6.45866 13.3062 6.52662 12.88 6.59283 12.5858C6.61587 12.4843 6.69695 12.3871 6.83783 12.3431C7.24995 12.2147 7.86041 12.0476 8.45891 11.9657ZM15.3749 11.9989C15.3449 12.0208 15.3154 12.0581 15.3058 12.1255C15.2553 12.4784 15.2087 13.0195 15.2087 13.8125C15.2087 14.6058 15.2553 15.1466 15.3058 15.4995C15.3154 15.5669 15.3449 15.6045 15.3749 15.6264C15.407 15.6497 15.4615 15.6701 15.5417 15.6593C16.1402 15.5777 16.7507 15.4102 17.1628 15.2819C17.3037 15.2382 17.3848 15.141 17.4078 15.0395C17.474 14.745 17.542 14.3191 17.542 13.8125C17.5424 13.3999 17.4974 12.9885 17.4078 12.5858C17.3848 12.4843 17.3037 12.3871 17.1628 12.3431C16.7507 12.2147 16.1402 12.0476 15.5417 11.9657C15.4615 11.9549 15.407 11.9756 15.3749 11.9989Z" fill="#C2156C"/>
    </g>
    <defs>
        <clipPath id="clip0_1489_1578">
            <rect width="14" height="14" fill="white" transform="translate(5 5.5)"/>
        </clipPath>
    </defs>
</svg>
