<svg width="26" height="26" viewBox="0 0 26 26" fill="none" xmlns="http://www.w3.org/2000/svg">
<path d="M23.8327 23.8333H2.16602M2.16602 11.9167L10.9692 4.875C11.5454 4.41403 12.2614 4.1629 12.9993 4.1629C13.7373 4.1629 14.4533 4.41403 15.0295 4.875L23.8327 11.9167M16.791 5.95833V3.79167C16.791 3.64801 16.8481 3.51023 16.9497 3.40865C17.0512 3.30707 17.189 3.25 17.3327 3.25H20.041C20.1847 3.25 20.3224 3.30707 20.424 3.40865C20.5256 3.51023 20.5827 3.64801 20.5827 3.79167V9.20833M4.33268 23.8333V10.2917M21.666 23.8333V10.2917" stroke="#035C4D" stroke-width="1.5" stroke-linecap="round"/>
<path d="M16.25 23.8333V18.4167C16.25 16.8848 16.25 16.1189 15.7733 15.6433C15.2988 15.1667 14.5329 15.1667 13 15.1667C11.4671 15.1667 10.7022 15.1667 10.2267 15.6433C9.75 16.1178 9.75 16.8837 9.75 18.4167V23.8333M15.1667 10.2917C15.1667 10.8663 14.9384 11.4174 14.5321 11.8237C14.1257 12.2301 13.5746 12.4583 13 12.4583C12.4254 12.4583 11.8743 12.2301 11.4679 11.8237C11.0616 11.4174 10.8333 10.8663 10.8333 10.2917C10.8333 9.71703 11.0616 9.16593 11.4679 8.7596C11.8743 8.35327 12.4254 8.125 13 8.125C13.5746 8.125 14.1257 8.35327 14.5321 8.7596C14.9384 9.16593 15.1667 9.71703 15.1667 10.2917Z" stroke="#035C4D" stroke-width="1.5"/>
</svg>
