<svg width="20" height="20" viewBox="0 0 20 20" fill="none" xmlns="http://www.w3.org/2000/svg">
<path d="M15.5 18.3335H4.50003C4.23654 18.3335 3.97565 18.2814 3.73234 18.1803C3.48904 18.0792 3.26811 17.931 3.08226 17.7442C2.89642 17.5574 2.74931 17.3358 2.64939 17.0919C2.54947 16.8481 2.49871 16.587 2.50003 16.3235V6.94351C2.50003 6.62517 2.65003 6.33184 2.90003 6.13934L9.38336 1.86767C9.55618 1.73721 9.76682 1.66663 9.98336 1.66663C10.1999 1.66663 10.4105 1.73721 10.5834 1.86767L17.1 6.13934C17.35 6.33184 17.5 6.62517 17.5 6.94351V16.3235C17.5013 16.587 17.4506 16.8481 17.3507 17.0919C17.2507 17.3358 17.1036 17.5574 16.9178 17.7442C16.7319 17.931 16.511 18.0792 16.2677 18.1803C16.0244 18.2814 15.7635 18.3335 15.5 18.3335Z" stroke="black" stroke-width="1.5" stroke-miterlimit="10"/>
<path d="M8.16667 10H11.8333C12.2 10 12.5 10.3 12.5 10.6667V18.3333H7.5V10.6667C7.5 10.3 7.8 10 8.16667 10Z" stroke="black" stroke-width="1.5" stroke-miterlimit="10"/>
</svg>
