<svg width="26" height="26" viewBox="0 0 26 26" fill="none" xmlns="http://www.w3.org/2000/svg">
<g clip-path="url(#clip0_2215_683)">
<path d="M13 0C13.2155 0 13.4222 0.0856024 13.5745 0.237976C13.7269 0.390349 13.8125 0.597012 13.8125 0.8125V1.64775C20.5156 2.01175 26 6.8575 26 13C26 13 26 13.8125 25.1875 13.8125C24.9454 13.8125 24.6155 13.5769 24.6155 13.5769L24.609 13.5704L24.5684 13.533C24.2893 13.2908 23.9872 13.0764 23.6665 12.8927C22.8949 12.4411 22.019 12.198 21.125 12.1875C20.0882 12.1875 19.2108 12.5336 18.5835 12.8927C18.2628 13.0764 17.9607 13.2908 17.6816 13.533L17.641 13.5704L17.6361 13.5753C17.6361 13.5753 17.3046 13.8125 17.0625 13.8125C16.8204 13.8125 16.4905 13.5769 16.4905 13.5769L16.484 13.5704L16.4434 13.533C16.1643 13.2908 15.8622 13.0764 15.5415 12.8927C15.006 12.5834 14.4211 12.369 13.8125 12.259V21.9375V22.0009L13.8044 22.1357C13.7591 22.7582 13.5947 23.3661 13.3201 23.9265C13.0389 24.5033 12.6114 24.9963 12.0802 25.3565C11.4725 25.7579 10.7039 26 9.75 26C8.79613 26 8.02588 25.7595 7.41975 25.3565C6.88862 24.9963 6.46113 24.5033 6.17987 23.9265C5.88582 23.3251 5.71876 22.6696 5.68913 22.0009V21.9603L5.6875 21.9456V21.9408C5.6875 21.9408 5.6875 21.9375 6.5 21.9375H5.6875V21.125C5.6875 20.9095 5.7731 20.7028 5.92548 20.5505C6.07785 20.3981 6.28451 20.3125 6.5 20.3125C6.71549 20.3125 6.92215 20.3981 7.07452 20.5505C7.2269 20.7028 7.3125 20.9095 7.3125 21.125V21.9472L7.31737 22.0188C7.34748 22.4285 7.45501 22.8288 7.63425 23.1985C7.78862 23.5089 8.008 23.7949 8.32162 24.0029C8.63037 24.2092 9.07887 24.375 9.75 24.375C10.4211 24.375 10.8696 24.2092 11.1784 24.0029C11.492 23.7949 11.7114 23.5089 11.8674 23.1985C12.0567 22.807 12.1656 22.3815 12.1875 21.9472V12.259C11.5789 12.369 10.994 12.5834 10.4585 12.8927C10.122 13.0859 9.80623 13.3129 9.516 13.5704L9.5095 13.5769C9.5095 13.5769 9.18125 13.8125 8.9375 13.8125C8.69375 13.8125 8.3655 13.5769 8.3655 13.5769L8.359 13.5704C8.06877 13.3129 7.75296 13.0859 7.4165 12.8927C6.64489 12.4411 5.76901 12.198 4.875 12.1875C3.83825 12.1875 2.96237 12.5336 2.3335 12.8927C1.99704 13.0859 1.68123 13.3129 1.391 13.5704L1.3845 13.5769C1.3845 13.5769 1.05625 13.8125 0.8125 13.8125C0 13.8125 0 13 0 13C0 6.8575 5.48438 2.01175 12.1875 1.64775V0.8125C12.1875 0.597012 12.2731 0.390349 12.4255 0.237976C12.5778 0.0856024 12.7845 0 13 0ZM10.6876 3.44987C6.084 4.26237 2.57888 7.44413 1.79238 11.3376C2.74233 10.8343 3.79997 10.5684 4.875 10.5625C6.18475 10.5625 7.28 10.9688 8.06325 11.3929C8.09139 10.0975 8.27914 8.81054 8.62225 7.56112C9.0155 6.15062 9.66225 4.693 10.6876 3.44987ZM9.68825 11.4611C10.6965 10.8817 11.8372 10.5722 13 10.5625C14.1628 10.5722 15.3035 10.8817 16.3118 11.4611C16.2893 10.2912 16.1218 9.12853 15.8129 7.99987C15.3302 6.26925 14.4593 4.59875 13 3.44013C11.5407 4.59713 10.6698 6.26762 10.1871 7.99662C9.8781 9.12581 9.71052 10.2906 9.68825 11.4611ZM15.3108 3.44987C16.3361 4.693 16.9845 6.15062 17.3778 7.56112C17.7564 8.91475 17.9107 10.2586 17.9368 11.3929C18.9143 10.8561 20.0099 10.5708 21.125 10.5625C22.3762 10.5625 23.4325 10.9363 24.2076 11.3376C23.4211 7.44413 19.916 4.26075 15.3124 3.44987H15.3108Z" fill="#FE7A00"/>
</g>
<defs>
<clipPath id="clip0_2215_683">
<rect width="26" height="26" fill="white"/>
</clipPath>
</defs>
</svg>
