<svg width="20" height="20" viewBox="0 0 20 20" fill="none" xmlns="http://www.w3.org/2000/svg">
<path d="M17.1154 12.3767C16.1495 12.566 15.1536 12.5391 14.1993 12.2979C13.2451 12.0568 12.356 11.6072 11.5961 10.9817C10.8361 10.3561 10.2241 9.57006 9.80398 8.67991C9.38387 7.78977 9.16608 6.81764 9.16626 5.83333C9.16626 4.61917 9.43293 3.48083 9.99959 2.5C8.61917 2.50044 7.26564 2.88184 6.08808 3.60222C4.91052 4.3226 3.95463 5.35399 3.32567 6.58281C2.69671 7.81163 2.41909 9.19019 2.52339 10.5667C2.6277 11.9432 3.10987 13.2641 3.9168 14.3842C4.72374 15.5042 5.82413 16.3798 7.09679 16.9145C8.36945 17.4492 9.765 17.6223 11.1297 17.4147C12.4945 17.2071 13.7754 16.6269 14.8316 15.738C15.8877 14.8491 16.678 13.686 17.1154 12.3767ZM13.8538 3.33333L13.8904 3.4L13.9579 3.4375L13.8913 3.47417L13.8538 3.54167L13.8171 3.475L13.7496 3.4375L13.8163 3.40083L13.8538 3.33333ZM17.0829 7.08333L17.2304 7.3525L17.4996 7.5L17.2304 7.6475L17.0829 7.91667L16.9354 7.6475L16.6663 7.5L16.9354 7.3525L17.0829 7.08333Z" stroke="#808080" stroke-width="2"/>
</svg>
