<svg width="20" height="20" viewBox="0 0 20 20" fill="none" xmlns="http://www.w3.org/2000/svg">
<path d="M7.646 9.02087C6.99322 8.3681 6.66683 7.58337 6.66683 6.66671C6.66683 5.75004 6.99322 4.96532 7.646 4.31254C8.29877 3.65976 9.0835 3.33337 10.0002 3.33337C10.9168 3.33337 11.7016 3.65976 12.3543 4.31254C13.0071 4.96532 13.3335 5.75004 13.3335 6.66671C13.3335 7.58337 13.0071 8.3681 12.3543 9.02087C11.7016 9.67365 10.9168 10 10.0002 10C9.0835 10 8.29877 9.67365 7.646 9.02087ZM3.3335 15V14.3334C3.3335 13.8612 3.45516 13.4273 3.6985 13.0317C3.94183 12.6362 4.26461 12.3339 4.66683 12.125C5.52794 11.6945 6.40294 11.3717 7.29183 11.1567C8.18072 10.9417 9.0835 10.8339 10.0002 10.8334C10.9168 10.8328 11.8196 10.9406 12.7085 11.1567C13.5974 11.3728 14.4724 11.6956 15.3335 12.125C15.7363 12.3334 16.0593 12.6356 16.3027 13.0317C16.546 13.4278 16.6674 13.8617 16.6668 14.3334V15C16.6668 15.4584 16.5038 15.8509 16.1777 16.1775C15.8516 16.5042 15.4591 16.6673 15.0002 16.6667H5.00016C4.54183 16.6667 4.14961 16.5037 3.8235 16.1775C3.49738 15.8514 3.33405 15.4589 3.3335 15ZM5.00016 15H15.0002V14.3334C15.0002 14.1806 14.9621 14.0417 14.886 13.9167C14.8099 13.7917 14.7091 13.6945 14.5835 13.625C13.8335 13.25 13.0766 12.9689 12.3127 12.7817C11.5488 12.5945 10.7779 12.5006 10.0002 12.5C9.22238 12.4995 8.45155 12.5934 7.68766 12.7817C6.92377 12.97 6.16683 13.2512 5.41683 13.625C5.29183 13.6945 5.191 13.7917 5.11433 13.9167C5.03766 14.0417 4.99961 14.1806 5.00016 14.3334V15ZM11.1777 7.84421C11.5038 7.51754 11.6668 7.12504 11.6668 6.66671C11.6668 6.20837 11.5038 5.81615 11.1777 5.49004C10.8516 5.16393 10.4591 5.0006 10.0002 5.00004C9.54127 4.99949 9.14905 5.16282 8.8235 5.49004C8.49794 5.81726 8.33461 6.20949 8.3335 6.66671C8.33239 7.12393 8.49572 7.51643 8.8235 7.84421C9.15127 8.17199 9.5435 8.33504 10.0002 8.33337C10.4568 8.33171 10.8493 8.16865 11.1777 7.84421Z" fill="#808080"/>
</svg>
