<svg width="15" height="15" viewBox="0 0 15 15" fill="none" xmlns="http://www.w3.org/2000/svg">
    <path d="M8.75 5V3.75C8.75 3.41848 8.6183 3.10054 8.38388 2.86612C8.14946 2.6317 7.83152 2.5 7.5 2.5H3.125C2.79348 2.5 2.47554 2.6317 2.24112 2.86612C2.0067 3.10054 1.875 3.41848 1.875 3.75V11.25C1.875 11.5815 2.0067 11.8995 2.24112 12.1339C2.47554 12.3683 2.79348 12.5 3.125 12.5H7.5C7.83152 12.5 8.14946 12.3683 8.38388 12.1339C8.6183 11.8995 8.75 11.5815 8.75 11.25V10" stroke="#F30000" stroke-linecap="round" stroke-linejoin="round"/>
    <path d="M5.625 7.5H13.125M13.125 7.5L11.25 5.625M13.125 7.5L11.25 9.375" stroke="#F30000" stroke-linecap="round" stroke-linejoin="round"/>
</svg>
