<svg id="SvgjsSvg1001" width="288" height="288" xmlns="http://www.w3.org/2000/svg" version="1.1" xmlns:xlink="http://www.w3.org/1999/xlink" xmlns:svgjs="http://svgjs.com/svgjs"><defs id="SvgjsDefs1002"></defs><g id="SvgjsG1008"><svg xmlns="http://www.w3.org/2000/svg" display="block" preserveAspectRatio="none" viewBox="0 0 2048 2048" width="288" height="288"><path fill="#ffffff" d="M 0 0 L 2048 0 L 2048 2048 L 0 2048 L 0 0 z" class="svgShape colorffffff-0 selectable"></path><path fill="#182f2f" d="M 453.595 1346.27 C 412.656 1345.49 366.712 1353.87 336.527 1323.12 C 318.926 1305.19 311.092 1283.65 311.091 1258.96 C 311.089 1197.75 311.27 1136.61 311.273 1075.45 L 311.183 687.5 L 311.083 511.154 L 310.937 458.839 C 310.909 448.617 310.546 434.528 311.807 424.654 C 314.127 406.414 322.451 389.464 335.467 376.477 C 361.984 349.84 389.162 352.059 423.933 352.126 L 485.23 352.213 L 716.711 352.21 L 1370.95 352.091 L 1566.2 352.185 C 1598.49 352.186 1634.13 350.661 1665.85 353.458 C 1697.57 356.254 1730.33 392.029 1732.57 423.488 C 1734.55 451.21 1733.57 478.91 1733.66 506.515 L 1733.7 687.205 L 1733.75 1249.06 C 1733.57 1279.25 1731.22 1299.39 1709 1322.27 C 1682.74 1349.31 1653.52 1346.07 1619.41 1346.41 C 1553.22 1347.07 1485.95 1344.75 1419.93 1346.33 C 1395.38 1347.13 1366.32 1346.36 1341.35 1346.35 L 1185.5 1346.29 L 744.969 1345.98 C 766.536 1378.55 793.779 1410.86 811.545 1445.67 C 814.779 1452.01 818.473 1466.07 818.167 1473.19 C 817.174 1496.26 812.379 1521.91 808.684 1544.84 L 789.994 1660.81 C 785.655 1661.01 781.609 1660.75 777.795 1662.59 L 777.735 1664.19 C 783.17 1668.03 807.114 1670.95 818.471 1681.48 C 829.893 1692.06 835.232 1697.48 838.058 1715.33 C 838.587 1718.67 838.9 1722.2 837.225 1724.28 C 833.876 1725.56 830.328 1726.21 826.731 1726.19 C 778.971 1725.96 731.202 1726.28 683.444 1726.02 C 679.98 1726 677.495 1725.95 675.291 1723.47 C 673.828 1715.88 676.502 1709.62 677.949 1701.99 C 680.466 1688.7 685.442 1674.66 685.736 1661.09 C 684.972 1660.12 684.208 1659.15 683.444 1658.17 C 682.832 1655.6 683.682 1649.02 683.893 1646.81 C 688.63 1596.17 692.936 1545.49 696.812 1494.78 C 676.074 1468.18 650.121 1443.38 628.076 1417.74 C 618.526 1406.64 608.024 1395.12 597.993 1384.46 C 583.851 1420.7 570.449 1469.31 554.558 1503.91 C 544.39 1526.05 503.806 1575.67 487.81 1597.91 C 477.855 1611.75 449.626 1651.19 439.428 1662.44 C 433.741 1661.98 423.548 1660.42 418.929 1663.71 C 418.332 1669.13 427.698 1671.22 432.498 1673.66 C 444.909 1679.87 454.832 1690.13 460.63 1702.74 C 463.213 1708.45 465.986 1718.45 463.616 1724.49 C 460.123 1727.31 415.859 1726.17 408.775 1726.17 C 373.237 1726.01 337.699 1726.09 302.163 1726.42 C 300.608 1695.09 309.656 1679.87 328.338 1656.23 C 326.667 1654.75 325.862 1653.89 324.312 1652.28 C 322.354 1645.47 328.466 1637.3 332.423 1631.92 C 340.794 1620.54 347.253 1608.44 354.659 1596.44 L 411.926 1504.2 C 426.024 1481.35 432.243 1478.12 436.445 1449.4 C 441.421 1415.39 448.938 1380.42 453.595 1346.27 z" class="svgShape color181d2f-1 selectable"></path><path fill="#ffffff" d="M 327.037 512.066 L 1717.82 512.254 L 1718 1033.56 L 1718.01 1193.36 C 1718.02 1218.73 1718.9 1246.64 1717.21 1271.72 C 1716.32 1284.88 1707.18 1301.02 1697.82 1310.46 C 1688.79 1319.75 1677.23 1326.17 1664.57 1328.92 C 1649.43 1332.07 1598.67 1330.85 1580.52 1330.83 L 1428.75 1330.92 L 1419.89 1330.85 C 1370.11 1329.65 1317.13 1330.57 1267.07 1330.57 L 925.646 1330.69 C 862.78 1330.72 796.059 1331.76 733.489 1330.27 C 730.089 1324.9 725.098 1318.3 721.318 1313.01 C 735.057 1299.51 735.881 1279.57 741.364 1261.58 C 747.779 1240.53 754.457 1219.85 761.369 1198.97 C 805.076 1270.68 822.621 1299.25 910.218 1254.9 C 931.817 1243.96 961.471 1235.05 983.766 1223.63 C 986.194 1222.38 983.087 1218.87 984.898 1215.94 L 986.399 1215.94 C 994.213 1215.92 1012.94 1215.4 1020.59 1210.7 C 1045.26 1195.28 1070.94 1178.27 1093.27 1159.6 C 1102 1152.31 1097.98 1141.94 1090.8 1135.36 C 1103.7 1118.54 1100.66 1115.91 1090.27 1100.23 C 1089.77 1099.48 1093.23 1087.52 1089 1081.89 C 1081.26 1071.61 1077.62 1077.51 1067.02 1074.82 C 1062.95 1071.49 1057.07 1059.92 1050.55 1060.48 C 1032.71 1062 1007.22 1089.11 993.288 1099.67 C 989.921 1088.26 986.722 1077.95 974.087 1074.73 C 944.955 1067.8 951.707 1102.06 951.287 1118.67 C 951.209 1121.76 943.825 1139.3 942.661 1145.97 L 863.869 1168.26 C 863.098 1166.67 862.303 1165.09 861.485 1163.52 C 842.465 1126.87 820.56 1088.57 799.241 1053.11 C 786.518 1031.94 761.231 1022.14 738.556 1014.94 L 743.888 1002.02 C 791.486 1002.95 814.57 980.805 824.401 935.547 C 832.415 927.766 834.273 925.239 835.222 914.161 C 842.057 911.746 844.854 910.65 851.265 907.258 C 841.853 894.075 844.893 904.769 835.994 903.794 C 833.14 901.735 831.135 900.206 832.503 896.685 C 837.009 895.695 848.046 896.088 853.203 896.122 C 851.918 881.122 849.85 874.515 833.762 871.45 C 834.055 858.632 833.7 851.843 831.313 839.28 C 845.971 828.809 852.788 822.939 860.848 806.748 L 889.751 806.817 L 889.778 759.706 L 923.086 759.425 L 923.02 725.246 L 889.356 725.054 L 889.555 599.695 C 873.618 599.739 857.68 599.654 841.744 599.44 C 812.984 642.2 781.094 684.77 753.227 727.921 C 754.158 736.921 753.884 750.232 753.964 759.566 C 769.607 759.761 839.56 757.626 849.453 760.512 C 853.256 770.834 840.731 773.911 833.949 776.149 C 801.632 786.813 774.989 768.117 743.674 762.181 C 704.664 754.788 663.326 764.691 639.58 798.544 C 625.107 819.327 620.2 851.837 624.797 876.452 C 611.091 903.827 621.566 929.08 651.588 936.693 C 654.03 944.578 656.084 949.209 659.515 956.794 C 654.296 969.023 648.789 981.128 642.999 993.098 C 612.873 991.915 581.096 987.154 551.705 996.12 C 543.765 998.543 533.947 1002.26 525.744 1002.27 L 525.377 1001.44 C 531.217 994.541 550.847 989.765 558.835 984.106 C 567.614 977.886 571.513 966.276 579.577 959.512 C 587.872 952.554 603.07 951.007 608.955 940.804 C 614.387 930.032 607.737 917.974 597.588 913.328 C 585.261 907.685 569.518 915.165 558.041 919.267 C 558.335 903.177 560.009 887.374 561.234 871.317 C 562.218 858.421 565.77 842.335 559.794 830.401 C 552.244 815.326 542.073 822.849 530.413 827.051 C 530.415 827.05 529.03 824.688 529.189 824.964 C 524.89 817.486 522.702 813.447 514.061 810.811 C 510.145 809.616 504.618 811.037 501.447 813.447 C 492.491 820.253 490.927 826.308 488.911 836.249 C 483.759 830.907 478.865 827.302 470.88 828.331 C 455.23 830.432 454.429 851.194 453.241 863.483 C 451.112 885.528 447.674 907.517 446.138 929.601 C 445.458 939.396 446.306 949.9 447.395 959.608 C 429.29 985.146 411.485 1011.45 392.738 1037.21 C 368.261 1070.85 368.174 1109.67 404.254 1135.37 C 435.643 1157.74 480.428 1137.13 514.945 1129.76 C 500.283 1164 486.903 1200.67 473.782 1235.64 C 468.646 1249.32 468.249 1255.56 474.498 1268.25 C 465.194 1290.1 461.387 1307.84 456.436 1330.68 L 417.023 1330.67 C 389.323 1330.66 369.126 1331.18 347.263 1310.62 C 338.601 1302.48 328.443 1283.33 327.772 1271.84 C 326.343 1247.36 326.987 1219.72 327.024 1195.08 L 327.11 1041.58 L 327.037 512.066 z" class="svgShape colorffffff-2 selectable"></path><path fill="#182f2f" d="M 1017.68 596.404 C 1073.42 591.818 1099.97 635.086 1106.06 684.932 C 1112.39 736.741 1095.07 803.36 1034.7 810.171 C 975.961 815.104 948.913 773.24 943.323 719.655 C 937.801 666.719 956.111 601.912 1017.68 596.404 z" class="svgShape color181d2f-3 selectable"></path><path fill="#ffffff" d="M 1017.39 632.194 C 1063.23 628.238 1066.31 682.988 1065.05 716.22 C 1064.16 739.484 1057.1 767.819 1031.73 774.943 C 1011.57 776.434 997.557 767.99 991.073 748.166 C 980.362 715.42 977.407 646.521 1017.39 632.194 z" class="svgShape colorffffff-4 selectable"></path><path fill="#182f2f" d="M1148.87 599.776L1280.44 599.839C1280.39 611.7 1280.44 623.562 1280.6 635.422 1248.45 635.658 1215.55 634.95 1183.5 635.792L1180.19 683.615C1205.01 673.569 1233.71 672.144 1257.82 685.194 1289.47 702.324 1296.38 746.7 1279.02 776.28 1268.93 793.472 1253.17 802.76 1234.26 807.586 1193.37 817.837 1148.88 806.354 1128.62 767.045 1137.49 761.328 1152.53 754.065 1162.71 748.053 1167.97 757.635 1173.45 765.651 1183.64 770.473 1203.2 779.727 1234.81 776.958 1244.34 754.965 1247.83 747.005 1247.85 737.955 1244.41 729.977 1231.87 701.03 1189.28 706.211 1165.96 717.332 1156.65 713.496 1150.58 711.116 1140.89 708.244 1143.54 672.289 1145.74 635.593 1148.87 599.776zM1008.91 857.987C1013.08 857.777 1015.51 857.318 1019.43 858.496 1020.37 862.685 1020.16 906.412 1019.41 910.751L1017 912.154C1014.57 912.153 1007.08 909.21 1007.66 908.98 999.932 912.018 997.842 912.811 989.41 911.419 965.259 892.309 985.025 860.298 1008.92 875.578L1008.91 857.987z" class="svgShape color181d2f-5 selectable"></path><path fill="#ffffff" d="M 997.976 879.883 C 1011.93 881.495 1013.24 896.666 1001.2 903.897 C 985.737 902.061 985.684 887.148 997.976 879.883 z" class="svgShape colorffffff-6 selectable"></path><path fill="#182f2f" d="M 1472.99 858.005 C 1476.64 857.896 1480.2 857.343 1483.3 859.069 C 1484.51 865.787 1483.97 901.651 1483.99 911.08 C 1477.74 911.429 1474.62 911.451 1468.39 911.071 L 1470.48 909.664 C 1463.88 912.763 1462.77 913.188 1455.57 912.186 C 1450.07 909.639 1446.25 905.431 1444.17 899.74 C 1441.92 893.604 1442.36 886.801 1445.41 881.015 C 1451.71 869.29 1462.79 869.456 1473.11 875.503 L 1472.99 858.005 z" class="svgShape color181d2f-7 selectable"></path><path fill="#ffffff" d="M 1459.8 880.836 C 1475.51 879.037 1477.23 894.464 1466.57 903.741 C 1451.76 903.95 1449.92 889.912 1459.8 880.836 z" class="svgShape colorffffff-8 selectable"></path><path fill="#182f2f" d="M1084.84 858.062C1088.2 858.065 1092.2 857.619 1094.88 859.29 1096.02 868.388 1097.55 903.969 1092.81 911.192 1084.59 915.827 1066.01 885.55 1059.77 877.794L1059.92 911.434 1049.04 911.514C1048.97 898.372 1048.85 885.109 1048.9 871.961 1048.92 866.607 1048.66 860.256 1054.31 858.252 1063.85 860.926 1078.66 884.499 1084.94 893.176L1084.84 858.062zM1214.59 858.873L1226.88 858.812C1233.64 876.369 1240.53 893.876 1247.55 911.331L1235.52 911.488C1234.05 907.611 1232.77 902.869 1229.74 900.321L1209.41 900.715 1206.07 911.427C1202.34 911.595 1197.71 911.328 1193.91 911.214L1214.59 858.873z" class="svgShape color181d2f-9 selectable"></path><path fill="#ffffff" d="M 1220.33 871.706 C 1223.1 874.753 1228.32 886.465 1226.78 890.687 L 1223.24 891.171 C 1218.6 891.117 1217.07 891.85 1214.51 889.261 C 1213.95 884.749 1218.3 876.664 1220.33 871.706 z" class="svgShape colorffffff-10 selectable"></path><path fill="#182f2f" d="M 1117.41 872.351 C 1128.34 868.651 1140.19 874.558 1143.81 885.511 C 1147.43 896.465 1141.44 908.273 1130.46 911.818 C 1119.6 915.327 1107.93 909.408 1104.34 898.564 C 1100.76 887.72 1106.59 876.014 1117.41 872.351 z" class="svgShape color181d2f-11 selectable"></path><path fill="#ffffff" d="M 1119.79 880.968 C 1135.97 880.705 1138.49 894.347 1127.53 903.474 C 1113.21 905.198 1109.95 890.536 1119.79 880.968 z" class="svgShape colorffffff-12 selectable"></path><path fill="#182f2f" d="M 950.16 871.513 C 961.424 869.844 971.925 877.574 973.676 888.826 C 975.428 900.077 967.775 910.635 956.536 912.469 C 945.181 914.322 934.489 906.572 932.719 895.203 C 930.949 883.834 938.778 873.199 950.16 871.513 z" class="svgShape color181d2f-13 selectable"></path><path fill="#ffffff" d="M 951.964 879.92 C 966.547 882.686 967.233 897.842 953.541 904.372 C 940.216 901.145 939.102 886.836 951.964 879.92 z" class="svgShape colorffffff-14 selectable"></path><path fill="#182f2f" d="M 1304.74 872.698 C 1315.52 868.654 1327.53 874.174 1331.49 884.99 C 1335.44 895.805 1329.81 907.768 1318.96 911.625 C 1308.25 915.437 1296.46 909.896 1292.56 899.211 C 1288.65 888.527 1294.09 876.693 1304.74 872.698 z" class="svgShape color181d2f-15 selectable"></path><path fill="#ffffff" d="M 1308.9 880.708 C 1323.78 881.602 1325.46 894.229 1315.84 902.995 C 1300.34 904.998 1298.47 889.887 1308.9 880.708 z" class="svgShape colorffffff-16 selectable"></path><path fill="#182f2f" d="M1334.66 872.06C1337.93 871.794 1339.76 871.417 1342.97 872.244 1348.75 877.06 1350.3 889.232 1352.9 897.743 1355.33 891.586 1359.85 870.694 1368.02 872.169 1373.79 877.035 1376.64 889.828 1378.96 897.485 1381.55 889.635 1383.09 880.384 1385.9 873.557 1388.75 871.698 1392.63 871.785 1395.58 873.305 1396.55 876.577 1394.23 880.997 1392.93 884.446 1390.86 891.815 1386.91 913.565 1377.54 911.475 1371.49 906.35 1368.28 893.101 1365.7 885.173 1362.99 892.704 1360.39 914.027 1350.85 911.954 1343.55 905.99 1337.76 882.075 1334.66 872.06zM1417.49 871.166C1434.8 871.784 1437.49 880.571 1439.15 895.776 1433.27 895.976 1414.06 893.718 1411.44 898.555 1417.75 910.04 1426.65 900.547 1432.31 901.002 1434.07 903.444 1434.84 903.941 1435 906.899 1433.57 909.345 1430.78 910.451 1428.19 911.366 1399.73 921.405 1385.22 878.847 1417.49 871.166z" class="svgShape color181d2f-17 selectable"></path><path fill="#ffffff" d="M 1417.24 878.774 C 1422.05 879.24 1430.46 883.422 1426.52 888.708 L 1422.25 888.95 C 1417.71 889.101 1413.59 889.898 1410.15 887.273 L 1410.09 885.24 C 1412.38 881.712 1413.64 881.219 1417.24 878.774 z" class="svgShape colorffffff-18 selectable"></path><path fill="#182f2f" d="M888.908 858.038C894.072 857.757 896.376 856.872 900.092 860.613 901.986 866.965 895.271 868.641 900.58 874.437 904.976 875.337 910.287 870.673 914.433 870.742 929.267 870.989 926.061 901.694 925.894 911.091L914.744 911.638 914.977 898.026C915.128 892.626 916.669 882.403 910.006 880.609 907.572 879.958 904.974 880.495 902.998 882.058 895.189 888.21 904.778 904.967 897.012 911.274 893.339 911.433 893.46 911.447 889.898 910.542 888.166 907.47 888.897 864.97 888.908 858.038zM861.222 862.088C876.899 861.795 867.288 864.402 873.626 872.21 874.285 873.022 877.602 871.114 881.456 874.073L881.687 877.161C880.303 879.922 877.061 880.941 874.332 882.449 868.499 885.67 870.344 898.803 873.922 902.845 876.747 902.891 877.911 902.998 880.713 903.395 883.434 905.876 882.621 905.59 883.6 910.017 882.284 910.5 880.954 910.946 879.613 911.355 855.028 918.657 863.357 894.234 860.35 880.914 858.647 880.44 857.345 880.029 855.677 879.442 854.754 876.689 854.696 876.89 855.533 874.13 862.272 870.103 860.946 869.677 861.222 862.088zM1153.8 862.406C1170.21 862.256 1159.34 866.142 1166.08 872.056 1168.89 872.235 1170.85 872.036 1173.17 873.568 1174.11 877.595 1174.56 876.059 1173.31 879.064 1167.47 880.814 1163.94 881.607 1163.74 889.079 1163.61 893.787 1163.17 899.069 1166.32 902.724 1169.32 903.275 1170.05 903.404 1173.04 904.452 1175.15 908.2 1174.48 906.173 1174.51 910.929 1143.61 919.534 1158.66 891.119 1152.8 880.456 1149.34 880.76 1150.55 881.123 1147.68 879.838 1147.12 876.846 1147.16 877.063 1148.25 874.2 1154.49 869.284 1153.53 870.09 1153.8 862.406zM1273.12 857.864C1276.87 857.799 1281.05 857.209 1284.15 858.987 1285.12 864.629 1284.6 903.115 1284.64 910.69 1281.32 911.604 1276.6 912.173 1273.6 910.177 1272.32 903.389 1273.07 867.269 1273.12 857.864zM1252.23 857.936C1256.32 857.812 1258.57 857.4 1262.34 858.744 1263.67 863.428 1263.04 903.469 1263.01 911.178 1259.27 911.295 1255.84 911.801 1252.51 910.227 1251.32 902.707 1252.19 866.906 1252.23 857.936z" class="svgShape color181d2f-19 selectable"></path><path fill="#30f1f2" d="M 716.711 352.21 L 1370.95 352.091 L 1566.2 352.185 C 1598.49 352.186 1634.13 350.661 1665.85 353.458 C 1697.57 356.254 1730.33 392.029 1732.57 423.488 C 1734.55 451.21 1733.57 478.91 1733.66 506.515 L 1733.7 687.205 L 1733.75 1249.06 C 1733.57 1279.25 1731.22 1299.39 1709 1322.27 C 1682.74 1349.31 1653.52 1346.07 1619.41 1346.41 C 1553.22 1347.07 1485.95 1344.75 1419.93 1346.33 L 1419.89 1330.85 L 1428.75 1330.92 L 1580.52 1330.83 C 1598.67 1330.85 1649.43 1332.07 1664.57 1328.92 C 1677.23 1326.17 1688.79 1319.75 1697.82 1310.46 C 1707.18 1301.02 1716.32 1284.88 1717.21 1271.72 C 1718.9 1246.64 1718.02 1218.73 1718.01 1193.36 L 1718 1033.56 L 1717.82 512.254 L 1718.07 497.032 L 327.241 496.953 L 326.974 457.003 C 326.806 428.876 326.403 409.072 347.373 387.614 C 370.316 364.137 396.235 367.467 426.398 367.569 L 484.398 367.695 L 716.943 367.629 C 716.905 362.489 716.827 357.349 716.711 352.21 z" class="svgShape color3069f2-20 selectable"></path><path fill="#25c8c9" d="M 716.711 352.21 L 1370.95 352.091 L 1566.2 352.185 C 1598.49 352.186 1634.13 350.661 1665.85 353.458 C 1697.57 356.254 1730.33 392.029 1732.57 423.488 C 1734.55 451.21 1733.57 478.91 1733.66 506.515 L 1733.7 687.205 L 1733.75 1249.06 C 1733.57 1279.25 1731.22 1299.39 1709 1322.27 C 1682.74 1349.31 1653.52 1346.07 1619.41 1346.41 C 1553.22 1347.07 1485.95 1344.75 1419.93 1346.33 L 1419.89 1330.85 L 1428.75 1330.92 L 1580.52 1330.83 C 1598.67 1330.85 1649.43 1332.07 1664.57 1328.92 C 1677.23 1326.17 1688.79 1319.75 1697.82 1310.46 C 1707.18 1301.02 1716.32 1284.88 1717.21 1271.72 C 1718.9 1246.64 1718.02 1218.73 1718.01 1193.36 L 1718 1033.56 L 1717.82 512.254 L 1718.07 497.032 L 1718.1 458.267 C 1717.93 431.059 1717.94 407.323 1697.39 386.958 C 1675.61 365.374 1647.96 367.775 1620.02 367.799 L 1561.67 367.89 L 1368.62 367.909 L 716.943 367.629 C 716.905 362.489 716.827 357.349 716.711 352.21 z" class="svgShape colorc92572-21 selectable"></path><path fill="#ffffff" d="M 1142.13 385.233 C 1182.87 384.461 1224.91 384.964 1265.73 384.97 L 1480.1 384.977 L 1579.8 384.971 C 1600.64 384.961 1624.67 383.911 1645.04 387.117 C 1661.59 389.723 1675.73 399.864 1684.94 413.616 C 1689.51 420.435 1695.43 432.837 1693.77 441.04 C 1691.68 444.295 1690.4 444.483 1686.87 446.049 C 1686.02 445.743 1682.7 444.546 1682.7 444.546 C 1663.82 400.267 1644.46 401.538 1600.53 402.257 C 1585.31 402.506 1559.11 402.293 1539.53 402.319 L 1268.23 402.365 L 1183.86 402.305 C 1171.28 402.302 1145.13 405.405 1136.42 397.119 C 1133.97 390.592 1136.79 388.598 1142.13 385.233 z" class="svgShape colorffffff-22 selectable"></path><path fill="#182f2f" d="M 592.23 401.495 C 603.677 399.529 615.299 403.862 622.665 412.842 C 630.031 421.823 632.007 434.068 627.839 444.91 C 623.67 455.752 614.001 463.519 602.515 465.252 C 585.007 467.894 568.637 455.945 565.817 438.465 C 562.997 420.984 574.779 404.493 592.23 401.495 z" class="svgShape color181d2f-23 selectable"></path><path fill="#30f1f2" d="M 594.601 414.441 C 601.462 413.309 608.403 415.949 612.777 421.356 C 617.151 426.762 618.284 434.101 615.744 440.575 C 613.204 447.048 607.383 451.659 600.499 452.648 C 590.009 454.157 580.261 446.937 578.644 436.464 C 577.027 425.99 584.145 416.167 594.601 414.441 z" class="svgShape color3069f2-24 selectable"></path><path fill="#182f2f" d="M 408.759 401.608 C 420.284 399.571 432.008 403.936 439.395 413.013 C 446.782 422.091 448.673 434.458 444.336 445.328 C 439.999 456.198 430.115 463.867 418.508 465.367 C 401.128 467.613 385.134 455.573 382.485 438.25 C 379.837 420.927 391.502 404.657 408.759 401.608 z" class="svgShape color181d2f-25 selectable"></path><path fill="#25c8c9" d="M 409.383 414.668 C 419.79 411.915 430.462 418.097 433.252 428.493 C 436.042 438.889 429.899 449.584 419.513 452.411 C 409.074 455.253 398.313 449.071 395.509 438.622 C 392.705 428.173 398.925 417.435 409.383 414.668 z" class="svgShape colorc92572-26 selectable"></path><path fill="#182f2f" d="M 501.121 401.525 C 518.703 398.658 535.28 410.587 538.145 428.169 C 541.011 445.751 529.079 462.327 511.497 465.19 C 493.918 468.052 477.346 456.123 474.481 438.545 C 471.616 420.966 483.543 404.392 501.121 401.525 z" class="svgShape color181d2f-27 selectable"></path><path fill="#13f7f9" d="M 501.494 414.513 C 511.936 411.785 522.618 418.02 525.377 428.454 C 528.137 438.889 521.932 449.589 511.506 452.379 C 501.036 455.179 490.283 448.944 487.512 438.467 C 484.742 427.989 491.008 417.254 501.494 414.513 z" class="svgShape colorf97713-28 selectable"></path><path fill="#ffffff" d="M1087.44 385.299C1096.71 385.033 1117.82 381.75 1114.02 397.077 1111.77 400.268 1111.16 400.349 1107.74 402.024 1099.91 402.188 1083.61 404.156 1079.36 396.681 1078.62 390.04 1081.62 387.365 1087.44 385.299zM1686.91 455.863C1699.78 459.859 1699.03 471.707 1687.94 477.762 1675.49 472.795 1676.14 462.544 1686.91 455.863z" class="svgShape colorffffff-29 selectable"></path><path fill="#079fa0" d="M 484.344 1276.54 C 536.965 1299.86 651.339 1314.89 710.004 1319.1 L 755.297 1383.51 C 766.384 1399.29 777.613 1415.02 788.328 1431.05 C 798.499 1446.27 807.283 1462.11 805.203 1481.02 C 802.967 1501.35 799.535 1521.48 796.305 1541.66 L 779.088 1648.09 C 751.869 1647.59 724.644 1647.44 697.421 1647.64 C 701.313 1595.46 706.576 1543.06 710.274 1491.03 C 694.574 1468.26 666.998 1442.47 648.598 1420.93 C 637.144 1410.11 621.658 1392.26 610.926 1380.17 C 623.819 1378.07 631.302 1375.78 643.716 1371.5 C 646.611 1369.65 647.817 1369.29 649.109 1365.89 C 648.806 1362.01 649.539 1363.62 646.904 1360.84 C 639.281 1358.21 627.121 1364.14 618.599 1365.72 C 609.689 1367.37 598.315 1367.54 590.016 1369.87 C 585.306 1377.53 577.931 1402.44 574.473 1412.55 C 565.912 1437.55 557.818 1461.87 548.034 1486.5 C 538.476 1510.56 526.082 1524.65 510.857 1545.15 L 474.391 1594.28 C 463.447 1609.02 444.785 1636.01 433.776 1649.15 C 405.39 1646.76 369.156 1645.26 342.047 1641.87 C 351.026 1625.41 362.614 1608.41 372.647 1592.36 L 416.104 1522.23 C 422.648 1511.79 440.135 1485.67 443.873 1475.13 C 447.596 1464.63 450.784 1438.66 453.132 1426.94 C 462.661 1379.35 467.062 1321.26 484.344 1276.54 z" class="svgShape color0e8d91-30 selectable"></path><path fill="#096667" d="M 610.926 1380.17 C 623.819 1378.07 631.302 1375.78 643.716 1371.5 C 645.692 1379.49 648.748 1412.48 648.598 1420.93 C 637.144 1410.11 621.658 1392.26 610.926 1380.17 z" class="svgShape color095c67-31 selectable"></path><path fill="#13f7f9" d="M 601.944 1002.99 C 613.985 1004.26 624.66 1004.83 636.751 1005.4 C 650.265 1028.32 665.21 1048.81 691.982 1056.68 C 718.296 1064.41 731.426 1052.12 737.334 1027.35 C 742.729 1029 747.531 1030.94 752.767 1032.99 C 764.351 1063.25 771.91 1095.29 768.784 1127.93 C 766.83 1148.33 757.874 1170.71 751.167 1190.12 C 745 1208.23 738.999 1226.41 733.166 1244.63 C 728.123 1260.92 724.851 1277.71 719.976 1293.99 C 719.081 1296.98 716.433 1300.81 713.953 1302.43 C 705.072 1308.23 676.385 1302.99 665.56 1301.62 C 614.576 1295.58 562.482 1287.23 512.986 1273.61 C 495.402 1268.77 477.686 1264 484.79 1242.23 C 488.686 1230.29 492.948 1219.39 497.524 1207.7 L 519.16 1152.23 C 547.869 1153.07 572.51 1146.61 594.243 1126.84 C 612.166 1110.72 622.901 1088.1 624.06 1064.02 C 625.215 1038.96 618.45 1021.22 601.944 1002.99 z" class="svgShape colorf97713-32 selectable"></path><path fill="#ffffff" d="M 702.314 836.221 C 742.639 845.281 779.623 853.268 820.615 843.194 C 823.509 867.178 815.387 936.69 805.29 957.413 C 798.595 971.473 786.451 982.191 771.667 987.086 C 744.99 995.758 716.814 984.573 693.217 972.548 C 699.136 988.219 704.401 996.448 715.391 1008.95 C 720.406 1013.63 722.202 1014.93 727.808 1018.65 C 726.665 1023.18 725.581 1028.11 724.1 1032.44 C 716.155 1055.65 690.681 1045.51 676.7 1034.83 C 665.112 1025.98 658.259 1017.21 651.016 1005.29 C 658.613 988.898 665.887 972.359 672.833 955.681 C 666.583 943.503 664.706 938.098 661.28 924.778 C 611.164 925.759 629.928 850.06 668.835 880.763 C 692.022 871.089 697.254 859.52 702.314 836.221 z" class="svgShape colorffffff-33 selectable"></path><path fill="#182f2f" d="M732.266 931.328C737.233 933.016 742.849 943.809 750.132 945.934 757.278 948.018 768.429 944.219 771.436 951.484 770.715 954.912 769.702 955.396 767.114 957.759 765.938 957.962 764.755 958.122 763.567 958.24 750.136 959.483 716.428 946.88 732.266 931.328zM732.953 870.477C749.54 873.207 746.055 894.419 735.805 903.339 719.504 900.579 723.587 879.515 732.953 870.477zM792.974 877.64C808.809 879.278 805.828 900.156 796.574 909.053 780.708 909.307 784.581 886.322 792.974 877.64z" class="svgShape color181d2f-34 selectable"></path><path fill="#25c8c9" d="M452.732 973.785C469.769 995.546 484.894 1002.37 512.378 1003.18 501.851 1029.16 490.999 1055.7 481.236 1082 479.458 1086.79 477.778 1094.02 480.22 1098.81L482.923 1099.03C484.398 1098.19 487.245 1096.68 487.948 1095.22 499.032 1072.2 510.203 1041.57 520.035 1018.29 531.46 1013.97 558.41 1005.88 569.602 1005.34 579.16 1004.98 588.474 1008.41 595.524 1014.87 606.241 1024.64 611.256 1041.05 611.676 1055.24 612.384 1079.11 604.802 1097.09 588.946 1114.29 571.044 1130.31 558.784 1135.1 535.763 1140.4 544.253 1132.77 565.391 1117.25 570.688 1111.32 570.517 1107.97 570.691 1108.14 568.608 1105.54 563.393 1102.69 546.054 1109.14 539.469 1110.64 512.878 1117.69 488.094 1123.35 461.344 1130.31 418.948 1141.34 375.253 1111.37 391.374 1065.16 395.985 1051.94 407.82 1036.91 416.24 1024.85 428.186 1007.67 440.351 990.65 452.732 973.785zM768.803 1040.2C775.043 1044.73 784.005 1052.16 790.182 1061.95 814.011 1099.73 834.478 1143.07 857.378 1181.36 857.61 1181.75 862.286 1181.35 863.239 1181.14 872.951 1179.01 882.908 1176.04 892.509 1173.36 908.806 1168.76 925.138 1164.29 941.506 1159.96 949.25 1180.07 957.286 1197.72 966.481 1217.24 937.179 1229.96 907.895 1242.81 878.303 1254.79 861.991 1261.4 845.403 1267.25 828.007 1260.55 810.636 1253.86 799.622 1236.66 791.48 1220.86 786.024 1216.26 772.252 1193.7 767.087 1185.84 768.88 1178.71 780.57 1141.08 783.452 1136.21 780.665 1098.99 782.828 1077.87 768.803 1040.2z" class="svgShape colorc92572-35 selectable"></path><path fill="#175454" d="M 783.452 1136.21 C 787.741 1163.11 789.782 1193.62 791.48 1220.86 C 786.024 1216.26 772.252 1193.7 767.087 1185.84 C 768.88 1178.71 780.57 1141.08 783.452 1136.21 z" class="svgShape color541743-36 selectable"></path><path fill="#ffffff" d="M506.896 822.839C509.38 822.825 515.728 822.805 516.585 826.034 520.398 840.401 509.629 890.473 517.659 900.27 520.977 901.508 519.335 901.429 522.758 900.511 533.055 889.947 528.398 839.533 543.365 832.348 550.175 832.249 551.567 840.81 551.186 846.238 549.356 872.287 545.95 897.354 545.758 923.563 533.12 924.634 522.588 927.545 512.26 935.485 507.021 939.513 499.063 948.14 505.096 954.643 512.178 955.52 512.457 949.018 520.285 943.709 532.532 935.403 541.594 938.018 553.931 934.472 562.85 931.956 581.295 920.047 590.3 923.25 603.387 927.905 599.945 935.797 589.661 940.863 559.717 953.311 569.136 960.949 545.408 977.69 537.446 983.979 524.051 983.399 516.495 988.239 511.268 991.588 514.33 991.198 506.951 990.559 447.069 985.38 456.952 934.249 462.6 891.092 464.248 878.507 465.46 864.342 466.511 851.604 466.954 845.578 469.335 838.138 476.858 840.295 487.339 850.743 474.685 893.37 484.946 902.699 487.691 902.399 490.611 900.846 491.547 898.428 497.674 882.589 497.076 834.731 506.896 822.839zM1047.13 1071.89C1050.85 1073.02 1050.69 1073.06 1053.47 1075.48 1057.73 1086.01 1022.03 1103.08 1017.93 1116.29 1018.66 1120.1 1017.86 1118.44 1020.49 1121.4 1034.44 1125.73 1065.17 1081.44 1078.7 1088.03 1089 1102.84 1035.47 1121.3 1034.67 1137.19 1042.08 1156.87 1076.69 1103.73 1087.53 1115.21 1089.54 1129.57 1048.64 1143.47 1045.25 1158.38 1046.47 1162.71 1045.43 1160.8 1048.76 1164.16 1057.77 1166.64 1078.47 1138.17 1086.11 1145.84 1086.83 1149.34 1087.03 1147.69 1085.34 1150.94 1069.48 1164.05 1025.7 1196.76 1005.85 1202.73 984.073 1209.28 970.136 1202.95 963.395 1180.98 959.165 1167.19 947.022 1151.63 959.126 1132.7 971.702 1118.38 951.651 1086.89 970.917 1086.04 981.64 1090.95 982.79 1118.44 986.474 1129.18 988.58 1135.31 987.466 1146.35 989.935 1152.13 992.809 1153.67 992.68 1153.45 995.979 1153.1 1004.78 1146.09 997.697 1123.64 994.199 1114.56 1004.13 1105.95 1037.82 1077.37 1047.13 1071.89zM343.609 1655.93C364.424 1658.34 386.644 1659 407.779 1661.04 403.918 1665.5 400.155 1668.59 400.061 1674.45 406.719 1685.09 437.152 1674.81 450.075 1712.25L429.751 1712.36C391.559 1712.48 353.365 1712.38 315.174 1712.05 318.972 1685 327.293 1677.71 343.609 1655.93zM699.697 1661.75C720.143 1661.08 745.027 1661.78 765.799 1661.86 765.303 1664.24 763.964 1669.79 764.622 1671.8 766.081 1677.22 781.741 1680.38 787.573 1680.74 798.575 1681.41 828.752 1701.67 822.527 1712.04L818.25 1712.28 688.878 1712.18C692.333 1695.34 695.939 1678.53 699.697 1661.75zM848.506 647.768C851.092 650.411 849.918 717.09 849.901 725.209 832.19 725.466 813.834 725.191 796.072 725.166L795.012 723.917C797.032 719.556 812.123 699.424 815.802 694.251 826.684 678.948 837.458 662.882 848.506 647.768zM832.544 880.218C836.999 881.098 837.207 881.206 840.319 884.241 841.667 888.005 841.827 886.33 840.753 889.454 837.509 889.697 835.671 890.096 832.556 889.09 830.913 885.572 831.851 884.919 832.544 880.218z" class="svgShape colorffffff-37 selectable"></path></svg></g></svg>