<svg width="20" height="20" viewBox="0 0 20 20" fill="none" xmlns="http://www.w3.org/2000/svg">
    <path d="M8.09284 3.03354C8.577 2.62104 8.8195 2.41437 9.07284 2.29354C9.36198 2.15558 9.6783 2.08398 9.99867 2.08398C10.319 2.08398 10.6354 2.15558 10.9245 2.29354C11.1778 2.41437 11.4203 2.62104 11.9045 3.03354C12.4037 3.45854 12.9103 3.67354 13.577 3.72604C14.2112 3.77687 14.5287 3.8027 14.7937 3.89604C15.4053 4.1127 15.887 4.59354 16.1028 5.20604C16.1962 5.4702 16.222 5.7877 16.2728 6.4227C16.3253 7.08937 16.5395 7.5952 16.9645 8.09437C17.3778 8.57854 17.5845 8.82104 17.7053 9.07437C17.9853 9.6602 17.9853 10.341 17.7053 10.926C17.5845 11.1794 17.3778 11.4219 16.9653 11.906C16.5524 12.3694 16.3083 12.9589 16.2728 13.5785C16.222 14.2127 16.1962 14.5302 16.1028 14.7952C15.9958 15.0973 15.8227 15.3716 15.596 15.5981C15.3694 15.8246 15.095 15.9976 14.7928 16.1044C14.5287 16.1977 14.2112 16.2235 13.5762 16.2744C12.9095 16.3269 12.4037 16.541 11.9045 16.966C11.4203 17.3794 11.1778 17.586 10.9245 17.7069C10.6354 17.8448 10.319 17.9164 9.99867 17.9164C9.6783 17.9164 9.36198 17.8448 9.07284 17.7069C8.8195 17.586 8.577 17.3794 8.09284 16.9669C7.62946 16.5539 7.04001 16.3098 6.42034 16.2744C5.78617 16.2235 5.46867 16.1977 5.20367 16.1044C4.90162 15.9974 4.62731 15.8242 4.4008 15.5976C4.17429 15.3709 4.00131 15.0965 3.8945 14.7944C3.80117 14.5302 3.77534 14.2127 3.7245 13.5777C3.68908 12.9584 3.44532 12.3693 3.03284 11.906C2.6195 11.4219 2.41283 11.1794 2.29117 10.926C2.15334 10.6368 2.08189 10.3205 2.08203 10.0001C2.08218 9.67974 2.15391 9.36345 2.292 9.07437C2.41284 8.82104 2.6195 8.57854 3.032 8.09437C3.46534 7.5852 3.67284 7.0752 3.7245 6.42187C3.77534 5.7877 3.80117 5.4702 3.8945 5.2052C4.0015 4.90316 4.17466 4.62885 4.40131 4.40234C4.62797 4.17582 4.90239 4.00284 5.2045 3.89604C5.46867 3.8027 5.78617 3.77687 6.42117 3.72604C7.04045 3.69061 7.62957 3.44603 8.09284 3.03354Z" stroke="black" stroke-width="1.5" stroke-linecap="round" stroke-linejoin="round"/>
    <path d="M7.5 6.25H12.5M7.5 8.565H12.5M11.0417 14.5833L7.5 10.88H8.75C11.5283 10.88 11.5283 6.25 8.75 6.25" stroke="black" stroke-width="1.5" stroke-linecap="round" stroke-linejoin="round"/>
</svg>
