<svg width="16" height="16" viewBox="0 0 16 16" fill="none" xmlns="http://www.w3.org/2000/svg">
<path d="M13.977 11.4762C13.977 11.4716 13.977 11.4655 13.9754 11.4608C13.9754 11.4562 13.9738 11.4501 13.9738 11.4455C13.9738 11.4408 13.9722 11.4362 13.9722 11.4331C13.9706 11.4285 13.9706 11.4238 13.9692 11.4193C13.9676 11.4147 13.9676 11.4101 13.9661 11.4055C13.9307 11.2733 13.8155 11.1734 13.6694 11.1719C13.654 11.1719 13.6371 11.1703 13.6186 11.1688C13.6048 11.1673 13.5894 11.1658 13.574 11.1642C13.5787 11.1673 13.5647 11.1703 13.5448 11.1658C13.5387 11.1642 13.5325 11.1642 13.5264 11.1627C13.5234 11.1627 13.5203 11.1611 13.5171 11.1611C13.4894 11.1565 13.4633 11.1488 13.4356 11.1427C13.4048 11.135 13.3771 11.1227 13.3479 11.1135C13.3464 11.1135 13.3449 11.112 13.3433 11.112H13.3402C13.3387 11.112 13.3372 11.112 13.3356 11.1104C13.3326 11.1088 13.3295 11.1088 13.3279 11.1073C13.3218 11.1057 13.3141 11.1027 13.3079 11.1012C13.314 11.1028 13.3186 11.1043 13.3233 11.1059C13.3186 11.1043 13.3125 11.1012 13.3095 11.0997C13.2864 11.0874 13.2633 11.0767 13.2403 11.0629C13.208 11.0444 13.1773 11.0214 13.1449 11.0014C13.151 11.006 13.1573 11.0106 13.1619 11.0167C13.1558 11.0121 13.0957 10.9691 13.1311 10.9921C13.1358 10.9951 13.1404 10.9982 13.1435 11.0014C13.1388 10.9983 13.1358 10.9953 13.1311 10.9921C13.1111 10.9751 13.0912 10.9583 13.0727 10.9398C13.0419 10.9107 13.0142 10.8814 12.9866 10.8506C12.9712 10.8336 12.9574 10.8168 12.9435 10.7998C12.9435 10.7998 12.9419 10.7982 12.9419 10.7968C12.9681 10.8336 12.9266 10.7814 12.9266 10.7783C12.9266 10.7783 12.9312 10.783 12.9419 10.7968C12.9403 10.7952 12.9403 10.7937 12.9389 10.7921C12.8836 10.7138 12.8328 10.6338 12.7882 10.5508C12.7668 10.5109 12.7467 10.4692 12.7267 10.4277C12.719 10.4124 12.7129 10.3955 12.7052 10.3786C12.7068 10.3832 12.7083 10.3878 12.7113 10.3923C12.7251 10.4292 12.6775 10.314 12.699 10.3646C12.7006 10.3693 12.7037 10.3739 12.7051 10.38C12.7005 10.3693 12.6958 10.3585 12.6928 10.3478C12.6236 10.171 12.5697 9.98951 12.5282 9.80507C12.5082 9.71438 12.4898 9.62514 12.4744 9.53298C12.4667 9.49148 12.4606 9.45144 12.4544 9.40993C12.4528 9.39614 12.4497 9.38222 12.4483 9.36843C12.4499 9.37612 12.4499 9.38381 12.4513 9.3915C12.4544 9.42226 12.4436 9.34072 12.4436 9.33925C12.4436 9.34084 12.4436 9.34389 12.4452 9.35158C12.4468 9.35769 12.4468 9.36391 12.4483 9.37001C12.4467 9.36391 12.4467 9.35769 12.4452 9.35305C12.4283 9.22084 12.4206 9.08706 12.413 8.95327C12.4069 8.84719 12.4084 8.73952 12.4084 8.63345L12.4087 6.48098C12.4087 6.14433 12.398 5.81217 12.3334 5.47855C12.2166 4.8682 11.929 4.30386 11.5492 3.81655C10.7851 2.83411 9.59816 2.2068 8.3636 2.08839C7.12435 1.96998 5.86666 2.4497 4.95047 3.27539C4.11563 4.0288 3.59904 5.09276 3.59904 6.22276L3.59891 8.30749C3.59891 8.67492 3.60355 9.04248 3.56205 9.40833C3.559 9.43445 3.55436 9.45911 3.55131 9.48523C3.55289 9.47754 3.55289 9.46985 3.55289 9.46985C3.55289 9.46985 3.55289 9.4729 3.55131 9.48218C3.54972 9.49292 3.54825 9.5022 3.54667 9.51294C3.54362 9.53601 3.54056 9.55908 3.53593 9.58215C3.52213 9.67285 3.50516 9.76208 3.48514 9.8512C3.44364 10.0372 3.38981 10.2186 3.31913 10.3955C3.32377 10.3862 3.32523 10.3817 3.32682 10.3801C3.32682 10.3817 3.29764 10.4508 3.31754 10.3986C3.31754 10.3986 3.31754 10.397 3.31913 10.3955C3.31913 10.3971 3.31754 10.3986 3.31754 10.4001C3.30826 10.4202 3.29911 10.4417 3.28983 10.4617C3.26981 10.5032 3.24992 10.5432 3.22831 10.5815C3.20682 10.62 3.18375 10.6584 3.15909 10.6969C3.14676 10.7153 3.13444 10.7338 3.12223 10.7522C3.11454 10.7629 3.09916 10.7799 3.09 10.7907C3.09305 10.7876 3.09611 10.783 3.10233 10.7783C3.04545 10.8413 2.9932 10.9059 2.92863 10.9628C2.91324 10.9766 2.89323 10.9889 2.87784 11.0043L2.88859 10.9935C2.88395 10.9966 2.8809 10.9996 2.87626 11.0028C2.83634 11.0305 2.79471 11.0551 2.75321 11.0767C2.74247 11.0828 2.73173 11.0874 2.7194 11.092C2.72099 11.0905 2.72245 11.0874 2.72404 11.0874C2.72245 11.0874 2.72099 11.089 2.7194 11.089H2.71781H2.71622H2.70853L2.70695 11.0906C2.70695 11.0922 2.70695 11.0936 2.70536 11.0936C2.70072 11.0967 2.69608 11.0997 2.68998 11.1029C2.68229 11.106 2.67619 11.109 2.67301 11.109C2.63615 11.1213 2.59916 11.1337 2.56229 11.1428C2.53922 11.1489 2.51615 11.1536 2.49308 11.1582C2.48698 11.1598 2.47929 11.1598 2.47306 11.1613H2.48686C2.50993 11.1597 2.47916 11.1674 2.45768 11.1674C2.44535 11.1674 2.4362 11.1689 2.44694 11.1674H2.40385C2.39774 11.1674 2.39152 11.1674 2.38383 11.1689C2.3715 11.1689 2.35771 11.1705 2.34538 11.1705H2.32536H2.32072C2.1608 11.1752 2.01017 11.3104 2.01786 11.4764C2.02555 11.6425 2.15006 11.7793 2.32072 11.7824H2.32536H13.2016C13.3384 11.7824 13.4753 11.787 13.6121 11.7839H13.6444C13.6505 11.7839 13.6567 11.7855 13.6628 11.7855C13.831 11.7853 13.9847 11.6423 13.977 11.4762L13.977 11.4762ZM7.70416 4.36684C7.64117 4.36525 7.57805 4.36989 7.51507 4.37611C7.37517 4.39919 7.2398 4.43764 7.1076 4.4883C7.02154 4.52821 6.93853 4.57289 6.85857 4.62355C6.81707 4.64967 6.77862 4.67738 6.7387 4.70509C6.71868 4.72206 6.69879 4.73891 6.67876 4.75587C6.6004 4.82509 6.5296 4.90041 6.46197 4.98036C6.44659 5.00185 6.43279 5.02186 6.41741 5.04335C6.38665 5.08949 6.35747 5.13869 6.33135 5.18788C6.2083 5.41383 5.9162 5.46766 5.70098 5.3539C5.47649 5.23549 5.41961 4.93421 5.53496 4.72352C5.95159 3.95936 6.82952 3.43043 7.7044 3.44433C7.9627 3.44897 8.15484 3.65185 8.16571 3.90565C8.17609 4.15162 7.9455 4.37146 7.70416 4.36684Z" fill="#83C3DF"/>
<path d="M9.12217 12.4772C9.08067 12.5618 9.03147 12.6401 8.97605 12.717C8.92844 12.7847 9.04673 12.6324 8.99607 12.6909C8.9791 12.7094 8.96385 12.7294 8.94688 12.7478C8.91611 12.7816 8.88389 12.814 8.84995 12.8462C8.81919 12.8754 8.78538 12.9015 8.75303 12.9292C8.86521 12.8308 8.80063 12.8923 8.76999 12.9138C8.74997 12.9276 8.72849 12.9415 8.70847 12.9553C8.6301 13.0045 8.54709 13.0476 8.46091 13.0845C8.49778 13.0691 8.53476 13.0537 8.57163 13.0383C8.42099 13.0999 8.26413 13.1414 8.10263 13.1644C8.14413 13.1583 8.18417 13.1537 8.22568 13.1475C8.07187 13.1659 7.91659 13.1689 7.76289 13.149C7.8044 13.1552 7.84444 13.1598 7.88594 13.166C7.743 13.1445 7.60298 13.1061 7.46932 13.0492C7.50618 13.0646 7.54317 13.08 7.58003 13.0953C7.4908 13.0554 7.40328 13.0107 7.32173 12.9569C7.28328 12.9322 7.24788 12.9061 7.21102 12.88C7.34175 12.9738 7.20491 12.8723 7.17415 12.8446C7.10494 12.7816 7.04036 12.7139 6.98201 12.6416C6.95894 12.6124 6.92672 12.5493 6.99898 12.6647C6.98665 12.6462 6.97286 12.6293 6.96053 12.6108C6.93135 12.5677 6.90364 12.5248 6.87752 12.4801C6.75606 12.2726 6.45627 12.1803 6.24715 12.3141C6.03804 12.4493 5.95039 12.723 6.08113 12.9445C6.38862 13.4687 6.90682 13.8931 7.50641 14.0299C8.0876 14.1621 8.75482 14.053 9.24688 13.7054C9.52825 13.5071 9.76507 13.2534 9.92035 12.9443C10.028 12.7291 9.98492 12.4354 9.75433 12.314C9.54498 12.2019 9.23751 12.248 9.12217 12.4772Z" fill="#83C3DF"/>
</svg>
