<svg width="20" height="20" viewBox="0 0 20 20" fill="none" xmlns="http://www.w3.org/2000/svg">
    <path d="M8.26143 1.41587C8.44902 1.20637 8.67868 1.03878 8.93542 0.92404C9.19216 0.809304 9.47022 0.75 9.75143 0.75C10.0326 0.75 10.3107 0.809304 10.5674 0.92404C10.8242 1.03878 11.0538 1.20637 11.2414 1.41587L11.9414 2.19787C12.1415 2.42137 12.3893 2.597 12.6664 2.71177C12.9435 2.82653 13.2429 2.87749 13.5424 2.86087L14.5924 2.80287C14.8733 2.78739 15.1542 2.83132 15.4169 2.93179C15.6797 3.03227 15.9182 3.18703 16.1171 3.38596C16.3159 3.5849 16.4705 3.82354 16.5709 4.0863C16.6712 4.34906 16.715 4.63003 16.6994 4.91087L16.6414 5.95987C16.625 6.2592 16.676 6.55841 16.7908 6.83536C16.9055 7.11231 17.0811 7.35992 17.3044 7.55987L18.0864 8.25987C18.2961 8.44746 18.4638 8.67718 18.5787 8.93402C18.6935 9.19086 18.7529 9.46903 18.7529 9.75037C18.7529 10.0317 18.6935 10.3099 18.5787 10.5667C18.4638 10.8236 18.2961 11.0533 18.0864 11.2409L17.3044 11.9409C17.0809 12.1409 16.9053 12.3887 16.7905 12.6658C16.6758 12.943 16.6248 13.2424 16.6414 13.5419L16.6994 14.5919C16.7149 14.8727 16.671 15.1537 16.5705 15.4164C16.47 15.6791 16.3153 15.9177 16.1163 16.1165C15.9174 16.3153 15.6788 16.47 15.416 16.5703C15.1532 16.6707 14.8723 16.7145 14.5914 16.6989L13.5424 16.6409C13.2431 16.6244 12.9439 16.6754 12.6669 16.7902C12.39 16.905 12.1424 17.0805 11.9424 17.3039L11.2424 18.0859C11.0548 18.2955 10.8251 18.4633 10.5683 18.5781C10.3114 18.6929 10.0333 18.7523 9.75193 18.7523C9.47059 18.7523 9.19241 18.6929 8.93558 18.5781C8.67874 18.4633 8.44902 18.2955 8.26143 18.0859L7.56143 17.3039C7.36137 17.0804 7.1136 16.9047 6.83646 16.79C6.55933 16.6752 6.25993 16.6243 5.96043 16.6409L4.91043 16.6989C4.62959 16.7144 4.34863 16.6704 4.08592 16.57C3.8232 16.4695 3.58464 16.3147 3.3858 16.1158C3.18695 15.9168 3.03231 15.6782 2.93196 15.4154C2.83161 15.1527 2.78781 14.8717 2.80343 14.5909L2.86143 13.5419C2.8779 13.2425 2.82686 12.9433 2.7121 12.6664C2.59734 12.3894 2.42179 12.1418 2.19843 11.9419L1.41643 11.2419C1.20676 11.0543 1.03903 10.8246 0.924193 10.5677C0.809357 10.3109 0.75 10.0327 0.75 9.75137C0.75 9.47003 0.809357 9.19186 0.924193 8.93502C1.03903 8.67818 1.20676 8.44846 1.41643 8.26087L2.19843 7.56087C2.42193 7.36081 2.59756 7.11304 2.71232 6.8359C2.82709 6.55877 2.87805 6.25937 2.86143 5.95987L2.80343 4.90987C2.78809 4.62911 2.83213 4.34827 2.93267 4.08567C3.03321 3.82308 3.18799 3.58464 3.38691 3.38591C3.58583 3.18717 3.82442 3.03262 4.08711 2.93233C4.3498 2.83204 4.63068 2.78827 4.91143 2.80387L5.96043 2.86187C6.25976 2.87834 6.55897 2.82731 6.83592 2.71254C7.11287 2.59778 7.36048 2.42223 7.56043 2.19887L8.26143 1.41587Z" stroke="black" stroke-width="1.5"/>
    <path d="M7.35107 7.35083H7.36107V7.36083H7.35107V7.35083ZM12.3511 12.3508H12.3611V12.3608H12.3511V12.3508Z" stroke="black" stroke-width="2" stroke-linejoin="round"/>
    <path d="M12.7515 6.75098L6.75146 12.751" stroke="black" stroke-width="1.5" stroke-linecap="round" stroke-linejoin="round"/>
</svg>
