<svg width="16" height="16" viewBox="0 0 16 16" fill="none" xmlns="http://www.w3.org/2000/svg">
<path fill-rule="evenodd" clip-rule="evenodd" d="M8.00065 1.33301C11.6827 1.33301 14.6673 4.31767 14.6673 7.99967C14.6673 11.6817 11.6827 14.6663 8.00065 14.6663C4.31865 14.6663 1.33398 11.6817 1.33398 7.99967C1.33398 4.31767 4.31865 1.33301 8.00065 1.33301ZM8.00065 9.99967C7.73543 9.99967 7.48108 10.105 7.29354 10.2926C7.10601 10.4801 7.00065 10.7345 7.00065 10.9997C7.00065 11.2649 7.10601 11.5192 7.29354 11.7068C7.48108 11.8943 7.73543 11.9997 8.00065 11.9997C8.26587 11.9997 8.52022 11.8943 8.70776 11.7068C8.89529 11.5192 9.00065 11.2649 9.00065 10.9997C9.00065 10.7345 8.89529 10.4801 8.70776 10.2926C8.52022 10.105 8.26587 9.99967 8.00065 9.99967ZM8.00065 6.99967C7.73543 6.99967 7.48108 7.10503 7.29354 7.29257C7.10601 7.4801 7.00065 7.73446 7.00065 7.99967C7.00065 8.26489 7.10601 8.51924 7.29354 8.70678C7.48108 8.89432 7.73543 8.99967 8.00065 8.99967C8.26587 8.99967 8.52022 8.89432 8.70776 8.70678C8.89529 8.51924 9.00065 8.26489 9.00065 7.99967C9.00065 7.73446 8.89529 7.4801 8.70776 7.29257C8.52022 7.10503 8.26587 6.99967 8.00065 6.99967ZM8.00065 3.99967C7.73543 3.99967 7.48108 4.10503 7.29354 4.29257C7.10601 4.4801 7.00065 4.73446 7.00065 4.99967C7.00065 5.26489 7.10601 5.51924 7.29354 5.70678C7.48108 5.89432 7.73543 5.99967 8.00065 5.99967C8.26587 5.99967 8.52022 5.89432 8.70776 5.70678C8.89529 5.51924 9.00065 5.26489 9.00065 4.99967C9.00065 4.73446 8.89529 4.4801 8.70776 4.29257C8.52022 4.10503 8.26587 3.99967 8.00065 3.99967Z" fill="#6300A6"/>
</svg>
