<svg width="16" height="16" viewBox="0 0 16 16" fill="none" xmlns="http://www.w3.org/2000/svg">
<path d="M5.33333 4.66667C5.33333 4.84348 5.2631 5.01305 5.13807 5.13807C5.01305 5.2631 4.84348 5.33333 4.66667 5.33333H4C3.82319 5.33333 3.65362 5.40357 3.5286 5.5286C3.40357 5.65362 3.33333 5.82319 3.33333 6V12C3.33333 12.1768 3.40357 12.3464 3.5286 12.4714C3.65362 12.5964 3.82319 12.6667 4 12.6667H10C10.1768 12.6667 10.3464 12.5964 10.4714 12.4714C10.5964 12.3464 10.6667 12.1768 10.6667 12V11.3333C10.6667 11.1565 10.7369 10.987 10.8619 10.8619C10.987 10.7369 11.1565 10.6667 11.3333 10.6667C11.5101 10.6667 11.6797 10.7369 11.8047 10.8619C11.9298 10.987 12 11.1565 12 11.3333V12C12 12.5304 11.7893 13.0391 11.4142 13.4142C11.0391 13.7893 10.5304 14 10 14H4C3.46957 14 2.96086 13.7893 2.58579 13.4142C2.21071 13.0391 2 12.5304 2 12V6C2 5.46957 2.21071 4.96086 2.58579 4.58579C2.96086 4.21071 3.46957 4 4 4H4.66667C4.84348 4 5.01305 4.07024 5.13807 4.19526C5.2631 4.32029 5.33333 4.48986 5.33333 4.66667Z" fill="#035C4D"/>
<path d="M9.73132 3.34067L12.6593 6.26867L8.47265 10.4707C8.41074 10.5328 8.33717 10.5821 8.25618 10.6157C8.17518 10.6493 8.08835 10.6666 8.00065 10.6667H6.00065C5.82384 10.6667 5.65427 10.5964 5.52925 10.4714C5.40422 10.3464 5.33398 10.1768 5.33398 10V8C5.334 7.9123 5.35133 7.82547 5.38496 7.74447C5.41859 7.66348 5.46787 7.58992 5.52998 7.528L9.73132 3.34067ZM14.062 1.93867C14.4297 2.3061 14.6452 2.79871 14.6656 3.31813C14.686 3.83754 14.5097 4.34554 14.172 4.74067L14.0627 4.86067L13.6006 5.32333L10.676 2.39867L11.1393 1.93867C11.5269 1.5511 12.0525 1.33337 12.6007 1.33337C13.1488 1.33337 13.6744 1.5511 14.062 1.93867Z" fill="#035C4D"/>
</svg>
