<svg width="24" height="24" viewBox="0 0 24 24" fill="none" xmlns="http://www.w3.org/2000/svg">
<path d="M1.71777 7.49993C1.71777 6.64745 2.05642 5.82988 2.65922 5.22709C3.26201 4.62429 4.07958 4.28564 4.93206 4.28564H19.0715C19.924 4.28564 20.7415 4.62429 21.3443 5.22709C21.9471 5.82988 22.2858 6.64745 22.2858 7.49993V13.2016C21.9056 12.7909 21.4733 12.4316 21.0001 12.1328V9.4285H3.00434V16.4999C3.00434 17.0114 3.20753 17.502 3.56921 17.8636C3.93089 18.2253 4.42143 18.4285 4.93292 18.4285H11.2003C11.2609 18.8742 11.3638 19.3028 11.5089 19.7142H4.93292C4.08043 19.7142 3.26287 19.3756 2.66007 18.7728C2.05728 18.17 1.71863 17.3524 1.71863 16.4999L1.71777 7.49993ZM4.93206 5.57136C4.42057 5.57136 3.93003 5.77455 3.56835 6.13622C3.20668 6.4979 3.00349 6.98844 3.00349 7.49993V8.14279H21.0001V7.49993C21.0001 6.98844 20.7969 6.4979 20.4352 6.13622C20.0735 5.77455 19.583 5.57136 19.0715 5.57136H4.93206ZM23.1429 17.5714C23.1429 19.049 22.5559 20.4661 21.5111 21.511C20.4662 22.5558 19.0491 23.1428 17.5715 23.1428C16.0939 23.1428 14.6767 22.5558 13.6319 21.511C12.587 20.4661 12.0001 19.049 12.0001 17.5714C12.0001 16.0937 12.587 14.6766 13.6319 13.6318C14.6767 12.5869 16.0939 11.9999 17.5715 11.9999C19.0491 11.9999 20.4662 12.5869 21.5111 13.6318C22.5559 14.6766 23.1429 16.0937 23.1429 17.5714ZM17.5715 14.1428C17.4578 14.1428 17.3488 14.1879 17.2684 14.2683C17.1881 14.3487 17.1429 14.4577 17.1429 14.5714V17.5714C17.1429 17.685 17.1881 17.794 17.2684 17.8744C17.3488 17.9548 17.4578 17.9999 17.5715 17.9999H20.1429C20.2566 17.9999 20.3656 17.9548 20.446 17.8744C20.5263 17.794 20.5715 17.685 20.5715 17.5714C20.5715 17.4577 20.5263 17.3487 20.446 17.2683C20.3656 17.1879 20.2566 17.1428 20.1429 17.1428H18.0001V14.5714C18.0001 14.4577 17.9549 14.3487 17.8745 14.2683C17.7942 14.1879 17.6852 14.1428 17.5715 14.1428Z" fill="white"/>
<circle cx="17.5" cy="17.5" r="6.5" fill="white"/>
<path d="M17.5 11.25C20.9519 11.25 23.75 14.0481 23.75 17.5C23.75 20.9519 20.9519 23.75 17.5 23.75C14.0481 23.75 11.25 20.9519 11.25 17.5C11.25 14.0481 14.0481 11.25 17.5 11.25ZM17.5 13.3496C17.2613 13.3496 17.0321 13.4445 16.8633 13.6133C16.6945 13.7821 16.5996 14.0113 16.5996 14.25V17.5C16.5997 17.7387 16.6945 17.968 16.8633 18.1367L18.8135 20.0859L18.8164 20.0898C18.9861 20.2538 19.2142 20.3438 19.4502 20.3418C19.686 20.3397 19.9113 20.2449 20.0781 20.0781C20.2449 19.9113 20.3397 19.686 20.3418 19.4502C20.3438 19.2142 20.2538 18.9861 20.0898 18.8164L20.0859 18.8135L18.4004 17.127V14.25C18.4004 14.0113 18.3055 13.7821 18.1367 13.6133C17.9679 13.4445 17.7387 13.3496 17.5 13.3496Z" fill="#E0E1FF" stroke="white" stroke-width="0.5"/>
</svg>
