<svg width="24" height="24" viewBox="0 0 24 24" fill="none" xmlns="http://www.w3.org/2000/svg">
<path d="M1.71777 7.49999C1.71777 6.64751 2.05642 5.82994 2.65922 5.22715C3.26201 4.62435 4.07958 4.28571 4.93206 4.28571H19.0715C19.924 4.28571 20.7415 4.62435 21.3443 5.22715C21.9471 5.82994 22.2858 6.64751 22.2858 7.49999V13.2017C21.9056 12.791 21.4733 12.4316 21.0001 12.1328V9.42856H3.00434V16.5C3.00434 17.0115 3.20753 17.502 3.56921 17.8637C3.93089 18.2254 4.42143 18.4286 4.93292 18.4286H11.2003C11.2609 18.8743 11.3638 19.3028 11.5089 19.7143H4.93292C4.08043 19.7143 3.26287 19.3756 2.66007 18.7728C2.05728 18.17 1.71863 17.3525 1.71863 16.5L1.71777 7.49999ZM4.93206 5.57142C4.42057 5.57142 3.93003 5.77461 3.56835 6.13629C3.20668 6.49796 3.00349 6.9885 3.00349 7.49999V8.14285H21.0001V7.49999C21.0001 6.9885 20.7969 6.49796 20.4352 6.13629C20.0735 5.77461 19.583 5.57142 19.0715 5.57142H4.93206ZM23.1429 17.5714C23.1429 19.0491 22.5559 20.4662 21.5111 21.511C20.4662 22.5559 19.0491 23.1428 17.5715 23.1428C16.0939 23.1428 14.6767 22.5559 13.6319 21.511C12.587 20.4662 12.0001 19.0491 12.0001 17.5714C12.0001 16.0938 12.587 14.6767 13.6319 13.6318C14.6767 12.587 16.0939 12 17.5715 12C19.0491 12 20.4662 12.587 21.5111 13.6318C22.5559 14.6767 23.1429 16.0938 23.1429 17.5714ZM17.5715 14.1428C17.4578 14.1428 17.3488 14.188 17.2684 14.2684C17.1881 14.3487 17.1429 14.4578 17.1429 14.5714V17.5714C17.1429 17.6851 17.1881 17.7941 17.2684 17.8745C17.3488 17.9548 17.4578 18 17.5715 18H20.1429C20.2566 18 20.3656 17.9548 20.446 17.8745C20.5263 17.7941 20.5715 17.6851 20.5715 17.5714C20.5715 17.4578 20.5263 17.3487 20.446 17.2684C20.3656 17.188 20.2566 17.1428 20.1429 17.1428H18.0001V14.5714C18.0001 14.4578 17.9549 14.3487 17.8745 14.2684C17.7942 14.188 17.6852 14.1428 17.5715 14.1428Z" fill="black"/>
<circle cx="17.5" cy="17.5" r="6.5" fill="black"/>
<path d="M17.5 11.25C20.9519 11.25 23.75 14.0481 23.75 17.5C23.75 20.9519 20.9519 23.75 17.5 23.75C14.0481 23.75 11.25 20.9519 11.25 17.5C11.25 14.0481 14.0481 11.25 17.5 11.25ZM17.5 13.3496C17.2613 13.3496 17.0321 13.4445 16.8633 13.6133C16.6945 13.7821 16.5996 14.0113 16.5996 14.25V17.5C16.5997 17.7387 16.6945 17.968 16.8633 18.1367L18.8135 20.0859L18.8164 20.0898C18.9861 20.2538 19.2142 20.3438 19.4502 20.3418C19.686 20.3397 19.9113 20.2449 20.0781 20.0781C20.2449 19.9113 20.3397 19.686 20.3418 19.4502C20.3438 19.2142 20.2538 18.9861 20.0898 18.8164L20.0859 18.8135L18.4004 17.127V14.25C18.4004 14.0113 18.3055 13.7821 18.1367 13.6133C17.9679 13.4445 17.7387 13.3496 17.5 13.3496Z" fill="#E0E1FF" stroke="black" stroke-width="0.5"/>
</svg>
