<svg width="12" height="12" viewBox="0 0 12 12" fill="none" xmlns="http://www.w3.org/2000/svg">
<path d="M8.82633 3.825C8.40352 3.27575 7.82979 2.86165 7.17533 2.63336C6.52087 2.40507 5.81406 2.37249 5.14137 2.5396C4.46868 2.70671 3.85929 3.06627 3.38774 3.57429C2.9162 4.0823 2.60295 4.71675 2.48633 5.4M9.00133 2V4H7.00133M3.17533 8.175C3.59802 8.72446 4.17173 9.13876 4.82625 9.36719C5.48077 9.59562 6.18768 9.62826 6.86046 9.46113C7.53325 9.29399 8.1427 8.93433 8.61423 8.42617C9.08576 7.918 9.39891 7.28339 9.51533 6.6M3.00083 10V8H5.00083" stroke="#035C4D" stroke-linecap="round" stroke-linejoin="round"/>
</svg>
