<svg width="24" height="24" viewBox="0 0 24 24" fill="none" xmlns="http://www.w3.org/2000/svg">
    <circle cx="12" cy="12" r="12" fill="#F2AB03" fill-opacity="0.1"/>
    <path d="M16.2699 9.96937C16.1503 9.7195 15.9819 9.49613 15.7745 9.31246L14.1592 7.84785C13.8036 7.52195 13.3522 7.31984 12.8723 7.2717H9.55536C9.19866 7.25658 8.84252 7.31255 8.50766 7.43635C8.1728 7.56016 7.8659 7.74933 7.60484 7.99286C7.34377 8.23639 7.13375 8.52941 6.98699 8.85487C6.84024 9.18032 6.75968 9.53172 6.75 9.88861V15.4347C6.76905 15.9729 6.94906 16.493 7.26679 16.9279C7.58451 17.3627 8.02533 17.6922 8.53229 17.8739C8.86189 17.9992 9.21403 18.0542 9.56613 18.0355H13.6369C13.9936 18.0506 14.3497 17.9946 14.6846 17.8708C15.0194 17.747 15.3263 17.5578 15.5874 17.3143C15.8485 17.0708 16.0585 16.7778 16.2052 16.4523C16.352 16.1268 16.4325 15.7754 16.4422 15.4186V10.804C16.4448 10.5167 16.3861 10.2322 16.2699 9.96937ZM9.26998 9.75399H11.0253C11.1682 9.75399 11.3051 9.81072 11.4061 9.9117C11.5071 10.0127 11.5638 10.1496 11.5638 10.2924C11.5638 10.4353 11.5071 10.5722 11.4061 10.6732C11.3051 10.7742 11.1682 10.8309 11.0253 10.8309H9.26998C9.12717 10.8309 8.99021 10.7742 8.88923 10.6732C8.78825 10.5722 8.73152 10.4353 8.73152 10.2924C8.73152 10.1496 8.78825 10.0127 8.88923 9.9117C8.99021 9.81072 9.12717 9.75399 9.26998 9.75399ZM13.9546 15.5209H9.26998C9.12717 15.5209 8.99021 15.4641 8.88923 15.3632C8.78825 15.2622 8.73152 15.1252 8.73152 14.9824C8.73152 14.8396 8.78825 14.7026 8.88923 14.6017C8.99021 14.5007 9.12717 14.444 9.26998 14.444H13.9546C14.0829 14.4622 14.2003 14.5262 14.2853 14.6242C14.3703 14.7221 14.4171 14.8474 14.4171 14.977C14.4171 15.1067 14.3703 15.232 14.2853 15.3299C14.2003 15.4278 14.0829 15.4918 13.9546 15.5101V15.5209ZM13.9546 13.1786H9.26998C9.12717 13.1786 8.99021 13.1218 8.88923 13.0209C8.78825 12.9199 8.73152 12.7829 8.73152 12.6401C8.73152 12.4973 8.78825 12.3604 8.88923 12.2594C8.99021 12.1584 9.12717 12.1017 9.26998 12.1017H13.9546C14.0974 12.1017 14.2343 12.1584 14.3353 12.2594C14.4363 12.3604 14.493 12.4973 14.493 12.6401C14.493 12.7829 14.4363 12.9199 14.3353 13.0209C14.2343 13.1218 14.0974 13.1786 13.9546 13.1786ZM13.7822 10.1794C13.7054 10.1801 13.6292 10.1656 13.5581 10.1367C13.4869 10.1078 13.4221 10.065 13.3676 10.011C13.313 9.95689 13.2697 9.89254 13.2401 9.82163C13.2105 9.75072 13.1953 9.67466 13.1953 9.59784V8.17093C13.5507 8.25708 14.9345 9.67861 15.2361 9.91553C15.3253 9.99065 15.4016 10.0798 15.4622 10.1794H13.7822Z" fill="#F2AB03"/>
</svg>
