<svg id="SvgjsSvg1120" width="288" height="288" xmlns="http://www.w3.org/2000/svg" version="1.1" xmlns:xlink="http://www.w3.org/1999/xlink" xmlns:svgjs="http://svgjs.com/svgjs"><defs id="SvgjsDefs1121"></defs><g id="SvgjsG1122"><svg xmlns="http://www.w3.org/2000/svg" display="block" preserveAspectRatio="none" viewBox="0 0 2048 2048" width="288" height="288"><path fill="#FFF" d="M 0 0 L 2048 0 L 2048 2048 L 0 2048 L 0 0 z" class="svgShape colorffffff-0 selectable"></path><path fill="#196973" d="M 375.046 545.107 C 380.133 535.582 403.419 512.928 412.174 503.816 L 471.078 442.42 L 530.448 380.193 C 537.898 372.328 571.834 333.365 581.335 332.78 C 602.042 331.505 626.539 331.094 647.501 330.297 C 742.475 326.591 837.47 323.46 932.481 320.907 C 973.246 319.652 1014.88 317.537 1055.67 317.423 C 1070.87 317.38 1091.08 321.914 1105.03 327.932 C 1136.89 341.602 1161.52 368.079 1172.84 400.853 C 1182.61 428.468 1181.58 463.865 1182.53 493.598 L 1184.93 568.724 L 1193.2 820.876 C 1193.6 831.508 1194.51 886.649 1197.05 890.561 C 1194.93 894.392 1196.26 906.487 1196.58 911.343 L 1197.05 927.94 C 1198.05 954.403 1198.28 983.91 1199.92 1009.96 C 1199.92 1014.66 1199.19 1027.31 1201.68 1030.55 C 1199.18 1034.27 1201.57 1066.84 1201.84 1073.57 L 1205.09 1162.25 C 1205.54 1176.88 1206.51 1196 1206.06 1210.41 C 1205.78 1220.52 1204.39 1230.58 1201.93 1240.4 C 1197.5 1257.87 1191.11 1271.54 1179.83 1285.49 C 1177.62 1288.22 1169.62 1298.38 1168.43 1300.73 C 1161.91 1304.97 1144.13 1317.46 1137.82 1322.36 C 1126.93 1326.26 1113.95 1332.19 1102.72 1334.08 C 1087.45 1336.64 1070.16 1336.93 1054.65 1337.43 C 1035.41 1337.99 1016.16 1338.65 996.925 1339.41 L 741.261 1348.97 L 724.305 1349.21 L 703.137 1349.86 C 671.876 1350.63 640.378 1352.38 609.287 1353.1 C 620.377 1371.53 640.038 1408.28 627.546 1430.46 C 621.441 1441.3 607.666 1445.26 596.19 1448.09 C 595.965 1450.41 595.683 1452.72 595.344 1455.03 C 589.482 1493.31 553.841 1500.21 521.602 1494.09 C 488.282 1487.55 442.854 1475.93 440.993 1433.98 C 439.576 1402.05 442.86 1361.52 448.595 1329.84 C 445.268 1326.97 442.044 1323.99 438.929 1320.89 C 394.642 1276.75 399.596 1233.67 397.812 1175.98 L 393.571 1055.07 L 382.124 736.559 L 377.582 611.583 C 376.77 590.266 375.114 566.168 375.046 545.107 z" class="svgShape color196973-1 selectable"></path><path fill="#36335E" d="M 448.595 1329.84 C 455 1333.65 461.309 1337.61 467.518 1341.73 C 472.377 1342.78 476.349 1345 480.85 1347.15 C 523.196 1362.22 543.035 1351.67 583.007 1354.12 C 590.878 1353.52 601.597 1352.52 609.287 1353.1 C 620.377 1371.53 640.038 1408.28 627.546 1430.46 C 621.441 1441.3 607.666 1445.26 596.19 1448.09 C 595.965 1450.41 595.683 1452.72 595.344 1455.03 C 589.482 1493.31 553.841 1500.21 521.602 1494.09 C 488.282 1487.55 442.854 1475.93 440.993 1433.98 C 439.576 1402.05 442.86 1361.52 448.595 1329.84 z" class="svgShape color36335e-2 selectable"></path><path fill="#FD8673" d="M 476.516 1383.74 C 497.745 1389.88 519.244 1395.05 540.945 1399.22 C 546.836 1400.3 572.909 1403.44 576.565 1404.83 C 572.232 1415.95 576.864 1441.95 574.756 1457.96 C 547.027 1462.85 503.829 1462.31 480.462 1442.24 C 470.136 1433.38 474.423 1400.32 475.582 1386.36 L 476.516 1383.74 z" class="svgShape colorfd8673-3 selectable"></path><path fill="#F65F50" d="M 480.85 1347.15 C 523.196 1362.22 543.035 1351.67 583.007 1354.12 C 596.881 1369.85 598.542 1375.95 607.233 1393.79 C 600.716 1398.52 597.581 1401.11 589.851 1403.86 C 584.054 1402.22 582.404 1402.89 576.565 1404.83 C 572.909 1403.44 546.836 1400.3 540.945 1399.22 C 519.244 1395.05 497.745 1389.88 476.516 1383.74 C 475.214 1377.2 479.375 1354.4 480.85 1347.15 z" class="svgShape colorf65f50-4 selectable"></path><path fill="#FEEEC2" d="M 461.973 1389.17 C 462.985 1386.84 463.634 1385.39 464.861 1383.12 C 468.989 1380.79 467.475 1380.89 471.625 1381.19 C 475.072 1383.7 473.674 1382.14 475.582 1386.36 C 474.423 1400.32 470.136 1433.38 480.462 1442.24 C 503.829 1462.31 547.027 1462.85 574.756 1457.96 C 567.924 1472.85 552.061 1476.31 536.813 1474.93 C 517.382 1473.16 481.728 1466.01 468.292 1451.21 C 456.905 1438.67 460.147 1405.48 461.973 1389.17 z" class="svgShape colorfeeec2-5 selectable"></path><path fill="#FEEEC2" d="M 467.518 1341.73 C 472.377 1342.78 476.349 1345 480.85 1347.15 C 479.375 1354.4 475.214 1377.2 476.516 1383.74 L 475.582 1386.36 C 473.674 1382.14 475.072 1383.7 471.625 1381.19 C 467.475 1380.89 468.989 1380.79 464.861 1383.12 C 463.634 1385.39 462.985 1386.84 461.973 1389.17 C 461.971 1377.6 465.853 1353.36 467.518 1341.73 z" class="svgShape colorfeeec2-6 selectable"></path><path fill="#FD8673" d="M 589.851 1403.86 C 597.581 1401.11 600.716 1398.52 607.233 1393.79 C 612.271 1411.96 616.722 1419.9 596.009 1427.23 C 595.278 1416.36 596.433 1411.85 589.851 1403.86 z" class="svgShape colorfd8673-7 selectable"></path><path fill="#3ECDC3" d="M 622.023 353.873 L 925.478 343.532 L 1008.48 340.609 C 1027.01 339.955 1051.99 338.272 1069.67 340.838 C 1090.53 343.808 1109.99 353.037 1125.49 367.306 C 1153.74 393.387 1158.16 423.815 1159.36 459.729 L 1172.05 869.371 C 1173.37 873.652 1174.44 910.904 1174.7 917.543 L 1179.54 1063.42 L 1182.83 1158.8 C 1184.06 1193.75 1188.94 1226.02 1172.11 1258.1 C 1159.41 1282.37 1137.63 1300.64 1111.52 1308.94 C 1090.52 1315.41 1045.28 1315.13 1021.79 1315.88 L 912.328 1319.58 L 658.13 1329.36 C 611.831 1331.04 564.535 1333.62 518.224 1332.93 C 505.012 1332.74 490.519 1327.6 478.74 1321.61 C 416.152 1290.95 421.901 1231.16 419.596 1172.18 L 414.564 1026.39 L 399.848 607.327 C 398.246 597.648 399.287 574.541 398.027 561.861 C 400.467 558.499 401.148 557.545 404.117 554.712 C 404.328 550.565 403.699 548.022 403.004 543.895 L 517.837 424.053 C 530.992 410.297 562.105 375.854 575.605 364.708 C 579.79 369.836 580.588 371.73 587.031 373.479 C 598.914 371.615 599.365 364.41 597.812 354.299 L 622.023 353.873 z" class="svgShape color3ecdc3-8 selectable"></path><path fill="#2BABA2" d="M 597.812 354.299 L 622.023 353.873 L 626.147 497.405 C 626.87 520.726 628.461 546.24 627.146 569.58 C 626.676 577.918 614.977 589.662 605.909 590.236 C 543.561 594.18 480.509 594.134 417.998 596.864 C 411.86 597.132 407.222 596.677 401.232 597.787 C 399.558 600.658 399.965 603.741 399.848 607.327 C 398.246 597.648 399.287 574.541 398.027 561.861 C 400.467 558.499 401.148 557.545 404.117 554.712 C 404.328 550.565 403.699 548.022 403.004 543.895 L 517.837 424.053 C 530.992 410.297 562.105 375.854 575.605 364.708 C 579.79 369.836 580.588 371.73 587.031 373.479 C 598.914 371.615 599.365 364.41 597.812 354.299 z" class="svgShape color2baba2-9 selectable"></path><path fill="#3ECDC3" d="M 403.004 543.895 L 517.837 424.053 C 530.992 410.297 562.105 375.854 575.605 364.708 C 579.79 369.836 580.588 371.73 587.031 373.479 C 590.093 373.864 589.134 373.31 591.365 374.951 C 591.709 379.774 593.361 392.596 590.818 396.007 L 589.856 396.377 C 586.647 397.875 582.825 399.127 581.465 402.7 C 579.024 409.11 580.248 418.66 580.471 425.497 C 581.099 444.724 585.74 504.364 581.987 518.618 C 580.356 524.811 576.658 531.041 570.724 533.953 C 560.059 539.187 451.968 540.985 432.788 540.838 C 427.287 545.128 426.449 546.9 425.843 553.838 C 418.608 554.285 411.365 554.577 404.117 554.712 C 404.328 550.565 403.699 548.022 403.004 543.895 z" class="svgShape color3ecdc3-10 selectable"></path><path fill="#68F0E2" d="M 403.004 543.895 L 517.837 424.053 C 530.992 410.297 562.105 375.854 575.605 364.708 C 579.79 369.836 580.588 371.73 587.031 373.479 C 590.093 373.864 589.134 373.31 591.365 374.951 C 581.622 386.461 562.938 404.447 551.684 416.164 L 478.178 493.108 C 463.756 508.146 446.334 525.406 432.788 540.838 C 427.287 545.128 426.449 546.9 425.843 553.838 C 418.608 554.285 411.365 554.577 404.117 554.712 C 404.328 550.565 403.699 548.022 403.004 543.895 z" class="svgShape color68f0e2-11 selectable"></path><path fill="#196973" d="M 589.856 396.377 C 598.725 397.179 600.768 401.778 601.47 410.356 C 602.099 427.598 603.277 445.601 603.085 462.842 C 602.895 479.987 606.842 500.411 604.503 517.094 C 598.658 558.786 564.328 558.841 533.715 559.632 C 514.899 560.2 496.079 560.61 477.257 560.86 C 464.815 561.109 434.307 566.922 427.214 556.049 C 426.744 555.32 426.287 554.583 425.843 553.838 C 426.449 546.9 427.287 545.128 432.788 540.838 C 451.968 540.985 560.059 539.187 570.724 533.953 C 576.658 531.041 580.356 524.811 581.987 518.618 C 585.74 504.364 581.099 444.724 580.471 425.497 C 580.248 418.66 579.024 409.11 581.465 402.7 C 582.825 399.127 586.647 397.875 589.856 396.377 z" class="svgShape color196973-12 selectable"></path><path fill="#2BABA2" d="M 478.74 1321.61 C 485.483 1320.33 511.075 1319.58 518.899 1319.18 L 602.437 1315.16 L 920.954 1299.75 C 953.97 1298.45 986.978 1296.96 1019.98 1295.29 C 1037.59 1294.43 1058 1294.27 1075.22 1291.07 C 1111.69 1284.28 1147.29 1250.82 1157.09 1215.24 C 1163.8 1190.87 1162.47 1156.33 1163.16 1130.63 L 1167.54 959.87 C 1168.01 935.364 1167.14 886.422 1170.65 863.915 L 1172.05 869.371 C 1173.37 873.652 1174.44 910.904 1174.7 917.543 L 1179.54 1063.42 L 1182.83 1158.8 C 1184.06 1193.75 1188.94 1226.02 1172.11 1258.1 C 1159.41 1282.37 1137.63 1300.64 1111.52 1308.94 C 1090.52 1315.41 1045.28 1315.13 1021.79 1315.88 L 912.328 1319.58 L 658.13 1329.36 C 611.831 1331.04 564.535 1333.62 518.224 1332.93 C 505.012 1332.74 490.519 1327.6 478.74 1321.61 z" class="svgShape color2baba2-13 selectable"></path><path fill="#F65F50" d="M 780.87 814.284 L 851.774 739.238 C 858.378 732.245 865.294 724.974 871.851 717.986 C 901.22 686.69 918.715 662.394 965.088 674.489 C 979.968 678.881 998.42 690.11 1004.72 704.945 L 1006.88 707.277 C 1034.54 721.752 1048.18 763.781 1032.48 791.601 C 1021.6 810.873 1004.86 825.835 990.478 842.399 C 964.647 872.149 935.092 900.429 909.757 930.424 C 915.322 935.712 934.653 953.038 936.888 958.767 C 950.462 973.638 979.684 998.86 995.249 1013.11 C 998.016 1015.68 1009.08 1026.4 1011.42 1028.1 C 1022.98 1032.48 1038.76 1049.04 1044.16 1060.87 C 1051.31 1076.94 1051.81 1095.19 1045.54 1111.62 C 1026.88 1161.39 960.731 1171.12 929.393 1129.21 C 893.989 1099.64 852.347 1058.47 818.068 1026.44 L 740.399 1110.2 C 727.702 1123.94 715.315 1137.29 702.151 1150.6 C 674.574 1178.48 631.731 1172.51 605.398 1146.24 C 603.317 1144.16 602.367 1143.16 600.726 1140.68 L 594.883 1136.57 C 581.883 1131.69 569.661 1116.03 563.848 1103.56 C 554.668 1080.85 552.848 1058.76 569.88 1038.7 C 581.817 1024.65 594.901 1011.59 607.534 998.15 C 635.3 968.335 663.232 938.675 691.329 909.172 C 718.634 881.779 755.047 843.113 780.87 814.284 z" class="svgShape colorf65f50-14 selectable"></path><path fill="#FD8673" d="M 780.87 814.284 L 851.774 739.238 C 858.378 732.245 865.294 724.974 871.851 717.986 C 901.22 686.69 918.715 662.394 965.088 674.489 C 979.968 678.881 998.42 690.11 1004.72 704.945 C 1004.14 720.069 1000.99 733.791 991.57 745.906 C 975.795 766.202 956.646 784.961 938.942 803.594 L 850.584 897.128 L 710.699 1045.13 C 687.354 1069.84 664.687 1095.2 640.55 1119.11 C 625.037 1134.48 615.915 1137.02 594.883 1136.57 C 581.883 1131.69 569.661 1116.03 563.848 1103.56 C 554.668 1080.85 552.848 1058.76 569.88 1038.7 C 581.817 1024.65 594.901 1011.59 607.534 998.15 C 635.3 968.335 663.232 938.675 691.329 909.172 C 718.634 881.779 755.047 843.113 780.87 814.284 z" class="svgShape colorfd8673-15 selectable"></path><path fill="#FED4C1" d="M 780.87 814.284 L 851.774 739.238 C 858.378 732.245 865.294 724.974 871.851 717.986 C 901.22 686.69 918.715 662.394 965.088 674.489 L 964.97 676.006 C 968.693 680.418 969.668 685.263 966.709 690.499 C 955.873 694.179 932.379 687.348 918.285 699.438 C 908.285 708.016 896.997 720.663 887.919 730.286 L 825.923 796.011 L 666.865 964.774 C 639.818 993.432 612.481 1021.84 585.51 1050.57 C 568.72 1068.46 564.994 1079.04 563.848 1103.56 C 554.668 1080.85 552.848 1058.76 569.88 1038.7 C 581.817 1024.65 594.901 1011.59 607.534 998.15 C 635.3 968.335 663.232 938.675 691.329 909.172 C 718.634 881.779 755.047 843.113 780.87 814.284 z" class="svgShape colorfed4c1-16 selectable"></path><path fill="#FD8673" d="M 902.668 928.05 C 910.4 935.059 929.37 953.223 936.888 958.767 C 950.462 973.638 979.684 998.86 995.249 1013.11 C 995.781 1026.95 986.912 1046.18 979.23 1057.41 C 963.51 1080.4 933.192 1095.03 907.254 1078.82 C 895.068 1071.2 886.077 1059.97 875.267 1050.65 C 858.517 1035.29 840.697 1020.19 824.654 1004.14 C 850.932 980.075 875.621 952.163 902.668 928.05 z" class="svgShape colorfd8673-17 selectable"></path><path fill="#2BABA2" d="M1006.88 707.277C1034.54 721.752 1048.18 763.781 1032.48 791.601 1021.6 810.873 1004.86 825.835 990.478 842.399 964.647 872.149 935.092 900.429 909.757 930.424 915.322 935.712 934.653 953.038 936.888 958.767 929.37 953.223 910.4 935.059 902.668 928.05 895.493 921.186 888.166 914.483 880.691 907.947L880.112 906.933 957.134 825.072C971.61 809.885 987.14 795.125 1000.54 779.035 1020.71 754.82 1018.31 733.982 1006.88 707.277zM792.405 1000.45C797.147 1007.72 811.234 1020.08 818.068 1026.44L740.399 1110.2C727.702 1123.94 715.315 1137.29 702.151 1150.6 674.574 1178.48 631.731 1172.51 605.398 1146.24 603.317 1144.16 602.367 1143.16 600.726 1140.68 641.649 1156.47 659.81 1144.76 687.034 1113.9 697.16 1102.42 709.006 1090.11 719.478 1078.77L792.405 1000.45zM1011.42 1028.1C1022.98 1032.48 1038.76 1049.04 1044.16 1060.87 1051.31 1076.94 1051.81 1095.19 1045.54 1111.62 1026.88 1161.39 960.731 1171.12 929.393 1129.21 996.403 1160.48 1058.73 1082.14 1011.42 1028.1z" class="svgShape color2baba2-18 selectable"></path><path fill="#DF544F" d="M 880.691 907.947 C 854.31 935.405 824 970.698 797.201 996.484 L 795.903 996.834 L 795.038 998.018 C 801.944 987.42 870.569 913.813 880.112 906.933 L 880.691 907.947 z" class="svgShape colordf544f-19 selectable"></path><path fill="#FD8673" d="M 549.368 760.25 C 546.344 747.703 549.606 730.82 555.894 719.654 C 571.039 692.757 597.413 679.292 627.714 684.511 C 647.639 687.352 658.965 698.394 672.528 712.144 C 706.655 746.74 747.863 779.039 780.87 814.284 C 755.047 843.113 718.634 881.779 691.329 909.172 L 604.998 827.992 C 585.689 809.933 553.963 786.44 549.368 760.25 z" class="svgShape colorfd8673-20 selectable"></path><path fill="#FED4C1" d="M 549.368 760.25 C 546.344 747.703 549.606 730.82 555.894 719.654 C 571.039 692.757 597.413 679.292 627.714 684.511 C 631.472 687.987 633.726 690.547 633.867 695.925 C 633.917 697.847 633.249 699.837 631.781 701.11 C 622.072 709.524 598.372 696.895 579.046 721.926 C 575.414 726.631 572.526 732.446 570.816 738.129 C 568.638 745.365 567.97 766.931 556.994 765.183 C 553.708 764.659 551.594 762.485 549.368 760.25 z" class="svgShape colorfed4c1-21 selectable"></path><path fill="#FFF" d="M1021.02 564.438C1025.58 564.11 1030.78 563.24 1035.11 565.246 1048.98 571.66 1045.38 584.448 1030.78 586.026 1018.31 587.374 1005.29 587.375 992.569 587.794L923.465 590.058 705.056 597.164C700.643 597.487 692.45 598.52 689.391 595.722 662.707 571.309 717.393 574.488 725.481 574.237L786.996 572.307 1021.02 564.438zM1001.67 458.567C1010.3 458.084 1039.14 453.549 1039.34 467.617 1039.58 483.964 1012.58 480.334 1001.78 480.693L934.75 482.991 714.626 490.71C708.876 490.86 688.654 492.12 685.155 489.982 673.487 482.854 678.33 469.718 692.682 468.908 704.676 468.231 716.086 467.829 727.647 467.497L789.596 465.57 1001.67 458.567zM1008.55 511.447C1013.92 511.21 1032.11 509.929 1034.9 512.307 1047.27 522.834 1039.08 531.977 1026.1 533.088 1013.22 534.19 1002.34 534.142 990.424 534.441 971 534.934 951.581 535.573 932.167 536.358L713.343 543.553C703.134 544.048 683.616 546.771 679.948 533.846 681.187 517.47 713.003 521.232 724.7 520.948L788.029 519.033 1008.55 511.447z" class="svgShape colorffffff-22 selectable"></path><path fill="#FEE279" d="M 540.374 1189.68 C 562.457 1184.55 584.534 1198.22 589.785 1220.28 C 595.036 1242.33 581.49 1264.48 559.467 1269.86 C 537.265 1275.28 514.892 1261.6 509.598 1239.37 C 504.304 1217.14 518.112 1194.84 540.374 1189.68 z" class="svgShape colorfee279-23 selectable"></path><path fill="#FFF" d="M1097.21 636.818C1105.96 636.839 1109.67 640.371 1110.11 649.004 1111.99 685.733 1113.49 722.603 1114.33 759.359 1114.43 763.61 1109.92 766.037 1106.87 768.142 1105.37 768.214 1105.14 768.262 1103.49 768.152 1100.4 767.947 1096.58 766.64 1094.95 763.807 1093.15 760.661 1088.25 650.371 1089.54 645.246 1090.64 640.897 1093.69 639.151 1097.21 636.818zM640.58 1203.78C654.512 1200.68 668.304 1209.51 671.328 1223.46 674.352 1237.41 665.454 1251.15 651.491 1254.1 637.63 1257.03 624.005 1248.22 621.003 1234.37 618.001 1220.52 626.75 1206.85 640.58 1203.78zM1097.38 583.807C1101.23 584.635 1105.13 585.931 1106.79 589.763 1111.9 601.571 1111.32 613.216 1099.22 619.048 1098.32 618.816 1097.42 618.584 1096.51 618.352 1086.56 615.451 1085.13 600.904 1088.17 592.62 1090.15 587.217 1092.56 586.302 1097.38 583.807zM1102.57 786.29C1106.54 785.307 1110.74 786.552 1113.53 789.544 1116.33 792.536 1117.29 796.806 1116.04 800.705 1114.79 804.604 1111.52 807.521 1107.51 808.33 1101.49 809.544 1095.6 805.723 1094.26 799.728 1092.91 793.734 1096.6 787.764 1102.57 786.29z" class="svgShape colorffffff-24 selectable"></path><path fill="#36335E" d="M 1425.25 697.798 L 1333.17 699.866 C 1301.06 700.694 1264.92 707.449 1239.93 683.478 C 1231.4 675.303 1225.5 664.773 1222.97 653.231 C 1220.32 640.531 1220.71 623.598 1220.52 610.283 L 1219.6 557.704 C 1218.41 496.265 1217.26 434.828 1215.7 373.401 C 1215.42 362.552 1216.06 352.649 1220.26 342.65 C 1229.3 321.154 1251.47 307.622 1274.4 306.466 C 1286.88 305.836 1299.69 305.484 1312.36 305.142 L 1397.02 302.924 L 1556.78 298.17 C 1581.21 297.455 1605.7 296.502 1630.13 295.986 C 1648.68 295.595 1664.54 300.282 1677.86 313.814 C 1686.14 322.345 1691.87 333.018 1694.41 344.631 C 1696.08 352.554 1696.09 373.045 1696.27 381.898 C 1696.75 405.095 1697.11 428.294 1697.35 451.495 C 1698.31 493.826 1699.01 536.163 1699.46 578.502 C 1699.69 596.454 1700.17 614.341 1700.13 632.346 C 1700.07 659.087 1680.99 683.251 1655.01 689.638 C 1636.31 694.233 1616.32 692.591 1597.21 693.536 C 1564.5 695.034 1529.98 694.183 1497.5 696.045 L 1498.11 736.894 C 1533.28 744.619 1543.09 761.727 1547.7 796.533 C 1551.37 824.178 1549.03 853.954 1543.34 881.08 C 1537.5 905.836 1522.77 914.702 1500.07 921.268 C 1500.84 945.596 1502.47 971.896 1500.21 995.988 C 1498.79 1011.23 1480.46 1023.26 1465.98 1023.28 C 1419.81 1023.35 1427.62 972.609 1427.11 941.199 C 1347.84 985.039 1295.24 1020.49 1201.68 1030.55 C 1199.19 1027.31 1199.92 1014.66 1199.92 1009.96 C 1198.28 983.91 1198.05 954.403 1197.05 927.94 L 1196.58 911.343 C 1196.26 906.487 1194.93 894.392 1197.05 890.561 C 1269.42 882.888 1335.77 841.831 1396.72 804.214 C 1398.76 782.352 1404.65 768.326 1421.95 753.888 C 1423.35 752.73 1424.75 751.588 1426.17 750.462 C 1425.98 732.905 1425.68 715.35 1425.25 697.798 z" class="svgShape color36335e-25 selectable"></path><path fill="#2F93C3" d="M 1398.4 839.921 C 1399.82 865.134 1401.22 886.547 1418.24 906.889 C 1376.49 930.289 1327.75 958.046 1282.52 973.338 C 1278.14 953.488 1273.84 931.973 1268.93 912.372 C 1312.59 896.644 1357.2 872.294 1396.82 847.739 C 1398.57 846.656 1398.28 841.94 1398.4 839.921 z" class="svgShape color2f93c3-26 selectable"></path><path fill="#1E7DA6" d="M 1418.24 906.889 C 1422.11 910.5 1424.82 913.209 1429.3 916.142 C 1349.89 962.288 1291.64 998.038 1199.92 1009.96 C 1198.28 983.91 1198.05 954.403 1197.05 927.94 C 1223.74 924.981 1243.42 921.288 1268.93 912.372 C 1273.84 931.973 1278.14 953.488 1282.52 973.338 C 1327.75 958.046 1376.49 930.289 1418.24 906.889 z" class="svgShape color1e7da6-27 selectable"></path><path fill="#84D5E8" d="M 1397.58 827.827 L 1398.4 839.921 C 1398.28 841.94 1398.57 846.656 1396.82 847.739 C 1357.2 872.294 1312.59 896.644 1268.93 912.372 C 1243.42 921.288 1223.74 924.981 1197.05 927.94 L 1196.58 911.343 C 1270.44 905.183 1335.36 865.119 1397.58 827.827 z" class="svgShape color84d5e8-28 selectable"></path><path fill="#2F93C3" d="M 1261.88 674.873 C 1237.94 661.228 1240.52 636.978 1240.07 613.067 L 1239.2 562.466 C 1238.23 500.734 1238.2 437.578 1235.33 376.606 C 1232.72 321.056 1275.63 326.346 1315.7 325.714 C 1337.27 325.374 1359.63 324.094 1381.26 323.473 L 1617.26 316.858 C 1626.57 316.689 1641.2 315.86 1649.64 319.002 C 1680.28 330.402 1676.39 361.655 1676.21 387.533 C 1677.32 406.416 1676.84 427.611 1677.2 446.727 C 1678.13 480.808 1678.89 514.893 1679.47 548.982 L 1680.62 602.119 C 1681.11 622.125 1684.75 642.432 1670.35 658.02 C 1657.93 671.453 1645.21 671.94 1628.04 672.614 C 1608.28 673.212 1588.33 673.13 1568.49 673.589 L 1398.16 677.25 L 1313.61 679.317 C 1297.42 679.612 1276.12 682.34 1261.88 674.873 z" class="svgShape color2f93c3-29 selectable"></path><path fill="#1E7DA6" d="M 1676.21 387.533 C 1677.32 406.416 1676.84 427.611 1677.2 446.727 C 1678.13 480.808 1678.89 514.893 1679.47 548.982 L 1680.62 602.119 C 1681.11 622.125 1684.75 642.432 1670.35 658.02 C 1657.93 671.453 1645.21 671.94 1628.04 672.614 C 1608.28 673.212 1588.33 673.13 1568.49 673.589 L 1398.16 677.25 L 1313.61 679.317 C 1297.42 679.612 1276.12 682.34 1261.88 674.873 C 1268.73 673.639 1284.87 673.355 1292.37 673.064 L 1351.76 670.987 L 1546.01 663.459 C 1568.67 662.436 1593.28 663.551 1615.41 660.058 C 1646.53 655.147 1657.07 624.17 1661.98 597.846 C 1670.4 552.652 1670.52 508.283 1674.2 462.863 C 1676.32 436.761 1674.97 413.02 1676.21 387.533 z" class="svgShape color1e7da6-30 selectable"></path><path fill="#F65F50" d="M 1445.1 441.606 C 1458.91 427.888 1472.09 413.544 1485.73 399.664 C 1499.91 385.23 1512.98 367.72 1535.56 373.032 C 1545.31 376.418 1553.64 380.625 1557.77 390.901 L 1559.7 393.78 C 1582.95 407.422 1576.32 434.121 1560.17 450.501 C 1542.72 468.202 1525.93 487.975 1507.31 504.461 C 1518.22 516.238 1535.42 531.197 1547.53 542.319 C 1553.49 548.162 1556.8 553.123 1561.52 557.893 C 1566.68 560.661 1572.85 568.472 1574.61 574.035 C 1579.14 588.327 1571.82 601.096 1564.07 612.566 C 1559.1 612.218 1554.25 614.25 1551 618.043 C 1537.22 617.447 1524.24 615.239 1516.59 602.633 C 1502.45 591.995 1476.49 565.277 1462.14 551.463 C 1440.85 572.501 1422.58 596.227 1399.23 614.909 C 1387.45 624.338 1359.94 616.083 1357.14 604.222 L 1355.25 602.693 C 1345.02 600.356 1339.41 590.43 1335.44 581.656 C 1332.81 571.534 1331.42 562.983 1338.31 554.323 C 1356.45 531.521 1379.61 510.302 1399.68 489.159 C 1412.95 475.442 1433.26 455.592 1445.1 441.606 z" class="svgShape colorf65f50-31 selectable"></path><path fill="#FD8673" d="M 1445.1 441.606 C 1458.91 427.888 1472.09 413.544 1485.73 399.664 C 1499.91 385.23 1512.98 367.72 1535.56 373.032 C 1545.31 376.418 1553.64 380.625 1557.77 390.901 C 1557.32 396.703 1556.38 402.383 1552.68 407.089 C 1543.08 419.276 1530.72 430.926 1519.76 441.932 C 1503.87 457.893 1488.09 473.971 1472.43 490.164 L 1406.32 558.603 C 1394.55 570.8 1382.58 583.584 1370.19 595.168 C 1365.99 599.099 1360.67 600.949 1355.25 602.693 C 1345.02 600.356 1339.41 590.43 1335.44 581.656 C 1332.81 571.534 1331.42 562.983 1338.31 554.323 C 1356.45 531.521 1379.61 510.302 1399.68 489.159 C 1412.95 475.442 1433.26 455.592 1445.1 441.606 z" class="svgShape colorfd8673-32 selectable"></path><path fill="#FED4C1" d="M 1445.1 441.606 C 1458.91 427.888 1472.09 413.544 1485.73 399.664 C 1499.91 385.23 1512.98 367.72 1535.56 373.032 C 1536.98 376.94 1537.27 377.213 1536.45 381.119 C 1530.27 388.33 1523.04 380.538 1513.22 390.232 C 1501.45 401.848 1489.94 413.896 1478.45 425.768 L 1417.21 488.723 L 1366.39 540.715 C 1354.4 553.005 1338.81 564.598 1335.44 581.656 C 1332.81 571.534 1331.42 562.983 1338.31 554.323 C 1356.45 531.521 1379.61 510.302 1399.68 489.159 C 1412.95 475.442 1433.26 455.592 1445.1 441.606 z" class="svgShape colorfed4c1-33 selectable"></path><path fill="#FD8673" d="M 1504.28 501.925 L 1507.31 504.461 C 1518.22 516.238 1535.42 531.197 1547.53 542.319 C 1543.79 562.335 1533.53 573.824 1513.74 578.591 C 1497.21 573.045 1477.69 550.897 1464.44 537.924 C 1476.2 526.89 1491.86 511.45 1504.28 501.925 z" class="svgShape colorfd8673-34 selectable"></path><path fill="#1E7DA6" d="M1559.7 393.78C1582.95 407.422 1576.32 434.121 1560.17 450.501 1542.72 468.202 1525.93 487.975 1507.31 504.461L1504.28 501.925C1500.98 498.51 1497.61 495.561 1494.08 492.392L1494.36 490.247C1506.98 478.452 1553.56 432.329 1560.44 419.298 1564.9 410.838 1562.33 402.286 1559.7 393.78zM1448.53 537.781L1462.14 551.463C1440.85 572.501 1422.58 596.227 1399.23 614.909 1387.45 624.338 1359.94 616.083 1357.14 604.222 1366.67 607.22 1376.7 609.384 1385.25 602.832 1396.15 594.477 1405.64 583.173 1415.02 573.105 1426.06 561.207 1437.23 549.432 1448.53 537.781zM1561.52 557.893C1566.68 560.661 1572.85 568.472 1574.61 574.035 1579.14 588.327 1571.82 601.096 1564.07 612.566 1559.1 612.218 1554.25 614.25 1551 618.043 1537.22 617.447 1524.24 615.239 1516.59 602.633 1524.9 605.647 1530.71 606.772 1539.55 604.144 1548.77 601.334 1556.43 594.832 1560.7 586.181 1565.64 576.141 1564.86 567.929 1561.52 557.893z" class="svgShape color1e7da6-35 selectable"></path><path fill="#DF544F" d="M 1494.08 492.392 C 1487.05 500.301 1466.46 522.002 1458.95 528.13 C 1459.55 523.536 1489.78 494.291 1494.36 490.247 L 1494.08 492.392 z" class="svgShape colordf544f-36 selectable"></path><path fill="#FD8673" d="M 1331.26 418.333 C 1323.25 395.367 1346.97 372.204 1370.46 378.24 C 1389.31 383.181 1428.69 426.428 1445.1 441.606 C 1433.26 455.592 1412.95 475.442 1399.68 489.159 C 1384.51 474.865 1337.22 434.585 1331.26 418.333 z" class="svgShape colorfd8673-37 selectable"></path><path fill="#FED4C1" d="M 1331.26 418.333 C 1323.25 395.367 1346.97 372.204 1370.46 378.24 C 1371.57 381.73 1372.16 382.647 1371.32 386.24 C 1367.29 390.093 1362.24 389.132 1356.32 389.133 C 1338.74 400.411 1344.14 420.956 1331.26 418.333 z" class="svgShape colorfed4c1-38 selectable"></path><path fill="#FFF" d="M 1484.54 325.45 C 1498.81 325.545 1496.36 341.118 1487.23 342.174 C 1476.92 343.366 1462.95 343.184 1452.42 343.468 L 1341.1 346.392 C 1321.51 346.868 1302.03 347.675 1282.47 348.427 C 1231.28 350.394 1267.83 441.416 1251.32 457.451 C 1247.33 458.088 1245.33 457.789 1242.12 455.452 C 1238.02 448.872 1237.98 376.276 1240.66 366.306 C 1242.86 358.275 1247.06 350.933 1252.87 344.964 C 1259.13 338.482 1265.63 333.455 1274.8 332.331 C 1296.87 329.626 1323.98 329.683 1346.22 329.142 L 1484.54 325.45 z" class="svgShape colorffffff-39 selectable"></path><path fill="#FEE279" d="M 1609.41 603.663 C 1621.24 600.383 1633.49 607.29 1636.81 619.108 C 1640.13 630.926 1633.26 643.2 1621.45 646.554 C 1609.59 649.924 1597.25 643.019 1593.92 631.147 C 1590.59 619.276 1597.53 606.957 1609.41 603.663 z" class="svgShape colorfee279-40 selectable"></path><path fill="#FFF" d="M1564.07 612.566C1571.35 613.075 1577.33 618.517 1578.52 625.717 1579.71 632.917 1575.79 639.991 1569.06 642.811 1562.33 645.631 1554.55 643.46 1550.25 637.563 1545.95 631.667 1546.26 623.59 1551 618.043 1554.25 614.25 1559.1 612.218 1564.07 612.566zM1523.95 324.397C1532.47 323.92 1546.49 321.957 1549.57 332.866 1548.12 340.319 1543.11 341.341 1536.32 341.567 1527.98 341.975 1512.35 344.116 1509.07 333.62 1510.32 325.761 1517.39 324.723 1523.95 324.397zM1244.8 469.488C1249.11 467.574 1254.16 469.544 1256.04 473.874 1257.91 478.204 1255.9 483.234 1251.55 485.074 1247.26 486.892 1242.3 484.909 1240.45 480.631 1238.6 476.352 1240.54 471.379 1244.8 469.488z" class="svgShape colorffffff-41 selectable"></path><path fill="#FD8673" d="M 1422.52 873.161 C 1417.75 853.935 1414.33 807.736 1419.71 788.608 C 1429.34 754.411 1507.3 740.365 1521.99 775.935 C 1525.84 788.572 1528.3 800.401 1528.24 813.726 C 1529.57 833.62 1529.16 873.336 1517.23 890.069 C 1511.12 898.643 1493.96 902.422 1483.8 902.565 C 1460.16 902.891 1435.12 902.963 1424 878.326 L 1422.52 873.161 z" class="svgShape colorfd8673-42 selectable"></path><path fill="#FEEEC2" d="M 1422.52 873.161 C 1417.75 853.935 1414.33 807.736 1419.71 788.608 C 1429.34 754.411 1507.3 740.365 1521.99 775.935 C 1514.49 775.442 1505.99 772.181 1497.95 770.585 C 1477.48 766.525 1457.92 770.8 1441.04 782.469 C 1415.77 799.941 1433.1 854.749 1422.52 873.161 z" class="svgShape colorfeeec2-43 selectable"></path><path fill="#F65F50" d="M 1528.24 813.726 C 1529.57 833.62 1529.16 873.336 1517.23 890.069 C 1511.12 898.643 1493.96 902.422 1483.8 902.565 C 1460.16 902.891 1435.12 902.963 1424 878.326 C 1446.96 890.185 1501.58 897.455 1517.95 872.139 C 1523.8 863.101 1527.78 825.566 1528.24 813.726 z" class="svgShape colorf65f50-44 selectable"></path><path fill="#7C7DA8" d="M 1446.55 920.554 C 1450.54 921.024 1455.08 921.867 1459.09 922.51 C 1466.16 922.973 1473.24 923.295 1480.32 923.476 C 1480.69 944.874 1481.89 972.073 1481.04 993.158 C 1471.75 1004.37 1464.57 1006.76 1452.24 997.578 C 1451.05 996.13 1448.68 993.24 1448.51 991.556 C 1446.41 970.264 1446.99 941.598 1446.55 920.554 z" class="svgShape color7c7da8-45 selectable"></path><path fill="#C7CAD9" d="M1446.55 920.554C1450.54 921.024 1455.08 921.867 1459.09 922.51 1459.31 932.939 1462.94 988.178 1457.59 993.711 1455.99 995.368 1454.2 996.4 1452.24 997.578 1451.05 996.13 1448.68 993.24 1448.51 991.556 1446.41 970.264 1446.99 941.598 1446.55 920.554zM1445.03 697.086L1477.94 696.756 1478.48 735.951 1464.91 737.006C1461.28 737.704 1448.25 740.995 1446.05 739.795L1445.87 739.415C1444.61 732.521 1445.02 705.707 1445.03 697.086z" class="svgShape colorc7cad9-46 selectable"></path><path fill="#FFF" d="M 1446.17 714.173 C 1452.13 713.937 1457.63 714.129 1463.58 714.301 C 1464.9 723.03 1464.88 728.075 1464.91 737.006 C 1461.28 737.704 1448.25 740.995 1446.05 739.795 L 1445.87 739.415 C 1446.61 732.807 1446.21 721.176 1446.17 714.173 z" class="svgShape colorffffff-47 selectable"></path><path fill="#36335E" d="M 1137.82 1322.36 C 1144.13 1317.46 1161.91 1304.97 1168.43 1300.73 C 1163.46 1316.51 1159.79 1324.41 1151.9 1339.01 C 1199.55 1411.91 1219.56 1498.74 1226.66 1584.34 C 1227.34 1592.5 1227.93 1601.64 1229.11 1609.66 C 1282.19 1623.1 1328.79 1657.85 1326.97 1719.59 C 1326.86 1723.09 1320.46 1727.03 1317.85 1728.71 C 1270.31 1729.65 1222.78 1730.98 1175.26 1732.7 C 1153.04 1733.37 1130.79 1734.1 1108.54 1734.19 C 1100.28 1734.22 1095.27 1726.71 1094.9 1719.02 C 1093.52 1690.4 1093.51 1661.34 1091.14 1632.75 C 1084.71 1555.14 1062.59 1467.57 1014.27 1404.65 C 971.377 1414.62 932.879 1418.96 888.576 1416.41 C 875.632 1415.67 864.423 1413.77 851.906 1412.55 C 838.229 1502.04 816.125 1577.72 776.955 1659.96 C 779.982 1668.59 783.938 1724.24 779.534 1734.91 C 778.25 1738.02 775.174 1740.64 772.409 1742.62 C 762.419 1744.39 746.92 1744.35 736.334 1744.63 L 676.996 1746.2 L 613.238 1748.16 C 598.396 1748.74 583.586 1749.52 568.706 1749.37 C 551.549 1749.2 555.346 1732.19 556.373 1720.88 C 558.331 1699.3 566.343 1680.03 580.69 1663.78 C 596.546 1645.62 617.034 1630.69 639.876 1622.38 C 669.363 1534.35 697.426 1443.19 703.137 1349.86 L 724.305 1349.21 L 741.261 1348.97 L 996.925 1339.41 C 1016.16 1338.65 1035.41 1337.99 1054.65 1337.43 C 1070.16 1336.93 1087.45 1336.64 1102.72 1334.08 C 1113.95 1332.19 1126.93 1326.26 1137.82 1322.36 z" class="svgShape color36335e-48 selectable"></path><path fill="#1E7DA6" d="M 741.261 1348.97 L 996.925 1339.41 C 1016.16 1338.65 1035.41 1337.99 1054.65 1337.43 C 1070.16 1336.93 1087.45 1336.64 1102.72 1334.08 C 1113.95 1332.19 1126.93 1326.26 1137.82 1322.36 C 1134.67 1327.8 1131.05 1333.77 1128.12 1339.26 C 1136.13 1352.13 1142.96 1363.56 1150.26 1376.83 C 1145.49 1381.38 1140.03 1387.85 1135.7 1392.93 C 1121.54 1409.56 1102.63 1424.78 1088.92 1441.43 C 1117.79 1506.14 1130.31 1567.85 1136.2 1638.44 L 1112.72 1641.36 C 1110.71 1621.83 1109.44 1604.58 1106.38 1585.02 C 1096.67 1518.73 1072.85 1455.29 1036.53 1398.99 C 1052.85 1393.72 1056.81 1386.88 1042.71 1374.52 C 1031.31 1376.95 1016.09 1382.4 1003.46 1385.41 C 965.454 1394.29 926.343 1397.5 887.395 1394.96 C 824.003 1391.12 836.054 1377.6 825.441 1447.18 C 814.393 1448.32 728.816 1457.69 725.289 1456.19 C 732.615 1423.16 736.703 1382.93 741.261 1348.97 z" class="svgShape color1e7da6-49 selectable"></path><path fill="#2F93C3" d="M725.289 1456.19C728.816 1457.69 814.393 1448.32 825.441 1447.18 812.113 1511.06 788.702 1591.01 758.879 1649.4 730.048 1649.05 700.622 1646.82 674.861 1631.87 678.922 1623.36 684.914 1604.64 688.163 1595.1 703.608 1549.67 716.011 1503.27 725.289 1456.19zM1088.92 1441.43C1102.63 1424.78 1121.54 1409.56 1135.7 1392.93 1140.03 1387.85 1145.49 1381.38 1150.26 1376.83 1190.38 1453.26 1201.81 1529.42 1208.05 1614.18 1185.49 1625.92 1161.25 1634.1 1136.2 1638.44 1130.31 1567.85 1117.79 1506.14 1088.92 1441.43z" class="svgShape color2f93c3-50 selectable"></path><path fill="#84D5E8" d="M 724.305 1349.21 L 741.261 1348.97 C 736.703 1382.93 732.615 1423.16 725.289 1456.19 C 716.011 1503.27 703.608 1549.67 688.163 1595.1 C 684.914 1604.64 678.922 1623.36 674.861 1631.87 C 670.326 1629.51 665.472 1626.39 661.065 1623.71 C 682.662 1561.76 701.669 1498.84 712.973 1434.14 C 717.918 1405.85 721.035 1377.72 724.305 1349.21 z" class="svgShape color84d5e8-51 selectable"></path><path fill="#FD8673" d="M 648.828 1639.71 L 661.117 1648.09 C 694.337 1665.32 721.124 1671.16 758.75 1670.46 C 759.216 1681.12 760.071 1693.39 760.227 1703.92 C 760.749 1710.7 760.979 1716 761.009 1722.8 C 704.764 1723.93 647.196 1726.94 591.074 1727.19 C 586.383 1727.52 581.548 1727.51 576.834 1727.58 C 576.797 1717.46 578.701 1707.43 582.444 1698.03 C 593.698 1670.42 622.268 1650.88 648.828 1639.71 z" class="svgShape colorfd8673-52 selectable"></path><path fill="#FEEEC2" d="M 648.828 1639.71 L 661.117 1648.09 C 634.081 1663.93 593.325 1688.92 591.839 1723.7 L 591.074 1727.19 C 586.383 1727.52 581.548 1727.51 576.834 1727.58 C 576.797 1717.46 578.701 1707.43 582.444 1698.03 C 593.698 1670.42 622.268 1650.88 648.828 1639.71 z" class="svgShape colorfeeec2-53 selectable"></path><path fill="#F65F50" d="M 760.227 1703.92 C 760.749 1710.7 760.979 1716 761.009 1722.8 C 704.764 1723.93 647.196 1726.94 591.074 1727.19 L 591.839 1723.7 C 601.14 1722.23 620.157 1721.53 630.477 1720.92 L 709.689 1716.48 C 724.445 1715.78 744.99 1715.49 759.235 1713.68 C 760.54 1710.73 760.178 1707.33 760.227 1703.92 z" class="svgShape colorf65f50-54 selectable"></path><path fill="#FD8673" d="M 1222.85 1629.86 C 1266.38 1638.89 1299.27 1660.93 1305.95 1707.07 C 1261.99 1708.94 1212.39 1710.72 1168.38 1711.26 L 1115.08 1712.81 C 1114.89 1696.15 1113.87 1678.89 1113.05 1662.24 C 1141.7 1660.29 1158.76 1656.08 1185.42 1647.22 C 1199.2 1643.11 1210.23 1636.34 1222.85 1629.86 z" class="svgShape colorfd8673-55 selectable"></path><path fill="#F65F50" d="M 1113.05 1662.24 C 1141.7 1660.29 1158.76 1656.08 1185.42 1647.22 C 1179.8 1657.29 1166.7 1663.88 1161.69 1674 C 1156.53 1684.42 1163.92 1701.59 1168.38 1711.26 L 1115.08 1712.81 C 1114.89 1696.15 1113.87 1678.89 1113.05 1662.24 z" class="svgShape colorf65f50-56 selectable"></path><path fill="#84D5E8" d="M 1321.42 1120.72 C 1347.55 1111.59 1369.47 1094.13 1385.8 1071.95 C 1389.6 1066.78 1393.11 1061.4 1396.32 1055.84 C 1403.96 1042.32 1403.08 1029.05 1421.79 1036.57 C 1444.06 1038.47 1464.94 1051.36 1480.61 1066.72 C 1494.28 1071.11 1491.72 1081.34 1486.47 1091.93 C 1453.97 1157.44 1409.85 1197.6 1341.62 1221.77 C 1344.05 1236.07 1357.28 1269.56 1339.53 1274.94 C 1335.77 1273.95 1332.4 1272.39 1329.02 1270.48 C 1315.78 1262.95 1219.04 1201.8 1215.66 1194.42 C 1213.41 1189.49 1215.44 1184.32 1217.92 1180.04 C 1227.54 1163.38 1248 1139.78 1260.61 1123.31 C 1270.81 1109.96 1280.4 1094.87 1291.64 1082.48 C 1294.59 1079.23 1298.5 1075.69 1303 1074.91 C 1305.3 1074.51 1307.5 1075.08 1309.29 1076.58 C 1318.34 1084.15 1319.64 1109.47 1321.42 1120.72 z" class="svgShape color84d5e8-57 selectable"></path><path fill="#196973" d="M 1321.42 1120.72 C 1347.55 1111.59 1369.47 1094.13 1385.8 1071.95 C 1389.6 1066.78 1393.11 1061.4 1396.32 1055.84 C 1403.96 1042.32 1403.08 1029.05 1421.79 1036.57 C 1423.42 1042.37 1422.92 1045.66 1420.46 1051.25 C 1405.05 1086.31 1379.04 1114.83 1345.06 1132.45 C 1304.28 1153.58 1305.92 1138.71 1299.31 1103.19 C 1286.81 1120.29 1274.39 1137.46 1262.06 1154.7 C 1263.83 1165.02 1255.25 1186.04 1251.13 1196.46 C 1276.4 1212.44 1299.96 1228.05 1324.88 1244.43 C 1323.54 1234.73 1315.1 1209.06 1326.16 1205.65 C 1356.17 1196.4 1380.52 1185.48 1405.38 1165.01 C 1420.46 1152.52 1433.83 1138.1 1445.15 1122.12 C 1451.21 1113.61 1456.4 1104.95 1461.49 1095.83 C 1467.73 1084.68 1468.96 1073.25 1480.61 1066.72 C 1494.28 1071.11 1491.72 1081.34 1486.47 1091.93 C 1453.97 1157.44 1409.85 1197.6 1341.62 1221.77 C 1344.05 1236.07 1357.28 1269.56 1339.53 1274.94 C 1335.77 1273.95 1332.4 1272.39 1329.02 1270.48 C 1315.78 1262.95 1219.04 1201.8 1215.66 1194.42 C 1213.41 1189.49 1215.44 1184.32 1217.92 1180.04 C 1227.54 1163.38 1248 1139.78 1260.61 1123.31 C 1270.81 1109.96 1280.4 1094.87 1291.64 1082.48 C 1294.59 1079.23 1298.5 1075.69 1303 1074.91 C 1305.3 1074.51 1307.5 1075.08 1309.29 1076.58 C 1318.34 1084.15 1319.64 1109.47 1321.42 1120.72 z" class="svgShape color196973-58 selectable"></path><path fill="#3ECDC3" d="M 1262.06 1154.7 C 1263.83 1165.02 1255.25 1186.04 1251.13 1196.46 L 1237.68 1187.22 C 1245.51 1176.16 1253.64 1165.32 1262.06 1154.7 z" class="svgShape color3ecdc3-59 selectable"></path></svg></g></svg>