<svg width="15" height="15" viewBox="0 0 15 15" fill="none" xmlns="http://www.w3.org/2000/svg">
    <path d="M5.40039 7.19971C5.40039 7.59753 5.24236 7.97906 4.96105 8.26037C4.67975 8.54167 4.29822 8.69971 3.90039 8.69971C3.50257 8.69971 3.12104 8.54167 2.83973 8.26037C2.55843 7.97906 2.40039 7.59753 2.40039 7.19971C2.40039 6.80188 2.55843 6.42035 2.83973 6.13905C3.12104 5.85774 3.50257 5.69971 3.90039 5.69971C4.29822 5.69971 4.67975 5.85774 4.96105 6.13905C5.24236 6.42035 5.40039 6.80188 5.40039 7.19971Z" stroke="#035C4D"/>
    <path d="M8.40039 3.8999L5.40039 5.9999M8.40039 10.4999L5.40039 8.3999" stroke="#035C4D" stroke-linecap="round"/>
    <path d="M11.4004 11.0998C11.4004 11.4976 11.2424 11.8792 10.9611 12.1605C10.6797 12.4418 10.2982 12.5998 9.90039 12.5998C9.50257 12.5998 9.12104 12.4418 8.83973 12.1605C8.55843 11.8792 8.40039 11.4976 8.40039 11.0998C8.40039 10.702 8.55843 10.3204 8.83973 10.0391C9.12104 9.75784 9.50257 9.5998 9.90039 9.5998C10.2982 9.5998 10.6797 9.75784 10.9611 10.0391C11.2424 10.3204 11.4004 10.702 11.4004 11.0998ZM11.4004 3.2998C11.4004 3.69763 11.2424 4.07916 10.9611 4.36046C10.6797 4.64177 10.2982 4.7998 9.90039 4.7998C9.50257 4.7998 9.12104 4.64177 8.83973 4.36046C8.55843 4.07916 8.40039 3.69763 8.40039 3.2998C8.40039 2.90198 8.55843 2.52045 8.83973 2.23914C9.12104 1.95784 9.50257 1.7998 9.90039 1.7998C10.2982 1.7998 10.6797 1.95784 10.9611 2.23914C11.2424 2.52045 11.4004 2.90198 11.4004 3.2998Z" stroke="#035C4D"/>
</svg>
