<svg width="16" height="16" viewBox="0 0 16 16" fill="none" xmlns="http://www.w3.org/2000/svg">
<path d="M12.3337 13.0001H3.66699L1.66699 15.0001V3.66675C1.66699 2.56675 2.56699 1.66675 3.66699 1.66675H12.3337C13.4337 1.66675 14.3337 2.56675 14.3337 3.66675V11.0001C14.3337 12.1001 13.4337 13.0001 12.3337 13.0001Z" fill="#009688"/>
<path d="M8 8.33325C8.55228 8.33325 9 7.88554 9 7.33325C9 6.78097 8.55228 6.33325 8 6.33325C7.44772 6.33325 7 6.78097 7 7.33325C7 7.88554 7.44772 8.33325 8 8.33325Z" fill="white"/>
<path d="M11.334 8.33325C11.8863 8.33325 12.334 7.88554 12.334 7.33325C12.334 6.78097 11.8863 6.33325 11.334 6.33325C10.7817 6.33325 10.334 6.78097 10.334 7.33325C10.334 7.88554 10.7817 8.33325 11.334 8.33325Z" fill="white"/>
<path d="M4.66699 8.33325C5.21928 8.33325 5.66699 7.88554 5.66699 7.33325C5.66699 6.78097 5.21928 6.33325 4.66699 6.33325C4.11471 6.33325 3.66699 6.78097 3.66699 7.33325C3.66699 7.88554 4.11471 8.33325 4.66699 8.33325Z" fill="white"/>
</svg>
