<svg width="14" height="14" viewBox="0 0 14 14" fill="none" xmlns="http://www.w3.org/2000/svg">
<g clip-path="url(#clip0_1910_3879)">
<path d="M7.27715 3.4668L8.19123 6.5818C8.22171 6.6848 8.28003 6.77738 8.35977 6.84935C8.4395 6.92131 8.53756 6.96987 8.64314 6.98965C8.74871 7.00944 8.8577 6.99969 8.95809 6.96149C9.05847 6.92328 9.14636 6.8581 9.21207 6.77313L10.7381 4.78863M11.6673 5.25005L9.91732 10.5M3.26382 4.78863L4.78923 6.77371C4.85498 6.85868 4.94291 6.92384 5.04334 6.962C5.14376 7.00017 5.25277 7.00987 5.35836 6.99002C5.46394 6.97017 5.56199 6.92154 5.64169 6.84951C5.7214 6.77748 5.77967 6.68484 5.81007 6.5818L6.72415 3.4668M4.08398 10.5L2.33398 5.25005M2.33398 11.6667C2.33398 11.3573 2.4569 11.0605 2.67569 10.8418C2.89449 10.623 3.19123 10.5 3.50065 10.5H10.5007C10.8101 10.5 11.1068 10.623 11.3256 10.8418C11.5444 11.0605 11.6673 11.3573 11.6673 11.6667V12.25C11.6673 12.4048 11.6059 12.5531 11.4965 12.6625C11.3871 12.7719 11.2387 12.8334 11.084 12.8334H2.91732C2.76261 12.8334 2.61424 12.7719 2.50484 12.6625C2.39544 12.5531 2.33398 12.4048 2.33398 12.25V11.6667Z" stroke="#035C4D" stroke-linecap="round" stroke-linejoin="round"/>
<path d="M7.00065 3.50008C7.64498 3.50008 8.16732 2.97775 8.16732 2.33341C8.16732 1.68908 7.64498 1.16675 7.00065 1.16675C6.35632 1.16675 5.83398 1.68908 5.83398 2.33341C5.83398 2.97775 6.35632 3.50008 7.00065 3.50008Z" stroke="#035C4D" stroke-linecap="round" stroke-linejoin="round"/>
<path d="M11.6667 5.25008C12.311 5.25008 12.8333 4.72775 12.8333 4.08341C12.8333 3.43908 12.311 2.91675 11.6667 2.91675C11.0223 2.91675 10.5 3.43908 10.5 4.08341C10.5 4.72775 11.0223 5.25008 11.6667 5.25008Z" stroke="#035C4D" stroke-linecap="round" stroke-linejoin="round"/>
<path d="M2.33366 5.25008C2.97799 5.25008 3.50033 4.72775 3.50033 4.08341C3.50033 3.43908 2.97799 2.91675 2.33366 2.91675C1.68933 2.91675 1.16699 3.43908 1.16699 4.08341C1.16699 4.72775 1.68933 5.25008 2.33366 5.25008Z" stroke="#035C4D" stroke-linecap="round" stroke-linejoin="round"/>
</g>
<defs>
<clipPath id="clip0_1910_3879">
<rect width="14" height="14" fill="white"/>
</clipPath>
</defs>
</svg>
