<svg width="26" height="26" viewBox="0 0 26 26" fill="none" xmlns="http://www.w3.org/2000/svg">
    <path d="M11.9167 16.2499V14.0833H14.0833V16.2499H11.9167ZM10.8333 7.58325H15.1667V6.08284C15.1667 5.91673 15.0973 5.76398 14.9587 5.62459C14.82 5.4852 14.6673 5.41587 14.5004 5.41659H11.4996C11.3335 5.41659 11.1807 5.48592 11.0413 5.62459C10.9019 5.76325 10.8326 5.916 10.8333 6.08284V7.58325ZM5.00067 21.6666C4.50161 21.6666 4.08525 21.4998 3.75158 21.1661C3.41792 20.8324 3.25072 20.4157 3.25 19.9159V15.7083H10.8333V16.4579C10.8333 16.7093 10.9164 16.918 11.0825 17.0841C11.2486 17.2502 11.4573 17.3333 11.7087 17.3333H14.2913C14.5427 17.3333 14.7514 17.2502 14.9175 17.0841C15.0836 16.918 15.1667 16.7093 15.1667 16.4579V15.7083H22.75V19.917C22.75 20.4153 22.5832 20.8313 22.2495 21.165C21.9158 21.4987 21.4995 21.6659 21.0004 21.6666H5.00067ZM3.25 14.6249V9.33392C3.25 8.83487 3.41719 8.4185 3.75158 8.08484C4.08597 7.75117 4.50197 7.58398 4.99958 7.58325H9.75V6.08284C9.75 5.5845 9.9172 5.16814 10.2516 4.83375C10.586 4.49937 11.0023 4.33253 11.5007 4.33325H14.5004C14.9988 4.33325 15.4151 4.50009 15.7495 4.83375C16.0839 5.16742 16.2507 5.58378 16.25 6.08284V7.58325H21.0004C21.4988 7.58325 21.9148 7.75045 22.2484 8.08484C22.5821 8.41923 22.7493 8.83559 22.75 9.33392V14.6249H15.1667V13.8753C15.1667 13.6239 15.0836 13.4152 14.9175 13.2491C14.7514 13.083 14.5427 12.9999 14.2913 12.9999H11.7087C11.4573 12.9999 11.2486 13.083 11.0825 13.2491C10.9164 13.4152 10.8333 13.6239 10.8333 13.8753V14.6249H3.25Z" fill="#035C4D"/>
</svg>
