<svg width="20" height="20" viewBox="0 0 20 20" fill="none" xmlns="http://www.w3.org/2000/svg">
<g clip-path="url(#clip0_1777_212)">
<path fill-rule="evenodd" clip-rule="evenodd" d="M10.833 15.832V19.1653H9.16633V15.832H10.833ZM14.7137 13.5342L17.0707 15.8912L15.8922 17.0698L13.5352 14.7127L14.7137 13.5342ZM5.28563 13.5342L6.46414 14.7127L4.10711 17.0698L2.92859 15.8912L5.28563 13.5342ZM9.99969 5.44219C12.5162 5.44219 14.5562 7.48219 14.5562 9.99871C14.5562 12.5152 12.5162 14.5552 9.99969 14.5552C9.40099 14.5564 8.80797 14.4393 8.25463 14.2107C7.70129 13.9821 7.19853 13.6465 6.77519 13.2232C6.35185 12.7999 6.01625 12.2971 5.78767 11.7438C5.55908 11.1904 5.44199 10.5974 5.44313 9.99871C5.44313 7.48219 7.48316 5.44219 9.99969 5.44219ZM9.99969 7.10883C8.40363 7.10883 7.10981 8.40269 7.10981 10.0019C7.10908 10.3812 7.18325 10.7569 7.32806 11.1074C7.47288 11.458 7.68548 11.7765 7.95367 12.0447C8.49535 12.5864 9.23043 12.89 9.99969 12.8886V7.10883ZM19.1663 9.16535V10.832H15.833V9.16535H19.1663ZM4.16633 9.16535V10.832H0.833008V9.16535H4.16633ZM4.10711 2.92762L6.46414 5.28465L5.28563 6.46316L2.92859 4.10613L4.10711 2.92762ZM15.8923 2.92762L17.0707 4.10613L14.7137 6.46316L13.5352 5.28465L15.8923 2.92762ZM10.833 0.832031V4.16535H9.16629V0.832031H10.833Z" fill="white"/>
</g>
<defs>
<clipPath id="clip0_1777_212">
<rect width="20" height="20" fill="white"/>
</clipPath>
</defs>
</svg>
