<svg width="14" height="14" viewBox="0 0 14 14" fill="none" xmlns="http://www.w3.org/2000/svg">
<g clip-path="url(#clip0_1777_423)">
<path d="M6.99968 8.74919C7.48579 8.74919 7.89898 8.57905 8.23926 8.23877C8.57954 7.89849 8.74968 7.4853 8.74968 6.99919C8.74968 6.51308 8.57954 6.09988 8.23926 5.7596C7.89898 5.41933 7.48579 5.24919 6.99968 5.24919C6.51357 5.24919 6.10037 5.41933 5.76009 5.7596C5.41982 6.09988 5.24968 6.51308 5.24968 6.99919C5.24968 7.4853 5.41982 7.89849 5.76009 8.23877C6.10037 8.57905 6.51357 8.74919 6.99968 8.74919ZM6.99968 9.91585C6.19273 9.91585 5.50498 9.63138 4.93643 9.06244C4.36787 8.49349 4.0834 7.80574 4.08301 6.99919C4.08262 6.19263 4.36709 5.50488 4.93643 4.93594C5.50576 4.36699 6.19351 4.08252 6.99968 4.08252C7.80584 4.08252 8.49379 4.36699 9.06351 4.93594C9.63323 5.50488 9.91751 6.19263 9.91634 6.99919C9.91518 7.80574 9.6307 8.49369 9.06293 9.06302C8.49515 9.63235 7.8074 9.91663 6.99968 9.91585ZM1.16634 7.58252C1.00107 7.58252 0.862621 7.52652 0.75101 7.41452C0.639399 7.30252 0.583399 7.16408 0.58301 6.99919C0.582621 6.8343 0.638621 6.69586 0.75101 6.58386C0.863399 6.47186 1.00184 6.41585 1.16634 6.41585H2.33301C2.49829 6.41585 2.63693 6.47186 2.74893 6.58386C2.86093 6.69586 2.91673 6.8343 2.91634 6.99919C2.91595 7.16408 2.85995 7.30272 2.74834 7.4151C2.63673 7.52749 2.49829 7.5833 2.33301 7.58252H1.16634ZM11.6663 7.58252C11.5011 7.58252 11.3626 7.52652 11.251 7.41452C11.1394 7.30252 11.0834 7.16408 11.083 6.99919C11.0826 6.8343 11.1386 6.69586 11.251 6.58386C11.3634 6.47186 11.5018 6.41585 11.6663 6.41585H12.833C12.9983 6.41585 13.1369 6.47186 13.2489 6.58386C13.3609 6.69586 13.4167 6.8343 13.4163 6.99919C13.416 7.16408 13.36 7.30272 13.2483 7.4151C13.1367 7.52749 12.9983 7.5833 12.833 7.58252H11.6663ZM6.99968 2.91585C6.8344 2.91585 6.69595 2.85985 6.58434 2.74785C6.47273 2.63585 6.41673 2.49741 6.41634 2.33252V1.16585C6.41634 1.00058 6.47234 0.862133 6.58434 0.750522C6.69634 0.63891 6.83479 0.58291 6.99968 0.582522C7.16457 0.582133 7.3032 0.638133 7.41559 0.750522C7.52798 0.86291 7.58379 1.00135 7.58301 1.16585V2.33252C7.58301 2.4978 7.52701 2.63644 7.41501 2.74844C7.30301 2.86044 7.16457 2.91624 6.99968 2.91585ZM6.99968 13.4159C6.8344 13.4159 6.69595 13.3599 6.58434 13.2479C6.47273 13.1359 6.41673 12.9974 6.41634 12.8325V11.6659C6.41634 11.5006 6.47234 11.3621 6.58434 11.2505C6.69634 11.1389 6.83479 11.0829 6.99968 11.0825C7.16457 11.0821 7.3032 11.1381 7.41559 11.2505C7.52798 11.3629 7.58379 11.5014 7.58301 11.6659V12.8325C7.58301 12.9978 7.52701 13.1364 7.41501 13.2484C7.30301 13.3604 7.16457 13.4162 6.99968 13.4159ZM3.29551 4.11169L2.66843 3.49919C2.55176 3.39224 2.49576 3.25613 2.50043 3.09085C2.50509 2.92558 2.56109 2.7846 2.66843 2.66794C2.78509 2.55127 2.92607 2.49294 3.09134 2.49294C3.25662 2.49294 3.39273 2.55127 3.49968 2.66794L4.11218 3.29502C4.21912 3.41169 4.27259 3.5478 4.27259 3.70335C4.27259 3.85891 4.21912 3.99502 4.11218 4.11169C4.00523 4.22835 3.87165 4.28435 3.71143 4.27969C3.5512 4.27502 3.41257 4.21902 3.29551 4.11169ZM10.4997 11.3304L9.88718 10.7034C9.78023 10.5867 9.72676 10.4482 9.72676 10.288C9.72676 10.1278 9.78023 9.99402 9.88718 9.88669C9.99412 9.77002 10.1279 9.71422 10.2885 9.71927C10.4491 9.72433 10.5876 9.78013 10.7038 9.88669L11.3309 10.4992C11.4476 10.6061 11.5036 10.7422 11.4989 10.9075C11.4943 11.0728 11.4383 11.2138 11.3309 11.3304C11.2143 11.4471 11.0733 11.5054 10.908 11.5054C10.7427 11.5054 10.6066 11.4471 10.4997 11.3304ZM9.88718 4.11169C9.77051 4.00474 9.71451 3.87116 9.71918 3.71094C9.72384 3.55072 9.77984 3.41208 9.88718 3.29502L10.4997 2.66794C10.6066 2.55127 10.7427 2.49527 10.908 2.49994C11.0733 2.5046 11.2143 2.5606 11.3309 2.66794C11.4476 2.7846 11.5059 2.92558 11.5059 3.09085C11.5059 3.25613 11.4476 3.39224 11.3309 3.49919L10.7038 4.11169C10.5872 4.21863 10.4511 4.2721 10.2955 4.2721C10.14 4.2721 10.0038 4.21863 9.88718 4.11169ZM2.66843 11.3304C2.55176 11.2138 2.49343 11.0728 2.49343 10.9075C2.49343 10.7422 2.55176 10.6061 2.66843 10.4992L3.29551 9.88669C3.41218 9.77974 3.55062 9.72627 3.71084 9.72627C3.87107 9.72627 4.00484 9.77974 4.11218 9.88669C4.22884 9.99363 4.28484 10.1274 4.28018 10.288C4.27551 10.4486 4.21951 10.5871 4.11218 10.7034L3.49968 11.3304C3.39273 11.4471 3.25662 11.5031 3.09134 11.4984C2.92607 11.4938 2.78509 11.4378 2.66843 11.3304Z" fill="#035C4D"/>
</g>
<defs>
<clipPath id="clip0_1777_423">
<rect width="14" height="14" fill="white"/>
</clipPath>
</defs>
</svg>
