<svg width="24" height="24" viewBox="0 0 24 24" fill="none" xmlns="http://www.w3.org/2000/svg">
    <circle cx="12" cy="12" r="12" fill="#046FED" fill-opacity="0.1"/>
    <path fill-rule="evenodd" clip-rule="evenodd" d="M9.06378 8.89145C10.4364 8.76895 11.8171 8.77945 13.188 8.92353L13.5426 8.96087C13.8711 8.99555 14.1792 9.13672 14.42 9.36284C14.6607 9.58896 14.8209 9.88763 14.8761 10.2133L16.7889 9.19712C16.8527 9.16322 16.9239 9.14565 16.9962 9.14599C17.0684 9.14632 17.1395 9.16455 17.2029 9.19904C17.2664 9.23354 17.3204 9.28322 17.36 9.34365C17.3996 9.40408 17.4237 9.47338 17.43 9.54537L17.4445 9.71045C17.6065 11.5666 17.6065 13.4333 17.4445 15.2894L17.43 15.4551C17.4236 15.5271 17.3995 15.5965 17.3598 15.6569C17.3202 15.7173 17.2661 15.767 17.2026 15.8014C17.139 15.8358 17.0679 15.854 16.9956 15.8542C16.9233 15.8545 16.8521 15.8368 16.7883 15.8028L14.8761 14.7872C14.8207 15.1128 14.6603 15.4113 14.4195 15.6373C14.1786 15.8633 13.8705 16.0044 13.542 16.039L13.1874 16.0764C11.8165 16.2204 10.4358 16.2309 9.0632 16.1084L8.14095 16.0262C7.8032 15.996 7.48547 15.8529 7.23907 15.62C6.99267 15.387 6.83198 15.0778 6.78295 14.7423C6.56584 13.2555 6.56584 11.745 6.78295 10.2582C6.83198 9.92267 6.99267 9.61346 7.23907 9.3805C7.48547 9.14754 7.8032 9.00443 8.14095 8.97428L9.06378 8.89145ZM14.9846 13.8807C15.0326 13.8886 15.079 13.904 15.1223 13.9262L16.6127 14.7184C16.719 13.2413 16.719 11.7586 16.6127 10.2815L15.1223 11.0737C15.0791 11.0961 15.0326 11.1117 14.9846 11.1198C15.0663 12.0383 15.0663 12.9622 14.9846 13.8807Z" fill="#046FED"/>
</svg>
