<svg width="14" height="14" viewBox="0 0 14 14" fill="none" xmlns="http://www.w3.org/2000/svg">
    <g clip-path="url(#clip0_1404_263)">
        <path d="M5.24463 3.49096L9.2705 1.16667L10.6157 3.4968L5.24463 3.49096Z" stroke="#035C4D" stroke-linecap="round" stroke-linejoin="round"/>
        <path d="M1.1665 4.08333C1.1665 3.92862 1.22796 3.78025 1.33736 3.67085C1.44675 3.56146 1.59513 3.5 1.74984 3.5H12.2498C12.4045 3.5 12.5529 3.56146 12.6623 3.67085C12.7717 3.78025 12.8332 3.92862 12.8332 4.08333V12.25C12.8332 12.4047 12.7717 12.5531 12.6623 12.6625C12.5529 12.7719 12.4045 12.8333 12.2498 12.8333H1.74984C1.59513 12.8333 1.44675 12.7719 1.33736 12.6625C1.22796 12.5531 1.1665 12.4047 1.1665 12.25V4.08333Z" stroke="#035C4D" stroke-linejoin="round"/>
        <path d="M10.2813 9.62501H12.8333V6.70834H10.2813C9.43542 6.70834 8.75 7.36139 8.75 8.16668C8.75 8.97197 9.43542 9.62501 10.2813 9.62501Z" stroke="#035C4D" stroke-linejoin="round"/>
        <path d="M12.833 4.8125V11.8125" stroke="#035C4D" stroke-linecap="round"/>
    </g>
    <defs>
        <clipPath id="clip0_1404_263">
            <rect width="14" height="14" fill="white"/>
        </clipPath>
    </defs>
</svg>
