<svg width="16" height="16" viewBox="0 0 16 16" fill="none" xmlns="http://www.w3.org/2000/svg">
<g clip-path="url(#clip0_1916_4320)">
<path d="M0.341719 7.90428C0.341344 9.24859 0.695344 10.5612 1.36847 11.7182L0.277344 15.6712L4.35434 14.6104C5.48199 15.2196 6.74543 15.5387 8.02934 15.5388H8.03272C12.2712 15.5388 15.7213 12.1166 15.7232 7.91029C15.724 5.87203 14.9247 3.95538 13.4726 2.51339C12.0207 1.07153 10.0898 0.277053 8.03241 0.276123C3.79347 0.276123 0.343531 3.69814 0.341781 7.90428" fill="url(#paint0_linear_1916_4320)"/>
<path d="M0.066875 7.90177C0.0664375 9.29445 0.433125 10.654 1.13025 11.8524L0 15.9471L4.22319 14.8484C5.38681 15.4779 6.69694 15.8098 8.03006 15.8103H8.0335C12.424 15.8103 15.9981 12.265 16 7.90809C16.0007 5.79659 15.1727 3.81104 13.6687 2.3174C12.1646 0.823938 10.1646 0.000868217 8.0335 0C3.64225 0 0.068625 3.54481 0.066875 7.90177ZM2.58194 11.646L2.42425 11.3976C1.76137 10.3518 1.4115 9.14326 1.412 7.90226C1.41337 4.28087 4.38363 1.33457 8.036 1.33457C9.80475 1.33532 11.467 2.01947 12.7172 3.26078C13.9674 4.5022 14.6554 6.15243 14.6549 7.9076C14.6533 11.529 11.683 14.4757 8.0335 14.4757H8.03088C6.84256 14.475 5.67712 14.1584 4.66075 13.56L4.41888 13.4177L1.91275 14.0696L2.58194 11.646Z" fill="url(#paint1_linear_1916_4320)"/>
<path d="M6.04223 4.59831C5.8931 4.26944 5.73616 4.2628 5.59435 4.25704C5.47823 4.25208 5.34548 4.25245 5.21285 4.25245C5.0801 4.25245 4.86441 4.302 4.6821 4.49952C4.4996 4.69722 3.98535 5.17499 3.98535 6.14671C3.98535 7.11843 4.69866 8.0576 4.7981 8.1895C4.89766 8.32116 6.17516 10.3791 8.19841 11.1708C9.87991 11.8287 10.2221 11.6978 10.587 11.6649C10.952 11.632 11.7648 11.1872 11.9306 10.726C12.0965 10.2649 12.0965 9.86956 12.0468 9.78696C11.997 9.70466 11.8643 9.65524 11.6652 9.55651C11.4662 9.45778 10.4875 8.97989 10.305 8.91397C10.1225 8.84811 9.98985 8.81524 9.8571 9.01301C9.72435 9.21046 9.34316 9.65524 9.22698 9.78696C9.11091 9.91899 8.99473 9.93542 8.79573 9.83663C8.59654 9.73753 7.95548 9.52922 7.19491 8.85642C6.60316 8.33288 6.20366 7.68637 6.08754 7.4886C5.97141 7.29115 6.0751 7.18411 6.17491 7.08569C6.26435 6.99719 6.37404 6.85505 6.47366 6.73977C6.57291 6.62442 6.60604 6.54212 6.67241 6.4104C6.73885 6.27856 6.7056 6.16321 6.65591 6.06442C6.60604 5.96563 6.21923 4.98882 6.04223 4.59831Z" fill="white"/>
</g>
<defs>
<linearGradient id="paint0_linear_1916_4320" x1="8.00025" y1="15.6712" x2="8.00025" y2="0.276123" gradientUnits="userSpaceOnUse">
<stop stop-color="#1FAF38"/>
<stop offset="1" stop-color="#60D669"/>
</linearGradient>
<linearGradient id="paint1_linear_1916_4320" x1="8" y1="15.9471" x2="8" y2="0" gradientUnits="userSpaceOnUse">
<stop stop-color="#F9F9F9"/>
<stop offset="1" stop-color="white"/>
</linearGradient>
<clipPath id="clip0_1916_4320">
<rect width="16" height="16" fill="white"/>
</clipPath>
</defs>
</svg>
